<svg xmlns="http://www.w3.org/2000/svg" xmlns:xlink="http://www.w3.org/1999/xlink" width="500" zoomAndPan="magnify" viewBox="0 0 375 374.999991" height="500" preserveAspectRatio="xMidYMid meet" version="1.0"><defs><g/><clipPath id="6da659133a"><path d="M 12 99.75 L 106 99.75 L 106 234 L 12 234 Z M 12 99.75 " clip-rule="nonzero"/></clipPath></defs><g clip-path="url(#6da659133a)"><path fill="#ff5757" d="M 49.414062 233.289062 C 51.574219 233.140625 53.679688 232.710938 55.6875 231.933594 C 42.417969 229.0625 38.84375 214.214844 41.75 202.277344 C 43.371094 195.613281 47.566406 189.691406 51.695312 184.5 C 57.710938 176.9375 59.472656 168.851562 61.5625 159.707031 C 60.59375 166.382812 61.464844 173.300781 65.113281 179.074219 C 67.609375 183.019531 71.113281 186.210938 73.875 189.972656 C 79.042969 197.007812 80.882812 205.664062 80.320312 214.367188 C 79.453125 227.867188 70.554688 232.226562 68.175781 231.332031 C 79.015625 235.40625 105.558594 226.859375 105.941406 198.523438 C 106.054688 190.050781 104.445312 177.40625 98.851562 171.066406 C 101.113281 175.433594 99.054688 187.589844 94.042969 190.101562 C 94.332031 177.597656 89.832031 169.839844 85.753906 161.054688 C 81.777344 152.492188 79.121094 142.613281 82.917969 133.519531 C 80.539062 135.464844 79.703125 139.351562 78.265625 141.984375 C 76.320312 145.535156 74.167969 148.984375 71.835938 152.292969 C 73.441406 133.941406 68.542969 115.078125 58.214844 99.851562 C 61.589844 104.824219 61.570312 111.46875 59.84375 117.230469 C 58.113281 122.992188 54.882812 128.15625 52.101562 133.484375 C 49.320312 138.8125 46.675781 143.464844 46.84375 149.476562 C 44.761719 140.648438 45.320312 131.210938 48.4375 122.695312 C 39.8125 128.355469 38.34375 140.269531 38.15625 150.613281 C 37.96875 160.957031 37.671875 172.625 30.101562 179.640625 C 31.933594 168.9375 32.351562 159.636719 27.835938 156.074219 C 28.828125 164.046875 25.703125 171.34375 20.382812 177.347656 C 7.066406 192.371094 11.390625 214.335938 21.722656 224.484375 C 28.027344 230.679688 39.855469 233.9375 49.414062 233.289062 " fill-opacity="1" fill-rule="nonzero"/></g><g fill="#ff5757" fill-opacity="1"><g transform="translate(138.302472, 216.174185)"><g><path d="M 23.546875 -12.625 L 45.21875 -12.625 L 45.21875 0 L 2.96875 0 L 2.890625 -10.375 L 22.375 -30.484375 C 23.78125 -31.890625 24.910156 -33.304688 25.765625 -34.734375 C 26.628906 -36.160156 27.0625 -37.394531 27.0625 -38.4375 C 27.0625 -39.6875 26.628906 -40.632812 25.765625 -41.28125 C 24.910156 -41.9375 23.703125 -42.265625 22.140625 -42.265625 C 20.015625 -42.265625 17.640625 -41.648438 15.015625 -40.421875 C 12.390625 -39.203125 9.75 -37.5 7.09375 -35.3125 L 1.015625 -47.015625 C 9.117188 -52.578125 16.96875 -55.359375 24.5625 -55.359375 C 28.300781 -55.359375 31.640625 -54.742188 34.578125 -53.515625 C 37.515625 -52.296875 39.828125 -50.59375 41.515625 -48.40625 C 43.203125 -46.226562 44.046875 -43.710938 44.046875 -40.859375 C 44.046875 -37.992188 43.125 -35.066406 41.28125 -32.078125 C 39.4375 -29.085938 36.800781 -25.878906 33.375 -22.453125 Z M 23.546875 -12.625 "/></g></g></g><g fill="#ff5757" fill-opacity="1"><g transform="translate(190.461572, 216.174185)"><g><path d="M 39.140625 -54.65625 L 55.28125 -54.65625 L 35.625 -17.3125 L 35.625 0 L 19.421875 0 L 19.421875 -17 L -0.625 -54.65625 L 15.59375 -54.65625 L 27.515625 -32.359375 Z M 39.140625 -54.65625 "/></g></g></g><g fill="#ff5757" fill-opacity="1"><g transform="translate(249.559544, 216.174185)"><g><path d="M 31.265625 -55.671875 C 36.878906 -55.671875 41.957031 -54.445312 46.5 -52 C 51.050781 -49.5625 54.613281 -46.195312 57.1875 -41.90625 C 59.757812 -37.613281 61.046875 -32.789062 61.046875 -27.4375 C 61.046875 -22.039062 59.757812 -17.171875 57.1875 -12.828125 C 54.613281 -8.484375 51.050781 -5.078125 46.5 -2.609375 C 41.957031 -0.140625 36.878906 1.09375 31.265625 1.09375 C 25.597656 1.09375 20.503906 -0.140625 15.984375 -2.609375 C 11.460938 -5.078125 7.914062 -8.484375 5.34375 -12.828125 C 2.769531 -17.171875 1.484375 -22.039062 1.484375 -27.4375 C 1.484375 -32.789062 2.769531 -37.613281 5.34375 -41.90625 C 7.914062 -46.195312 11.460938 -49.5625 15.984375 -52 C 20.503906 -54.445312 25.597656 -55.671875 31.265625 -55.671875 Z M 31.5 -42.1875 C 29.101562 -42.1875 26.878906 -41.535156 24.828125 -40.234375 C 22.773438 -38.929688 21.140625 -37.148438 19.921875 -34.890625 C 18.703125 -32.628906 18.09375 -30.117188 18.09375 -27.359375 C 18.09375 -24.609375 18.703125 -22.085938 19.921875 -19.796875 C 21.140625 -17.515625 22.773438 -15.707031 24.828125 -14.375 C 26.878906 -13.050781 29.101562 -12.390625 31.5 -12.390625 C 33.84375 -12.390625 36.015625 -13.050781 38.015625 -14.375 C 40.015625 -15.707031 41.582031 -17.503906 42.71875 -19.765625 C 43.863281 -22.023438 44.4375 -24.554688 44.4375 -27.359375 C 44.4375 -30.117188 43.863281 -32.628906 42.71875 -34.890625 C 41.582031 -37.148438 40.023438 -38.929688 38.046875 -40.234375 C 36.078125 -41.535156 33.894531 -42.1875 31.5 -42.1875 Z M 31.5 -42.1875 "/></g></g></g><g fill="#ff5757" fill-opacity="1"><g transform="translate(316.453999, 216.174185)"><g><path d="M 19.953125 -22.609375 C 19.953125 -19.546875 20.835938 -17.078125 22.609375 -15.203125 C 24.378906 -13.328125 26.585938 -12.390625 29.234375 -12.390625 C 31.835938 -12.390625 33.96875 -13.3125 35.625 -15.15625 C 37.289062 -17.007812 38.125 -19.492188 38.125 -22.609375 L 38.125 -54.65625 L 54.34375 -54.65625 L 54.34375 -22.609375 C 54.34375 -17.828125 53.316406 -13.65625 51.265625 -10.09375 C 49.210938 -6.53125 46.285156 -3.773438 42.484375 -1.828125 C 38.691406 0.117188 34.273438 1.09375 29.234375 1.09375 C 24.140625 1.09375 19.671875 0.117188 15.828125 -1.828125 C 11.984375 -3.773438 9.007812 -6.53125 6.90625 -10.09375 C 4.800781 -13.65625 3.75 -17.828125 3.75 -22.609375 L 3.75 -54.65625 L 19.953125 -54.65625 Z M 19.953125 -22.609375 "/></g></g></g></svg>