<svg xmlns="http://www.w3.org/2000/svg" xmlns:xlink="http://www.w3.org/1999/xlink" width="500" zoomAndPan="magnify" viewBox="0 0 375 374.999991" height="500" preserveAspectRatio="xMidYMid meet" version="1.0"><defs><clipPath id="4cd1433481"><path d="M 112.5 112.5 L 262.5 112.5 L 262.5 262.5 L 112.5 262.5 Z M 112.5 112.5 " clip-rule="nonzero"/></clipPath><clipPath id="215a1ba04d"><path d="M 143.246094 136.792969 L 231.746094 136.792969 L 231.746094 238.042969 L 143.246094 238.042969 Z M 143.246094 136.792969 " clip-rule="nonzero"/></clipPath></defs><g clip-path="url(#4cd1433481)"><path fill="#ffbd59" d="M 187.5 262.5 C 146.066406 262.5 112.5 228.703125 112.5 187.5 C 112.5 146.296875 146.066406 112.5 187.5 112.5 C 228.933594 112.5 262.5 146.066406 262.5 187.5 C 262.5 228.933594 228.703125 262.5 187.5 262.5 Z M 187.5 117.128906 C 148.609375 117.128906 117.128906 148.609375 117.128906 187.5 C 117.128906 226.390625 148.609375 257.871094 187.5 257.871094 C 226.390625 257.871094 257.871094 226.390625 257.871094 187.5 C 257.871094 148.609375 226.15625 117.128906 187.5 117.128906 Z M 187.5 117.128906 " fill-opacity="1" fill-rule="nonzero"/></g><g clip-path="url(#215a1ba04d)"><path fill="#ffbd59" d="M 154.261719 216.085938 L 189.574219 216.085938 C 192.371094 216.085938 195.027344 215.566406 197.433594 214.628906 C 199.933594 213.65625 202.179688 212.230469 204.058594 210.464844 C 205.84375 208.78125 207.285156 206.777344 208.269531 204.566406 C 209.210938 202.449219 209.730469 200.132812 209.730469 197.710938 C 209.730469 195.292969 209.210938 192.972656 208.269531 190.859375 C 207.285156 188.644531 205.84375 186.640625 204.058594 184.957031 C 202.179688 183.191406 199.933594 181.765625 197.433594 180.792969 C 195.023438 179.855469 192.367188 179.339844 189.574219 179.339844 L 180.808594 179.339844 L 182.660156 181.1875 L 182.753906 181.285156 C 184.839844 183.421875 185.882812 186.1875 185.882812 188.949219 C 185.882812 191.757812 184.808594 194.570312 182.660156 196.710938 L 182.5625 196.800781 C 180.429688 198.882812 177.65625 199.925781 174.886719 199.925781 C 172.078125 199.925781 169.265625 198.851562 167.121094 196.710938 C 167.117188 196.710938 148.140625 177.871094 146.523438 176.148438 C 145.519531 175.152344 144.703125 173.960938 144.140625 172.628906 C 143.578125 171.3125 143.265625 169.867188 143.265625 168.359375 C 143.265625 166.855469 143.578125 165.410156 144.140625 164.085938 C 144.71875 162.726562 145.558594 161.507812 146.597656 160.496094 L 167.113281 140.007812 C 169.257812 137.863281 172.074219 136.792969 174.886719 136.792969 C 177.703125 136.792969 180.515625 137.863281 182.660156 140.007812 C 184.804688 142.148438 185.882812 144.960938 185.882812 147.769531 C 185.882812 150.574219 184.808594 153.386719 182.660156 155.527344 L 180.808594 157.378906 L 189.574219 157.378906 C 195.1875 157.378906 200.558594 158.449219 205.476562 160.386719 C 210.59375 162.402344 215.210938 165.351562 219.09375 169.003906 C 223.0625 172.742188 226.265625 177.214844 228.453125 182.179688 L 228.488281 182.265625 C 230.574219 187.035156 231.726562 192.253906 231.726562 197.710938 C 231.726562 203.203125 230.558594 208.449219 228.453125 213.238281 L 228.453125 213.242188 C 226.265625 218.207031 223.066406 222.679688 219.09375 226.417969 C 215.210938 230.074219 210.59375 233.023438 205.476562 235.039062 C 200.558594 236.972656 195.183594 238.046875 189.574219 238.046875 L 147.425781 238.046875 C 146.277344 238.046875 145.238281 237.578125 144.488281 236.828125 L 144.382812 236.710938 C 143.691406 235.96875 143.265625 234.976562 143.265625 233.890625 L 143.265625 220.234375 C 143.265625 219.097656 143.734375 218.0625 144.488281 217.308594 L 144.488281 217.300781 C 145.238281 216.550781 146.277344 216.085938 147.425781 216.085938 Z M 160.246094 219.347656 L 147.425781 219.347656 C 147.183594 219.347656 146.960938 219.449219 146.800781 219.609375 C 146.636719 219.765625 146.539062 219.988281 146.539062 220.234375 L 146.539062 233.890625 C 146.539062 234.113281 146.617188 234.3125 146.75 234.46875 L 146.800781 234.515625 C 146.960938 234.679688 147.183594 234.777344 147.425781 234.777344 L 189.574219 234.777344 C 194.773438 234.777344 199.746094 233.789062 204.289062 232 C 209.007812 230.144531 213.277344 227.417969 216.855469 224.046875 C 220.503906 220.609375 223.449219 216.496094 225.457031 211.929688 C 227.386719 207.554688 228.449219 202.75 228.449219 197.710938 C 228.449219 192.703125 227.398438 187.925781 225.492188 183.566406 L 225.457031 183.496094 C 223.449219 178.929688 220.503906 174.816406 216.855469 171.378906 C 213.273438 168.003906 209.007812 165.28125 204.289062 163.425781 C 199.746094 161.636719 194.773438 160.648438 189.574219 160.648438 L 176.859375 160.648438 C 176.441406 160.648438 176.023438 160.488281 175.703125 160.167969 C 175.066406 159.53125 175.066406 158.5 175.703125 157.859375 L 180.347656 153.222656 C 181.855469 151.71875 182.609375 149.746094 182.609375 147.769531 C 182.609375 145.796875 181.859375 143.820312 180.347656 142.320312 C 178.839844 140.816406 176.867188 140.0625 174.886719 140.0625 C 172.910156 140.0625 170.933594 140.8125 169.425781 142.320312 L 148.886719 162.8125 C 148.144531 163.53125 147.546875 164.394531 147.140625 165.351562 C 146.753906 166.265625 146.539062 167.28125 146.539062 168.359375 C 146.539062 169.4375 146.753906 170.457031 147.140625 171.371094 C 147.53125 172.289062 148.101562 173.125 148.808594 173.828125 L 169.425781 194.402344 C 170.929688 195.910156 172.910156 196.660156 174.886719 196.660156 C 176.835938 196.660156 178.78125 195.933594 180.277344 194.484375 L 180.347656 194.40625 C 181.855469 192.902344 182.609375 190.929688 182.609375 188.953125 C 182.609375 187.011719 181.882812 185.066406 180.429688 183.578125 L 175.726562 178.886719 C 175.417969 178.589844 175.226562 178.171875 175.226562 177.710938 C 175.226562 176.808594 175.957031 176.078125 176.859375 176.078125 L 189.574219 176.078125 C 192.765625 176.078125 195.820312 176.675781 198.609375 177.761719 C 201.515625 178.890625 204.121094 180.542969 206.292969 182.589844 C 208.398438 184.570312 210.097656 186.933594 211.257812 189.546875 C 212.378906 192.074219 213 194.835938 213 197.714844 C 213 200.59375 212.378906 203.355469 211.257812 205.882812 C 210.097656 208.496094 208.398438 210.859375 206.292969 212.839844 C 204.121094 214.886719 201.515625 216.539062 198.609375 217.667969 C 195.820312 218.753906 192.765625 219.351562 189.574219 219.351562 Z M 160.246094 219.347656 " fill-opacity="1" fill-rule="nonzero"/></g></svg>