<svg xmlns="http://www.w3.org/2000/svg" viewBox="0 0 255.997 255.997" width="50" height="50" fill-rule="evenodd"><path d="M196.031 60.031C177.97 41.97 153.97 32 128.406 32c-52.687 0-95.593 42.875-95.593 95.562a95.055 95.055 0 0012.75 47.782L32 224.875l50.688-13.312c13.937 7.625 29.687 11.625 45.687 11.656h.031c52.688 0 95.563-42.875 95.594-95.594 0-25.531-9.937-49.531-27.969-67.594zm-67.625 147.031h-.031A79.448 79.448 0 0187.937 196l-2.906-1.719-30.094 7.875 8.032-29.312-1.875-3c-7.969-12.656-12.156-27.281-12.156-42.281 0-43.782 35.656-79.407 79.5-79.407 21.218 0 41.156 8.282 56.156 23.282 15 15.03 23.25 34.968 23.25 56.187 0 43.813-35.656 79.438-79.438 79.438zm43.563-59.5c-2.375-1.187-14.125-6.968-16.313-7.75-2.187-.812-3.781-1.187-5.375 1.188-1.593 2.406-6.156 7.781-7.562 9.375-1.375 1.563-2.781 1.781-5.156.594-2.407-1.188-10.094-3.719-19.22-11.875-7.093-6.313-11.905-14.156-13.28-16.531-1.407-2.407-.157-3.688 1.03-4.875 1.095-1.063 2.407-2.782 3.595-4.188 1.187-1.375 1.593-2.375 2.406-3.969.781-1.593.375-3-.219-4.187-.594-1.188-5.375-12.969-7.375-17.75-1.937-4.656-3.906-4-5.375-4.094-1.375-.062-2.969-.062-4.562-.062-1.594 0-4.188.593-6.375 3-2.188 2.375-8.344 8.156-8.344 19.906 0 11.75 8.562 23.125 9.75 24.719 1.188 1.562 16.844 25.687 40.812 36.03 5.688 2.47 10.126 3.938 13.594 5.032 5.719 1.813 10.938 1.563 15.063.969 4.593-.688 14.125-5.781 16.125-11.375 1.968-5.563 1.968-10.344 1.375-11.344-.594-1-2.188-1.594-4.594-2.812z" fill="#fff" font-family="none" font-weight="none" font-size="none" text-anchor="none"/></svg>