<svg xmlns="http://www.w3.org/2000/svg" width="50" height="50"><defs><clipPath id="a"><path d="M20.133 11.762H30.34v14.37H20.133zm0 0"/></clipPath></defs><path d="M0 0h50v50H0z"/><g clip-path="url(#a)"><path d="M24.215 26.125c.23-.016.46-.063.676-.145-1.434-.312-1.82-1.906-1.504-3.19.172-.72.629-1.356 1.074-1.915.648-.813.84-1.684 1.066-2.664-.105.719-.011 1.46.383 2.082.27.426.649.77.95 1.172.558.758.753 1.687.695 2.625-.094 1.453-1.055 1.922-1.313 1.824 1.172.438 4.04-.48 4.082-3.527.012-.914-.164-2.274-.765-2.953.242.468.02 1.777-.524 2.046.035-1.347-.453-2.18-.894-3.125-.43-.921-.715-1.984-.305-2.96-.258.207-.348.625-.504.91-.21.383-.441.754-.695 1.11a8.724 8.724 0 00-1.473-5.642c.367.536.363 1.25.176 1.868-.188.62-.535 1.175-.836 1.75-.3.574-.586 1.074-.567 1.718a4.992 4.992 0 01.172-2.879c-.933.61-1.093 1.891-1.113 3-.02 1.114-.05 2.368-.871 3.125.2-1.152.246-2.152-.242-2.535.105.856-.23 1.64-.809 2.285-1.437 1.618-.969 3.98.149 5.07.68.669 1.957 1.02 2.992.95" fill="#ff5757"/></g><path d="M21.844 29.586h1.793l-2.184 4.152v1.922h-1.805v-1.887l-2.222-4.187h1.8l1.325 2.477zm5.687-.113a3.5 3.5 0 011.696.41 3.013 3.013 0 011.617 2.726c0 .602-.145 1.145-.43 1.625-.285.48-.684.86-1.187 1.137a3.5 3.5 0 01-1.696.41c-.629 0-1.195-.136-1.695-.41a3.095 3.095 0 01-1.184-1.137 3.125 3.125 0 01-.425-1.625c0-.593.14-1.129.425-1.605.29-.477.68-.852 1.184-1.121.5-.274 1.066-.41 1.695-.41zm.028 1.5c-.266 0-.512.074-.739.218-.23.141-.41.34-.547.59a1.734 1.734 0 00-.203.84c0 .305.067.586.203.84.137.254.317.453.547.602.227.144.473.218.739.218.261 0 .503-.074.722-.218.223-.149.399-.348.524-.598.129-.254.191-.535.191-.844a1.82 1.82 0 00-.191-.84 1.461 1.461 0 00-.516-.59 1.314 1.314 0 00-.73-.218zm6.151 2.175c0 .34.099.614.294.825a.97.97 0 00.738.308.914.914 0 00.707-.304c.188-.207.278-.48.278-.829v-3.562h1.804v3.562c0 .532-.113.997-.343 1.391a2.32 2.32 0 01-.973.918c-.422.215-.914.324-1.473.324-.566 0-1.062-.11-1.492-.324a2.4 2.4 0 01-.992-.918c-.23-.394-.348-.86-.348-1.39v-3.563h1.8zm0 0" fill="#fff"/><path d="M35.047 37.418c.027-.023.062-.043.086-.07.234-.176.441-.403.648-.688.008-.023.055-.137.035-.137-.011 0-.02.004-.039.032-.152.164-.355.425-.507.57a1.576 1.576 0 01-.426.27c-.04.015-.082.027-.121.054-.043.02-.086.02-.133.031-.02.008-.04.008-.059.008a.335.335 0 01-.105-.02.055.055 0 01-.031-.034c-.02-.07-.028-.145-.04-.211-.003-.02.004-.04.004-.055a.12.12 0 00.012-.05c0-.048.016-.095.027-.141.082-.278.215-.606.418-.813.032-.035.07-.062.094-.102.07-.097.172-.187.27-.25l.03.012c.013 0 .02.008.024.012.032.023.036.059.032.094-.016.058-.055.101-.086.152a1.085 1.085 0 00-.032.043c-.02.031-.011.059.024.059h.082c.027.007.047-.008.059-.024.039-.035.058-.082.082-.129.058-.125-.024-.265-.145-.297a.333.333 0 00-.09-.015c-.02 0-.031 0-.05.008-.012.007-.02.007-.032.007h-.031a.177.177 0 00-.09.032 1.585 1.585 0 00-.434.492 2.612 2.612 0 00-.261.613c-.02.094-.043.188-.043.285 0 .133.035.203.09.317.043.093.125.129.214.16.008.008.02 0 .028.008.07 0 .144-.012.203-.051.008-.004.02-.004.031-.008.047-.016.09-.031.121-.074.02-.02.04-.031.059-.047.031-.02.058-.023.082-.043zm-.527-1.07c.003-.012.007-.016.011-.024.008.008.008.02.008.028 0 .011-.008.015-.016.02h-.003c-.012-.009-.008-.02 0-.024zm-.09.195c0-.016-.004-.027.015-.035 0 .015 0 .031-.015.035zm-.055.094c0-.008.004-.016.016-.016 0 .012 0 .016-.004.02 0 .007 0 .007-.008.011 0-.004-.004-.011-.004-.015zm.11-.188c-.005.012-.012.016-.016.016v-.02c0-.004.004-.004.004-.011.007.007.011.011.011.015zm-.137.29c0 .007 0 .011.004.015l-.012.012c0-.004 0-.012-.004-.02 0 0 .004 0 .012-.008zm.011-.051c.008.003.008.007.012.011-.004 0-.004.008-.012.008 0-.008-.004-.012-.004-.016zm.192-.395c-.004-.008 0-.008.008-.008 0 .004 0 .004-.008.008zm-.059.102l.008.011h-.008zm0 0" fill="#ff5757"/><path d="M36.371 36.98l.016-.015c.008-.012.008-.043 0-.031a.066.066 0 00-.024.023c0 .004.008.016.008.02-.055.007-.055.062-.078.078-.012 0-.016.004-.016.011.004 0 .008-.007.016-.007-.008.007-.012.015-.016.02v-.009l-.015.012s0 .008.004.012c-.059.09-.25.308-.344.328-.012.02-.059-.047-.086-.047-.008-.012-.008-.02-.016-.027a.177.177 0 01-.02-.133c0-.024 0-.05.005-.07.004-.067 0-.13.023-.192.008-.012.008-.02-.004-.031a.043.043 0 010-.031c.024-.028.024-.078.031-.118.008-.043.004-.086.032-.12-.008-.051.027-.079.035-.13.012-.046.047-.191.066-.234.078-.168.153-.344.184-.527.008-.047-.027-.114-.07-.137-.012 0-.02-.004-.032-.004h-.054a.072.072 0 00-.028.008c-.05.078-.078.164-.11.25-.019.07-.038.144-.062.21-.011.036-.027.063-.035.095-.039.132-.074.265-.113.394-.012.059-.031.11-.035.156-.004.094-.02.188-.028.282a.554.554 0 00.008.21c.004.012.004.024.012.04a.183.183 0 00.047.101c.031.035.058.074.09.11a.198.198 0 00.101.074.124.124 0 00.055.008.365.365 0 00.25-.13c.035-.03.023-.042.055-.081.03-.028.07-.133.054-.18 0-.012-.004-.02.004-.02.012.004.016.016.024.02.011-.016-.004-.035 0-.05a.21.21 0 01.027-.052c.008-.027.031-.054.031-.086zm-.258-1.742c.032.024.07.032.11.051.02-.008.043-.02.07-.027.012-.004.02-.02.02-.032.011-.046.003-.093.023-.136.004-.004 0-.008-.004-.016-.012-.008-.031-.02-.047-.02-.004 0-.008 0-.012.008a.831.831 0 00-.132.098.086.086 0 00-.036.04c-.003.007 0 .026.008.034zm.164 1.84v.012c0 .004-.004.004-.004.008 0-.008 0-.016.004-.02zm0 0" fill="#ff5757"/><path d="M37.488 34.059c-.004-.008-.008-.008-.011-.008 0 .008.003.011.003.011.004 0 .008-.003.008-.003zm-.191.593c-.004.02-.004.032-.012.032s-.012 0-.015-.008l-.016-.004c.074-.203.144-.356.223-.508.011-.027.027-.043.03-.07.013-.035.028-.067.032-.102a.11.11 0 000-.05c-.008-.036-.031-.067-.043-.094-.012-.02-.078-.04-.094-.035-.004 0-.004 0-.011.003-.075.051-.098.13-.125.211-.051.145-.09.203-.133.352-.008.016-.02.039-.028.059l-.05.183v.012c.008 0 .02-.012.02-.02 0-.02.007-.039.023-.058a.024.024 0 01.02-.016c.007 0 .019.004.027.016l-.028.078c-.02.004-.043.004-.062.004v-.004c-.008.004-.008.004-.012.004-.04.004-.078.011-.113.011-.02 0-.04 0-.055.004-.035.008-.055.008-.086.008-.078 0-.164.024-.238.028-.035 0-.063.003-.094.003h-.023l-.043.008c-.028 0-.036.028-.047.063a.217.217 0 00.008.11c0 .03.02.054.039.05.004 0 .015-.004.023 0 .07-.016.129-.035.188-.035h.02c.034-.004.066-.008.1-.008.02 0 .051-.008.075-.012.012 0 .016 0 .02-.004-.005-.008-.008-.023-.02-.031.012-.008.02-.008.031-.008.031-.004.067 0 .102-.015.015 0 .035 0 .054-.004v.015c0 .004 0 .008-.004.012-.007.012-.011.016-.007.023-.043.118-.203.524-.196.563.024-.008.211-.52.215-.535v-.02c.028 0 .031-.015.012-.035 0-.008.004-.02.008-.027.008 0 .015 0 .027-.008.008-.004.02-.004.035-.004-.008.012-.011.016-.011.02-.004.004-.004.011-.004.015v.004h-.012c-.016 0-.027.016.008.027-.035.122-.207.56-.22.606-.023.082-.038.16-.065.234-.028.078-.133.477-.18.547-.004.012-.004.031-.008.047-.012.063-.039.121-.047.188 0 .007-.004.011-.008.02l-.02.066c-.015.066-.042.117-.038.183 0 .004 0 .004-.004.008-.031.055-.035.113-.047.172-.008.054-.027.11-.023.164 0 .008-.004.02-.012.027 0-.004-.004-.008-.004-.008-.016-.097.02-.191.02-.289v-.008a.266.266 0 00.038-.144c0-.047.09-.367.106-.414.004-.016.102-.344.086-.379-.012.07-.125.441-.145.5-.047.152-.148.484-.148.64v.036c-.031.078-.016.16-.016.246 0 .047.032.156.078.18.047.023.079.062.118.097.015.016.03.02.047.02.015 0 .023-.004.039-.008l.136-.059c.059-.03.114-.054.16-.097-.003-.008-.007-.008-.007-.016l.015-.012v.008c0-.012.004-.015.016-.023a.31.31 0 01.078-.082c.008-.008.012-.008.023-.008a.05.05 0 01.024.004c.008 0 .012.004.02.004.007 0 .011-.004.015-.008.004-.012 0-.016-.008-.02-.008-.007-.011-.011-.011-.015 0-.016.023-.02.035-.02h.007a.03.03 0 00.016.004.009.009 0 00.004-.016c-.008-.023-.004-.035.016-.046a.468.468 0 00.105-.11c.008-.008.008-.02.008-.035-.004-.016.004-.02.02-.023.011-.004.023-.004.035-.004.035-.008.05-.028.05-.059.012-.008.016-.016.016-.031v-.063h-.016c0-.011.008-.015.016-.02v.02c.027-.007.031-.007.035-.035h-.02c-.003.008-.003.016-.015.016 0-.012.008-.016.016-.02.007-.011.011-.011.02-.015l.01-.035c.02-.024.04-.051.067-.063 0-.012.012-.016.02-.02-.004.012-.008.02-.02.024 0 .023-.011.039-.02.055.036 0 .055-.028.071-.051.004-.004 0-.02-.016-.024h-.015c.012-.023.031-.05.054-.058.008.004 0 .02.016.008l-.016-.008c0-.02.012-.035.028-.051l.09-.098c.054-.074.11-.14.172-.207.015-.023.015-.035.007-.035-.007 0-.015.008-.03.02l-.18.203c-.079.097-.153.191-.243.273l-.078.086c-.023.04-.055.067-.082.098l-.144.144c-.016.012-.028.032-.043.043-.047.024-.075.059-.11.094a2.115 2.115 0 01-.273.211.394.394 0 01-.09.047c-.004 0-.008.008-.02.008-.02 0-.03-.016-.039-.035a.252.252 0 01-.02-.106v-.113c0-.024 0-.059.005-.082.015-.035.015-.074.015-.11a.23.23 0 01.016-.09c.008-.027.02-.05.02-.074l.019-.109c.004-.043.023-.078.04-.113.007-.032.007-.055.019-.082a.186.186 0 01.02-.07c.003-.016.038-.137.038-.153 0-.02.004-.035.016-.055a8.65 8.65 0 00.12-.379c.017-.062.036-.125.056-.183.035-.121.254-.715.297-.832l.042-.13a.064.064 0 00.036.009c.007 0 .02 0 .023-.008.008 0 .023-.008.035-.004.004.012.008.012.012.012.012 0 .016-.008.023-.008.004-.008.008-.02.012-.02s.004.008.012.012c.008.02.008.02.02.008l-.02-.008c.004-.016.015-.012.02-.012v.012c.003-.016.003-.016.003.004l.024-.02a.06.06 0 01.03-.007h.017c.03-.008.062-.012.093-.028.012 0 .024-.011.032-.008.046.004.09-.03.132-.03.04-.009.07-.028.094-.036a.372.372 0 00.149-.05c.015-.012.023-.012.039-.012a.12.12 0 01.05.011 1.225 1.225 0 01-.129.082.05.05 0 00.024.004c.004 0 .016 0 .023-.004.024-.02.043-.015.051-.035h.012c.008 0 .07-.035.07-.047.012-.043-.004-.07 0-.113.008-.016-.004-.031-.012-.035-.007-.004-.015-.012-.02-.012-.007 0-.01.008-.015.02-.015.027-.035.035-.05.035-.024 0-.04.02-.06.031-.007.012-.023.024-.038.024-.004-.004-.008-.004-.016-.004-.011 0-.023.007-.039.007a.027.027 0 01-.031.016h-.016c-.015 0-.027 0-.03.012a.093.093 0 01-.036.011l-.012-.003c-.008-.008-.015-.004-.027.004-.02.015-.043.027-.059.019-.004-.004-.008-.004-.015-.004-.004 0-.012.004-.02.012 0 .012-.031.02-.047.02-.011 0-.02-.008-.031-.012-.004.004-.02.004-.027.02-.016.015-.036.019-.059.019-.008.011-.016.015-.027.004-.008-.008-.02.007-.024.007 0 .004-.004.004-.008.004h-.031c-.004.008-.015.008-.023.008a.234.234 0 01-.047-.008c.008-.011.008-.023.016-.023.003-.008.015-.012.019-.02-.004-.007-.008-.007-.016-.007a.058.058 0 00-.027.011c-.004 0-.004 0-.004.008s.004.016.004.02zm-.535.778l-.078.254c-.004.015 0 .035 0 .054.011 0 .015-.011.015-.02.024-.07.04-.144.063-.21a.242.242 0 00.015-.09zm.484 1.543a.256.256 0 01.07-.075v.04l-.03.023c-.013.012-.028.012-.04.012zm.582-2.391c.008-.004.012-.008.016-.008.008 0 .02.008.035.016-.012.008-.027.008-.035.012-.02 0-.051.011-.074.011h-.008c.02-.023.043-.023.066-.031zm-.48.203c-.07 0 .054.02.054.02h.008v-.016l-.004-.008c-.02 0-.035 0-.058.004zm-.414.07a.11.11 0 00-.059-.015c-.016 0-.023 0-.035.004a.075.075 0 01-.004.015l.004.004c.035 0 .058-.004.094-.008zm.472-.253a.06.06 0 00.032.007c.007 0 .011-.007.019-.02-.012-.007-.02-.007-.027-.007-.02 0-.04.008-.059.012 0 0-.004.004-.004.008l.004.007a.03.03 0 00.016.008c.011 0 .015-.008.02-.015zm-.722 1.136c-.024.024-.028.059-.036.094-.003 0 .008.004.008.008.028-.028.028-.063.028-.102zm.933-1.09c-.008.012-.02.02-.027.02-.008 0-.016-.008-.02-.016.004-.011.012-.011.02-.011s.012 0 .023.007a.025.025 0 01.024-.02c.011 0 .015 0 .031.009-.016.004-.031.015-.04.015-.007 0-.007 0-.01-.004zm.078-.125c.016.012.02.012.032.012.015 0 .027-.008.046-.02v-.007c-.039 0-.039 0-.078.015zm.012.114c-.012-.004-.016 0-.031 0h-.008a.03.03 0 01.008-.02c.011-.004.02-.008.027-.008.008-.007.02 0 .02.004 0 .008-.012.02-.016.024zm-.605.062c-.008 0-.016.008-.024.008-.012 0-.012-.008-.012-.016-.004-.004-.004-.015 0-.015.008 0 .016 0 .02-.004h.027zm.128-.394c0 .011-.003.02-.02.027h-.007c0-.008-.004-.02-.004-.023 0-.016.004-.02.016-.02.012-.004.02.004.015.016zm.278.273c-.008-.004-.012-.004-.024-.004a.034.034 0 00-.023.016c.008.008.02.02.023.012.012-.004.02-.012.02-.024.004 0 .012.004.012-.008-.008.004-.008.008-.008.008zm.297.129c.015 0 .023-.008.035-.008.004 0 .008-.011.008-.011-.008-.004-.004-.004-.008-.004-.004-.008-.016-.008-.031 0-.004 0 0 .007-.004.023zm-.211-.152c0 .008 0 .008.004.015.011-.008.023 0 .03-.015-.007-.004-.007-.016-.007-.016-.008 0-.02 0-.023.012zm.27.105v.016l.003.008c.008-.008.012 0 .02 0 0 0 .008 0 .011-.008v-.016zm-.212.074a.014.014 0 00.012.008c.008 0 .027-.012.047-.015 0 0 0-.012-.004-.004-.012-.008-.031.004-.043.007zm-.195-.043c.004-.015.008-.023.012-.023 0 0 .008.004.011.016.004.004.004.004.004.007-.015.008-.02.004-.027 0zm-.098 2.262h-.015c-.012 0-.02 0-.028-.02.016 0 .036 0 .043.02zm-.468-2.242c-.004 0-.008.004-.02.004-.012.008-.016 0-.016-.004.004-.004.012-.016.016-.016.012 0 .016.004.02.016zm.707.039c-.008.004-.024-.004-.028-.008-.008 0-.015 0-.008.008 0 .004.008.016.012.012.004 0 .016.008.024-.012zm.28-.16c.005-.012.009-.02.02-.02.004 0 .004 0 .008.004-.004.016-.008.02-.011.02-.008 0-.012-.004-.016-.004zm-.89.11c.016-.009.024-.013.035-.013l-.011.012c-.004.008-.012.008-.024.012zm.473.07c-.012 0-.02 0-.023.011v.004c.003.008.007.016.007 0 .012 0 .012 0 .016-.012zm.055-.114c.004 0 .004.02.004.02v.008h-.016v-.024c0-.004 0-.004.004-.004zm-.762.184c0-.012.004-.012.008-.012.008 0 .011.004.02.012-.005.004-.009.008-.012.008-.008 0-.012-.004-.016-.008zm.797-.184c.004-.008.011-.004.02-.004-.008.016-.008.02-.012.02 0 0-.004-.004-.008-.016zm-.168.051c0 .004-.012.004-.016.008l-.004-.004v-.012c.008-.008.012-.004.02.008zm-1.008 2.496l-.012.008c0-.004-.004-.008-.004-.016l.016-.011zm.96-.324c0-.012.013-.02.024-.02 0 .008-.011.02-.023.02zm-.608-2.047c.007-.004.011 0 .027.008h-.004c-.008.004-.012.004-.023.004zm.5 2.16c0-.012.007-.015.02-.02 0 .008-.013.02-.02.02zm-.32.43c.007 0 .015 0 .015-.012h-.016zm.71-2.672c.004-.008.004-.016.004-.016 0-.004 0 0-.004 0s0 .016 0 .016zm-.168 2.035c-.008 0-.011.008-.02.02.012-.004.02-.012.02-.02zm-.133.113c.008-.011.012-.02.02-.02 0 .009-.008.013-.02.02zm.102-.078c.008 0 .012-.008.012-.015zm.488-2.246c.012-.015.016-.015.02 0v-.004c-.004.008-.008.004-.02.004zm-.113-.066c-.004-.004-.012-.008-.02 0 .008.008.016.012.02 0zm-.176.242c-.008-.004-.02-.016-.02 0 .005 0 .012.012.02 0zm-.347-.02c.003-.003.007-.015.015-.007 0-.008 0 0 .004.004l-.004.003c-.008-.003-.012.004-.015 0zm.199 2.036c-.008 0-.012.007-.02.02a.061.061 0 00.02-.02zm-.688-1.926c0-.016.012-.012.016-.008-.004.012-.008.008-.016.008zm-.082 0c-.004 0 0 .008 0 .008h-.011c0-.004 0-.016.007-.008zm1.242-.281c-.004.011-.007.015-.007.015 0-.015 0-.015.007-.015zm-.148-.051c.008 0 .012.008.016.008v-.008s0-.004-.004-.004c0 0-.004 0-.012.004zm-.25.176c-.004-.024 0-.016.008-.024a.035.035 0 01-.008.024zm.324-.204c0 .004.012.016.016.004-.004-.004-.004-.004-.016-.004zm-.746 2.618c-.008-.008 0-.008.004-.008 0 .004 0 .004-.004.008zm.094-.094c-.012-.008 0-.008.004-.008 0 .004 0 .004-.004.008zm-.281.394c-.004 0-.008-.003-.008-.003v.007c0-.004.004-.004.008-.004zm1.14-2.828c-.004-.008-.004-.011 0-.008zm-1.363.262c0 .012-.008.012-.012.012 0-.004 0-.012.012-.012zm-.328 2.336c.012.008-.004.008-.008.008.004 0 .004-.004.008-.008zm.96-2.566s-.007 0-.011.007h.016c-.004 0-.004-.011-.004-.007zm.083.097s-.004 0-.008-.004c.004 0 .008 0 .008.004zm.379.008c0-.008-.004-.008-.012 0h-.004c.004 0 .004.004.004.004zm-.164 1.871c-.008 0-.004 0-.004-.004h.004zm-.235-1.828s-.004 0-.004-.004v.008c.004.008.004 0 .004-.004zm.098.023c0-.003 0-.003-.004-.003l.004.011v-.008zm-.367 2.301c.008.008 0 .008-.004.008.004-.004.004-.004.004-.008zm-.317-2.219c-.004 0-.004 0-.004.008 0 0 .004 0 .004-.008zm1.028-.359s-.012-.012-.004.004zm-.922 2.914h-.004v-.008zm.722-.847c0 .003 0 .011-.007.011.007 0 .011 0 .007-.011zm-.015.015c-.004 0-.012 0 0 .012zm-.09-2.004v.008zm.207.043c0-.004.004 0 .004 0zm-.332 2.207h-.008v-.004zm-.492.57c-.004 0-.004-.007-.004-.007zm1.008-2.738s.004 0 .004-.004c0 0-.004-.011-.004.004zm-.086-.16c0-.008.004.004 0-.012zm-.657-.125l-.004-.004zm.2 2.45c.007.003 0 .003 0 .003zm.066-2.231s.004 0 .004-.008zm-.371 2.543l-.004.004zm.324-.328l.008-.004zm-.504.617v.008zm.36-2.692c0 .004.004.004.004 0zm0 0" fill="#ff5757"/><path d="M38.266 36.852c.004-.008-.004-.02-.016-.024v-.008c0-.011 0-.02.012-.02 0 0 .004.005.008.005.015.004.035.008.035.039v.093c0 .028.015.06.02.086.003.145.093.243.198.332.004.004.02.004.024.008.008.004.02.012.027.012.067 0 .262-.164.305-.207.02-.016.012-.04.027-.055a.352.352 0 00.047-.039c.008-.004.008-.015 0-.015h-.016a2.31 2.31 0 01-.265.164.173.173 0 01-.086.02c-.016 0-.031 0-.043-.005a.336.336 0 01-.066-.207c0-.258.128-.8.23-1.008a.288.288 0 00.031-.187.145.145 0 00-.074-.027.079.079 0 00-.043.011c-.008.004-.016.004-.02.004-.011 0-.015 0-.027-.004-.066-.035-.136-.035-.21-.035a.511.511 0 00-.313.113c-.04.036-.078.082-.13.102-.003.004-.007.008-.007.012a.146.146 0 01-.066.07c-.04.02-.028.063-.063.09-.105.09-.176.242-.238.371a.117.117 0 00-.016.031c-.09.27-.133.438-.133.73a.31.31 0 00.106.243l.035.035a.099.099 0 00.059.023c.023-.003.054-.003.078-.02.074-.034.246-.148.285-.21.012-.016.039-.02.05-.04.012-.03.04-.054.06-.081-.016-.04.034-.059.038-.086.004-.031.024-.059.04-.086.007-.027.023-.05.042-.082.012-.02.028-.035.02-.059.035-.015.047-.054.055-.09zm-.657.625c-.007.003-.015.003-.027.011-.008-.011-.02-.015-.02-.02-.007-.011-.007-.027-.007-.034 0-.036 0-.07-.016-.106-.004-.008-.004-.023 0-.039.02-.066.02-.137.031-.21.008-.024.012-.056.02-.079.027-.09.043-.18.082-.266.023-.054.039-.105.062-.156.012-.02.028-.035.036-.055.02-.043.054-.078.062-.12.008-.008.008-.016.012-.02.05-.035.074-.09.12-.13.044-.034.075-.081.122-.116.07-.055.14-.11.23-.145a.408.408 0 00.133-.086c.012-.011.02-.015.028-.015.011 0 .015.004.023.015.031.024.035.04.023.074a1.008 1.008 0 00-.07.18c-.012.07-.062.235-.098.3-.046.099-.093.196-.144.302-.023.062-.066.12-.106.18-.03.058-.07.113-.097.171a1.265 1.265 0 01-.399.364zm.602-.59c.008-.004.008-.008.008-.016l.008.012c0 .004-.004.008-.008.015 0-.007-.008-.007-.008-.011zm-.559-.465h.004v.004zm.649.305h-.004v-.008zm-.664-.27v.004h-.004zm.488.594v-.012zm0 0" fill="#ff5757"/><path d="M39.223 36.434c.066.046.14.082.21.12-.019.02-.027.028-.03.044-.008.023-.016.05-.055.054-.028 0-.035.016-.051.024 0 .011-.008.023-.016.023s-.02-.004-.023-.004c-.028 0-.04.02-.047.04.004.011 0 .015-.012.015a.22.22 0 00-.094.07.136.136 0 00-.042.028c-.086.035-.149.078-.176.152-.035.043-.047.094-.086.148-.016.028-.008.059-.004.09a.49.49 0 00.148.262c.043.07.133.094.203.105a.48.48 0 00.141-.023.411.411 0 00.191-.113c.008-.012.024-.02.043-.035.102-.075.137-.09.188-.18a.474.474 0 01.059-.086c.007-.016.007-.031.02-.05.05-.075.058-.157.077-.247v-.023c-.004-.063-.058-.133-.082-.192-.012-.039-.047-.066-.074-.093-.02-.02-.016-.028 0-.04.008-.007.008-.015.023-.02.094-.042.547-.148.645-.171a.263.263 0 00.066-.023c.016-.008.016-.012.016-.016-.008-.008-.023-.02-.04-.02h-.019c-.047.028-.105.028-.156.051-.043.02-.441.102-.496.121-.023.004-.043.016-.07.032a.157.157 0 01-.059.011.149.149 0 01-.074-.023.75.75 0 01-.172-.098c-.055-.035-.063-.078-.043-.117.023-.035.055-.07.078-.113.016-.047.05-.075.11-.094a.29.29 0 00.082-.05.435.435 0 01.175-.075c.086-.004.141-.031.2-.059.023-.004.101-.02.117-.02.015 0 .039 0 .05-.003.032-.012.047-.02.047-.04 0-.023-.027-.038-.046-.05-.047-.012-.083-.027-.125-.027a.558.558 0 01-.114-.012c-.086-.012-.133-.023-.168-.023-.027 0-.05.011-.101.02-.04.01-.09.034-.13.05a.676.676 0 00-.335.305c-.035.043-.05.113-.067.164-.003.015 0 .03.016.047.024.027.055.058.055.101 0 .024.027.043.047.063zm.375.234c.015.012.015.027.02.043a.38.38 0 01-.052.27c-.097.171-.254.347-.441.421a.167.167 0 01-.063.016h-.03c-.02 0-.04 0-.067-.016-.028-.02-.028-.054-.05-.082 0 0 0-.004-.005-.011.028-.059.004-.121.028-.192a.558.558 0 01.265-.308c.012-.008.027-.02.05-.032.056-.015.099-.05.15-.086.027-.023.081-.039.117-.062.003 0 .007-.008.015-.008.024 0 .05.02.063.047zm-.215.687c-.008 0-.016 0-.008-.011 0 0-.02-.004-.012-.008.02-.059.067-.098.117-.133.008-.008-.011 0 .008.004 0 0 .016.016.004.016a3.325 3.325 0 01-.11.132zm.172-.222c-.012.015-.016.031-.035.039h-.016l-.004-.004c.004-.016.008-.035.02-.059.003-.011.035-.02.035-.011.008.011.008.015 0 .035zm-.336.324c-.004 0-.008 0-.016-.004 0-.023.02-.035.059-.035.008.035.008.035-.043.039zm.379-.398c-.004.007-.012.011-.016.011s-.004-.004-.016-.004c.012-.007.016-.015.016-.023h.012a.039.039 0 01.004.016zm-.438.41c.004-.008.004-.012.004-.012h.035c0 .004 0 .012-.008.012zm.176-.121l.008.007h-.008zm-.106.172h-.007v-.004zm0 0" fill="#ff5757"/><path d="M13.54 34.207h2.405v1.402h-4.691l-.008-1.148 2.164-2.234c.152-.157.277-.313.375-.473.094-.156.145-.293.145-.41a.383.383 0 00-.145-.317.674.674 0 00-.402-.109c-.238 0-.5.07-.793.207-.29.133-.582.324-.875.566l-.676-1.3c.899-.618 1.77-.926 2.613-.926.414 0 .786.07 1.11.203.324.137.582.328.77.566.187.243.28.524.28.84 0 .317-.101.645-.304.973-.203.336-.5.691-.88 1.07zm0 0" fill="#fff"/></svg>