<svg xmlns="http://www.w3.org/2000/svg" width="100" height="100"><defs><clipPath id="a"><path d="M40.266 23.523h20.41v28.743h-20.41zm0 0"/></clipPath></defs><path d="M0 0h100v100H0z"/><g clip-path="url(#a)"><path d="M48.43 52.25a4.725 4.725 0 001.355-.293c-2.87-.617-3.64-3.812-3.015-6.379.351-1.433 1.257-2.707 2.152-3.824 1.3-1.625 1.68-3.367 2.133-5.336-.211 1.437-.024 2.926.765 4.168.54.848 1.297 1.535 1.895 2.344 1.117 1.515 1.515 3.375 1.394 5.25-.187 2.902-2.113 3.84-2.625 3.648 2.34.875 8.078-.96 8.16-7.058.028-1.82-.32-4.543-1.53-5.907.488.942.042 3.555-1.04 4.094.063-2.687-.91-4.355-1.793-6.246-.86-1.844-1.433-3.969-.613-5.926-.512.422-.691 1.258-1.004 1.824a23.649 23.649 0 01-1.39 2.215 17.511 17.511 0 00-2.942-11.281c.727 1.07.723 2.5.348 3.742-.371 1.238-1.07 2.348-1.672 3.492-.602 1.149-1.172 2.149-1.137 3.442-.45-1.899-.328-3.93.344-5.762-1.863 1.219-2.18 3.781-2.219 6.008-.043 2.222-.105 4.734-1.742 6.242.394-2.3.484-4.3-.492-5.07.215 1.718-.461 3.285-1.61 4.578-2.879 3.23-1.945 7.957.29 10.14 1.363 1.333 3.921 2.032 5.988 1.895" fill="#ff5757"/></g><path d="M43.684 59.172h3.586l-4.364 8.3v3.848h-3.605v-3.777l-4.45-8.371h3.602l2.652 4.953zm11.382-.222c1.246 0 2.375.269 3.387.816a6.028 6.028 0 012.375 2.242c.574.953.86 2.023.86 3.21 0 1.204-.286 2.286-.86 3.25a6.092 6.092 0 01-2.375 2.27c-1.012.551-2.14.82-3.387.82-1.257 0-2.39-.269-3.394-.82a6.087 6.087 0 01-2.363-2.27c-.575-.964-.86-2.046-.86-3.25 0-1.187.285-2.257.86-3.21a6.02 6.02 0 012.363-2.242c1.004-.547 2.137-.817 3.394-.817zm.055 3c-.531 0-1.027.144-1.484.433a3.09 3.09 0 00-1.09 1.18 3.498 3.498 0 00-.406 1.675c0 .614.136 1.172.406 1.68s.633.91 1.09 1.203c.457.297.953.442 1.484.442.52 0 1-.145 1.445-.442a3.026 3.026 0 001.047-1.195c.254-.5.383-1.063.383-1.688 0-.613-.129-1.172-.383-1.675a2.996 2.996 0 00-1.039-1.18 2.58 2.58 0 00-1.453-.434zm12.297 4.343c0 .684.195 1.234.59 1.652.39.414.883.618 1.472.618.579 0 1.051-.204 1.422-.61.368-.41.555-.965.555-1.66v-7.121h3.602v7.121c0 1.066-.227 1.992-.68 2.785-.457.79-1.11 1.399-1.953 1.832-.84.434-1.824.649-2.946.649-1.128 0-2.125-.215-2.976-.649-.86-.433-1.52-1.043-1.984-1.832-.47-.793-.7-1.719-.7-2.785v-7.121h3.598zm0 0" fill="#fff"/><path d="M70.098 74.836c.05-.047.117-.09.168-.137.472-.355.882-.804 1.296-1.375.02-.05.106-.277.067-.277-.02 0-.04.012-.078.058-.305.336-.707.856-1.012 1.141-.195.195-.598.442-.855.543a1.239 1.239 0 00-.235.106c-.09.039-.176.039-.265.07-.04.008-.079.008-.118.008a.54.54 0 01-.218-.04c-.028-.007-.047-.038-.059-.066a3.153 3.153 0 01-.078-.426c-.008-.039.012-.078.012-.105.007-.031.02-.07.02-.098 0-.101.027-.187.058-.285.156-.55.422-1.21.836-1.621.058-.07.136-.129.183-.207.14-.195.344-.375.543-.504.008.012.04.024.059.031a.1.1 0 01.05.02c.055.05.067.117.055.187-.027.118-.105.207-.164.305-.031.027-.05.059-.07.09-.04.055-.02.117.05.117h.17c.047.008.086-.02.117-.05.078-.067.117-.169.156-.255a.438.438 0 00-.285-.601c-.059-.008-.117-.028-.176-.028-.039 0-.07 0-.11.02-.019.008-.038.008-.058.008h-.058a.417.417 0 00-.188.07c-.293.195-.707.656-.863.985-.227.39-.402.793-.524 1.226-.039.188-.085.371-.085.57 0 .266.066.403.175.63.09.187.254.253.434.324.02.007.039 0 .058.007.137 0 .286-.02.403-.097.02-.012.039-.012.058-.02.098-.027.188-.058.246-.148.04-.04.079-.059.118-.086.058-.04.117-.051.168-.09zm-1.063-2.14l.031-.051c.008.02.008.039.008.058 0 .02-.008.031-.027.04h-.012c-.02-.02-.008-.04 0-.048zm-.176.39c0-.027-.011-.059.028-.066 0 .027 0 .058-.028.066zm-.109.187c0-.02.012-.027.031-.027 0 .016 0 .027-.011.04 0 .007 0 .007-.008.019 0-.012-.012-.02-.012-.032zm.219-.375c-.012.02-.02.032-.031.032v-.04c0-.007.011-.007.011-.019.008.012.02.02.02.027zm-.278.582c0 .008 0 .02.012.028l-.02.02c0-.008 0-.02-.011-.04 0 0 .012 0 .02-.008zm.032-.109c.007.012.007.02.02.031-.013 0-.013.008-.02.008 0-.008-.012-.02-.012-.027zm.382-.785c-.011-.02 0-.02.008-.02 0 .008 0 .008-.008.02zm-.117.207l.008.02h-.008zm0 0" fill="#ff5757"/><path d="M72.742 73.96c.008-.007.016-.019.028-.026.02-.032.02-.09 0-.07a.19.19 0 00-.04.05c0 .008.012.027.012.04-.11.019-.11.124-.16.155-.02 0-.027.008-.027.02.007 0 .02-.012.027-.012l-.027.043v-.023l-.032.031s0 .012.012.02c-.12.175-.504.617-.687.66-.032.039-.121-.102-.18-.102-.008-.02-.008-.039-.027-.047a.358.358 0 01-.04-.265c0-.051 0-.11.008-.149.012-.125 0-.254.051-.383.008-.02.008-.039-.012-.058a.076.076 0 010-.059c.051-.058.051-.156.059-.234.02-.09.012-.18.07-.246-.02-.098.047-.16.07-.258a3.82 3.82 0 01.126-.473 4.38 4.38 0 00.375-1.05.318.318 0 00-.149-.274c-.02 0-.039-.012-.058-.012h-.11c-.02 0-.039.012-.058.02a2.25 2.25 0 00-.215.504c-.04.136-.078.285-.13.422-.019.07-.046.117-.066.187-.082.266-.148.527-.226.785-.02.117-.059.215-.07.317-.008.183-.04.37-.059.558-.008.137-.02.274.02.422.011.02.011.05.02.078.01.078.05.149.097.207.058.067.117.149.18.215a.4.4 0 00.203.149c.03.02.07.02.109.02a.696.696 0 00.5-.267c.07-.058.05-.078.11-.156.058-.058.136-.265.109-.363 0-.02-.012-.04.007-.04.02.009.032.028.051.04.02-.031-.011-.07 0-.098.008-.039.028-.07.047-.11.02-.05.07-.108.07-.167zm-.512-3.487c.06.05.137.07.215.109.04-.02.09-.039.137-.059a.06.06 0 00.04-.058c.03-.098.01-.188.05-.278.008-.007 0-.019-.012-.027a.145.145 0 00-.086-.039c-.011 0-.02 0-.031.008a3.32 3.32 0 00-.266.195.415.415 0 00-.066.078c-.012.024 0 .063.02.07zm.325 3.687v.02c0 .007-.012.007-.012.02 0-.02 0-.032.012-.04zm0 0" fill="#ff5757"/><path d="M74.98 68.117c-.011-.012-.02-.012-.03-.012 0 .012.01.02.01.02.009 0 .02-.008.02-.008zm-.382 1.188c-.012.039-.012.058-.032.058-.007 0-.02 0-.027-.011-.012 0-.02-.008-.031-.008.148-.403.285-.707.441-1.012.031-.059.063-.09.07-.148.02-.067.047-.13.06-.196a.174.174 0 000-.11c-.02-.07-.06-.124-.09-.187-.02-.039-.157-.078-.184-.066-.012 0-.012 0-.02.008-.148.097-.2.258-.258.422-.097.285-.175.406-.265.699-.008.039-.04.078-.047.117l-.11.375v.02c.02 0 .04-.02.04-.04 0-.038.02-.078.05-.12a.044.044 0 01.04-.028c.019 0 .038.008.058.027l-.059.16a.714.714 0 01-.129.008v-.007c-.011.007-.011.007-.02.007-.077.012-.155.02-.226.02-.039 0-.078 0-.109.012-.066.02-.105.02-.176.02-.156 0-.324.038-.469.046-.07 0-.128.012-.187.012h-.05l-.09.02c-.048 0-.067.046-.087.117a.452.452 0 00.008.226c0 .059.04.11.078.098.012 0 .032-.008.051 0 .137-.028.254-.067.375-.067h.04a1.2 1.2 0 01.206-.02.89.89 0 00.145-.019c.02 0 .031 0 .039-.011-.008-.02-.02-.051-.04-.059.02-.02.04-.02.06-.02.07-.011.14 0 .206-.03.032 0 .07 0 .11-.009v.028c0 .011 0 .023-.012.031-.008.02-.02.027-.008.039-.09.234-.414 1.05-.394 1.129.05-.02.422-1.04.433-1.07v-.04c.047 0 .059-.03.02-.066 0-.023.008-.043.02-.062.007 0 .03 0 .05-.008.016-.012.035-.012.067-.012-.008.02-.02.031-.02.04-.012.01-.012.019-.012.03v.012h-.02c-.027 0-.058.028.012.047-.07.246-.414 1.121-.433 1.219-.047.156-.078.312-.137.46-.047.157-.265.954-.351 1.102-.012.02-.012.059-.024.086-.02.13-.078.246-.086.375 0 .02-.011.031-.02.04l-.038.136c-.032.129-.09.238-.079.363 0 .012 0 .012-.011.02-.059.11-.067.226-.086.344-.024.109-.063.218-.05.328 0 .02-.013.035-.02.058 0-.011-.008-.023-.008-.023-.032-.195.035-.38.035-.578v-.008c.062-.09.07-.188.082-.297 0-.086.176-.727.203-.824.012-.031.207-.688.18-.758a29.5 29.5 0 01-.297 1.004c-.086.305-.293.96-.293 1.277v.067c-.059.16-.031.324-.031.492 0 .097.058.316.156.363.09.05.16.129.238.2a.127.127 0 00.09.038c.027 0 .047-.011.078-.023l.274-.117c.117-.059.226-.106.324-.196-.008-.007-.02-.007-.02-.03l.031-.02v.011c0-.02.008-.027.028-.039.039-.07.097-.117.156-.168.02-.02.031-.02.05-.02.02 0 .032 0 .048.013.011 0 .02.007.043.007.008 0 .02-.007.027-.02.012-.019 0-.026-.02-.038-.007-.008-.019-.02-.019-.028 0-.03.05-.043.07-.043h.02c.008.012.02.012.027.012.012 0 .02-.02.012-.031-.02-.047-.012-.066.027-.098a.68.68 0 00.207-.215c.02-.02.02-.039.02-.07-.008-.027.012-.039.039-.047.02-.011.05-.011.07-.011.067-.008.098-.047.098-.118.031-.007.039-.03.039-.058v-.13h-.04c0-.019.02-.026.04-.038v.039c.05-.008.058-.008.07-.067h-.039c-.012.02-.012.028-.031.028 0-.02.012-.028.031-.04.008-.019.02-.019.04-.027l.019-.07a.431.431 0 01.136-.129c0-.02.02-.027.04-.039-.008.031-.02.04-.04.05 0 .052-.03.079-.039.106.07 0 .106-.047.137-.097.012-.008 0-.04-.031-.047h-.027a.222.222 0 01.109-.121c.008.011 0 .043.027.023l-.027-.023c0-.035.02-.067.047-.098l.187-.195a3.53 3.53 0 01.344-.414c.031-.047.031-.067.012-.067-.012 0-.031.008-.063.04l-.363.402c-.156.195-.305.382-.48.55l-.157.168c-.05.079-.11.137-.168.196l-.285.285c-.027.031-.058.07-.09.086-.086.05-.144.12-.215.187-.168.16-.351.297-.55.422-.047.043-.118.07-.176.102-.012 0-.02.008-.04.008-.038 0-.058-.028-.077-.067a.499.499 0 01-.04-.207v-.226c0-.051 0-.118.008-.168.032-.067.032-.149.032-.215 0-.07.007-.13.027-.188a.342.342 0 00.043-.148l.035-.215c.012-.09.05-.156.082-.227.02-.058.02-.109.04-.168a.505.505 0 01.038-.136c.008-.028.078-.274.078-.305a.24.24 0 01.028-.11c.023-.034.238-.706.246-.753.031-.13.07-.258.11-.375.07-.235.511-1.422.59-1.66l.085-.254c.031.008.05.008.07.008.02 0 .04 0 .051-.008.02 0 .047-.02.067-.012.011.02.023.02.03.02.02 0 .028-.008.04-.008.008-.02.02-.04.031-.04.008 0 .008.008.02.02.02.04.02.04.039.02l-.04-.02c.008-.031.028-.02.04-.02v.02c.007-.031.007-.031.007.008l.051-.04c.008-.01.028-.019.059-.019h.027a.575.575 0 00.188-.046c.031 0 .05-.032.07-.024.086.012.176-.058.266-.058.078-.02.136-.06.183-.067.063 0 .258-.07.297-.11.031-.019.047-.019.078-.019s.07.012.098.02a2.382 2.382 0 01-.254.168.1.1 0 00.047.007c.012 0 .031 0 .05-.007.04-.04.079-.032.098-.07h.02c.02 0 .148-.067.148-.098.02-.078-.011-.137 0-.227.008-.027-.011-.058-.031-.066a.054.054 0 00-.039-.02c-.008 0-.02.008-.027.04-.032.046-.07.066-.098.066-.05 0-.078.039-.121.058-.02.032-.047.051-.078.051-.008-.012-.02-.012-.028-.012-.03 0-.05.024-.078.024a.064.064 0 01-.07.027h-.031c-.028 0-.047 0-.059.02-.02.007-.047.03-.066.03-.012 0-.02-.01-.032-.01-.007-.02-.027-.013-.046.01-.04.028-.09.048-.121.04-.008-.012-.02-.012-.028-.012-.012 0-.031.012-.039.02 0 .031-.07.039-.098.039a.116.116 0 01-.058-.02c-.012.012-.043.012-.059.04-.031.03-.07.038-.12.038-.009.02-.028.032-.048.012s-.039.008-.05.008c0 .012-.008.012-.02.012h-.059c-.011.02-.03.02-.05.02a.51.51 0 01-.086-.02c.007-.02.007-.051.027-.051.012-.008.031-.02.043-.04-.012-.007-.023-.007-.031-.007-.02 0-.051.008-.059.02-.012 0-.012 0-.012.02 0 .007.012.026.012.038zm-1.07 1.55l-.16.512c-.009.031 0 .07 0 .11.019 0 .03-.02.03-.04.051-.136.079-.285.13-.425a.534.534 0 00.027-.176zm.96 3.086a.596.596 0 01.149-.148v.078l-.07.05c-.02.02-.047.02-.079.02zm1.168-4.773c.012-.012.02-.02.031-.02.02 0 .04.02.07.028-.019.02-.05.02-.07.031-.039 0-.097.02-.148.02h-.02c.04-.051.09-.051.137-.059zm-.96.402c-.137 0 .109.04.109.04h.02v-.032l-.013-.02c-.039 0-.066 0-.117.012zm-.825.137a.266.266 0 00-.121-.031c-.027 0-.047 0-.066.011a.096.096 0 01-.012.028l.012.012c.066 0 .117-.012.187-.02zm.942-.5c.03.008.05.008.058.008.02 0 .031-.008.04-.04-.02-.007-.04-.007-.048-.007a.41.41 0 00-.117.02s-.012.007-.012.019l.012.008c.008.012.02.02.027.02.02 0 .032-.02.04-.028zm-1.446 2.27c-.047.046-.058.117-.066.187-.012 0 .008.008.008.02.058-.063.058-.13.058-.207zm1.867-2.184c-.02.031-.039.039-.058.039-.008 0-.028-.008-.04-.027.012-.02.032-.02.04-.02.02 0 .031 0 .05.008.008-.027.028-.04.047-.04.02 0 .032 0 .059.02-.027.012-.059.032-.078.032-.008 0-.008 0-.02-.012zm.16-.242c.028.02.04.02.06.02.026 0 .058-.012.097-.044v-.007c-.078 0-.078 0-.156.03zm.016.222c-.015-.007-.027 0-.055 0h-.023c0-.02.012-.027.023-.039.02-.007.04-.02.047-.02.02-.007.04 0 .04.013 0 .02-.02.039-.032.046zm-1.207.13c-.02 0-.027.011-.047.011s-.02-.012-.02-.031c-.011-.012-.011-.031 0-.031.009 0 .028 0 .04-.008h.047zm.254-.798c0 .032-.008.04-.035.06h-.012c0-.02-.008-.04-.008-.048 0-.031.008-.039.028-.039.02-.012.039.008.027.027zm.563.551c-.02-.008-.032-.008-.051-.008-.008 0-.028.008-.047.028.02.02.039.039.047.031.02-.012.043-.031.043-.05.008 0 .02.011.02-.02-.012.011-.012.02-.012.02zm.59.258c.027 0 .046-.012.066-.012.011 0 .023-.03.023-.03-.023-.009-.011-.009-.023-.009-.008-.011-.028-.011-.055 0-.012 0 0 .02-.012.051zm-.422-.309c0 .024 0 .024.007.032.02-.008.051 0 .059-.032-.008-.007-.008-.027-.008-.027-.02 0-.039 0-.05.02zm.539.22v.027l.011.011c.008-.011.02 0 .04 0 0 0 .007 0 .019-.011v-.028zm-.422.148a.03.03 0 00.02.007c.019 0 .058-.02.097-.03 0 0 0-.016-.012-.009-.015-.007-.055.008-.086.02zm-.395-.09c.012-.031.02-.051.031-.051l.02.031c.008.008.008.008.008.02-.028.02-.04.012-.059 0zm-.195 4.52h-.031c-.016 0-.04 0-.047-.04.031 0 .066 0 .078.04zm-.934-4.481c-.011 0-.02.012-.039.012-.02.007-.027 0-.027-.012.008-.008.015-.027.027-.027.02 0 .028.007.04.027zm1.414.078c-.02.012-.047-.008-.058-.02-.008 0-.028 0-.008.02 0 .012.008.031.02.02.007 0 .027.02.046-.02zm.563-.324c.008-.02.02-.04.039-.04.008 0 .008 0 .02.012-.012.028-.02.04-.032.04-.008 0-.02-.012-.027-.012zm-1.781.226c.03-.02.05-.03.07-.03l-.02.03c-.011.012-.03.012-.05.02zm.945.137c-.02 0-.04 0-.05.02v.011c.01.02.019.028.019 0 .02 0 .02 0 .03-.02zm.11-.227c.007 0 .007.04.007.04v.011h-.027v-.039c0-.011 0-.011.008-.011zm-1.528.364c0-.016.012-.016.023-.016.008 0 .02.008.04.016-.012.011-.02.02-.032.02-.008 0-.02-.008-.031-.02zm1.594-.364c.011-.019.03-.007.039-.007-.008.027-.008.039-.02.039l-.02-.031zm-.332.102c0 .008-.02.008-.032.02l-.011-.012v-.02c.023-.02.03-.007.043.012zm-2.016 4.988l-.02.02c0-.008-.011-.02-.011-.027l.031-.032zm1.926-.648c0-.02.02-.04.039-.04 0 .02-.02.04-.04.04zm-1.219-4.086c.012-.008.02 0 .047.008h-.008c-.008.011-.02.011-.039.011zm.992 4.312c0-.02.02-.027.04-.039 0 .02-.02.04-.04.04zm-.636.868c.019 0 .027 0 .027-.032h-.028zm1.421-5.348c.012-.02.012-.027.012-.027 0-.012 0 0-.012 0-.007 0 0 .027 0 .027zm-.332 4.07c-.02 0-.03.02-.039.04.02-.012.04-.02.04-.04zm-.265.223c.008-.02.02-.04.039-.04 0 .02-.02.032-.04.04zm.195-.156c.02 0 .031-.008.031-.028zm.984-4.489c.02-.03.028-.03.04 0v-.011c-.012.02-.02.011-.04.011zm-.226-.128c-.012-.012-.031-.02-.04 0 .009.007.028.02.04 0zm-.356.48c-.02-.008-.039-.027-.039 0 .012 0 .02.02.04 0zm-.695-.04c.008-.01.02-.026.027-.019 0-.007 0 0 .012.008l-.012.012c-.007-.012-.02.012-.027 0zm.402 4.067c-.02 0-.03.024-.039.043a.085.085 0 00.04-.043zm-1.375-3.851c0-.028.02-.016.028-.008-.008.02-.02.008-.028.008zm-.168 0c-.011 0 0 .02 0 .02h-.02c0-.008 0-.028.009-.02zm2.485-.559a.1.1 0 01-.02.031c0-.03 0-.03.02-.03zm-.293-.097c.008 0 .02.007.031.007v-.007s0-.012-.012-.012c0 0-.011 0-.02.012zm-.5.343c-.012-.039 0-.031.008-.039 0 .028-.008.04-.008.04zm.648-.402c0 .008.02.027.028.008-.008-.008-.008-.008-.028-.008zm-1.496 5.238c-.02-.02 0-.02.012-.02 0 .008 0 .008-.012.02zm.188-.187c-.02-.02 0-.02.011-.02 0 .008 0 .008-.011.02zm-.559.785c-.012 0-.02-.008-.02-.008v.016c0-.008.008-.008.02-.008zm2.277-5.66c-.007-.008-.007-.02 0-.008zm-2.73.531c0 .02-.012.02-.02.02 0-.012 0-.02.02-.02zm-.648 4.668c.02.02-.008.02-.02.02.012 0 .012-.012.02-.02zm1.914-5.129s-.008 0-.016.008h.027c-.011 0-.011-.02-.011-.008zm.168.195s-.008 0-.02-.007c.012 0 .02 0 .02.007zm.757.012c0-.012-.011-.012-.02 0h-.01c.01 0 .01.008.01.008zm-.324 3.742c-.02 0-.012 0-.012-.011h.012zm-.472-3.656s-.008 0-.008-.008v.02c.007.008.007 0 .007-.012zm.199.05c0-.01 0-.01-.012-.01l.012.019v-.008zm-.739 4.598c.02.02 0 .02-.011.02.011-.008.011-.008.011-.02zm-.628-4.441c-.012 0-.012 0-.012.02 0 0 .012 0 .012-.02zm2.054-.719s-.031-.02-.011.012zm-1.847 5.828h-.012v-.011zm1.441-1.691c0 .012 0 .02-.008.02.008 0 .02 0 .008-.02zm-.027.031c-.012 0-.02 0 0 .02zm-.176-4.008v.02zm.41.086c0-.007.012 0 .012 0zm-.668 4.414h-.008v-.011zm-.98 1.141c-.012 0-.012-.012-.012-.012zm2.011-5.477s.012 0 .012-.007c0 0-.012-.02-.012.007zm-.164-.324c0-.008.008.012 0-.02zm-1.32-.246l-.008-.008zm.406 4.895c.008.011 0 .011 0 .011zm.125-4.461s.012 0 .012-.008zm-.734 5.09l-.012.011zm.648-.657l.008-.011zm-1.011 1.239v.007zm.714-5.387c0 .012.012.012.012 0zm0 0" fill="#ff5757"/><path d="M76.531 73.707c.012-.02-.008-.039-.027-.05v-.02c0-.02 0-.04.02-.04 0 0 .007.012.019.012.027.008.066.02.066.079v.183c0 .063.032.121.043.18.008.285.184.48.391.656.008.012.039.012.05.02.02.011.04.02.06.02.124 0 .519-.325.609-.411.039-.031.02-.078.047-.11a.452.452 0 00.097-.078c.012-.011.012-.03 0-.03h-.027c-.176.12-.344.237-.531.323a.36.36 0 01-.176.04c-.031 0-.059 0-.09-.008a.703.703 0 01-.129-.414c0-.508.258-1.602.465-2.012a.57.57 0 00.059-.375c-.051-.027-.098-.059-.149-.059a.14.14 0 00-.09.032c-.008.007-.027.007-.039.007-.02 0-.027 0-.047-.007-.136-.07-.277-.07-.422-.07a.99.99 0 00-.632.226c-.078.066-.157.156-.254.195-.008.012-.02.02-.02.031a.287.287 0 01-.125.137c-.082.04-.062.129-.129.176-.207.187-.355.492-.472.746a.17.17 0 00-.04.059c-.175.543-.265.875-.265 1.464 0 .188.07.356.215.48l.07.071c.031.031.067.05.117.05.051-.01.11-.01.16-.042.145-.066.489-.293.567-.422.02-.027.078-.039.098-.078.03-.059.078-.106.12-.156-.03-.078.067-.117.079-.176a.442.442 0 01.078-.168.588.588 0 01.09-.168c.02-.04.047-.066.039-.117.066-.031.086-.11.105-.176zm-1.316 1.246c-.008.012-.028.012-.047.02-.023-.02-.04-.028-.04-.04-.019-.019-.019-.046-.019-.066 0-.07 0-.14-.03-.207-.013-.02-.013-.05 0-.078.038-.14.038-.277.058-.422.02-.05.031-.11.039-.16.058-.176.09-.363.168-.527.047-.11.078-.22.129-.317.02-.039.047-.07.066-.11.04-.085.11-.155.129-.245.008-.008.008-.028.02-.04.097-.066.148-.175.246-.253.078-.07.148-.168.234-.235.148-.109.285-.218.46-.285a.82.82 0 00.267-.18c.03-.019.039-.027.058-.027.02 0 .031.008.05.028.06.05.071.078.04.148-.047.117-.11.234-.137.363a2.56 2.56 0 01-.199.598c-.086.2-.184.394-.281.602-.051.128-.14.246-.219.363-.059.117-.137.226-.195.344-.196.316-.492.53-.797.726zm1.21-1.18c.009-.007.009-.02.009-.027l.02.02c0 .007-.009.02-.02.027 0-.008-.008-.008-.008-.02zm-1.12-.933h.007v.012zm1.297.61h-.012v-.009zm-1.329-.54v.008h-.007zm.973 1.188v-.02zm0 0" fill="#ff5757"/><path d="M78.45 72.871c.124.09.273.156.421.234a.281.281 0 00-.07.09c-.008.051-.028.098-.11.11-.046 0-.066.027-.097.047 0 .02-.02.05-.028.05-.02 0-.039-.011-.05-.011-.059 0-.079.039-.098.082.012.015 0 .027-.02.027-.085.027-.136.09-.187.137a.325.325 0 00-.086.058c-.168.07-.297.157-.355.305-.067.09-.086.188-.168.297-.028.058-.02.117-.008.176.047.207.136.382.293.53.09.138.265.188.414.208.097 0 .207-.02.273-.05.149-.048.297-.11.383-.227.023-.02.05-.04.09-.067.207-.148.277-.18.375-.355.027-.07.078-.13.117-.176.02-.031.02-.059.04-.098.097-.148.116-.316.155-.492v-.05c-.007-.126-.117-.266-.168-.383-.02-.079-.086-.137-.144-.188-.04-.04-.031-.059 0-.078.02-.02.02-.027.047-.04.187-.089 1.094-.292 1.289-.343a.514.514 0 00.137-.047c.03-.012.03-.02.03-.031a.126.126 0 00-.081-.04h-.04c-.097.06-.214.06-.312.099-.09.039-.883.207-.992.246a.324.324 0 00-.137.058.277.277 0 01-.117.031.272.272 0 01-.148-.05 1.48 1.48 0 01-.344-.196c-.11-.07-.129-.16-.09-.238.05-.066.11-.137.156-.223.032-.09.098-.148.22-.187a.459.459 0 00.163-.098.834.834 0 01.356-.148c.168-.012.273-.07.394-.117.047-.012.203-.04.234-.04.028 0 .079 0 .098-.011.07-.02.098-.04.098-.078 0-.051-.059-.078-.098-.098-.086-.031-.156-.058-.246-.058-.078 0-.148-.012-.227-.02-.175-.031-.265-.05-.332-.05-.058 0-.109.019-.207.038-.078.02-.175.07-.253.098-.305.14-.532.344-.68.61-.07.09-.098.226-.13.335-.007.028 0 .059.032.086.051.063.106.121.106.207 0 .051.062.09.101.13zm.745.461c.028.031.028.059.04.09a.806.806 0 01-.098.539c-.2.344-.512.7-.887.844-.04.011-.078.03-.125.03h-.059c-.039 0-.082 0-.14-.03-.047-.035-.047-.106-.098-.164 0 0 0-.012-.008-.02.059-.117.008-.246.059-.383.078-.238.293-.523.531-.62.02-.02.047-.04.098-.06.105-.038.195-.109.293-.175.058-.051.168-.078.238-.13.008 0 .02-.007.027-.007.051 0 .11.04.13.086zm-.433 1.375c-.008 0-.028 0-.008-.02 0 0-.04-.007-.031-.019.039-.117.136-.195.234-.266.023-.007-.02 0 .023.012 0 0 .028.027.008.027-.07.082-.136.168-.226.266zm.343-.441c-.02.03-.027.058-.066.078h-.031L79 74.336c.008-.031.02-.07.04-.121.007-.016.065-.035.065-.016.02.016.02.028 0 .067zm-.668.648c-.007 0-.019 0-.027-.008 0-.05.04-.07.117-.07.008.07.008.07-.09.078zm.758-.797c-.011.012-.02.02-.03.02-.009 0-.009-.008-.028-.008.02-.012.027-.031.027-.04h.02c.011.009.011.028.011.028zm-.875.817c.008-.008.008-.02.008-.02h.07c0 .012 0 .02-.02.02zm.356-.235l.008.008h-.008zm-.219.344h-.008v-.012zm0 0" fill="#ff5757"/><path d="M27.078 68.414h4.813v2.805h-9.383l-.016-2.301 4.324-4.465c.313-.312.563-.625.75-.941.192-.32.29-.59.29-.825 0-.277-.098-.488-.29-.632-.187-.145-.457-.215-.8-.215-.477 0-1 .137-1.586.406-.582.27-1.164.649-1.754 1.133l-1.348-2.594c1.797-1.234 3.54-1.855 5.223-1.855.832 0 1.57.136 2.222.41.653.273 1.165.648 1.54 1.133.375.484.562 1.043.562 1.68 0 .632-.203 1.28-.61 1.945-.41.664-.995 1.375-1.761 2.136zm0 0" fill="#fff"/></svg>