<svg xmlns="http://www.w3.org/2000/svg" xmlns:xlink="http://www.w3.org/1999/xlink" width="500" zoomAndPan="magnify" viewBox="0 0 375 374.999991" height="500" preserveAspectRatio="xMidYMid meet" version="1.0"><defs><g/><clipPath id="630191ea35"><path d="M 151 88.210938 L 227.535156 88.210938 L 227.535156 196 L 151 196 Z M 151 88.210938 " clip-rule="nonzero"/></clipPath></defs><rect x="-37.5" width="450" fill="#ffffff" y="-37.499999" height="449.999989" fill-opacity="1"/><rect x="-37.5" width="450" fill="#ffffff" y="-37.499999" height="449.999989" fill-opacity="1"/><rect x="-37.5" width="450" fill="#000000" y="-37.499999" height="449.999989" fill-opacity="1"/><g clip-path="url(#630191ea35)"><path fill="#ff5757" d="M 181.605469 195.933594 C 183.351562 195.8125 185.0625 195.46875 186.6875 194.839844 C 175.929688 192.523438 173.035156 180.546875 175.390625 170.917969 C 176.703125 165.539062 180.105469 160.765625 183.453125 156.574219 C 188.328125 150.476562 189.757812 143.949219 191.449219 136.574219 C 190.664062 141.960938 191.371094 147.542969 194.332031 152.199219 C 196.351562 155.382812 199.195312 157.957031 201.433594 160.988281 C 205.621094 166.667969 207.109375 173.648438 206.65625 180.667969 C 205.953125 191.558594 198.738281 195.074219 196.8125 194.355469 C 205.597656 197.640625 227.113281 190.746094 227.421875 167.886719 C 227.515625 161.054688 226.210938 150.855469 221.675781 145.738281 C 223.511719 149.261719 221.839844 159.070312 217.777344 161.09375 C 218.015625 151.007812 214.367188 144.75 211.058594 137.664062 C 207.835938 130.753906 205.683594 122.789062 208.761719 115.449219 C 206.832031 117.019531 206.15625 120.15625 204.988281 122.28125 C 203.414062 125.144531 201.667969 127.925781 199.777344 130.59375 C 201.082031 115.789062 197.109375 100.574219 188.738281 88.292969 C 191.472656 92.304688 191.457031 97.664062 190.054688 102.3125 C 188.65625 106.957031 186.035156 111.125 183.78125 115.421875 C 181.527344 119.722656 179.382812 123.472656 179.519531 128.324219 C 177.832031 121.203125 178.285156 113.589844 180.808594 106.71875 C 173.820312 111.285156 172.628906 120.894531 172.480469 129.238281 C 172.324219 137.582031 172.085938 146.996094 165.945312 152.65625 C 167.433594 144.023438 167.773438 136.519531 164.113281 133.644531 C 164.914062 140.078125 162.382812 145.960938 158.070312 150.804688 C 147.277344 162.925781 150.78125 180.640625 159.15625 188.832031 C 164.265625 193.828125 173.855469 196.457031 181.605469 195.933594 " fill-opacity="1" fill-rule="nonzero"/></g><g fill="#ffffff" fill-opacity="1"><g transform="translate(131.204495, 267.444635)"><g><path d="M 32.609375 -45.546875 L 46.0625 -45.546875 L 29.6875 -14.421875 L 29.6875 0 L 16.171875 0 L 16.171875 -14.15625 L -0.515625 -45.546875 L 13 -45.546875 L 22.9375 -26.96875 Z M 32.609375 -45.546875 "/></g></g></g><g fill="#ffffff" fill-opacity="1"><g transform="translate(180.451308, 267.444635)"><g><path d="M 26.046875 -46.390625 C 30.722656 -46.390625 34.957031 -45.367188 38.75 -43.328125 C 42.539062 -41.296875 45.507812 -38.492188 47.65625 -34.921875 C 49.800781 -31.347656 50.875 -27.332031 50.875 -22.875 C 50.875 -18.363281 49.800781 -14.300781 47.65625 -10.6875 C 45.507812 -7.070312 42.539062 -4.234375 38.75 -2.171875 C 34.957031 -0.117188 30.722656 0.90625 26.046875 0.90625 C 21.328125 0.90625 17.082031 -0.117188 13.3125 -2.171875 C 9.550781 -4.234375 6.597656 -7.070312 4.453125 -10.6875 C 2.304688 -14.300781 1.234375 -18.363281 1.234375 -22.875 C 1.234375 -27.332031 2.304688 -31.347656 4.453125 -34.921875 C 6.597656 -38.492188 9.550781 -41.296875 13.3125 -43.328125 C 17.082031 -45.367188 21.328125 -46.390625 26.046875 -46.390625 Z M 26.25 -35.140625 C 24.257812 -35.140625 22.40625 -34.597656 20.6875 -33.515625 C 18.976562 -32.441406 17.613281 -30.960938 16.59375 -29.078125 C 15.582031 -27.191406 15.078125 -25.097656 15.078125 -22.796875 C 15.078125 -20.503906 15.582031 -18.40625 16.59375 -16.5 C 17.613281 -14.59375 18.976562 -13.085938 20.6875 -11.984375 C 22.40625 -10.878906 24.257812 -10.328125 26.25 -10.328125 C 28.195312 -10.328125 30.003906 -10.878906 31.671875 -11.984375 C 33.335938 -13.085938 34.644531 -14.582031 35.59375 -16.46875 C 36.550781 -18.351562 37.03125 -20.460938 37.03125 -22.796875 C 37.03125 -25.097656 36.550781 -27.191406 35.59375 -29.078125 C 34.644531 -30.960938 33.347656 -32.441406 31.703125 -33.515625 C 30.054688 -34.597656 28.238281 -35.140625 26.25 -35.140625 Z M 26.25 -35.140625 "/></g></g></g><g fill="#ffffff" fill-opacity="1"><g transform="translate(236.195, 267.444635)"><g><path d="M 16.625 -18.84375 C 16.625 -16.28125 17.359375 -14.21875 18.828125 -12.65625 C 20.304688 -11.101562 22.148438 -10.328125 24.359375 -10.328125 C 26.523438 -10.328125 28.300781 -11.09375 29.6875 -12.625 C 31.070312 -14.164062 31.765625 -16.238281 31.765625 -18.84375 L 31.765625 -45.546875 L 45.28125 -45.546875 L 45.28125 -18.84375 C 45.28125 -14.851562 44.425781 -11.375 42.71875 -8.40625 C 41.007812 -5.445312 38.570312 -3.15625 35.40625 -1.53125 C 32.25 0.09375 28.566406 0.90625 24.359375 0.90625 C 20.117188 0.90625 16.394531 0.09375 13.1875 -1.53125 C 9.976562 -3.15625 7.5 -5.445312 5.75 -8.40625 C 4 -11.375 3.125 -14.851562 3.125 -18.84375 L 3.125 -45.546875 L 16.625 -45.546875 Z M 16.625 -18.84375 "/></g></g></g><g fill="#ff5757" fill-opacity="1"><g transform="translate(220.562047, 295.363447)"><g><path d="M 13.847656 -0.839844 C 14.265625 -1.257812 14.855469 -1.59375 15.273438 -2.015625 C 19.300781 -5.035156 22.828125 -8.894531 26.351562 -13.761719 C 26.519531 -14.183594 27.273438 -16.113281 26.9375 -16.113281 C 26.769531 -16.113281 26.601562 -16.027344 26.265625 -15.609375 C 23.664062 -12.757812 20.226562 -8.308594 17.625 -5.875 C 15.945312 -4.195312 12.503906 -2.097656 10.324219 -1.257812 C 9.652344 -1.007812 8.980469 -0.753906 8.308594 -0.335938 C 7.554688 0 6.796875 0 6.042969 0.25 C 5.707031 0.335938 5.371094 0.335938 5.035156 0.335938 C 4.449219 0.335938 3.777344 0.25 3.1875 0 C 2.9375 -0.0820312 2.769531 -0.335938 2.683594 -0.585938 C 2.351562 -1.761719 2.183594 -3.019531 2.015625 -4.195312 C 1.929688 -4.53125 2.097656 -4.867188 2.097656 -5.121094 C 2.183594 -5.371094 2.265625 -5.707031 2.265625 -5.957031 C 2.265625 -6.796875 2.519531 -7.554688 2.769531 -8.390625 C 4.113281 -13.089844 6.378906 -18.714844 9.902344 -22.238281 C 10.40625 -22.828125 11.078125 -23.328125 11.496094 -24 C 12.671875 -25.679688 14.433594 -27.191406 16.113281 -28.28125 C 16.195312 -28.199219 16.449219 -28.113281 16.617188 -28.03125 C 16.785156 -28.03125 16.953125 -27.945312 17.035156 -27.863281 C 17.539062 -27.441406 17.625 -26.855469 17.539062 -26.265625 C 17.289062 -25.261719 16.617188 -24.503906 16.113281 -23.664062 C 15.859375 -23.414062 15.691406 -23.164062 15.523438 -22.910156 C 15.191406 -22.40625 15.359375 -21.902344 15.945312 -21.902344 C 16.113281 -21.902344 16.28125 -21.902344 16.449219 -21.902344 C 16.785156 -21.902344 17.121094 -21.902344 17.371094 -21.902344 C 17.792969 -21.820312 18.125 -22.070312 18.378906 -22.324219 C 19.050781 -22.910156 19.386719 -23.75 19.722656 -24.503906 C 20.726562 -26.6875 19.386719 -29.035156 17.289062 -29.625 C 16.785156 -29.707031 16.28125 -29.875 15.777344 -29.875 C 15.441406 -29.875 15.191406 -29.875 14.855469 -29.707031 C 14.6875 -29.625 14.519531 -29.625 14.351562 -29.625 C 14.183594 -29.625 14.015625 -29.625 13.847656 -29.625 C 13.257812 -29.539062 12.671875 -29.371094 12.253906 -29.035156 C 9.734375 -27.359375 6.210938 -23.414062 4.867188 -20.644531 C 2.9375 -17.289062 1.425781 -13.847656 0.417969 -10.15625 C 0.0820312 -8.558594 -0.335938 -6.964844 -0.335938 -5.285156 C -0.335938 -3.019531 0.25 -1.847656 1.175781 0.0820312 C 1.929688 1.679688 3.355469 2.265625 4.867188 2.851562 C 5.035156 2.9375 5.203125 2.851562 5.371094 2.9375 C 6.546875 2.9375 7.804688 2.769531 8.8125 2.097656 C 8.980469 2.015625 9.148438 2.015625 9.316406 1.929688 C 10.15625 1.679688 10.910156 1.425781 11.414062 0.671875 C 11.75 0.335938 12.085938 0.167969 12.421875 -0.0820312 C 12.921875 -0.417969 13.425781 -0.503906 13.847656 -0.839844 Z M 4.785156 -19.132812 C 4.867188 -19.300781 4.953125 -19.386719 5.035156 -19.554688 C 5.121094 -19.386719 5.121094 -19.21875 5.121094 -19.050781 C 5.121094 -18.882812 5.035156 -18.796875 4.867188 -18.714844 L 4.785156 -18.714844 C 4.617188 -18.882812 4.699219 -19.050781 4.785156 -19.132812 Z M 3.273438 -15.777344 C 3.273438 -16.027344 3.1875 -16.28125 3.523438 -16.363281 C 3.523438 -16.113281 3.523438 -15.859375 3.273438 -15.777344 Z M 2.351562 -14.183594 C 2.351562 -14.351562 2.433594 -14.433594 2.601562 -14.433594 C 2.601562 -14.265625 2.601562 -14.183594 2.519531 -14.097656 C 2.519531 -14.015625 2.519531 -14.015625 2.433594 -13.929688 C 2.433594 -14.015625 2.351562 -14.097656 2.351562 -14.183594 Z M 4.195312 -17.371094 C 4.113281 -17.203125 4.027344 -17.121094 3.945312 -17.121094 L 3.945312 -17.457031 C 3.945312 -17.539062 4.027344 -17.539062 4.027344 -17.625 C 4.113281 -17.539062 4.195312 -17.457031 4.195312 -17.371094 Z M 1.847656 -12.421875 C 1.847656 -12.335938 1.847656 -12.253906 1.929688 -12.167969 L 1.761719 -12 C 1.761719 -12.085938 1.761719 -12.167969 1.679688 -12.335938 C 1.679688 -12.335938 1.761719 -12.335938 1.847656 -12.421875 Z M 2.097656 -13.34375 C 2.183594 -13.257812 2.183594 -13.175781 2.265625 -13.089844 C 2.183594 -13.089844 2.183594 -13.007812 2.097656 -13.007812 C 2.097656 -13.089844 2.015625 -13.175781 2.015625 -13.257812 Z M 5.371094 -20.058594 C 5.285156 -20.226562 5.371094 -20.226562 5.453125 -20.226562 C 5.453125 -20.140625 5.453125 -20.140625 5.371094 -20.058594 Z M 4.363281 -18.292969 L 4.449219 -18.125 L 4.363281 -18.125 Z M 4.363281 -18.292969 "/></g></g></g><g fill="#ff5757" fill-opacity="1"><g transform="translate(243.888216, 295.363447)"><g><path d="M 13.089844 -8.308594 C 13.175781 -8.390625 13.257812 -8.476562 13.34375 -8.558594 C 13.511719 -8.8125 13.511719 -9.316406 13.34375 -9.148438 C 13.257812 -9.0625 13.089844 -8.894531 13.007812 -8.726562 C 13.007812 -8.644531 13.089844 -8.476562 13.089844 -8.390625 C 12.167969 -8.222656 12.167969 -7.300781 11.75 -7.050781 C 11.582031 -7.050781 11.496094 -6.964844 11.496094 -6.882812 C 11.582031 -6.882812 11.664062 -6.964844 11.75 -6.964844 C 11.664062 -6.882812 11.582031 -6.714844 11.496094 -6.628906 C 11.496094 -6.628906 11.496094 -6.714844 11.496094 -6.796875 L 11.246094 -6.546875 C 11.246094 -6.546875 11.246094 -6.460938 11.328125 -6.378906 C 10.324219 -4.867188 7.050781 -1.089844 5.453125 -0.753906 C 5.203125 -0.417969 4.449219 -1.59375 3.945312 -1.59375 C 3.859375 -1.761719 3.859375 -1.929688 3.691406 -2.015625 C 3.273438 -2.769531 3.1875 -3.523438 3.355469 -4.28125 C 3.355469 -4.699219 3.355469 -5.203125 3.441406 -5.539062 C 3.523438 -6.628906 3.441406 -7.722656 3.859375 -8.8125 C 3.945312 -8.980469 3.945312 -9.148438 3.777344 -9.316406 C 3.691406 -9.484375 3.691406 -9.652344 3.777344 -9.820312 C 4.195312 -10.324219 4.195312 -11.160156 4.28125 -11.832031 C 4.449219 -12.589844 4.363281 -13.34375 4.867188 -13.929688 C 4.699219 -14.769531 5.285156 -15.273438 5.453125 -16.113281 C 5.621094 -16.953125 6.210938 -19.386719 6.546875 -20.140625 C 7.886719 -22.996094 9.148438 -26.015625 9.734375 -29.121094 C 9.820312 -29.960938 9.230469 -31.050781 8.476562 -31.46875 C 8.308594 -31.46875 8.140625 -31.554688 7.972656 -31.554688 L 7.050781 -31.554688 C 6.882812 -31.554688 6.714844 -31.46875 6.546875 -31.386719 C 5.707031 -30.042969 5.203125 -28.617188 4.699219 -27.105469 C 4.363281 -25.929688 4.027344 -24.671875 3.609375 -23.496094 C 3.441406 -22.910156 3.1875 -22.492188 3.019531 -21.902344 C 2.351562 -19.636719 1.761719 -17.371094 1.089844 -15.191406 C 0.921875 -14.183594 0.585938 -13.34375 0.503906 -12.503906 C 0.417969 -10.910156 0.167969 -9.316406 0 -7.722656 C -0.0820312 -6.546875 -0.167969 -5.371094 0.167969 -4.113281 C 0.25 -3.945312 0.25 -3.691406 0.335938 -3.441406 C 0.417969 -2.769531 0.753906 -2.183594 1.175781 -1.679688 C 1.679688 -1.089844 2.183594 -0.417969 2.683594 0.167969 C 3.105469 0.753906 3.691406 1.175781 4.449219 1.425781 C 4.699219 1.59375 5.035156 1.59375 5.371094 1.59375 C 6.796875 1.59375 8.726562 0.585938 9.652344 -0.671875 C 10.238281 -1.175781 10.070312 -1.34375 10.574219 -2.015625 C 11.078125 -2.519531 11.75 -4.28125 11.496094 -5.121094 C 11.496094 -5.285156 11.414062 -5.453125 11.582031 -5.453125 C 11.75 -5.371094 11.832031 -5.203125 12 -5.121094 C 12.167969 -5.371094 11.917969 -5.707031 12 -5.957031 C 12.085938 -6.292969 12.253906 -6.546875 12.421875 -6.882812 C 12.589844 -7.300781 13.007812 -7.804688 13.007812 -8.308594 Z M 8.726562 -38.101562 C 9.230469 -37.679688 9.902344 -37.511719 10.574219 -37.175781 C 10.910156 -37.34375 11.328125 -37.511719 11.75 -37.679688 C 12 -37.765625 12.085938 -38.015625 12.085938 -38.183594 C 12.335938 -39.023438 12.167969 -39.777344 12.503906 -40.535156 C 12.589844 -40.617188 12.503906 -40.703125 12.421875 -40.785156 C 12.253906 -40.953125 11.917969 -41.121094 11.664062 -41.121094 C 11.582031 -41.121094 11.496094 -41.121094 11.414062 -41.039062 C 10.65625 -40.535156 9.820312 -39.945312 9.148438 -39.359375 C 8.894531 -39.191406 8.726562 -38.9375 8.558594 -38.6875 C 8.476562 -38.519531 8.558594 -38.183594 8.726562 -38.101562 Z M 11.496094 -6.628906 C 11.496094 -6.546875 11.496094 -6.460938 11.496094 -6.460938 C 11.496094 -6.378906 11.414062 -6.378906 11.414062 -6.292969 C 11.414062 -6.460938 11.414062 -6.546875 11.496094 -6.628906 Z M 11.496094 -6.628906 "/></g></g></g><g fill="#ff5757" fill-opacity="1"><g transform="translate(256.6421, 295.363447)"><g><path d="M 19.46875 -58.242188 C 19.386719 -58.324219 19.300781 -58.324219 19.21875 -58.324219 C 19.21875 -58.242188 19.300781 -58.15625 19.300781 -58.15625 C 19.386719 -58.15625 19.46875 -58.242188 19.46875 -58.242188 Z M 16.195312 -48.085938 C 16.113281 -47.75 16.113281 -47.582031 15.945312 -47.582031 C 15.859375 -47.582031 15.777344 -47.582031 15.691406 -47.667969 C 15.609375 -47.667969 15.523438 -47.75 15.441406 -47.75 C 16.699219 -51.191406 17.875 -53.792969 19.21875 -56.394531 C 19.46875 -56.898438 19.722656 -57.148438 19.804688 -57.652344 C 19.972656 -58.242188 20.226562 -58.746094 20.308594 -59.332031 C 20.394531 -59.667969 20.394531 -60.003906 20.308594 -60.253906 C 20.140625 -60.84375 19.804688 -61.347656 19.554688 -61.851562 C 19.386719 -62.183594 18.210938 -62.519531 17.960938 -62.4375 C 17.875 -62.4375 17.875 -62.4375 17.792969 -62.351562 C 16.53125 -61.515625 16.113281 -60.171875 15.609375 -58.746094 C 14.769531 -56.3125 14.097656 -55.304688 13.34375 -52.785156 C 13.257812 -52.449219 13.007812 -52.113281 12.921875 -51.777344 L 12 -48.589844 L 12 -48.421875 C 12.167969 -48.421875 12.335938 -48.589844 12.335938 -48.757812 C 12.335938 -49.09375 12.503906 -49.429688 12.757812 -49.765625 C 12.839844 -49.933594 13.007812 -50.015625 13.089844 -50.015625 C 13.257812 -50.015625 13.425781 -49.933594 13.59375 -49.765625 L 13.089844 -48.421875 C 12.757812 -48.339844 12.335938 -48.339844 12 -48.339844 L 12 -48.421875 C 11.917969 -48.339844 11.917969 -48.339844 11.832031 -48.339844 C 11.160156 -48.253906 10.488281 -48.171875 9.902344 -48.171875 C 9.566406 -48.171875 9.230469 -48.171875 8.980469 -48.085938 C 8.390625 -47.917969 8.054688 -47.917969 7.46875 -47.917969 C 6.125 -47.917969 4.699219 -47.582031 3.441406 -47.5 C 2.851562 -47.5 2.351562 -47.414062 1.847656 -47.414062 C 1.679688 -47.414062 1.59375 -47.414062 1.425781 -47.414062 L 0.671875 -47.246094 C 0.25 -47.246094 0.0820312 -46.828125 -0.0820312 -46.242188 C -0.25 -45.738281 -0.167969 -44.980469 0 -44.308594 C 0 -43.808594 0.335938 -43.386719 0.671875 -43.472656 C 0.753906 -43.472656 0.921875 -43.554688 1.089844 -43.472656 C 2.265625 -43.722656 3.273438 -44.058594 4.28125 -44.058594 C 4.449219 -44.058594 4.53125 -44.058594 4.617188 -44.058594 C 5.203125 -44.140625 5.789062 -44.226562 6.378906 -44.226562 C 6.714844 -44.226562 7.21875 -44.308594 7.636719 -44.394531 C 7.804688 -44.394531 7.886719 -44.394531 7.972656 -44.476562 C 7.886719 -44.644531 7.804688 -44.898438 7.636719 -44.980469 C 7.804688 -45.148438 7.972656 -45.148438 8.140625 -45.148438 C 8.726562 -45.234375 9.316406 -45.148438 9.902344 -45.402344 C 10.15625 -45.402344 10.488281 -45.402344 10.824219 -45.484375 L 10.824219 -45.234375 C 10.824219 -45.148438 10.824219 -45.066406 10.742188 -44.980469 C 10.65625 -44.8125 10.574219 -44.730469 10.65625 -44.644531 C 9.902344 -42.632812 7.132812 -35.667969 7.300781 -34.996094 C 7.722656 -35.164062 10.910156 -43.890625 10.992188 -44.140625 L 10.992188 -44.476562 C 11.414062 -44.476562 11.496094 -44.730469 11.160156 -45.066406 C 11.160156 -45.234375 11.246094 -45.402344 11.328125 -45.570312 C 11.414062 -45.570312 11.582031 -45.570312 11.75 -45.652344 C 11.917969 -45.738281 12.085938 -45.738281 12.335938 -45.738281 C 12.253906 -45.570312 12.167969 -45.484375 12.167969 -45.402344 C 12.085938 -45.316406 12.085938 -45.234375 12.085938 -45.148438 L 12.085938 -45.066406 C 12 -45.066406 12 -45.066406 11.917969 -45.066406 C 11.664062 -45.066406 11.414062 -44.8125 12 -44.644531 C 11.414062 -42.546875 8.476562 -35.078125 8.308594 -34.238281 C 7.886719 -32.898438 7.636719 -31.554688 7.132812 -30.296875 C 6.714844 -28.953125 4.867188 -22.15625 4.113281 -20.894531 C 4.027344 -20.726562 4.027344 -20.394531 3.945312 -20.140625 C 3.777344 -19.050781 3.273438 -18.042969 3.1875 -16.953125 C 3.1875 -16.785156 3.105469 -16.699219 3.019531 -16.617188 L 2.683594 -15.441406 C 2.433594 -14.351562 1.929688 -13.425781 2.015625 -12.335938 C 2.015625 -12.253906 2.015625 -12.253906 1.929688 -12.167969 C 1.425781 -11.246094 1.34375 -10.238281 1.175781 -9.230469 C 1.007812 -8.308594 0.671875 -7.386719 0.753906 -6.460938 C 0.753906 -6.292969 0.671875 -6.125 0.585938 -5.957031 C 0.585938 -6.042969 0.503906 -6.125 0.503906 -6.125 C 0.25 -7.804688 0.839844 -9.398438 0.839844 -11.078125 L 0.839844 -11.160156 C 1.34375 -11.917969 1.425781 -12.757812 1.511719 -13.679688 C 1.511719 -14.433594 3.019531 -19.890625 3.273438 -20.726562 C 3.355469 -20.980469 5.035156 -26.601562 4.785156 -27.191406 C 4.53125 -26.015625 2.601562 -19.636719 2.265625 -18.628906 C 1.511719 -16.027344 -0.25 -10.40625 -0.25 -7.722656 L -0.25 -7.132812 C -0.753906 -5.789062 -0.503906 -4.363281 -0.503906 -2.9375 C -0.503906 -2.097656 0 -0.25 0.839844 0.167969 C 1.59375 0.585938 2.183594 1.257812 2.851562 1.847656 C 3.105469 2.097656 3.355469 2.183594 3.609375 2.183594 C 3.859375 2.183594 4.027344 2.097656 4.28125 2.015625 L 6.628906 1.007812 C 7.636719 0.503906 8.558594 0.0820312 9.398438 -0.671875 C 9.316406 -0.753906 9.230469 -0.753906 9.230469 -0.921875 L 9.484375 -1.089844 L 9.484375 -1.007812 C 9.484375 -1.175781 9.566406 -1.257812 9.734375 -1.34375 C 10.070312 -1.929688 10.574219 -2.351562 11.078125 -2.769531 C 11.246094 -2.9375 11.328125 -2.9375 11.496094 -2.9375 C 11.664062 -2.9375 11.75 -2.9375 11.917969 -2.851562 C 12 -2.851562 12.085938 -2.769531 12.253906 -2.769531 C 12.335938 -2.769531 12.421875 -2.851562 12.503906 -2.9375 C 12.589844 -3.105469 12.503906 -3.1875 12.335938 -3.273438 C 12.253906 -3.355469 12.167969 -3.441406 12.167969 -3.523438 C 12.167969 -3.777344 12.589844 -3.859375 12.757812 -3.859375 C 12.757812 -3.859375 12.839844 -3.859375 12.921875 -3.859375 C 13.007812 -3.777344 13.089844 -3.777344 13.175781 -3.777344 C 13.257812 -3.777344 13.34375 -3.945312 13.257812 -4.027344 C 13.089844 -4.449219 13.175781 -4.617188 13.511719 -4.867188 C 14.183594 -5.371094 14.855469 -5.957031 15.273438 -6.714844 C 15.441406 -6.882812 15.441406 -7.050781 15.441406 -7.300781 C 15.359375 -7.554688 15.523438 -7.636719 15.777344 -7.722656 C 15.945312 -7.804688 16.195312 -7.804688 16.363281 -7.804688 C 16.953125 -7.886719 17.203125 -8.222656 17.203125 -8.8125 C 17.457031 -8.894531 17.539062 -9.0625 17.539062 -9.316406 L 17.539062 -10.40625 L 17.203125 -10.40625 C 17.203125 -10.574219 17.371094 -10.65625 17.539062 -10.742188 L 17.539062 -10.40625 C 17.960938 -10.488281 18.042969 -10.488281 18.125 -10.992188 L 17.792969 -10.992188 C 17.707031 -10.824219 17.707031 -10.742188 17.539062 -10.742188 C 17.539062 -10.910156 17.625 -10.992188 17.792969 -11.078125 C 17.875 -11.246094 17.960938 -11.246094 18.125 -11.328125 L 18.292969 -11.917969 C 18.628906 -12.335938 18.964844 -12.757812 19.46875 -13.007812 C 19.46875 -13.175781 19.636719 -13.257812 19.804688 -13.34375 C 19.722656 -13.089844 19.636719 -13.007812 19.46875 -12.921875 C 19.46875 -12.503906 19.21875 -12.253906 19.132812 -12 C 19.722656 -12 20.058594 -12.421875 20.308594 -12.839844 C 20.394531 -12.921875 20.308594 -13.175781 20.058594 -13.257812 L 19.804688 -13.257812 C 19.972656 -13.679688 20.308594 -14.097656 20.726562 -14.265625 C 20.8125 -14.183594 20.726562 -13.929688 20.980469 -14.097656 L 20.726562 -14.265625 C 20.726562 -14.601562 20.894531 -14.855469 21.148438 -15.105469 L 22.742188 -16.785156 C 23.664062 -18.042969 24.589844 -19.21875 25.679688 -20.308594 C 25.929688 -20.726562 25.929688 -20.894531 25.765625 -20.894531 C 25.679688 -20.894531 25.511719 -20.8125 25.261719 -20.5625 L 22.15625 -17.121094 C 20.8125 -15.441406 19.554688 -13.847656 18.042969 -12.421875 L 16.699219 -10.992188 C 16.28125 -10.324219 15.777344 -9.820312 15.273438 -9.316406 L 12.839844 -6.882812 C 12.589844 -6.628906 12.335938 -6.292969 12.085938 -6.125 C 11.328125 -5.707031 10.824219 -5.121094 10.238281 -4.53125 C 8.8125 -3.1875 7.21875 -2.015625 5.539062 -0.921875 C 5.121094 -0.585938 4.53125 -0.335938 4.027344 -0.0820312 C 3.945312 -0.0820312 3.859375 0 3.691406 0 C 3.355469 0 3.1875 -0.25 3.019531 -0.585938 C 2.769531 -1.175781 2.683594 -1.761719 2.683594 -2.351562 L 2.683594 -4.28125 C 2.683594 -4.699219 2.683594 -5.285156 2.769531 -5.707031 C 3.019531 -6.292969 3.019531 -6.964844 3.019531 -7.554688 C 3.019531 -8.140625 3.105469 -8.644531 3.273438 -9.148438 C 3.441406 -9.566406 3.609375 -9.988281 3.609375 -10.40625 L 3.945312 -12.253906 C 4.027344 -13.007812 4.363281 -13.59375 4.617188 -14.183594 C 4.785156 -14.6875 4.785156 -15.105469 4.953125 -15.609375 C 5.035156 -16.027344 5.121094 -16.449219 5.285156 -16.785156 C 5.371094 -17.035156 5.957031 -19.132812 5.957031 -19.386719 C 5.957031 -19.722656 6.042969 -19.972656 6.210938 -20.308594 C 6.378906 -20.644531 8.222656 -26.351562 8.308594 -26.769531 C 8.558594 -27.863281 8.894531 -28.953125 9.230469 -29.960938 C 9.820312 -31.972656 13.59375 -42.128906 14.265625 -44.140625 L 15.023438 -46.324219 C 15.273438 -46.242188 15.441406 -46.242188 15.609375 -46.242188 C 15.777344 -46.242188 15.945312 -46.242188 16.027344 -46.324219 C 16.195312 -46.324219 16.449219 -46.492188 16.617188 -46.410156 C 16.699219 -46.242188 16.785156 -46.242188 16.867188 -46.242188 C 17.035156 -46.242188 17.121094 -46.324219 17.203125 -46.324219 C 17.289062 -46.492188 17.371094 -46.660156 17.457031 -46.660156 C 17.539062 -46.660156 17.539062 -46.574219 17.625 -46.492188 C 17.792969 -46.15625 17.792969 -46.15625 17.960938 -46.324219 L 17.625 -46.492188 C 17.707031 -46.742188 17.875 -46.660156 17.960938 -46.660156 L 17.960938 -46.492188 C 18.042969 -46.742188 18.042969 -46.742188 18.042969 -46.410156 L 18.460938 -46.742188 C 18.546875 -46.828125 18.714844 -46.910156 18.964844 -46.910156 C 19.050781 -46.910156 19.132812 -46.910156 19.21875 -46.910156 C 19.804688 -46.996094 20.308594 -47.078125 20.8125 -47.332031 C 21.0625 -47.332031 21.230469 -47.582031 21.398438 -47.5 C 22.15625 -47.414062 22.910156 -48.003906 23.664062 -48.003906 C 24.335938 -48.171875 24.839844 -48.507812 25.261719 -48.589844 C 25.765625 -48.589844 27.441406 -49.175781 27.777344 -49.511719 C 28.03125 -49.679688 28.199219 -49.679688 28.449219 -49.679688 C 28.699219 -49.679688 29.035156 -49.597656 29.289062 -49.511719 C 28.617188 -49.011719 27.863281 -48.507812 27.105469 -48.085938 C 27.273438 -48.003906 27.359375 -48.003906 27.527344 -48.003906 C 27.609375 -48.003906 27.777344 -48.003906 27.945312 -48.085938 C 28.28125 -48.421875 28.617188 -48.339844 28.785156 -48.675781 C 28.867188 -48.675781 28.953125 -48.675781 28.953125 -48.675781 C 29.121094 -48.675781 30.210938 -49.261719 30.210938 -49.511719 C 30.378906 -50.183594 30.128906 -50.6875 30.210938 -51.445312 C 30.296875 -51.695312 30.128906 -51.945312 29.960938 -52.03125 C 29.875 -52.113281 29.707031 -52.199219 29.625 -52.199219 C 29.539062 -52.199219 29.457031 -52.113281 29.371094 -51.863281 C 29.121094 -51.445312 28.785156 -51.277344 28.53125 -51.277344 C 28.113281 -51.277344 27.863281 -50.941406 27.527344 -50.773438 C 27.359375 -50.519531 27.105469 -50.351562 26.855469 -50.351562 C 26.769531 -50.4375 26.6875 -50.4375 26.601562 -50.4375 C 26.351562 -50.4375 26.183594 -50.269531 25.929688 -50.269531 C 25.847656 -50.101562 25.597656 -49.933594 25.34375 -50.015625 C 25.261719 -50.015625 25.175781 -50.015625 25.09375 -50.015625 C 24.839844 -50.015625 24.671875 -50.015625 24.589844 -49.847656 C 24.421875 -49.765625 24.167969 -49.597656 24 -49.597656 C 23.917969 -49.597656 23.832031 -49.679688 23.75 -49.679688 C 23.664062 -49.847656 23.496094 -49.765625 23.328125 -49.597656 C 22.996094 -49.34375 22.574219 -49.175781 22.324219 -49.261719 C 22.238281 -49.34375 22.15625 -49.34375 22.070312 -49.34375 C 21.988281 -49.34375 21.820312 -49.261719 21.734375 -49.175781 C 21.734375 -48.925781 21.148438 -48.84375 20.894531 -48.84375 C 20.726562 -48.84375 20.5625 -48.925781 20.394531 -49.011719 C 20.308594 -48.925781 20.058594 -48.925781 19.890625 -48.675781 C 19.636719 -48.421875 19.300781 -48.339844 18.882812 -48.339844 C 18.796875 -48.171875 18.628906 -48.085938 18.460938 -48.253906 C 18.292969 -48.421875 18.125 -48.171875 18.042969 -48.171875 C 18.042969 -48.085938 17.960938 -48.085938 17.875 -48.085938 C 17.792969 -48.085938 17.625 -48.085938 17.539062 -48.085938 C 17.457031 -48.085938 17.457031 -48.085938 17.371094 -48.085938 C 17.289062 -47.917969 17.121094 -47.917969 16.953125 -47.917969 C 16.785156 -47.917969 16.449219 -48.003906 16.195312 -48.085938 C 16.28125 -48.253906 16.28125 -48.507812 16.449219 -48.507812 C 16.53125 -48.589844 16.699219 -48.675781 16.785156 -48.84375 C 16.699219 -48.925781 16.617188 -48.925781 16.53125 -48.925781 C 16.363281 -48.925781 16.113281 -48.84375 16.027344 -48.757812 C 15.945312 -48.757812 15.945312 -48.757812 15.945312 -48.589844 C 15.945312 -48.507812 16.027344 -48.339844 16.027344 -48.253906 Z M 7.050781 -34.828125 L 5.707031 -30.464844 C 5.621094 -30.210938 5.707031 -29.875 5.707031 -29.539062 C 5.875 -29.539062 5.957031 -29.707031 5.957031 -29.875 C 6.378906 -31.050781 6.628906 -32.308594 7.050781 -33.484375 C 7.21875 -33.988281 7.300781 -34.492188 7.300781 -34.996094 Z M 15.273438 -8.476562 C 15.609375 -8.980469 16.027344 -9.398438 16.53125 -9.734375 L 16.53125 -9.0625 L 15.945312 -8.644531 C 15.777344 -8.476562 15.523438 -8.476562 15.273438 -8.476562 Z M 25.261719 -49.261719 C 25.34375 -49.34375 25.429688 -49.429688 25.511719 -49.429688 C 25.679688 -49.429688 25.847656 -49.261719 26.097656 -49.175781 C 25.929688 -49.011719 25.679688 -49.011719 25.511719 -48.925781 C 25.175781 -48.925781 24.671875 -48.757812 24.253906 -48.757812 C 24.167969 -48.757812 24.167969 -48.757812 24.085938 -48.757812 C 24.421875 -49.175781 24.839844 -49.175781 25.261719 -49.261719 Z M 17.035156 -45.820312 C 15.859375 -45.820312 17.960938 -45.484375 17.960938 -45.484375 L 18.125 -45.484375 L 18.125 -45.738281 L 18.042969 -45.90625 C 17.707031 -45.90625 17.457031 -45.90625 17.035156 -45.820312 Z M 9.988281 -44.644531 C 9.652344 -44.8125 9.316406 -44.898438 8.980469 -44.898438 C 8.726562 -44.898438 8.558594 -44.898438 8.390625 -44.8125 C 8.390625 -44.730469 8.308594 -44.5625 8.308594 -44.5625 L 8.390625 -44.476562 C 8.980469 -44.476562 9.398438 -44.5625 9.988281 -44.644531 Z M 18.042969 -48.925781 C 18.292969 -48.84375 18.460938 -48.84375 18.546875 -48.84375 C 18.714844 -48.84375 18.796875 -48.925781 18.882812 -49.175781 C 18.714844 -49.261719 18.546875 -49.261719 18.460938 -49.261719 C 18.125 -49.261719 17.792969 -49.175781 17.457031 -49.09375 C 17.457031 -49.09375 17.371094 -49.011719 17.371094 -48.925781 L 17.457031 -48.84375 C 17.539062 -48.757812 17.625 -48.675781 17.707031 -48.675781 C 17.875 -48.675781 17.960938 -48.84375 18.042969 -48.925781 Z M 5.707031 -29.539062 C 5.285156 -29.121094 5.203125 -28.53125 5.121094 -27.945312 C 5.035156 -27.945312 5.203125 -27.863281 5.203125 -27.777344 C 5.707031 -28.28125 5.707031 -28.867188 5.707031 -29.539062 Z M 21.652344 -48.171875 C 21.484375 -47.917969 21.316406 -47.835938 21.148438 -47.835938 C 21.0625 -47.835938 20.894531 -47.917969 20.8125 -48.085938 C 20.894531 -48.253906 21.0625 -48.253906 21.148438 -48.253906 C 21.316406 -48.253906 21.398438 -48.253906 21.566406 -48.171875 C 21.652344 -48.421875 21.820312 -48.507812 21.988281 -48.507812 C 22.15625 -48.507812 22.238281 -48.507812 22.492188 -48.339844 C 22.238281 -48.253906 21.988281 -48.085938 21.820312 -48.085938 C 21.734375 -48.085938 21.734375 -48.085938 21.652344 -48.171875 Z M 22.996094 -50.269531 C 23.246094 -50.101562 23.328125 -50.101562 23.496094 -50.101562 C 23.75 -50.101562 24 -50.183594 24.335938 -50.4375 L 24.335938 -50.519531 C 23.664062 -50.519531 23.664062 -50.519531 22.996094 -50.269531 Z M 23.164062 -48.339844 C 22.996094 -48.421875 22.910156 -48.339844 22.660156 -48.339844 C 22.660156 -48.339844 22.574219 -48.339844 22.492188 -48.339844 C 22.492188 -48.507812 22.574219 -48.589844 22.660156 -48.675781 C 22.828125 -48.757812 22.996094 -48.84375 23.078125 -48.84375 C 23.246094 -48.925781 23.414062 -48.84375 23.414062 -48.757812 C 23.414062 -48.589844 23.246094 -48.421875 23.164062 -48.339844 Z M 12.839844 -47.246094 C 12.671875 -47.246094 12.589844 -47.164062 12.421875 -47.164062 C 12.253906 -47.164062 12.253906 -47.246094 12.253906 -47.414062 C 12.167969 -47.5 12.167969 -47.667969 12.253906 -47.667969 C 12.335938 -47.667969 12.503906 -47.667969 12.589844 -47.75 L 13.007812 -47.75 Z M 15.023438 -54.046875 C 15.023438 -53.792969 14.9375 -53.710938 14.6875 -53.542969 L 14.601562 -53.542969 C 14.601562 -53.710938 14.519531 -53.878906 14.519531 -53.960938 C 14.519531 -54.210938 14.601562 -54.296875 14.769531 -54.296875 C 14.9375 -54.378906 15.105469 -54.210938 15.023438 -54.046875 Z M 19.804688 -49.34375 C 19.636719 -49.429688 19.554688 -49.429688 19.386719 -49.429688 C 19.300781 -49.429688 19.132812 -49.34375 18.964844 -49.175781 C 19.132812 -49.011719 19.300781 -48.84375 19.386719 -48.925781 C 19.554688 -49.011719 19.722656 -49.175781 19.722656 -49.34375 C 19.804688 -49.34375 19.890625 -49.261719 19.890625 -49.511719 C 19.804688 -49.429688 19.804688 -49.34375 19.804688 -49.34375 Z M 24.839844 -47.164062 C 25.09375 -47.164062 25.261719 -47.246094 25.429688 -47.246094 C 25.511719 -47.246094 25.597656 -47.5 25.597656 -47.5 C 25.429688 -47.582031 25.511719 -47.582031 25.429688 -47.582031 C 25.34375 -47.667969 25.175781 -47.667969 24.925781 -47.582031 C 24.839844 -47.582031 24.925781 -47.414062 24.839844 -47.164062 Z M 21.230469 -49.765625 C 21.230469 -49.597656 21.230469 -49.597656 21.316406 -49.511719 C 21.484375 -49.597656 21.734375 -49.511719 21.820312 -49.765625 C 21.734375 -49.847656 21.734375 -50.015625 21.734375 -50.015625 C 21.566406 -50.015625 21.398438 -50.015625 21.316406 -49.847656 Z M 25.847656 -47.917969 L 25.847656 -47.667969 L 25.929688 -47.582031 C 26.015625 -47.667969 26.097656 -47.582031 26.265625 -47.582031 C 26.265625 -47.582031 26.351562 -47.582031 26.433594 -47.667969 L 26.433594 -47.917969 Z M 22.238281 -46.660156 C 22.324219 -46.574219 22.40625 -46.574219 22.40625 -46.574219 C 22.574219 -46.574219 22.910156 -46.742188 23.246094 -46.828125 C 23.246094 -46.828125 23.246094 -46.996094 23.164062 -46.910156 C 22.996094 -46.996094 22.660156 -46.828125 22.40625 -46.742188 Z M 18.882812 -47.414062 C 18.964844 -47.667969 19.050781 -47.835938 19.132812 -47.835938 C 19.132812 -47.835938 19.21875 -47.75 19.300781 -47.582031 C 19.386719 -47.5 19.386719 -47.5 19.386719 -47.414062 C 19.132812 -47.246094 19.050781 -47.332031 18.882812 -47.414062 Z M 17.203125 -8.8125 C 17.121094 -8.8125 17.035156 -8.8125 16.953125 -8.8125 C 16.785156 -8.8125 16.617188 -8.8125 16.53125 -9.148438 C 16.785156 -9.148438 17.121094 -9.148438 17.203125 -8.8125 Z M 9.230469 -47.078125 C 9.148438 -47.078125 9.0625 -46.996094 8.894531 -46.996094 C 8.726562 -46.910156 8.644531 -46.996094 8.644531 -47.078125 C 8.726562 -47.164062 8.8125 -47.332031 8.894531 -47.332031 C 9.0625 -47.332031 9.148438 -47.246094 9.230469 -47.078125 Z M 21.316406 -46.410156 C 21.148438 -46.324219 20.894531 -46.492188 20.8125 -46.574219 C 20.726562 -46.574219 20.5625 -46.574219 20.726562 -46.410156 C 20.726562 -46.324219 20.8125 -46.15625 20.894531 -46.242188 C 20.980469 -46.242188 21.148438 -46.074219 21.316406 -46.410156 Z M 26.097656 -49.175781 C 26.183594 -49.34375 26.265625 -49.511719 26.433594 -49.511719 C 26.519531 -49.511719 26.519531 -49.511719 26.601562 -49.429688 C 26.519531 -49.175781 26.433594 -49.09375 26.351562 -49.09375 C 26.265625 -49.09375 26.183594 -49.175781 26.097656 -49.175781 Z M 10.910156 -47.246094 C 11.160156 -47.414062 11.328125 -47.5 11.496094 -47.5 L 11.328125 -47.246094 C 11.246094 -47.164062 11.078125 -47.164062 10.910156 -47.078125 Z M 18.964844 -46.074219 C 18.796875 -46.074219 18.628906 -46.074219 18.546875 -45.90625 L 18.546875 -45.820312 C 18.628906 -45.652344 18.714844 -45.570312 18.714844 -45.820312 C 18.882812 -45.820312 18.882812 -45.820312 18.964844 -45.988281 Z M 19.890625 -48.003906 C 19.972656 -48.003906 19.972656 -47.667969 19.972656 -47.667969 L 19.972656 -47.582031 L 19.722656 -47.582031 L 19.722656 -47.917969 C 19.722656 -48.003906 19.722656 -48.003906 19.804688 -48.003906 Z M 6.882812 -44.898438 C 6.882812 -45.066406 6.964844 -45.066406 7.050781 -45.066406 C 7.132812 -45.066406 7.21875 -44.980469 7.386719 -44.898438 C 7.300781 -44.8125 7.21875 -44.730469 7.132812 -44.730469 C 7.050781 -44.730469 6.964844 -44.8125 6.882812 -44.898438 Z M 20.476562 -48.003906 C 20.5625 -48.171875 20.726562 -48.085938 20.8125 -48.085938 C 20.726562 -47.835938 20.726562 -47.75 20.644531 -47.75 C 20.644531 -47.75 20.5625 -47.835938 20.476562 -48.003906 Z M 17.625 -47.164062 C 17.625 -47.078125 17.457031 -47.078125 17.371094 -46.996094 L 17.289062 -47.078125 L 17.289062 -47.246094 C 17.457031 -47.414062 17.539062 -47.332031 17.625 -47.164062 Z M 0.417969 -4.53125 L 0.25 -4.363281 C 0.25 -4.449219 0.167969 -4.53125 0.167969 -4.617188 L 0.417969 -4.867188 Z M 16.867188 -10.070312 C 16.867188 -10.238281 17.035156 -10.40625 17.203125 -10.40625 C 17.203125 -10.238281 17.035156 -10.070312 16.867188 -10.070312 Z M 6.460938 -44.980469 C 6.546875 -45.066406 6.628906 -44.980469 6.882812 -44.898438 L 6.796875 -44.898438 C 6.714844 -44.8125 6.628906 -44.8125 6.460938 -44.8125 Z M 14.9375 -8.140625 C 14.9375 -8.308594 15.105469 -8.390625 15.273438 -8.476562 C 15.273438 -8.308594 15.105469 -8.140625 14.9375 -8.140625 Z M 9.484375 -0.753906 C 9.652344 -0.753906 9.734375 -0.753906 9.734375 -1.007812 L 9.484375 -1.007812 Z M 21.652344 -46.410156 C 21.734375 -46.574219 21.734375 -46.660156 21.734375 -46.660156 C 21.734375 -46.742188 21.734375 -46.660156 21.652344 -46.660156 C 21.566406 -46.660156 21.652344 -46.410156 21.652344 -46.410156 Z M 18.796875 -11.664062 C 18.628906 -11.664062 18.546875 -11.496094 18.460938 -11.328125 C 18.628906 -11.414062 18.796875 -11.496094 18.796875 -11.664062 Z M 16.53125 -9.734375 C 16.617188 -9.902344 16.699219 -10.070312 16.867188 -10.070312 C 16.867188 -9.902344 16.699219 -9.820312 16.53125 -9.734375 Z M 18.210938 -11.078125 C 18.378906 -11.078125 18.460938 -11.160156 18.460938 -11.328125 Z M 26.601562 -49.429688 C 26.769531 -49.679688 26.855469 -49.679688 26.9375 -49.429688 L 26.9375 -49.511719 C 26.855469 -49.34375 26.769531 -49.429688 26.601562 -49.429688 Z M 24.671875 -50.519531 C 24.589844 -50.605469 24.421875 -50.6875 24.335938 -50.519531 C 24.421875 -50.4375 24.589844 -50.351562 24.671875 -50.519531 Z M 21.652344 -46.410156 C 21.484375 -46.492188 21.316406 -46.660156 21.316406 -46.410156 C 21.398438 -46.410156 21.484375 -46.242188 21.652344 -46.410156 Z M 15.691406 -46.742188 C 15.777344 -46.828125 15.859375 -46.996094 15.945312 -46.910156 C 15.945312 -46.996094 15.945312 -46.910156 16.027344 -46.828125 L 15.945312 -46.742188 C 15.859375 -46.828125 15.777344 -46.660156 15.691406 -46.742188 Z M 19.132812 -12 C 18.964844 -12 18.882812 -11.832031 18.796875 -11.664062 C 18.964844 -11.75 19.050781 -11.832031 19.132812 -12 Z M 7.386719 -44.898438 C 7.386719 -45.148438 7.554688 -45.066406 7.636719 -44.980469 C 7.554688 -44.8125 7.46875 -44.898438 7.386719 -44.898438 Z M 5.957031 -44.898438 C 5.875 -44.898438 5.957031 -44.730469 5.957031 -44.730469 L 5.789062 -44.730469 C 5.789062 -44.8125 5.789062 -44.980469 5.875 -44.898438 Z M 27.191406 -49.679688 C 27.105469 -49.511719 27.023438 -49.429688 27.023438 -49.429688 C 27.023438 -49.679688 27.023438 -49.679688 27.191406 -49.679688 Z M 24.671875 -50.519531 C 24.757812 -50.519531 24.839844 -50.4375 24.925781 -50.4375 L 24.925781 -50.519531 C 24.925781 -50.519531 24.925781 -50.605469 24.839844 -50.605469 C 24.839844 -50.605469 24.757812 -50.605469 24.671875 -50.519531 Z M 20.394531 -47.582031 C 20.308594 -47.917969 20.394531 -47.835938 20.476562 -47.917969 C 20.476562 -47.667969 20.394531 -47.582031 20.394531 -47.582031 Z M 25.929688 -51.023438 C 25.929688 -50.941406 26.097656 -50.773438 26.183594 -50.941406 C 26.097656 -51.023438 26.097656 -51.023438 25.929688 -51.023438 Z M 13.175781 -6.292969 C 13.007812 -6.460938 13.175781 -6.460938 13.257812 -6.460938 C 13.257812 -6.378906 13.257812 -6.378906 13.175781 -6.292969 Z M 14.769531 -7.886719 C 14.601562 -8.054688 14.769531 -8.054688 14.855469 -8.054688 C 14.855469 -7.972656 14.855469 -7.972656 14.769531 -7.886719 Z M 9.988281 -1.175781 C 9.902344 -1.175781 9.820312 -1.257812 9.820312 -1.257812 L 9.820312 -1.089844 C 9.820312 -1.175781 9.902344 -1.175781 9.988281 -1.175781 Z M 29.457031 -49.511719 C 29.371094 -49.597656 29.371094 -49.679688 29.457031 -49.597656 Z M 6.125 -44.980469 C 6.125 -44.8125 6.042969 -44.8125 5.957031 -44.8125 C 5.957031 -44.898438 5.957031 -44.980469 6.125 -44.980469 Z M 0.585938 -5.121094 C 0.753906 -4.953125 0.503906 -4.953125 0.417969 -4.953125 C 0.503906 -4.953125 0.503906 -5.035156 0.585938 -5.121094 Z M 16.953125 -48.925781 C 16.953125 -48.925781 16.867188 -48.925781 16.785156 -48.84375 L 17.035156 -48.84375 C 16.953125 -48.84375 16.953125 -49.011719 16.953125 -48.925781 Z M 18.378906 -47.246094 C 18.378906 -47.246094 18.292969 -47.246094 18.210938 -47.332031 C 18.292969 -47.332031 18.378906 -47.332031 18.378906 -47.246094 Z M 24.839844 -47.164062 C 24.839844 -47.246094 24.757812 -47.246094 24.671875 -47.164062 L 24.589844 -47.164062 C 24.671875 -47.164062 24.671875 -47.078125 24.671875 -47.078125 Z M 22.070312 -15.191406 C 21.902344 -15.191406 21.988281 -15.191406 21.988281 -15.273438 L 22.070312 -15.273438 Z M 18.042969 -46.410156 C 18.042969 -46.410156 17.960938 -46.410156 17.960938 -46.492188 L 17.960938 -46.324219 C 18.042969 -46.242188 18.042969 -46.324219 18.042969 -46.410156 Z M 19.722656 -45.988281 C 19.722656 -46.074219 19.722656 -46.074219 19.636719 -46.074219 L 19.722656 -45.90625 C 19.722656 -45.90625 19.722656 -45.988281 19.722656 -45.988281 Z M 13.425781 -6.714844 C 13.59375 -6.546875 13.425781 -6.546875 13.34375 -6.546875 C 13.425781 -6.628906 13.425781 -6.628906 13.425781 -6.714844 Z M 8.054688 -44.644531 C 7.972656 -44.644531 7.972656 -44.644531 7.972656 -44.476562 C 7.972656 -44.476562 8.054688 -44.476562 8.054688 -44.644531 Z M 25.597656 -50.773438 C 25.597656 -50.773438 25.34375 -50.941406 25.511719 -50.6875 Z M 9.820312 -1.007812 L 9.734375 -1.007812 L 9.734375 -1.089844 Z M 22.15625 -15.441406 C 22.15625 -15.359375 22.15625 -15.273438 22.070312 -15.273438 C 22.15625 -15.273438 22.238281 -15.273438 22.15625 -15.441406 Z M 21.902344 -15.191406 C 21.820312 -15.191406 21.734375 -15.191406 21.902344 -15.023438 Z M 20.394531 -49.429688 L 20.394531 -49.261719 Z M 23.917969 -48.675781 C 23.917969 -48.757812 24 -48.675781 24 -48.675781 Z M 18.210938 -10.992188 L 18.125 -10.992188 L 18.125 -11.078125 Z M 9.820312 -1.257812 C 9.734375 -1.257812 9.734375 -1.34375 9.734375 -1.34375 Z M 27.023438 -48.003906 C 27.023438 -48.003906 27.105469 -48.003906 27.105469 -48.085938 C 27.105469 -48.085938 27.023438 -48.253906 27.023438 -48.003906 Z M 25.597656 -50.773438 C 25.597656 -50.855469 25.679688 -50.6875 25.597656 -50.941406 Z M 14.351562 -52.871094 L 14.265625 -52.953125 Z M 17.792969 -11.078125 C 17.875 -10.992188 17.792969 -10.992188 17.792969 -10.992188 Z M 18.882812 -49.175781 C 18.882812 -49.175781 18.964844 -49.175781 18.964844 -49.261719 Z M 12.589844 -5.707031 L 12.503906 -5.621094 Z M 18.125 -11.328125 L 18.210938 -11.414062 Z M 9.484375 -0.753906 L 9.484375 -0.671875 Z M 15.609375 -46.742188 C 15.609375 -46.660156 15.691406 -46.660156 15.691406 -46.742188 Z M 15.609375 -46.742188 "/></g></g></g><g fill="#ff5757" fill-opacity="1"><g transform="translate(276.276361, 295.363447)"><g><path d="M 13.089844 -10.488281 C 13.175781 -10.65625 13.007812 -10.824219 12.839844 -10.910156 L 12.839844 -11.078125 C 12.839844 -11.246094 12.839844 -11.414062 13.007812 -11.414062 C 13.007812 -11.414062 13.089844 -11.328125 13.175781 -11.328125 C 13.425781 -11.246094 13.761719 -11.160156 13.761719 -10.65625 L 13.761719 -9.0625 C 13.761719 -8.558594 14.015625 -8.054688 14.097656 -7.554688 C 14.183594 -5.121094 15.691406 -3.441406 17.457031 -1.929688 C 17.539062 -1.847656 17.792969 -1.847656 17.875 -1.761719 C 18.042969 -1.679688 18.210938 -1.59375 18.378906 -1.59375 C 19.46875 -1.59375 22.828125 -4.363281 23.582031 -5.121094 C 23.917969 -5.371094 23.75 -5.789062 24 -6.042969 C 24.253906 -6.210938 24.589844 -6.460938 24.839844 -6.714844 C 24.925781 -6.796875 24.925781 -6.964844 24.839844 -6.964844 L 24.589844 -6.964844 C 23.078125 -5.957031 21.652344 -4.953125 20.058594 -4.195312 C 19.554688 -3.945312 19.050781 -3.859375 18.546875 -3.859375 C 18.292969 -3.859375 18.042969 -3.859375 17.792969 -3.945312 C 17.035156 -4.953125 16.699219 -6.210938 16.699219 -7.46875 C 16.699219 -11.832031 18.882812 -21.148438 20.644531 -24.671875 C 21.230469 -25.679688 21.316406 -26.769531 21.148438 -27.863281 C 20.726562 -28.113281 20.308594 -28.367188 19.890625 -28.367188 C 19.636719 -28.367188 19.386719 -28.28125 19.132812 -28.113281 C 19.050781 -28.03125 18.882812 -28.03125 18.796875 -28.03125 C 18.628906 -28.03125 18.546875 -28.03125 18.378906 -28.113281 C 17.203125 -28.699219 16.027344 -28.699219 14.769531 -28.699219 C 12.757812 -28.617188 10.992188 -28.113281 9.398438 -26.769531 C 8.726562 -26.183594 8.054688 -25.429688 7.21875 -25.09375 C 7.132812 -25.007812 7.050781 -24.925781 7.050781 -24.839844 C 6.796875 -24.335938 6.378906 -23.832031 5.957031 -23.664062 C 5.285156 -23.328125 5.453125 -22.574219 4.867188 -22.15625 C 3.105469 -20.5625 1.847656 -17.960938 0.839844 -15.777344 C 0.671875 -15.609375 0.585938 -15.441406 0.503906 -15.273438 C -1.007812 -10.65625 -1.761719 -7.804688 -1.761719 -2.769531 C -1.761719 -1.175781 -1.175781 0.25 0.0820312 1.34375 L 0.671875 1.929688 C 0.921875 2.183594 1.257812 2.351562 1.679688 2.351562 C 2.097656 2.265625 2.601562 2.265625 3.019531 2.015625 C 4.28125 1.425781 7.21875 -0.503906 7.886719 -1.59375 C 8.054688 -1.847656 8.558594 -1.929688 8.726562 -2.265625 C 8.980469 -2.769531 9.398438 -3.1875 9.734375 -3.609375 C 9.484375 -4.28125 10.324219 -4.617188 10.40625 -5.121094 C 10.488281 -5.621094 10.824219 -6.125 11.078125 -6.546875 C 11.246094 -7.050781 11.496094 -7.46875 11.832031 -7.972656 C 12 -8.308594 12.253906 -8.558594 12.167969 -8.980469 C 12.757812 -9.230469 12.921875 -9.902344 13.089844 -10.488281 Z M 1.847656 0.167969 C 1.761719 0.25 1.59375 0.25 1.425781 0.335938 C 1.257812 0.167969 1.089844 0.0820312 1.089844 0 C 0.921875 -0.167969 0.921875 -0.417969 0.921875 -0.585938 C 0.921875 -1.175781 0.921875 -1.761719 0.671875 -2.351562 C 0.585938 -2.519531 0.585938 -2.769531 0.671875 -3.019531 C 1.007812 -4.195312 1.007812 -5.371094 1.175781 -6.628906 C 1.34375 -7.050781 1.425781 -7.554688 1.511719 -7.972656 C 2.015625 -9.484375 2.265625 -11.078125 2.9375 -12.503906 C 3.355469 -13.425781 3.609375 -14.351562 4.027344 -15.191406 C 4.195312 -15.523438 4.449219 -15.777344 4.617188 -16.113281 C 4.953125 -16.867188 5.539062 -17.457031 5.707031 -18.210938 C 5.789062 -18.292969 5.789062 -18.460938 5.875 -18.546875 C 6.714844 -19.132812 7.132812 -20.058594 7.972656 -20.726562 C 8.644531 -21.316406 9.230469 -22.15625 9.988281 -22.742188 C 11.246094 -23.664062 12.421875 -24.589844 13.929688 -25.175781 C 14.769531 -25.511719 15.523438 -26.015625 16.195312 -26.6875 C 16.449219 -26.855469 16.53125 -26.9375 16.699219 -26.9375 C 16.867188 -26.9375 16.953125 -26.855469 17.121094 -26.6875 C 17.625 -26.265625 17.707031 -26.015625 17.457031 -25.429688 C 17.035156 -24.421875 16.53125 -23.414062 16.28125 -22.324219 C 16.113281 -21.148438 15.191406 -18.292969 14.601562 -17.203125 C 13.847656 -15.523438 13.007812 -13.847656 12.167969 -12.085938 C 11.75 -10.992188 10.992188 -9.988281 10.324219 -8.980469 C 9.820312 -7.972656 9.148438 -7.050781 8.644531 -6.042969 C 6.964844 -3.355469 4.449219 -1.511719 1.847656 0.167969 Z M 12.167969 -9.902344 C 12.253906 -9.988281 12.253906 -10.070312 12.253906 -10.15625 L 12.421875 -9.988281 C 12.421875 -9.902344 12.335938 -9.820312 12.253906 -9.734375 C 12.253906 -9.820312 12.167969 -9.820312 12.167969 -9.902344 Z M 2.601562 -17.875 L 2.683594 -17.875 L 2.683594 -17.792969 Z M 13.679688 -12.671875 L 13.59375 -12.671875 L 13.59375 -12.757812 Z M 2.351562 -17.289062 L 2.351562 -17.203125 L 2.265625 -17.203125 Z M 10.65625 -7.132812 L 10.65625 -7.300781 Z M 10.65625 -7.132812 "/></g></g></g><g fill="#ff5757" fill-opacity="1"><g transform="translate(300.189874, 295.363447)"><g><path d="M 5.539062 -17.625 C 6.628906 -16.867188 7.886719 -16.28125 9.148438 -15.609375 C 8.8125 -15.273438 8.644531 -15.105469 8.558594 -14.855469 C 8.476562 -14.433594 8.308594 -14.015625 7.636719 -13.929688 C 7.21875 -13.929688 7.050781 -13.679688 6.796875 -13.511719 C 6.796875 -13.34375 6.628906 -13.089844 6.546875 -13.089844 C 6.378906 -13.089844 6.210938 -13.175781 6.125 -13.175781 C 5.621094 -13.175781 5.453125 -12.839844 5.285156 -12.503906 C 5.371094 -12.335938 5.285156 -12.253906 5.121094 -12.253906 C 4.363281 -12 3.945312 -11.496094 3.523438 -11.078125 C 3.1875 -10.910156 2.9375 -10.742188 2.769531 -10.574219 C 1.34375 -9.988281 0.25 -9.230469 -0.25 -7.972656 C -0.839844 -7.21875 -1.007812 -6.378906 -1.679688 -5.453125 C -1.929688 -4.953125 -1.847656 -4.449219 -1.761719 -3.945312 C -1.34375 -2.183594 -0.585938 -0.671875 0.753906 0.585938 C 1.511719 1.761719 3.019531 2.183594 4.28125 2.351562 C 5.121094 2.351562 6.042969 2.183594 6.628906 1.929688 C 7.886719 1.511719 9.148438 1.007812 9.902344 0 C 10.070312 -0.167969 10.324219 -0.335938 10.65625 -0.585938 C 12.421875 -1.847656 13.007812 -2.097656 13.847656 -3.609375 C 14.097656 -4.195312 14.519531 -4.699219 14.855469 -5.121094 C 15.023438 -5.371094 15.023438 -5.621094 15.191406 -5.957031 C 16.027344 -7.21875 16.195312 -8.644531 16.53125 -10.15625 L 16.53125 -10.574219 C 16.449219 -11.664062 15.523438 -12.839844 15.105469 -13.847656 C 14.9375 -14.519531 14.351562 -15.023438 13.847656 -15.441406 C 13.511719 -15.777344 13.59375 -15.945312 13.847656 -16.113281 C 14.015625 -16.28125 14.015625 -16.363281 14.265625 -16.449219 C 15.859375 -17.203125 23.582031 -18.964844 25.261719 -19.386719 C 25.679688 -19.46875 26.097656 -19.636719 26.433594 -19.804688 C 26.6875 -19.890625 26.6875 -19.972656 26.6875 -20.058594 C 26.519531 -20.226562 26.265625 -20.394531 26.015625 -20.394531 L 25.679688 -20.394531 C 24.839844 -19.890625 23.832031 -19.890625 22.996094 -19.554688 C 22.238281 -19.21875 15.441406 -17.792969 14.519531 -17.457031 C 14.097656 -17.371094 13.761719 -17.203125 13.34375 -16.953125 C 13.007812 -16.785156 12.671875 -16.699219 12.335938 -16.699219 C 11.917969 -16.699219 11.496094 -16.867188 11.078125 -17.121094 C 10.15625 -17.457031 8.894531 -18.210938 8.140625 -18.796875 C 7.21875 -19.386719 7.050781 -20.140625 7.386719 -20.8125 C 7.804688 -21.398438 8.308594 -21.988281 8.726562 -22.742188 C 8.980469 -23.496094 9.566406 -24 10.574219 -24.335938 C 11.078125 -24.503906 11.664062 -24.839844 12 -25.175781 C 13.007812 -25.847656 13.847656 -26.265625 15.023438 -26.433594 C 16.449219 -26.519531 17.371094 -27.023438 18.378906 -27.441406 C 18.796875 -27.527344 20.140625 -27.777344 20.394531 -27.777344 C 20.644531 -27.777344 21.0625 -27.777344 21.230469 -27.863281 C 21.820312 -28.03125 22.070312 -28.199219 22.070312 -28.53125 C 22.070312 -28.953125 21.566406 -29.203125 21.230469 -29.371094 C 20.476562 -29.625 19.890625 -29.875 19.132812 -29.875 C 18.460938 -29.875 17.875 -29.960938 17.203125 -30.042969 C 15.691406 -30.296875 14.9375 -30.464844 14.351562 -30.464844 C 13.847656 -30.464844 13.425781 -30.296875 12.589844 -30.128906 C 11.917969 -29.960938 11.078125 -29.539062 10.40625 -29.289062 C 7.804688 -28.113281 5.875 -26.351562 4.617188 -24.085938 C 4.027344 -23.328125 3.777344 -22.15625 3.523438 -21.230469 C 3.441406 -20.980469 3.523438 -20.726562 3.777344 -20.476562 C 4.195312 -19.972656 4.699219 -19.46875 4.699219 -18.714844 C 4.699219 -18.292969 5.203125 -17.960938 5.539062 -17.625 Z M 11.917969 -13.679688 C 12.167969 -13.425781 12.167969 -13.175781 12.253906 -12.921875 C 12.503906 -11.246094 12.253906 -9.734375 11.414062 -8.308594 C 9.734375 -5.371094 7.050781 -2.351562 3.859375 -1.089844 C 3.523438 -1.007812 3.1875 -0.839844 2.769531 -0.839844 C 2.601562 -0.839844 2.433594 -0.839844 2.265625 -0.839844 C 1.929688 -0.839844 1.59375 -0.839844 1.089844 -1.089844 C 0.671875 -1.425781 0.671875 -2.015625 0.25 -2.519531 C 0.25 -2.519531 0.25 -2.601562 0.167969 -2.683594 C 0.671875 -3.691406 0.25 -4.785156 0.671875 -5.957031 C 1.34375 -7.972656 3.1875 -10.40625 5.203125 -11.246094 C 5.371094 -11.414062 5.621094 -11.582031 6.042969 -11.75 C 6.964844 -12.085938 7.722656 -12.671875 8.558594 -13.257812 C 9.0625 -13.679688 9.988281 -13.929688 10.574219 -14.351562 C 10.65625 -14.351562 10.742188 -14.433594 10.824219 -14.433594 C 11.246094 -14.433594 11.75 -14.097656 11.917969 -13.679688 Z M 8.222656 -1.929688 C 8.140625 -1.929688 7.972656 -1.929688 8.140625 -2.097656 C 8.140625 -2.097656 7.804688 -2.183594 7.886719 -2.265625 C 8.222656 -3.273438 9.0625 -3.945312 9.902344 -4.53125 C 10.070312 -4.617188 9.734375 -4.53125 10.070312 -4.449219 C 10.070312 -4.449219 10.324219 -4.195312 10.15625 -4.195312 C 9.566406 -3.523438 8.980469 -2.769531 8.222656 -1.929688 Z M 11.160156 -5.707031 C 10.992188 -5.453125 10.910156 -5.203125 10.574219 -5.035156 L 10.324219 -5.035156 L 10.238281 -5.121094 C 10.324219 -5.371094 10.40625 -5.707031 10.574219 -6.125 C 10.65625 -6.292969 11.160156 -6.460938 11.160156 -6.292969 C 11.328125 -6.125 11.328125 -6.042969 11.160156 -5.707031 Z M 5.453125 -0.167969 C 5.371094 -0.167969 5.285156 -0.167969 5.203125 -0.25 C 5.203125 -0.671875 5.539062 -0.839844 6.210938 -0.839844 C 6.292969 -0.25 6.292969 -0.25 5.453125 -0.167969 Z M 11.917969 -6.964844 C 11.832031 -6.882812 11.75 -6.796875 11.664062 -6.796875 C 11.582031 -6.796875 11.582031 -6.882812 11.414062 -6.882812 C 11.582031 -6.964844 11.664062 -7.132812 11.664062 -7.21875 L 11.832031 -7.21875 C 11.917969 -7.132812 11.917969 -6.964844 11.917969 -6.964844 Z M 4.449219 0 C 4.53125 -0.0820312 4.53125 -0.167969 4.53125 -0.167969 L 5.121094 -0.167969 C 5.121094 -0.0820312 5.121094 0 4.953125 0 Z M 7.46875 -2.015625 L 7.554688 -1.929688 L 7.46875 -1.929688 Z M 5.621094 0.921875 L 5.539062 0.921875 L 5.539062 0.839844 Z M 5.621094 0.921875 "/></g></g></g><g fill="#ffffff" fill-opacity="1"><g transform="translate(81.942418, 267.068454)"><g><path d="M 19.59375 -10.515625 L 37.640625 -10.515625 L 37.640625 0 L 2.46875 0 L 2.40625 -8.625 L 18.625 -25.375 C 19.789062 -26.539062 20.726562 -27.71875 21.4375 -28.90625 C 22.15625 -30.09375 22.515625 -31.117188 22.515625 -31.984375 C 22.515625 -33.023438 22.15625 -33.816406 21.4375 -34.359375 C 20.726562 -34.898438 19.722656 -35.171875 18.421875 -35.171875 C 16.648438 -35.171875 14.671875 -34.660156 12.484375 -33.640625 C 10.304688 -32.628906 8.113281 -31.210938 5.90625 -29.390625 L 0.84375 -39.125 C 7.59375 -43.757812 14.125 -46.078125 20.4375 -46.078125 C 23.550781 -46.078125 26.328125 -45.566406 28.765625 -44.546875 C 31.210938 -43.523438 33.140625 -42.109375 34.546875 -40.296875 C 35.953125 -38.484375 36.65625 -36.382812 36.65625 -34 C 36.65625 -31.625 35.890625 -29.191406 34.359375 -26.703125 C 32.828125 -24.210938 30.628906 -21.539062 27.765625 -18.6875 Z M 19.59375 -10.515625 "/></g></g></g></svg>