<svg xmlns="http://www.w3.org/2000/svg" width="150" height="150"><defs><clipPath id="a"><path d="M33.2 15H111v110H33.2zm0 0"/></clipPath></defs><path d="M0 0h150v150H0z"/><g clip-path="url(#a)"><path d="M64.172 124.785c1.785-.12 3.527-.472 5.187-1.113-10.98-2.363-13.933-14.567-11.53-24.383 1.343-5.48 4.812-10.344 8.23-14.613 4.972-6.219 6.433-12.867 8.16-20.387-.801 5.492-.078 11.18 2.937 15.926 2.067 3.242 4.965 5.867 7.25 8.957 4.274 5.785 5.797 12.902 5.332 20.058-.718 11.098-8.078 14.68-10.047 13.946 8.97 3.347 30.926-3.676 31.243-26.973.093-6.965-1.239-17.36-5.868-22.574 1.871 3.594.168 13.586-3.976 15.648.238-10.277-3.485-16.656-6.86-23.879-3.289-7.039-5.488-15.16-2.343-22.636-1.969 1.597-2.66 4.793-3.852 6.957a87.298 87.298 0 01-5.316 8.476c1.328-15.09-2.723-30.593-11.266-43.113 2.79 4.09 2.774 9.55 1.344 14.285-1.43 4.738-4.102 8.985-6.402 13.367-2.305 4.38-4.489 8.203-4.352 13.149a38.487 38.487 0 011.316-22.02c-7.132 4.653-8.347 14.446-8.5 22.95-.156 8.507-.402 18.101-6.668 23.867 1.52-8.797 1.864-16.446-1.87-19.375.82 6.554-1.766 12.554-6.169 17.488-11.015 12.352-7.437 30.41 1.11 38.754 5.215 5.094 15 7.773 22.91 7.238" fill="#ff5757"/></g></svg>