<svg xmlns="http://www.w3.org/2000/svg" width="200" height="200"><defs><clipPath id="a"><path d="M80.535 47.047h40.817v57.488H80.535zm0 0"/></clipPath></defs><path d="M0 0h200v200H0z"/><g clip-path="url(#a)"><path d="M96.855 104.496a9.163 9.163 0 002.711-.582c-5.738-1.234-7.28-7.621-6.023-12.758.7-2.867 2.512-5.414 4.297-7.648 2.601-3.254 3.363-6.735 4.265-10.668-.418 2.87-.039 5.851 1.54 8.332 1.078 1.7 2.593 3.07 3.785 4.687 2.234 3.032 3.027 6.754 2.785 10.496-.375 5.81-4.223 7.684-5.25 7.301 4.687 1.754 16.164-1.926 16.328-14.117.047-3.644-.648-9.082-3.066-11.812.98 1.878.09 7.109-2.079 8.191.125-5.379-1.82-8.719-3.582-12.496-1.718-3.688-2.867-7.934-1.226-11.848-1.031.836-1.39 2.508-2.012 3.64a46.074 46.074 0 01-2.781 4.434c.695-7.894-1.422-16.007-5.887-22.558 1.457 2.14 1.45 4.996.703 7.476-.746 2.477-2.144 4.7-3.347 6.993-1.2 2.293-2.344 4.293-2.274 6.882-.898-3.8-.656-7.859.688-11.523-3.727 2.434-4.36 7.559-4.442 12.008-.082 4.453-.21 9.472-3.484 12.492.793-4.606.976-8.61-.977-10.14.426 3.429-.922 6.57-3.222 9.152-5.758 6.465-3.887 15.91.578 20.28 2.726 2.665 7.84 4.067 11.972 3.786" fill="#ff5757"/></g><path d="M87.367 118.344h7.176l-8.734 16.601v7.692h-7.207v-7.551l-8.903-16.742h7.211l5.3 9.91zm22.766-.449c2.492 0 4.75.546 6.773 1.632 2.024 1.086 3.606 2.582 4.75 4.485 1.145 1.906 1.719 4.047 1.719 6.425 0 2.407-.574 4.575-1.719 6.5-1.144 1.93-2.726 3.442-4.75 4.543-2.023 1.094-4.281 1.641-6.773 1.641-2.516 0-4.781-.547-6.793-1.64-2.004-1.102-3.582-2.614-4.723-4.543-1.148-1.926-1.719-4.094-1.719-6.5 0-2.38.57-4.52 1.72-6.426 1.14-1.903 2.718-3.399 4.722-4.485 2.012-1.086 4.277-1.632 6.793-1.632zm.11 6a5.47 5.47 0 00-2.97.867c-.91.574-1.64 1.363-2.183 2.367-.54 1.008-.809 2.121-.809 3.351 0 1.223.27 2.34.809 3.356.543 1.02 1.273 1.82 2.183 2.41.918.59 1.907.883 2.97.883 1.034 0 2-.293 2.89-.883.887-.59 1.586-1.387 2.09-2.39.511-1.004.77-2.13.77-3.376 0-1.23-.259-2.343-.77-3.351-.504-1.004-1.196-1.793-2.075-2.367a5.178 5.178 0 00-2.906-.867zm24.593 8.691c0 1.367.394 2.469 1.176 3.3.789.829 1.77 1.243 2.949 1.243 1.156 0 2.101-.41 2.844-1.227.738-.82 1.11-1.925 1.11-3.316v-14.242h7.206v14.242c0 2.129-.457 3.984-1.367 5.566-.914 1.582-2.211 2.801-3.899 3.668-1.683.868-3.648 1.301-5.894 1.301-2.262 0-4.246-.434-5.957-1.3-1.711-.868-3.035-2.087-3.965-3.669-.934-1.582-1.402-3.437-1.402-5.566v-14.242h7.199zm0 0" fill="#fff"/><path d="M140.195 149.672c.098-.098.235-.176.336-.274.942-.707 1.766-1.613 2.594-2.753.04-.098.215-.547.137-.547-.04 0-.082.015-.16.113-.61.672-1.415 1.71-2.024 2.281-.39.395-1.2.887-1.71 1.082a2.501 2.501 0 00-.47.215c-.175.078-.355.078-.53.137-.079.023-.157.023-.235.023-.14 0-.297-.023-.434-.082-.058-.015-.097-.078-.117-.137a6.413 6.413 0 01-.16-.843c-.016-.078.023-.157.023-.215.016-.063.04-.137.04-.2 0-.195.058-.37.117-.57.312-1.101.843-2.418 1.668-3.242.12-.137.277-.254.375-.414.273-.39.687-.742 1.082-1 .02.02.078.04.117.059.039 0 .078.02.097.039.118.097.137.234.118.375-.059.234-.215.414-.332.61-.059.058-.098.116-.141.175-.078.117-.04.234.101.234h.333c.097.02.18-.039.238-.097.156-.137.234-.336.312-.508.235-.516-.078-1.063-.57-1.203-.117-.016-.234-.059-.355-.059-.075 0-.137 0-.215.043-.04.016-.078.016-.118.016h-.117c-.14.023-.277.058-.375.14-.59.39-1.414 1.317-1.726 1.965a10.285 10.285 0 00-1.043 2.457c-.078.371-.176.746-.176 1.14 0 .528.137.802.352 1.255.18.375.511.511.867.652.039.016.078 0 .117.016.273 0 .57-.04.805-.196.039-.02.078-.02.117-.039.195-.058.375-.117.492-.297.078-.074.156-.113.234-.171.121-.082.239-.102.336-.18zm-2.12-4.285c.019-.04.038-.059.058-.098.015.04.015.078.015.121 0 .04-.015.055-.054.074h-.02c-.039-.035-.023-.074 0-.097zm-.356.789c0-.063-.02-.121.058-.137 0 .059 0 .113-.058.137zm-.215.37c0-.038.02-.058.059-.058 0 .04 0 .059-.02.078 0 .02 0 .02-.02.04 0-.02-.02-.04-.02-.06zm.434-.745c-.024.039-.043.058-.063.058v-.078c0-.02.02-.02.02-.039.02.02.042.04.042.059zm-.551 1.16c0 .02 0 .039.02.059l-.044.039c0-.02 0-.04-.015-.079 0 0 .015 0 .039-.02zm.058-.219c.016.024.016.043.04.059-.024 0-.024.023-.04.023 0-.023-.023-.039-.023-.058zm.766-1.57c-.02-.04 0-.04.02-.04 0 .02 0 .02-.02.04zm-.234.414l.015.035h-.015zm0 0" fill="#ff5757"/><path d="M145.48 147.922l.06-.059c.038-.058.038-.175 0-.136-.02.02-.06.058-.08.097 0 .02.02.059.02.078-.214.043-.214.258-.312.317-.04 0-.063.02-.063.039.024 0 .04-.02.063-.02-.023.02-.04.059-.063.078v-.039l-.058.059s0 .02.02.039c-.235.355-1 1.238-1.376 1.316-.058.079-.234-.195-.355-.195-.016-.039-.016-.078-.059-.098a.735.735 0 01-.078-.53c0-.098 0-.22.024-.298.015-.254 0-.511.097-.765.016-.04.016-.078-.023-.118a.125.125 0 010-.117c.101-.117.101-.316.121-.472.039-.176.02-.356.137-.493-.04-.195.097-.312.136-.507.04-.2.176-.77.258-.946.313-.668.606-1.375.746-2.101a.626.626 0 00-.297-.551c-.039 0-.078-.02-.117-.02h-.215c-.043 0-.078.02-.117.04-.199.312-.316.648-.433 1-.078.277-.157.57-.254.847-.04.137-.102.235-.14.371-.157.532-.294 1.063-.45 1.575-.04.234-.121.43-.137.628-.023.375-.082.746-.12 1.118-.02.277-.04.55.038.847.02.04.02.098.04.156.019.16.097.297.198.415.118.136.235.293.352.433a.792.792 0 00.414.293c.059.04.137.04.215.04.336 0 .785-.235 1.004-.532.137-.117.097-.156.215-.313.117-.12.277-.53.214-.726 0-.04-.02-.082.024-.082.039.02.055.058.098.082.039-.063-.024-.137 0-.2.015-.077.058-.136.097-.214.04-.098.137-.215.137-.336zm-1.023-6.977c.121.102.277.14.434.22.078-.044.175-.08.277-.118.059-.024.074-.082.074-.121.063-.196.024-.371.098-.547.023-.024 0-.043-.016-.059a.284.284 0 00-.18-.082c-.015 0-.039 0-.058.02a6.68 6.68 0 00-.531.394.526.526 0 00-.137.157c-.02.039 0 .117.039.136zm.648 7.371v.04c0 .019-.02.019-.02.039 0-.04 0-.06.02-.079zm0 0" fill="#ff5757"/><path d="M149.96 136.23c-.019-.02-.038-.02-.058-.02 0 .02.02.04.02.04.02 0 .039-.02.039-.02zm-.765 2.38c-.02.077-.02.117-.062.117-.016 0-.04 0-.059-.02-.015 0-.039-.02-.054-.02.292-.804.566-1.414.882-2.023.059-.117.118-.18.137-.297.04-.137.098-.254.117-.39a.413.413 0 000-.22c-.039-.136-.117-.253-.176-.37-.039-.082-.316-.157-.375-.14-.02 0-.02 0-.039.019-.293.199-.39.511-.507.847-.2.57-.356.805-.532 1.395-.023.078-.082.156-.097.234l-.22.746v.04c.04 0 .08-.04.08-.079 0-.078.038-.156.097-.234.02-.04.058-.059.082-.059.035 0 .074.02.117.059l-.117.312c-.082.024-.18.024-.258.024v-.024c-.02.024-.02.024-.04.024a3.75 3.75 0 01-.452.039c-.078 0-.156 0-.215.02-.137.038-.215.038-.352.038-.316 0-.652.079-.945.098-.137 0-.258.02-.371.02h-.102l-.175.039c-.098 0-.141.097-.176.234-.04.121-.02.297.02.453 0 .117.077.215.156.2.02 0 .058-.024.097 0 .278-.063.512-.141.746-.141h.078c.141-.02.278-.04.415-.04.078 0 .195-.019.292-.038.04 0 .063 0 .083-.02-.02-.039-.043-.098-.083-.117.04-.04.083-.04.122-.04.136-.019.273 0 .41-.058.058 0 .136 0 .219-.023v.062c0 .02 0 .04-.024.059-.016.039-.035.059-.016.078-.18.473-.828 2.102-.785 2.258.098-.035.844-2.082.864-2.14v-.079c.097 0 .117-.058.039-.137 0-.039.02-.078.039-.117.02 0 .058 0 .097-.02.04-.019.078-.019.137-.019-.02.04-.039.055-.039.078-.02.02-.02.04-.02.059v.02h-.039c-.058 0-.117.058.02.097-.137.492-.824 2.238-.863 2.438-.098.312-.16.628-.278.921-.097.317-.53 1.907-.707 2.204-.02.039-.02.117-.039.175-.039.258-.156.493-.176.746 0 .04-.02.059-.039.079l-.078.277c-.058.254-.18.473-.16.726 0 .02 0 .02-.02.04-.117.214-.136.453-.175.687-.04.215-.117.434-.098.648 0 .04-.02.079-.039.118 0-.02-.02-.04-.02-.04-.058-.39.079-.765.079-1.16v-.02c.117-.175.136-.37.156-.589 0-.176.355-1.453.414-1.648.02-.059.414-1.375.355-1.512-.062.273-.515 1.766-.59 2.004-.18.605-.59 1.922-.59 2.55v.141c-.12.313-.062.649-.062.98 0 .2.121.63.317.731.175.098.312.254.472.39a.239.239 0 00.176.079c.059 0 .098-.02.156-.04l.551-.234c.234-.117.453-.218.649-.394-.02-.02-.04-.02-.04-.059l.06-.039v.02c0-.04.019-.059.058-.078.078-.137.199-.235.316-.332.04-.043.059-.043.098-.043a.17.17 0 01.097.02c.02 0 .04.023.079.023.02 0 .039-.024.058-.043.02-.04 0-.059-.039-.078-.02-.02-.039-.04-.039-.059 0-.059.098-.078.137-.078h.043c.015.02.039.02.058.02.016 0 .04-.04.016-.06-.035-.097-.016-.136.062-.195.157-.12.313-.257.41-.433.044-.04.044-.078.044-.137-.024-.058.015-.078.074-.101.039-.016.101-.016.136-.016.141-.023.2-.098.2-.238.058-.02.078-.059.078-.118v-.257h-.078c0-.04.039-.059.078-.075v.075c.097-.016.117-.016.14-.137h-.082c-.02.039-.02.062-.058.062 0-.039.02-.062.058-.082.02-.039.04-.039.082-.058l.036-.137a.864.864 0 01.277-.254c0-.039.039-.058.078-.082-.02.059-.039.082-.078.098 0 .101-.059.16-.078.219.137 0 .215-.098.273-.196.02-.023 0-.078-.058-.097h-.059a.42.42 0 01.215-.239c.02.02 0 .078.059.04l-.06-.04c0-.078.04-.136.099-.195l.375-.394a6.99 6.99 0 01.687-.825c.059-.097.059-.136.02-.136-.02 0-.059.02-.118.078l-.726.804c-.317.395-.61.77-.965 1.102l-.313.332c-.097.16-.218.277-.335.394l-.57.57c-.06.06-.118.138-.177.177-.175.101-.292.238-.43.375a8.06 8.06 0 01-1.1.843c-.102.078-.24.137-.356.2-.02 0-.04.015-.078.015-.078 0-.118-.058-.157-.137a1.02 1.02 0 01-.078-.41v-.453c0-.097 0-.234.02-.332.058-.14.058-.297.058-.433 0-.141.02-.258.059-.375a.845.845 0 00.078-.297l.078-.43c.02-.176.102-.316.156-.453.043-.117.043-.215.083-.336.019-.098.035-.195.074-.274.023-.058.16-.55.16-.609 0-.078.02-.137.058-.215.04-.078.47-1.414.493-1.511.058-.258.136-.512.214-.75.137-.47 1.024-2.848 1.18-3.32l.176-.512c.059.02.102.02.14.02.036 0 .075 0 .098-.02.04 0 .098-.04.137-.016.02.035.039.035.059.035.039 0 .058-.02.078-.02.02-.039.039-.078.058-.078.02 0 .02.02.04.04.038.078.038.078.077.039l-.078-.04c.02-.058.059-.039.078-.039v.04c.02-.06.02-.06.02.023l.098-.082a.185.185 0 01.12-.04h.06c.136-.019.253-.038.37-.097.063 0 .102-.058.137-.039.18.02.356-.117.531-.117.16-.04.278-.117.375-.14.118 0 .512-.137.59-.216.059-.039.098-.039.156-.039.06 0 .137.02.196.04a4.57 4.57 0 01-.508.335c.04.02.059.02.098.02.02 0 .058 0 .097-.02.078-.082.157-.058.196-.136h.039c.039 0 .297-.141.297-.2.039-.156-.02-.273 0-.449a.122.122 0 00-.059-.14.163.163 0 00-.078-.04c-.024 0-.04.02-.059.079-.062.101-.14.14-.199.14-.098 0-.156.078-.234.117-.04.06-.098.098-.157.098-.023-.02-.039-.02-.062-.02-.059 0-.098.04-.156.04-.02.039-.078.078-.137.058h-.059c-.058 0-.097 0-.117.04-.039.019-.097.058-.137.058-.023 0-.043-.02-.058-.02-.024-.039-.063-.02-.102.02-.078.059-.175.098-.234.078-.02-.02-.04-.02-.059-.02-.02 0-.058.02-.078.04 0 .062-.14.078-.199.078a.232.232 0 01-.117-.04c-.02.024-.078.024-.117.083-.059.054-.137.078-.239.078-.015.039-.058.058-.097.02-.04-.044-.075.019-.098.019 0 .02-.02.02-.04.02h-.116c-.019.038-.058.038-.097.038a.725.725 0 01-.176-.039c.02-.039.02-.097.059-.097.02-.024.059-.04.078-.082-.02-.016-.039-.016-.059-.016-.043 0-.097.016-.117.035-.023 0-.023 0-.023.04 0 .023.023.062.023.081zm-2.144 3.1l-.313 1.024c-.02.059 0 .137 0 .22.04 0 .059-.04.059-.083.098-.273.156-.57.254-.844.039-.117.062-.234.062-.355zm1.926 6.173a1.13 1.13 0 01.296-.293v.156l-.14.098c-.04.039-.098.039-.156.039zm2.34-9.551c.019-.02.038-.039.058-.039.04 0 .078.039.137.059-.04.039-.098.039-.137.062-.078 0-.195.035-.293.035h-.043c.082-.097.18-.097.277-.117zm-1.926.809c-.274 0 .214.074.214.074h.043v-.055l-.023-.043c-.078 0-.137 0-.234.024zm-1.649.273a.549.549 0 00-.238-.059c-.059 0-.098 0-.137.02 0 .02-.02.059-.02.059l.02.02c.137 0 .235-.02.375-.04zm1.883-1a.43.43 0 00.121.016c.04 0 .059-.016.074-.078-.035-.02-.074-.02-.097-.02a.99.99 0 00-.235.04s-.02.019-.02.042l.02.016c.02.02.04.043.059.043.039 0 .058-.043.078-.059zm-2.887 4.54c-.101.097-.117.233-.14.37-.016 0 .023.02.023.04.117-.118.117-.255.117-.41zm3.735-4.364c-.04.058-.078.078-.121.078-.016 0-.059-.02-.079-.059.02-.039.063-.039.079-.039a.17.17 0 01.097.02c.024-.063.063-.078.102-.078.039 0 .058 0 .117.039-.059.02-.117.058-.156.058-.02 0-.02 0-.04-.02zm.312-.492c.059.039.078.039.117.039.063 0 .121-.02.2-.078v-.02c-.16 0-.16 0-.317.059zm.04.453c-.04-.024-.06 0-.118 0h-.039c0-.04.02-.063.039-.078a.272.272 0 01.098-.043c.039-.016.078 0 .078.02 0 .038-.04.077-.059.1zm-2.419.254c-.039 0-.058.02-.097.02-.04 0-.04-.02-.04-.06-.019-.019-.019-.058 0-.058.02 0 .06 0 .079-.02h.097zm.512-1.594c0 .062-.02.082-.078.121h-.02c0-.039-.02-.078-.02-.098 0-.062.02-.082.06-.082.038-.02.077.02.058.059zm1.121 1.101c-.039-.019-.059-.019-.098-.019-.02 0-.058.02-.097.059.039.039.078.078.097.062.04-.023.079-.062.079-.101.02 0 .039.019.039-.04-.02.02-.02.04-.02.04zm1.18.512c.058 0 .097-.02.136-.02.02 0 .04-.058.04-.058-.04-.02-.02-.02-.04-.02-.02-.019-.058-.019-.117 0-.02 0 0 .04-.02.098zm-.844-.61c0 .04 0 .04.02.06.039-.02.097 0 .117-.06-.02-.019-.02-.058-.02-.058-.043 0-.082 0-.097.04zm1.078.434v.059l.02.02c.02-.02.039 0 .078 0 0 0 .02 0 .039-.02v-.059zm-.844.293c.02.02.04.02.04.02.038 0 .117-.04.195-.059 0 0 0-.039-.02-.02-.039-.019-.117.02-.176.04zm-.789-.175c.024-.059.043-.098.063-.098 0 0 .02.02.039.059.02.02.02.02.02.039-.06.039-.079.02-.122 0zm-.39 9.039h-.059c-.039 0-.078 0-.098-.078.059 0 .137 0 .157.078zm-1.868-8.961c-.019 0-.039.02-.078.02-.039.019-.058 0-.058-.02.02-.02.039-.059.058-.059.04 0 .059.02.078.059zm2.833.16c-.043.016-.102-.024-.122-.043-.02 0-.058 0-.02.043 0 .016.02.055.04.035.02 0 .059.04.102-.035zm1.117-.652c.02-.04.039-.079.078-.079.023 0 .023 0 .039.02-.016.059-.04.078-.059.078-.02 0-.039-.02-.058-.02zm-3.555.453c.059-.04.098-.059.137-.059l-.04.059c-.019.02-.058.02-.097.039zm1.887.273c-.04 0-.082 0-.098.04v.023c.016.039.04.058.04 0 .034 0 .034 0 .058-.04zm.215-.45c.02 0 .02.079.02.079v.02h-.06v-.079c0-.02 0-.02.02-.02zm-3.047.727c0-.039.02-.039.039-.039.02 0 .039.02.078.04-.016.019-.04.039-.059.039-.02 0-.039-.02-.058-.04zm3.183-.726c.02-.04.059-.02.078-.02-.02.059-.02.078-.039.078 0 0-.02-.019-.039-.058zm-.668.195c0 .02-.039.02-.058.04l-.02-.02v-.04c.04-.038.059-.019.078.02zm-4.027 9.985l-.04.039c0-.02-.019-.04-.019-.059l.059-.059zm3.852-1.297c0-.04.039-.082.078-.082 0 .043-.04.082-.078.082zm-2.438-8.176c.02-.02.04 0 .098.02h-.02c-.02.019-.039.019-.078.019zm1.984 8.625c0-.04.04-.059.079-.078 0 .039-.04.078-.079.078zm-1.277 1.73c.04 0 .059 0 .059-.058h-.059zm2.852-10.687c.02-.043.02-.063.02-.063 0-.02 0 0-.02 0-.024 0 0 .063 0 .063zm-.668 8.133c-.043 0-.059.039-.082.078.039-.02.082-.04.082-.078zm-.532.453c.02-.04.04-.078.079-.078 0 .039-.04.058-.079.078zm.391-.317c.043 0 .059-.02.059-.058zm1.965-8.98c.039-.059.062-.059.082 0v-.02c-.02.04-.043.02-.082.02zm-.45-.254c-.019-.02-.058-.039-.077 0 .02.02.058.04.078 0zm-.706.965c-.04-.024-.078-.063-.078 0 .015 0 .039.035.078 0zm-1.399-.082c.02-.02.043-.059.059-.04 0-.019 0 0 .023.02l-.023.02c-.016-.02-.04.02-.059 0zm.809 8.137c-.04 0-.063.039-.078.078a.16.16 0 00.078-.078zm-2.754-7.704c0-.058.039-.039.059-.02-.02.04-.036.02-.06.02zm-.332 0c-.02 0 0 .04 0 .04h-.04c0-.02 0-.06.02-.04zm4.973-1.12a.194.194 0 01-.043.058c0-.059 0-.059.043-.059zm-.59-.196c.02 0 .039.02.058.02v-.02s0-.02-.02-.02c0 0-.019 0-.038.02zm-1.004.688c-.02-.079 0-.059.02-.079 0 .059-.02.079-.02.079zm1.297-.805c0 .02.039.058.058.02-.02-.02-.02-.02-.058-.02zm-2.985 10.473c-.043-.04 0-.04.016-.04 0 .02 0 .02-.016.04zm.371-.375c-.039-.04 0-.04.02-.04 0 .024 0 .024-.02.04zm-1.117 1.574c-.023 0-.043-.02-.043-.02v.04c0-.02.02-.02.043-.02zm4.559-11.32c-.02-.02-.02-.04 0-.02zm-5.465 1.062c0 .039-.02.039-.04.039 0-.02 0-.04.04-.04zm-1.297 9.336c.04.035-.02.035-.039.035.02 0 .02-.016.04-.035zm3.832-10.258s-.02 0-.039.016h.059c-.02 0-.02-.04-.02-.016zm.336.39s-.023 0-.043-.019c.02 0 .043 0 .043.02zm1.512.02c0-.02-.02-.02-.04 0h-.019c.02 0 .02.02.02.02zm-.649 7.488c-.039 0-.02 0-.02-.019h.02zm-.945-7.308s-.02 0-.02-.024v.04c.02.02.02 0 .02-.016zm.395.098c0-.024 0-.024-.02-.024l.02.04v-.016zm-1.477 9.195c.043.039 0 .039-.016.039.016-.02.016-.02.016-.04zm-1.254-8.883c-.02 0-.02 0-.02.04 0 0 .02 0 .02-.04zm4.106-1.434s-.06-.039-.02.02zm-3.696 11.653h-.02v-.02zm2.89-3.38c0 .02 0 .04-.019.04.02 0 .04 0 .02-.04zm-.058.06c-.02 0-.039 0 0 .039zm-.355-8.02v.039zm.824.18c0-.024.023 0 .023 0zm-1.336 8.82h-.016v-.02zm-1.965 2.281c-.02 0-.02-.02-.02-.02zm4.028-10.945s.023 0 .023-.02c0 0-.023-.039-.023.02zm-.332-.649c0-.02.02.02 0-.039zm-2.633-.492l-.02-.02zm.804 9.785c.02.02 0 .02 0 .02zm.254-8.921s.024 0 .024-.02zm-1.472 10.183l-.02.016zm1.3-1.32l.016-.02zm-2.027 2.476v.02zm1.438-10.77c0 .02.015.02.015 0zm0 0" fill="#ff5757"/><path d="M153.066 147.414c.02-.043-.023-.082-.062-.098v-.043c0-.039 0-.078.039-.078 0 0 .023.02.043.02.059.02.137.039.137.156v.375c0 .117.058.234.078.356.02.57.375.96.785 1.316.02.016.078.016.098.039.039.02.078.04.12.04.255 0 1.04-.65 1.22-.825.074-.063.038-.16.097-.219.059-.039.137-.098.195-.156.02-.02.02-.059 0-.059h-.058c-.356.235-.688.469-1.063.649a.766.766 0 01-.351.078c-.063 0-.121 0-.18-.02a1.385 1.385 0 01-.254-.828c0-1.02.508-3.199.922-4.027.14-.235.16-.488.117-.746-.097-.059-.195-.117-.293-.117a.315.315 0 00-.176.058c-.02.02-.062.02-.078.02-.039 0-.058 0-.097-.02-.278-.137-.551-.137-.848-.137-.469.02-.883.137-1.258.454-.156.136-.312.312-.512.39-.019.02-.039.04-.039.059-.058.117-.156.238-.253.277-.157.078-.118.254-.258.352-.41.375-.703.984-.942 1.496-.039.035-.058.078-.078.117-.355 1.078-.531 1.75-.531 2.93 0 .37.137.703.434.96l.136.137a.326.326 0 00.239.098c.097-.02.21-.02.312-.078.293-.137.98-.59 1.14-.844.04-.062.157-.078.196-.16.059-.113.156-.215.234-.313-.058-.156.137-.234.16-.351.02-.121.098-.238.157-.336a1.3 1.3 0 01.176-.332c.039-.082.097-.14.078-.238.14-.059.18-.215.218-.352zm-2.632 2.496c-.024.016-.063.016-.102.04-.039-.04-.078-.063-.078-.083-.04-.039-.04-.097-.04-.137 0-.136 0-.273-.058-.41a.224.224 0 010-.16c.078-.273.078-.55.117-.844.04-.097.059-.214.079-.312.117-.356.18-.73.335-1.063.098-.214.157-.433.254-.629.04-.078.098-.136.141-.214.078-.18.215-.317.254-.493.02-.02.02-.058.039-.082.195-.136.293-.351.492-.507.156-.137.293-.336.473-.473.293-.215.566-.434.922-.57a1.58 1.58 0 00.531-.356c.059-.039.078-.058.117-.058.04 0 .059.02.098.058.117.102.137.16.078.297-.098.234-.215.473-.274.727-.039.277-.257.945-.394 1.199-.176.394-.375.789-.57 1.2-.098.253-.274.487-.434.726-.113.238-.273.453-.39.687-.395.629-.985 1.063-1.59 1.457zm2.414-2.36c.02-.023.02-.038.02-.058l.038.035c0 .024-.02.043-.039.063 0-.02-.02-.02-.02-.04zm-2.243-1.866h.024v.02zm2.598 1.218h-.02v-.02zm-2.652-1.082v.02h-.02zm1.945 2.38v-.04zm0 0" fill="#ff5757"/><path d="M156.898 145.742c.254.176.547.313.844.469a.536.536 0 00-.14.18c-.016.097-.059.195-.215.214-.098 0-.137.06-.196.098 0 .04-.039.098-.058.098-.04 0-.078-.016-.098-.016-.12 0-.16.078-.2.156.02.04 0 .059-.038.059-.176.059-.274.176-.375.273a.967.967 0 00-.176.118c-.332.136-.59.316-.707.613-.137.176-.176.371-.336.586-.055.117-.039.238-.016.355.098.414.274.766.59 1.063.176.273.532.37.825.41.195 0 .41-.04.55-.098.293-.097.59-.215.766-.453.039-.039.098-.078.176-.137.414-.296.55-.351.746-.707.062-.136.16-.253.238-.351.04-.063.04-.121.078-.2.196-.292.235-.628.313-.98v-.101c-.02-.254-.235-.528-.332-.762-.04-.16-.176-.277-.297-.375-.078-.078-.059-.117 0-.156.039-.043.039-.059.101-.082.371-.176 2.18-.59 2.57-.688.098-.02.2-.058.278-.098.059-.02.059-.039.059-.058-.04-.04-.098-.078-.157-.078h-.082c-.195.117-.43.117-.625.195-.175.078-1.77.414-1.984.492a.845.845 0 00-.277.117.52.52 0 01-.235.059.582.582 0 01-.297-.098 2.934 2.934 0 01-.687-.394c-.215-.137-.254-.313-.176-.469.098-.137.215-.273.313-.453.058-.176.199-.297.433-.375a.928.928 0 00.336-.195c.235-.157.43-.254.707-.293.332-.02.551-.137.785-.239.098-.02.414-.078.473-.078s.156 0 .195-.02c.14-.038.196-.077.196-.155 0-.098-.118-.16-.196-.2-.175-.058-.312-.117-.492-.117-.156 0-.293-.02-.45-.039-.355-.059-.53-.098-.667-.098-.121 0-.219.04-.414.082-.16.036-.356.137-.512.196-.61.273-1.062.687-1.355 1.218-.137.176-.2.45-.258.665-.016.062 0 .12.058.18.102.116.22.234.22.41 0 .1.116.18.198.257zm1.489.922c.062.063.062.121.082.176.058.394 0 .75-.196 1.082-.394.687-1.023 1.398-1.77 1.691-.081.02-.16.059-.257.059h-.117c-.078 0-.156 0-.274-.059-.101-.078-.101-.215-.199-.336 0 0 0-.015-.02-.039.118-.234.02-.492.118-.765.16-.47.59-1.043 1.062-1.239a.564.564 0 01.196-.117c.218-.078.394-.215.59-.351.12-.102.335-.16.472-.258.02 0 .04-.02.059-.02.097 0 .219.078.254.176zm-.864 2.754c-.02 0-.058 0-.02-.04 0 0-.077-.019-.058-.042.078-.234.278-.39.473-.527.039-.02-.04 0 .039.02 0 0 .059.058.02.058-.137.156-.278.336-.454.531zm.692-.883c-.043.055-.063.113-.14.156h-.06l-.019-.02c.02-.062.04-.136.078-.237.02-.04.14-.079.14-.04.036.04.036.06 0 .141zm-1.34 1.293c-.02 0-.04 0-.059-.02 0-.097.082-.136.239-.136.015.137.015.137-.18.156zm1.512-1.59c-.016.02-.035.04-.059.04-.016 0-.016-.02-.055-.02a.098.098 0 00.055-.078h.043c.016.02.016.058.016.058zm-1.746 1.63c.02-.016.02-.04.02-.04h.136c0 .024 0 .04-.04.04zm.707-.47l.02.02h-.02zm-.434.688h-.016v-.02zm0 0" fill="#ff5757"/><path d="M54.152 136.828h9.625v5.61H45.02l-.036-4.602 8.653-8.934a9.837 9.837 0 001.5-1.882c.383-.633.574-1.18.574-1.641 0-.555-.191-.977-.574-1.266-.38-.289-.914-.433-1.61-.433-.945 0-2 .27-3.168.816-1.16.54-2.328 1.293-3.507 2.266l-2.7-5.192c3.602-2.472 7.082-3.707 10.45-3.707 1.66 0 3.144.27 4.441.817 1.305.543 2.336 1.297 3.086 2.265.75.965 1.125 2.086 1.125 3.36 0 1.265-.41 2.562-1.227 3.89-.816 1.328-1.988 2.754-3.515 4.274zm0 0" fill="#fff"/></svg>