<svg xmlns="http://www.w3.org/2000/svg" width="500" viewBox="0 0 375 375" height="500" version="1.0"><defs><clipPath id="a"><path d="M83 37.5h194.613V313H83zm0 0"/></clipPath></defs><path fill="#fff" d="M-37.5-37.5h450v450h-450z"/><path fill="#fff" d="M-37.5-37.5h450v450h-450z"/><path d="M-37.5-37.5h450v450h-450z"/><g clip-path="url(#a)"><path fill="#ff5757" d="M160.426 311.96c4.465-.3 8.82-1.183 12.969-2.78-27.446-5.907-34.829-36.418-28.825-60.953 3.356-13.704 12.035-25.868 20.575-36.54 12.437-15.542 16.082-32.167 20.402-50.964-2.004 13.73-.2 27.945 7.348 39.812 5.16 8.11 12.41 14.668 18.12 22.399 10.688 14.46 14.489 32.254 13.333 50.14-1.797 27.742-20.2 36.703-25.118 34.867 22.418 8.372 77.31-9.191 78.102-67.433.234-17.414-3.094-43.399-14.664-56.434 4.68 8.98.422 33.965-9.945 39.121.601-25.695-8.707-41.64-17.145-59.699-8.223-17.598-13.719-37.898-5.86-56.594-4.925 4-6.652 11.985-9.628 17.399a220.3 220.3 0 01-13.293 21.187c3.32-37.722-6.809-76.488-28.168-107.785 6.976 10.223 6.934 23.879 3.363 35.719-3.574 11.84-10.258 22.457-16.008 33.41-5.757 10.953-11.218 20.508-10.879 32.871-4.304-18.144-3.144-37.543 3.297-55.043-17.836 11.633-20.87 36.113-21.257 57.375-.391 21.262-1.004 45.246-16.665 59.664 3.793-21.996 4.657-41.117-4.683-48.441 2.05 16.39-4.414 31.387-15.418 43.726-27.535 30.875-18.594 76.02 2.773 96.883 13.04 12.735 37.504 19.43 57.274 18.094"/></g></svg>