<svg xmlns="http://www.w3.org/2000/svg" width="150" height="150"><defs><clipPath id="a"><path d="M60.398 35.285H91v43.113H60.398zm0 0"/></clipPath></defs><path d="M0 0h150v150H0z"/><g clip-path="url(#a)"><path d="M72.645 78.375a7.04 7.04 0 002.027-.434c-4.3-.937-5.461-5.718-4.512-9.574.516-2.156 1.887-4.066 3.223-5.742 1.945-2.438 2.52-5.05 3.199-7.992-.316 2.156-.035 4.383 1.148 6.246.81 1.277 1.946 2.309 2.848 3.516 1.676 2.273 2.262 5.062 2.086 7.875-.281 4.359-3.164 5.765-3.937 5.472 3.515 1.313 12.117-1.441 12.246-10.582.035-2.742-.493-6.82-2.297-8.86.726 1.407.058 5.333-1.57 6.141.105-4.043-1.36-6.539-2.684-9.375-1.29-2.765-2.145-5.953-.914-8.882-.774.62-1.043 1.875-1.512 2.73a33.686 33.686 0 01-2.086 3.328c.528-5.93-1.066-12.012-4.418-16.922 1.102 1.606 1.09 3.75.528 5.602-.563 1.863-1.606 3.527-2.508 5.25-.903 1.723-1.758 3.223-1.7 5.156a14.976 14.976 0 01.516-8.637c-2.8 1.829-3.281 5.672-3.34 9-.058 3.34-.152 7.102-2.613 9.375.598-3.457.738-6.457-.727-7.605.317 2.566-.691 4.922-2.425 6.855-4.313 4.852-2.907 11.942.445 15.211 2.039 2.004 5.871 3.059 8.977 2.848" fill="#ff5757"/></g><path d="M65.531 88.758h5.38l-6.552 12.457v5.765h-5.414v-5.66l-6.668-12.562h5.403l3.972 7.43zm17.063-.34c1.875 0 3.574.41 5.086 1.23 1.511.809 2.707 1.934 3.562 3.364.856 1.43 1.29 3.035 1.29 4.816 0 1.805-.434 3.434-1.29 4.875-.855 1.442-2.05 2.578-3.562 3.41-1.512.82-3.211 1.23-5.086 1.23-1.887 0-3.586-.41-5.086-1.23a9.285 9.285 0 01-3.551-3.41c-.855-1.441-1.277-3.07-1.277-4.875 0-1.781.422-3.387 1.277-4.816a9.084 9.084 0 013.55-3.364c1.5-.82 3.2-1.23 5.087-1.23zm.082 4.5c-.797 0-1.535.223-2.215.656-.691.422-1.23 1.02-1.64 1.77-.41.761-.61 1.594-.61 2.52 0 .913.2 1.757.61 2.519.41.762.949 1.36 1.64 1.805.68.433 1.418.656 2.215.656.785 0 1.511-.223 2.168-.656a4.575 4.575 0 001.57-1.793c.387-.762.574-1.606.574-2.532 0-.925-.187-1.758-.574-2.52-.375-.75-.89-1.347-1.547-1.769a3.94 3.94 0 00-2.191-.656zm18.457 6.527c0 1.02.293 1.84.879 2.473.586.621 1.324.926 2.215.926.855 0 1.57-.305 2.12-.914.563-.621.833-1.442.833-2.485V88.758h5.414v10.687c0 1.594-.34 2.989-1.031 4.172-.68 1.184-1.653 2.098-2.918 2.754-1.266.645-2.743.973-4.418.973-1.7 0-3.188-.328-4.477-.973-1.277-.656-2.273-1.57-2.977-2.754-.691-1.183-1.043-2.578-1.043-4.172V88.758h5.403zm0 0" fill="#fff"/><path d="M105.14 112.254c.083-.07.188-.129.258-.211.704-.527 1.325-1.207 1.946-2.063.023-.07.164-.41.105-.41-.035 0-.058.012-.117.094-.457.492-1.066 1.277-1.523 1.711-.293.293-.903.656-1.278.809-.117.046-.246.082-.363.164-.129.058-.258.058-.398.093-.06.024-.118.024-.176.024-.094 0-.223-.024-.317-.059a.166.166 0 01-.093-.105c-.059-.211-.082-.434-.118-.633-.011-.059.012-.117.012-.164a.36.36 0 00.035-.152c0-.141.047-.282.082-.422.246-.832.645-1.817 1.254-2.438.094-.105.211-.187.281-.305a3.07 3.07 0 01.81-.75.807.807 0 00.093.036c.035 0 .058.023.07.035.094.07.106.176.094.281-.047.176-.164.305-.258.457-.035.047-.07.094-.094.129-.058.094-.035.176.07.176h.247c.082.023.14-.024.175-.07.118-.106.176-.247.247-.387.175-.375-.07-.797-.434-.89a.998.998 0 00-.27-.048c-.058 0-.093 0-.152.024-.035.023-.058.023-.094.023h-.093a.532.532 0 00-.27.094c-.445.305-1.066.996-1.3 1.476a7.91 7.91 0 00-.786 1.84c-.058.282-.129.563-.129.856 0 .398.106.61.27.949.129.281.375.387.644.48.024.024.059 0 .082.024.211 0 .434-.035.61-.152.023-.012.058-.012.093-.024.141-.047.27-.094.364-.223.058-.058.117-.093.176-.14.093-.059.175-.07.246-.13zm-1.581-3.211c.011-.035.023-.047.035-.07.023.023.023.058.023.082 0 .035-.023.047-.047.058h-.011c-.036-.023-.024-.058 0-.07zm-.27.586c0-.047-.012-.082.047-.106 0 .047 0 .094-.047.106zm-.164.281c0-.023.012-.047.047-.047 0 .035 0 .047-.012.059 0 .023 0 .023-.023.035 0-.012-.012-.035-.012-.047zm.328-.562c-.012.035-.035.047-.047.047v-.06c0-.01.012-.01.012-.034.023.023.035.035.035.047zm-.41.867c0 .023 0 .035.012.047l-.035.035c0-.012 0-.035-.012-.059 0 0 .012 0 .035-.023zm.035-.153c.024.012.024.024.035.036-.011 0-.011.023-.035.023 0-.023-.012-.035-.012-.047zm.574-1.183c-.011-.024 0-.024.024-.024 0 .012 0 .012-.024.024zm-.175.305l.023.035h-.023zm0 0" fill="#ff5757"/><path d="M109.113 110.941l.047-.046c.024-.036.024-.13 0-.094a.199.199 0 00-.07.07c0 .012.023.047.023.059-.164.023-.164.187-.234.234-.035 0-.047.012-.047.035.012 0 .023-.023.047-.023-.024.023-.035.047-.047.058v-.023l-.047.035s0 .024.012.035c-.176.27-.75.926-1.031.985-.036.058-.176-.141-.258-.141-.024-.035-.024-.059-.047-.082a.53.53 0 01-.059-.398c0-.07 0-.153.012-.211.012-.2 0-.387.07-.575.024-.035.024-.058-.011-.093a.13.13 0 010-.094c.07-.082.07-.234.093-.352.024-.129.012-.257.094-.363-.023-.152.082-.234.106-.387.035-.14.14-.574.199-.703.234-.504.457-1.031.55-1.582.024-.14-.081-.34-.21-.41-.035 0-.059-.012-.094-.012h-.164a.217.217 0 00-.082.024c-.153.234-.235.492-.328.75-.059.21-.117.433-.188.633-.035.105-.082.187-.105.28-.117.4-.223.798-.34 1.184-.035.176-.094.329-.106.47-.011.28-.058.562-.082.843-.023.2-.035.41.024.633.012.035.012.07.035.117a.57.57 0 00.14.305c.094.105.176.222.27.328.07.105.176.175.305.222a.372.372 0 00.164.024c.246 0 .586-.176.75-.387.105-.094.07-.129.164-.246.094-.082.21-.398.164-.54 0-.034-.012-.058.012-.058.035.012.047.047.07.059.035-.047-.012-.106 0-.152a.631.631 0 01.082-.153c.024-.082.094-.164.094-.258zm-.773-5.226c.094.07.21.094.328.152.059-.023.129-.058.21-.082.036-.012.06-.058.06-.094.035-.14.011-.28.07-.41.012-.011 0-.023-.012-.047-.035-.023-.094-.058-.14-.058-.012 0-.024 0-.036.023-.14.082-.28.188-.398.293a.257.257 0 00-.106.117c-.011.024 0 .082.024.106zm.492 5.52v.035c0 .011-.012.011-.012.023 0-.023 0-.047.012-.059zm0 0" fill="#ff5757"/><path d="M112.465 102.176c-.012-.024-.024-.024-.035-.024 0 .024.011.035.011.035.012 0 .024-.011.024-.011zm-.574 1.781c-.012.059-.012.094-.036.094-.023 0-.035 0-.046-.024-.012 0-.036-.011-.047-.011.222-.61.433-1.067.668-1.524.035-.082.082-.129.093-.21.036-.106.082-.2.094-.305a.33.33 0 000-.153c-.023-.105-.094-.199-.129-.281-.035-.059-.234-.117-.281-.106-.012 0-.012 0-.035.012-.223.153-.293.387-.375.633-.152.434-.27.61-.399 1.055a2.528 2.528 0 00-.082.175l-.152.551v.035c.023 0 .059-.035.059-.058a.28.28 0 01.07-.176.07.07 0 01.059-.047c.023 0 .058.012.082.047l-.082.234c-.059.012-.13.012-.188.012v-.012c-.023.012-.023.012-.035.012-.117.012-.234.035-.34.035a.72.72 0 00-.164.012c-.105.023-.164.023-.258.023-.234 0-.492.07-.715.082-.105 0-.187.012-.28.012h-.071l-.13.024c-.081 0-.105.082-.14.187a.65.65 0 00.024.328c0 .094.058.164.117.153.012 0 .047-.012.07 0 .211-.047.387-.106.563-.106h.058c.106-.012.2-.023.305-.023.059 0 .152-.024.223-.035.035 0 .046 0 .058-.012-.011-.024-.023-.07-.058-.094.035-.023.058-.023.093-.023.094-.012.2 0 .305-.047.047 0 .106 0 .164-.012v.047c0 .012 0 .023-.012.035-.023.035-.035.047-.023.07-.129.352-.61 1.57-.586 1.688.07-.024.633-1.559.645-1.606v-.058c.082 0 .093-.047.035-.106 0-.023.011-.058.023-.082.024 0 .047 0 .082-.023.024-.012.059-.012.106-.012-.024.035-.035.047-.035.059-.012.011-.012.035-.012.047v.011h-.035c-.047 0-.082.047.023.082-.105.364-.621 1.676-.656 1.817-.07.246-.117.48-.2.703-.081.234-.398 1.43-.538 1.64-.012.036-.012.094-.024.141-.035.188-.117.363-.14.563 0 .023-.012.035-.024.058l-.059.2c-.046.199-.128.351-.117.55 0 .012 0 .012-.011.024-.094.164-.106.34-.141.515-.024.164-.082.328-.07.493a.127.127 0 01-.036.082c0-.012-.011-.024-.011-.024-.047-.293.058-.574.058-.867v-.023c.094-.13.106-.282.118-.434 0-.14.269-1.102.316-1.242.012-.047.305-1.032.258-1.137-.035.21-.375 1.324-.434 1.5-.14.457-.445 1.453-.445 1.922v.105c-.094.235-.047.48-.047.739 0 .14.094.468.234.539.14.07.235.187.352.293a.186.186 0 00.14.058c.047 0 .07-.011.118-.023l.41-.176c.176-.094.34-.164.48-.293-.011-.023-.023-.023-.023-.047l.047-.035v.023c0-.035.011-.046.047-.07a.933.933 0 01.234-.246c.023-.023.035-.023.07-.023.024 0 .047 0 .07.011.024 0 .036.012.06.012.023 0 .034-.012.046-.023.012-.036 0-.047-.023-.059-.024-.023-.035-.035-.035-.047 0-.047.07-.058.105-.058h.023a.089.089 0 00.047.011.027.027 0 00.012-.047c-.023-.07-.012-.105.047-.14.117-.094.234-.2.316-.328.024-.024.024-.059.024-.106-.012-.047.011-.058.058-.07.035-.012.07-.012.106-.012.105-.023.152-.082.152-.176.035-.023.047-.046.047-.093v-.188h-.047c0-.035.024-.047.047-.058v.058c.082-.023.094-.023.105-.105h-.058c-.012.023-.012.047-.047.047 0-.036.023-.047.047-.06.023-.034.035-.034.058-.046l.036-.105c.058-.07.117-.153.199-.188 0-.035.035-.047.058-.058-.011.035-.023.058-.058.07 0 .07-.035.117-.059.164.106 0 .164-.082.211-.152.012-.012 0-.06-.047-.07h-.047c.036-.071.094-.153.165-.177.023.012 0 .059.046.024l-.046-.024c0-.058.035-.105.082-.152l.27-.293c.163-.223.327-.422.515-.621.047-.07.047-.105.023-.105-.023 0-.047.023-.094.058l-.539.61c-.234.293-.457.574-.726.82l-.235.258c-.07.117-.164.199-.246.293l-.433.433c-.047.035-.082.094-.13.13-.14.07-.222.175-.327.28a6.346 6.346 0 01-.82.633 1.18 1.18 0 01-.27.14c-.012 0-.024.024-.059.024-.058 0-.094-.047-.117-.105a.757.757 0 01-.059-.317v-.34c0-.07 0-.175.012-.246.047-.105.047-.222.047-.328 0-.093.012-.187.047-.27.023-.081.058-.152.058-.222l.06-.328c.01-.129.07-.234.116-.34.024-.094.024-.164.059-.246a.557.557 0 01.058-.21c.012-.048.118-.411.118-.458 0-.058.011-.105.047-.164.023-.059.351-1.055.363-1.137.047-.187.105-.375.164-.55.105-.364.762-2.145.89-2.497l.13-.386c.046.023.07.023.105.023.023 0 .058 0 .07-.023.024 0 .07-.024.106-.012.011.035.023.035.035.035.035 0 .047-.023.07-.023.012-.024.024-.059.035-.059.012 0 .012.024.035.035.024.059.024.059.059.024l-.059-.024c.012-.047.047-.035.059-.035v.035c.012-.047.012-.047.012.012l.07-.059c.023-.011.047-.023.094-.023h.047c.093-.023.187-.035.28-.082.036 0 .071-.035.095-.023.14.011.27-.094.398-.094.117-.024.211-.082.281-.106.094 0 .387-.093.446-.152.047-.035.07-.035.117-.035a.36.36 0 01.152.035 4.332 4.332 0 01-.386.246c.023.012.046.012.07.012.012 0 .047 0 .07-.012.07-.059.129-.047.152-.105h.036c.023 0 .21-.106.21-.141.036-.129-.011-.211 0-.34.024-.047-.011-.094-.035-.105-.023-.012-.046-.036-.058-.036-.024 0-.035.024-.047.06-.047.081-.106.105-.152.105-.07 0-.118.058-.176.093-.024.035-.07.07-.117.07-.012-.011-.024-.011-.047-.011-.035 0-.07.023-.117.023a.08.08 0 01-.094.047h-.047c-.047 0-.082 0-.094.035a.271.271 0 01-.105.035c-.012 0-.024-.011-.035-.011-.024-.024-.047-.012-.082.011-.06.047-.13.083-.176.06-.012-.013-.024-.013-.047-.013-.012 0-.035.012-.059.036 0 .035-.093.058-.14.058-.035 0-.059-.023-.094-.035-.012.012-.059.012-.082.059-.047.046-.106.058-.176.058-.023.035-.047.047-.082.012-.023-.024-.059.023-.07.023 0 .012-.012.012-.024.012h-.093c-.012.023-.047.023-.07.023a.702.702 0 01-.141-.023c.023-.035.023-.07.046-.07.012-.024.047-.035.06-.059-.013-.023-.024-.023-.048-.023a.175.175 0 00-.082.035c-.012 0-.012 0-.012.023 0 .024.012.047.012.059zm-1.606 2.332l-.234.762c-.012.047 0 .105 0 .164.035 0 .047-.035.047-.059.07-.21.117-.433.187-.633a.727.727 0 00.047-.27zm1.453 4.629a.769.769 0 01.211-.223v.118l-.094.07c-.035.035-.082.035-.117.035zm1.746-7.172c.024-.012.036-.023.047-.023.024 0 .059.023.106.047-.035.023-.082.023-.106.035-.058 0-.152.035-.222.035h-.024c.059-.07.13-.07.2-.094zm-1.441.61c-.211 0 .164.058.164.058h.023v-.047l-.011-.023c-.059 0-.106 0-.176.011zm-1.242.21a.33.33 0 00-.176-.046c-.047 0-.07 0-.105.011 0 .012-.012.047-.012.047l.012.012c.105 0 .175-.012.28-.024zm1.418-.761a.18.18 0 00.094.023c.023 0 .035-.023.058-.058-.035-.024-.058-.024-.082-.024-.059 0-.117.024-.176.035 0 0-.011.012-.011.024l.011.023a.089.089 0 00.047.024c.035 0 .047-.024.059-.047zm-2.168 3.41c-.07.07-.082.176-.106.281-.011 0 .024.012.024.024.082-.082.082-.188.082-.305zm2.8-3.27c-.023.035-.058.059-.081.059-.024 0-.047-.024-.06-.047.013-.035.036-.035.06-.035.023 0 .035 0 .07.023.012-.047.047-.058.07-.058.035 0 .047 0 .094.023-.047.012-.094.047-.117.047-.024 0-.024 0-.035-.012zm.235-.375c.047.035.059.035.094.035.047 0 .082-.023.14-.058v-.024c-.117 0-.117 0-.234.047zm.035.34c-.035-.012-.047 0-.094 0h-.023a.09.09 0 01.023-.058c.035-.012.059-.024.082-.024.024-.023.059 0 .059.012 0 .023-.035.058-.047.07zm-1.816.188c-.024 0-.047.023-.07.023-.036 0-.036-.023-.036-.047-.011-.011-.011-.047 0-.047.024 0 .047 0 .059-.011h.082zm.386-1.184c0 .035-.011.059-.058.082h-.024c0-.023-.011-.058-.011-.07 0-.047.011-.059.047-.059.035-.012.058.012.046.047zm.832.82c-.023-.011-.035-.011-.07-.011a.102.102 0 00-.07.047c.023.023.058.058.07.035.035-.012.059-.035.059-.07.011 0 .035.011.035-.024-.024.012-.024.023-.024.023zm.891.387c.047 0 .07-.023.106-.023.011 0 .023-.035.023-.035-.023-.012-.012-.012-.023-.012-.012-.024-.047-.024-.094 0-.012 0 0 .023-.012.07zm-.633-.457c0 .023 0 .023.012.047.035-.023.07 0 .094-.047-.024-.012-.024-.047-.024-.047-.023 0-.058 0-.07.035zm.809.316v.047l.012.024c.023-.024.035 0 .058 0 0 0 .024 0 .035-.024v-.047zm-.633.223c.012.024.035.024.035.024.024 0 .082-.036.14-.047 0 0 0-.035-.01-.012-.036-.023-.095.012-.13.023zm-.586-.129c.012-.047.024-.07.035-.07 0 0 .024.012.035.047.012.011.012.011.012.023-.047.024-.058.012-.082 0zm-.293 6.785h-.047c-.035 0-.058 0-.082-.058.047 0 .106 0 .13.058zm-1.406-6.726c-.012 0-.024.012-.059.012-.035.023-.047 0-.047-.012.012-.012.036-.047.047-.047.035 0 .047.012.059.047zm2.121.117c-.023.012-.07-.012-.082-.023-.023 0-.047 0-.023.023 0 .012.023.047.035.035.011 0 .047.024.07-.035zm.844-.48c.011-.036.023-.06.058-.06.012 0 .012 0 .024.013-.012.047-.024.058-.035.058-.024 0-.036-.011-.047-.011zm-2.672.328c.047-.024.07-.035.105-.035l-.035.035c-.012.023-.035.023-.07.035zm1.418.21c-.035 0-.059 0-.07.036v.011c.011.024.023.047.023 0 .035 0 .035 0 .047-.035zm.164-.34c.012 0 .012.06.012.06v.023h-.047v-.07c0-.012 0-.012.011-.012zm-2.285.552c0-.036.011-.036.023-.036.024 0 .035.012.059.036-.012.011-.024.023-.035.023-.024 0-.036-.012-.047-.023zm2.39-.551c.012-.024.035-.012.059-.012-.023.047-.023.059-.035.059 0 0-.012-.012-.024-.047zm-.504.152c0 .012-.035.012-.046.024l-.012-.012v-.035c.023-.024.035-.012.058.023zm-3.023 7.488l-.035.024c0-.012-.012-.024-.012-.047l.047-.035zm2.883-.972c0-.035.035-.059.07-.059 0 .024-.035.059-.07.059zm-1.828-6.14c.023-.013.035 0 .082.023h-.012c-.023.011-.035.011-.07.011zm1.5 6.48c0-.036.023-.047.058-.059 0 .023-.035.059-.058.059zm-.961 1.289c.023 0 .047 0 .047-.036h-.047zm2.133-8.016c.011-.023.011-.047.011-.047 0-.012 0 0-.011 0-.012 0 0 .047 0 .047zm-.504 6.105c-.024 0-.035.024-.059.06.035-.013.059-.036.059-.06zm-.399.34c.024-.035.035-.058.059-.058 0 .023-.024.035-.059.058zm.305-.234c.023 0 .035-.023.035-.047zm1.465-6.738c.035-.047.047-.047.058 0v-.012c-.011.023-.023.012-.058.012zm-.34-.2c-.012-.011-.035-.023-.059 0 .024.024.047.036.059 0zm-.527.727c-.024-.012-.059-.047-.059 0 .012 0 .035.035.059 0zm-1.043-.059c.011-.011.023-.046.046-.023 0-.023 0 0 .012.012l-.012.011c-.023-.011-.035.012-.046 0zm.597 6.106c-.023 0-.035.023-.058.058.035-.023.047-.035.058-.058zm-2.062-5.777c0-.047.035-.036.047-.024-.012.035-.024.024-.047.024zm-.246 0c-.012 0 0 .023 0 .023h-.035c0-.012 0-.047.023-.023zm3.726-.844a.128.128 0 01-.023.047c0-.047 0-.047.023-.047zm-.445-.153c.023 0 .035.024.047.024v-.024s0-.011-.012-.011c0 0-.012 0-.035.011zm-.75.528c-.012-.07 0-.047.023-.07 0 .046-.023.07-.023.07zm.973-.61c0 .012.035.047.046.012-.011-.012-.011-.012-.046-.012zm-2.239 7.852c-.023-.023 0-.023.012-.023 0 .011 0 .011-.012.023zm.282-.281c-.036-.024 0-.024.011-.024 0 .012 0 .012-.011.024zm-.844 1.183c-.012 0-.024-.011-.024-.011v.023c0-.012.012-.012.024-.012zm3.422-8.484c-.012-.023-.012-.035 0-.023zm-4.09.785c0 .035-.024.035-.035.035 0-.011 0-.035.035-.035zm-.985 7.008c.036.023-.011.023-.023.023.012 0 .012-.011.023-.023zm2.883-7.7s-.023 0-.035.024h.047c-.012 0-.012-.035-.012-.023zm.246.294s-.011 0-.023-.012c.012 0 .023 0 .023.012zm1.137.023c0-.023-.012-.023-.035 0h-.012c.012 0 .012.012.012.012zm-.492 5.613c-.024 0-.012 0-.012-.011h.012zm-.703-5.484s-.012 0-.012-.012v.024c.012.023.012 0 .012-.012zm.293.07c0-.011 0-.011-.012-.011l.012.035v-.024zm-1.102 6.903c.024.023 0 .023-.012.023.012-.012.012-.012.012-.023zm-.95-6.657c-.01 0-.01 0-.01.024 0 0 .01 0 .01-.024zm3.083-1.078s-.035-.035-.012.012zm-2.766 8.742h-.011v-.023zm2.168-2.543c0 .012 0 .036-.023.036.023 0 .035 0 .023-.035zm-.047.047c-.011 0-.035 0 0 .036zm-.27-6.011v.023zm.622.129c0-.012.012 0 .012 0zm-.996 6.62h-.024v-.011zm-1.477 1.712c-.011 0-.011-.024-.011-.024zm3.024-8.215s.011 0 .011-.012c0 0-.011-.035-.011.012zm-.258-.48c0-.024.012.011 0-.036zm-1.969-.376l-.011-.011zm.598 7.348c.023.012 0 .012 0 .012zm.2-6.691s.01 0 .01-.024zm-1.114 7.628l-.012.012zm.972-.984l.024-.012zm-1.511 1.852v.023zm1.078-8.075c0 .012.012.012.012 0zm0 0" fill="#ff5757"/><path d="M114.797 110.555c.012-.024-.012-.059-.047-.07v-.024c0-.035 0-.059.035-.059 0 0 .012.012.024.012.046.012.105.023.105.117v.281c0 .083.047.176.059.258.011.434.28.727.597.996.012.012.059.012.07.024.024.012.06.035.083.035.199 0 .785-.492.914-.621.058-.047.035-.117.082-.164a1.04 1.04 0 00.14-.117c.024-.012.024-.047 0-.047h-.046a6.993 6.993 0 01-.797.492.518.518 0 01-.258.059c-.047 0-.094 0-.13-.012a1.012 1.012 0 01-.198-.621c0-.774.386-2.403.691-3.024.106-.175.117-.375.094-.562a.434.434 0 00-.223-.082.236.236 0 00-.129.035c-.023.012-.047.012-.058.012-.035 0-.047 0-.082-.012-.2-.106-.41-.106-.633-.106-.352.024-.656.106-.938.34-.117.106-.234.246-.386.305-.012.012-.024.023-.024.035a.438.438 0 01-.199.211c-.117.059-.082.188-.188.27-.316.27-.527.726-.714 1.113a.35.35 0 00-.047.094c-.27.808-.399 1.312-.399 2.191a.93.93 0 00.317.727l.105.105c.047.035.106.07.176.07.07-.011.164-.011.234-.058.223-.106.739-.445.856-.633.035-.047.117-.059.152-.117.035-.094.117-.164.176-.246-.047-.117.105-.176.117-.258.012-.094.07-.176.117-.258.024-.082.07-.152.13-.246.034-.059.081-.105.058-.176.105-.047.14-.164.164-.27zm-1.969 1.875c-.023.011-.047.011-.082.035-.023-.035-.058-.047-.058-.059-.024-.035-.024-.082-.024-.105 0-.106 0-.211-.047-.317-.012-.023-.012-.07 0-.117.059-.199.059-.41.094-.633.023-.07.035-.164.059-.234.082-.27.128-.54.246-.797.07-.164.117-.316.187-.469.035-.058.082-.105.106-.164.058-.129.164-.234.187-.363.024-.023.024-.047.035-.059.153-.105.223-.27.364-.386.128-.106.222-.246.363-.352.21-.164.422-.328.691-.433.14-.059.281-.141.399-.258.035-.035.058-.047.082-.047.035 0 .047.012.07.047.094.07.105.117.07.222-.082.176-.164.352-.21.54-.036.21-.188.703-.294.902-.14.293-.28.586-.433.902-.07.188-.2.363-.317.54-.093.175-.21.34-.293.515-.304.469-.738.797-1.195 1.09zm1.805-1.77c.023-.012.023-.023.023-.047l.024.035c0 .012-.012.024-.024.047 0-.023-.023-.023-.023-.035zm-1.676-1.394h.012v.011zm1.945.914h-.011v-.024zm-1.992-.809v.012h-.012zm1.465 1.781v-.035zm0 0" fill="#ff5757"/><path d="M117.668 109.3c.2.141.422.247.633.364-.059.059-.082.082-.094.129-.023.07-.047.152-.164.164-.082 0-.106.047-.152.07 0 .035-.024.07-.047.07-.024 0-.059-.011-.07-.011-.083 0-.118.059-.141.117.012.035 0 .047-.035.047a.661.661 0 00-.282.21.407.407 0 00-.129.083c-.257.105-.445.234-.527.457-.105.129-.14.281-.258.445-.047.082-.023.176-.011.27.07.305.21.574.445.785.129.21.398.281.61.316.152 0 .316-.035.421-.07.223-.082.434-.164.574-.34.024-.035.07-.058.13-.105.304-.223.41-.27.562-.54.047-.093.117-.187.176-.257.023-.047.023-.094.058-.152.153-.223.176-.47.235-.739v-.07c-.012-.188-.176-.398-.247-.574-.035-.117-.14-.2-.222-.281-.059-.06-.047-.083 0-.118.023-.023.023-.047.07-.058.281-.13 1.64-.446 1.934-.516a.79.79 0 00.199-.07c.047-.024.047-.035.047-.047-.024-.024-.07-.059-.117-.059h-.059c-.14.082-.316.082-.469.153-.129.058-1.324.304-1.488.363-.07.012-.129.047-.21.094a.47.47 0 01-.177.035.446.446 0 01-.222-.07 2.25 2.25 0 01-.516-.293c-.164-.106-.188-.235-.129-.352.07-.105.164-.21.234-.34.047-.14.153-.222.329-.281a.871.871 0 00.246-.152c.175-.118.328-.188.527-.223.258-.012.422-.094.598-.176.07-.012.304-.058.351-.058.047 0 .117 0 .153-.012.093-.035.14-.059.14-.117 0-.07-.082-.118-.14-.153-.141-.035-.246-.082-.375-.082-.118 0-.223-.011-.34-.035-.258-.035-.399-.07-.504-.07-.082 0-.153.035-.305.058-.117.036-.27.106-.387.153a2.03 2.03 0 00-1.007.914c-.106.129-.153.34-.2.492-.011.047 0 .094.047.14.07.083.164.176.164.305 0 .07.082.13.141.188zm1.125.704c.047.035.047.082.059.129.046.293 0 .562-.153.808-.293.516-.761 1.043-1.324 1.266a.491.491 0 01-.188.047h-.093c-.059 0-.117 0-.2-.047-.082-.059-.082-.164-.152-.246 0 0 0-.012-.012-.035.082-.176.012-.364.082-.574.118-.352.446-.774.797-.926.036-.024.082-.059.153-.094.164-.047.293-.152.445-.258.082-.07.246-.117.352-.187.011 0 .023-.024.046-.024.07 0 .153.059.188.14zm-.645 2.062c-.023 0-.046 0-.023-.035 0 0-.059-.011-.035-.023.058-.176.2-.293.351-.399.024-.023-.035 0 .024.012 0 0 .047.047.012.047-.094.117-.2.246-.329.398zm.516-.668c-.035.047-.047.094-.105.118h-.047l-.012-.012c.012-.047.023-.106.059-.176.011-.035.105-.058.105-.035.023.035.023.047 0 .105zm-1.008.973c-.011 0-.023 0-.047-.012 0-.07.059-.105.176-.105.024.105.024.105-.129.117zm1.137-1.195c-.012.023-.035.035-.047.035-.012 0-.012-.012-.047-.012.035-.023.047-.047.047-.07h.035a.117.117 0 01.012.047zm-1.313 1.23c.012-.023.012-.035.012-.035h.106c0 .012 0 .035-.024.035zm.528-.363l.023.023h-.023zm-.317.516h-.023v-.012zm0 0" fill="#ff5757"/><path d="M40.617 102.621h7.219v4.207H33.762l-.024-3.445 6.492-6.703a8.055 8.055 0 001.125-1.418c.282-.469.434-.88.434-1.23 0-.41-.152-.727-.434-.95-.292-.21-.69-.328-1.207-.328-.714 0-1.5.21-2.378.621-.868.398-1.747.973-2.625 1.7l-2.028-3.903c2.696-1.852 5.309-2.777 7.84-2.777 1.242 0 2.355.21 3.328.609.973.41 1.746.984 2.309 1.7.562.726.843 1.57.843 2.519 0 .949-.304 1.933-.914 2.918-.609 1.007-1.5 2.074-2.636 3.21zm0 0" fill="#fff"/></svg>