<svg xmlns="http://www.w3.org/2000/svg" width="500" viewBox="0 0 375 375" height="500" version="1.0"><defs><clipPath id="a"><path d="M151 88.21h76.535V196H151zm0 0"/></clipPath></defs><path fill="#fff" d="M-37.5-37.5h450v450h-450z"/><path fill="#fff" d="M-37.5-37.5h450v450h-450z"/><path d="M-37.5-37.5h450v450h-450z"/><g clip-path="url(#a)"><path fill="#ff5757" d="M181.605 195.934c1.747-.121 3.458-.465 5.083-1.094-10.758-2.317-13.653-14.293-11.297-23.922 1.312-5.379 4.714-10.152 8.062-14.344 4.875-6.097 6.305-12.625 7.996-20-.785 5.387-.078 10.969 2.883 15.625 2.02 3.184 4.863 5.758 7.102 8.79 4.187 5.679 5.675 12.66 5.222 19.679-.703 10.89-7.918 14.406-9.844 13.687 8.786 3.286 30.301-3.609 30.61-26.468.094-6.832-1.211-17.032-5.746-22.149 1.836 3.524.164 13.332-3.899 15.356.239-10.086-3.41-16.344-6.718-23.43-3.223-6.91-5.375-14.875-2.297-22.215-1.93 1.57-2.606 4.707-3.774 6.832a86.357 86.357 0 01-5.21 8.313c1.304-14.805-2.669-30.02-11.04-42.301 2.735 4.012 2.719 9.371 1.317 14.02-1.399 4.644-4.02 8.812-6.274 13.109-2.254 4.3-4.398 8.05-4.261 12.902a37.808 37.808 0 011.289-21.605c-6.989 4.566-8.18 14.176-8.329 22.52-.156 8.343-.394 17.757-6.535 23.417 1.489-8.633 1.828-16.136-1.832-19.011.801 6.433-1.73 12.316-6.043 17.16-10.793 12.12-7.289 29.836 1.086 38.027 5.11 4.996 14.7 7.625 22.45 7.102"/></g><path d="M163.814 221.898h13.453l-16.375 31.125v14.422h-13.516v-14.157l-16.687-31.39h13.515l9.938 18.578zm42.684-.844c4.676 0 8.91 1.023 12.703 3.063 3.79 2.03 6.758 4.835 8.907 8.406 2.144 3.574 3.218 7.59 3.218 12.047 0 4.511-1.074 8.574-3.218 12.187-2.149 3.617-5.118 6.453-8.907 8.516-3.793 2.054-8.027 3.078-12.703 3.078-4.719 0-8.965-1.024-12.734-3.078-3.762-2.063-6.715-4.899-8.86-8.516-2.148-3.613-3.218-7.676-3.218-12.187 0-4.457 1.07-8.473 3.218-12.047 2.145-3.57 5.098-6.375 8.86-8.406 3.77-2.04 8.015-3.063 12.734-3.063zm.203 11.25c-1.992 0-3.843.543-5.562 1.625-1.711 1.074-3.074 2.555-4.094 4.438-1.012 1.886-1.516 3.98-1.516 6.28 0 2.294.504 4.391 1.516 6.298 1.02 1.906 2.383 3.414 4.094 4.515 1.719 1.106 3.57 1.657 5.562 1.657 1.946 0 3.754-.551 5.422-1.657 1.664-1.101 2.973-2.597 3.922-4.484.957-1.883 1.438-3.992 1.438-6.328 0-2.301-.48-4.395-1.438-6.281-.95-1.883-2.246-3.364-3.89-4.438a9.73 9.73 0 00-5.454-1.625zM252.82 248.6c0 2.563.734 4.626 2.203 6.188 1.477 1.555 3.32 2.329 5.531 2.329 2.164 0 3.942-.766 5.329-2.297 1.382-1.54 2.078-3.614 2.078-6.22v-26.702h13.515V248.6c0 3.992-.855 7.469-2.562 10.437-1.711 2.961-4.149 5.25-7.313 6.875-3.156 1.625-6.84 2.438-11.047 2.438-4.242 0-7.964-.813-11.171-2.438-3.211-1.625-5.688-3.914-7.438-6.875-1.75-2.968-2.625-6.445-2.625-10.437v-26.703h13.5zm0 0" fill="#fff"/><path d="M262.864 280.636c.187-.183.445-.332.629-.515 1.77-1.328 3.316-3.024 4.863-5.16.074-.184.406-1.032.258-1.032-.075 0-.149.036-.297.22-1.14 1.253-2.653 3.206-3.793 4.277-.739.734-2.25 1.656-3.207 2.027-.293.11-.59.219-.883.402-.332.149-.664.149-.996.258-.149.04-.293.04-.442.04-.257 0-.554-.04-.812-.15-.11-.034-.184-.148-.219-.257-.148-.516-.222-1.07-.297-1.586-.035-.145.04-.293.04-.402.035-.114.074-.258.074-.372 0-.367.109-.699.218-1.066.59-2.066 1.586-4.535 3.133-6.082.223-.258.516-.477.7-.773.515-.735 1.288-1.399 2.027-1.88.039.04.148.075.222.11.075 0 .145.04.184.074.219.184.258.442.219.703-.11.442-.403.774-.625 1.141-.11.11-.184.223-.258.332-.149.219-.074.441.183.441h.629c.184.036.332-.074.442-.183.293-.258.441-.629.59-.957.441-.961-.149-1.992-1.07-2.25-.22-.035-.442-.11-.665-.11-.144 0-.258 0-.402.075-.074.035-.149.035-.223.035h-.222c-.258.039-.516.11-.7.258-1.105.738-2.652 2.468-3.242 3.687-.847 1.473-1.512 2.985-1.953 4.606-.148.699-.332 1.398-.332 2.136 0 .993.258 1.508.664 2.356.332.703.957.96 1.621 1.219.074.035.149 0 .223.035.515 0 1.066-.074 1.508-.367.074-.04.148-.04.222-.075.368-.109.7-.222.922-.554.149-.145.293-.22.442-.328.222-.149.441-.188.625-.333zm-3.977-8.035c.035-.074.074-.109.11-.183.035.074.035.148.035.222 0 .075-.036.11-.11.145h-.035c-.074-.07-.039-.145 0-.184zm-.664 1.477c0-.113-.04-.223.11-.258 0 .11 0 .219-.11.258zm-.406.7c0-.075.039-.11.11-.11 0 .07 0 .11-.036.144 0 .04 0 .04-.035.074 0-.035-.04-.074-.04-.109zm.812-1.403c-.039.074-.074.113-.113.113v-.148c0-.036.039-.036.039-.075.035.04.074.075.074.11zm-1.031 2.176c0 .035 0 .074.035.109l-.074.074c0-.035 0-.074-.035-.148 0 0 .035 0 .074-.035zm.11-.407c.035.04.035.075.074.11-.04 0-.04.039-.075.039 0-.04-.039-.074-.039-.11zm1.437-2.945c-.04-.074 0-.074.035-.074 0 .035 0 .035-.035.074zm-.442.773l.036.07h-.036zm0 0" fill="#ff5757"/><path d="M272.777 277.355c.035-.035.07-.074.11-.11.074-.109.074-.331 0-.257a.754.754 0 00-.149.184c0 .035.04.109.04.148-.407.074-.407.477-.59.59-.075 0-.114.035-.114.074.04 0 .074-.039.113-.039-.039.04-.074.11-.113.149v-.075l-.11.11s0 .039.036.074c-.441.664-1.879 2.32-2.578 2.469-.11.148-.442-.368-.664-.368-.035-.074-.035-.148-.11-.183a1.373 1.373 0 01-.148-.996c0-.184 0-.406.039-.555.035-.476 0-.957.184-1.434.035-.074.035-.148-.04-.222a.248.248 0 010-.223c.188-.219.188-.59.223-.883.074-.332.04-.664.258-.922-.074-.367.184-.59.258-.957.074-.367.332-1.437.48-1.77.59-1.253 1.14-2.577 1.399-3.94.039-.372-.219-.848-.551-1.032-.074 0-.148-.039-.223-.039h-.406c-.074 0-.144.04-.219.074-.37.59-.59 1.215-.812 1.88-.145.515-.293 1.07-.477 1.585-.074.258-.187.442-.258.7-.296.996-.554 1.988-.847 2.949-.074.441-.223.808-.258 1.18-.04.699-.148 1.398-.223 2.097-.035.516-.074 1.031.075 1.586.035.074.035.184.074.293.035.297.183.555.367.773.223.258.441.555.664.813.184.258.441.441.773.55.11.075.258.075.407.075.625 0 1.472-.442 1.879-.992.257-.223.183-.297.406-.59.219-.223.515-.996.402-1.363 0-.075-.035-.149.04-.149.073.035.109.11.183.149.074-.114-.04-.258 0-.372.035-.144.11-.257.183-.402.075-.187.258-.406.258-.629zm-1.918-13.082c.223.188.516.262.813.406.144-.074.328-.144.515-.218.11-.04.145-.149.145-.223.113-.367.04-.7.184-1.031.039-.04 0-.074-.036-.11a.552.552 0 00-.332-.148c-.035 0-.074 0-.109.035-.332.223-.7.48-.996.738-.11.075-.184.184-.258.293-.035.075 0 .223.074.258zm1.215 13.82v.075c0 .035-.035.035-.035.074 0-.074 0-.113.035-.148zm0 0" fill="#ff5757"/><path d="M281.174 255.433c-.035-.039-.07-.039-.11-.039 0 .04.04.075.04.075.035 0 .07-.036.07-.036zm-1.434 4.457c-.039.149-.039.223-.113.223-.035 0-.074 0-.11-.039-.034 0-.073-.035-.109-.035a31.25 31.25 0 011.657-3.797c.109-.219.222-.332.257-.55.075-.259.184-.481.223-.74a.792.792 0 000-.405c-.074-.258-.223-.477-.332-.7-.074-.148-.59-.293-.7-.257-.038 0-.038 0-.073.035-.555.37-.739.96-.957 1.586-.371 1.07-.664 1.511-.996 2.617-.04.144-.149.293-.184.441l-.406 1.399v.074a.16.16 0 00.148-.148c0-.145.07-.293.184-.442.035-.074.11-.11.148-.11.07 0 .145.036.219.11l-.219.59c-.148.039-.332.039-.48.039v-.039c-.04.039-.04.039-.075.039-.292.035-.59.074-.847.074-.149 0-.293 0-.406.035-.258.075-.403.075-.66.075-.59 0-1.22.148-1.77.183-.258 0-.48.035-.7.035h-.187l-.332.075c-.183 0-.258.183-.328.441-.074.223-.039.555.035.848 0 .222.149.406.293.37.04 0 .113-.038.188 0 .515-.113.957-.257 1.398-.257h.149c.257-.04.515-.074.773-.074.148 0 .367-.04.55-.075.075 0 .114 0 .15-.035-.036-.074-.075-.187-.15-.222.075-.075.15-.075.223-.075.258-.035.516 0 .774-.109.11 0 .258 0 .406-.039v.113c0 .035 0 .075-.039.11-.035.074-.07.11-.035.148-.332.883-1.547 3.942-1.473 4.234.184-.07 1.582-3.902 1.621-4.015v-.145c.184 0 .219-.113.075-.257 0-.075.035-.149.07-.223.039 0 .113 0 .187-.035.07-.04.145-.04.258-.04-.039.075-.074.11-.074.15-.04.034-.04.073-.04.108v.04h-.073c-.11 0-.22.109.039.183-.258.922-1.547 4.2-1.621 4.567-.184.59-.297 1.18-.516 1.734-.184.59-.996 3.574-1.328 4.125-.035.074-.035.223-.074.332-.075.48-.293.922-.332 1.402 0 .07-.036.11-.07.145l-.15.515c-.109.48-.331.887-.296 1.364 0 .039 0 .039-.035.074-.223.406-.258.848-.332 1.289-.074.406-.223.812-.184 1.219 0 .074-.039.144-.074.218 0-.035-.035-.074-.035-.074-.113-.734.144-1.433.144-2.172v-.039c.223-.328.258-.699.297-1.105 0-.328.664-2.727.774-3.094.035-.11.773-2.578.664-2.836-.114.516-.961 3.317-1.106 3.758-.332 1.14-1.105 3.61-1.105 4.79v.257c-.223.59-.113 1.215-.113 1.844 0 .367.222 1.18.59 1.363.331.183.59.476.886.738.11.11.219.145.332.145.11 0 .184-.035.293-.075l1.031-.44c.442-.22.848-.407 1.215-.735-.035-.04-.07-.04-.07-.114l.11-.074v.04c0-.075.034-.11.109-.15.148-.257.37-.44.59-.624.074-.074.109-.074.183-.074s.113 0 .184.035c.039 0 .074.039.148.039.04 0 .074-.04.11-.074.039-.075 0-.11-.07-.149-.04-.035-.075-.074-.075-.11 0-.109.184-.148.258-.148h.074c.035.04.074.04.11.04.034 0 .074-.075.034-.114-.07-.183-.035-.258.114-.367.293-.223.59-.48.773-.813.074-.07.074-.144.074-.257-.039-.11.036-.145.145-.184.074-.035.187-.035.258-.035.258-.04.37-.184.37-.442.11-.039.145-.113.145-.222v-.48h-.144c0-.075.074-.11.144-.145v.144c.188-.035.223-.035.262-.257h-.148c-.04.074-.04.113-.114.113 0-.074.04-.113.114-.149.035-.074.074-.074.148-.109l.07-.258c.149-.187.297-.37.516-.48 0-.074.074-.11.148-.149-.035.11-.074.149-.148.184 0 .187-.11.297-.144.406.257 0 .402-.183.515-.367.035-.04 0-.148-.113-.184h-.11c.075-.187.223-.37.407-.445.035.04 0 .148.11.074l-.11-.074c0-.144.074-.258.183-.367l.7-.738c.406-.551.812-1.067 1.289-1.547.113-.184.113-.258.039-.258-.04 0-.11.039-.223.148l-1.363 1.512c-.59.734-1.14 1.438-1.805 2.063l-.59.625c-.183.296-.406.515-.625.738l-1.07 1.07c-.11.11-.219.258-.332.328-.332.188-.55.446-.809.703a14.615 14.615 0 01-2.062 1.582c-.188.149-.446.258-.664.372-.04 0-.075.035-.149.035-.148 0-.222-.11-.293-.258a1.878 1.878 0 01-.148-.774v-.847c0-.184 0-.442.035-.625.113-.258.113-.555.113-.813 0-.258.035-.48.11-.699.074-.184.148-.371.148-.555l.145-.808c.039-.332.187-.59.297-.848.074-.223.074-.406.148-.629.035-.183.07-.367.144-.515.04-.11.297-1.032.297-1.141 0-.148.036-.258.11-.406.074-.145.883-2.653.922-2.836.109-.48.257-.957.406-1.403.258-.882 1.914-5.34 2.21-6.226l.329-.957a.78.78 0 00.262.035c.07 0 .144 0 .183-.035.074 0 .184-.074.258-.035.035.07.074.07.11.07.074 0 .109-.035.148-.035.035-.074.074-.149.11-.149.034 0 .034.04.073.075.075.148.075.148.149.074l-.149-.074c.036-.11.11-.075.149-.075v.075c.035-.11.035-.11.035.039l.184-.149c.039-.039.113-.074.222-.074h.11c.257-.035.48-.074.699-.184.113 0 .187-.109.258-.074.332.035.664-.222.996-.222.297-.07.515-.22.699-.258.223 0 .961-.258 1.105-.403.114-.074.184-.074.297-.074.11 0 .258.035.368.074a8.583 8.583 0 01-.957.625.335.335 0 00.183.036c.035 0 .11 0 .184-.036.148-.148.297-.109.367-.257h.074c.074 0 .555-.258.555-.368.074-.296-.04-.515 0-.847.035-.114-.04-.223-.11-.258a.28.28 0 00-.148-.074c-.04 0-.074.035-.11.144-.113.188-.261.262-.37.262-.184 0-.293.144-.442.219-.074.11-.183.183-.293.183-.039-.035-.074-.035-.113-.035-.11 0-.184.074-.293.074-.04.075-.149.145-.258.11h-.113c-.11 0-.184 0-.219.074-.074.035-.184.11-.258.11-.039 0-.074-.036-.11-.036-.038-.074-.112-.039-.187.035-.144.11-.332.184-.441.149-.035-.04-.074-.04-.11-.04-.038 0-.109.04-.148.075 0 .113-.258.148-.367.148a.502.502 0 01-.223-.074c-.035.04-.148.04-.218.149-.114.109-.258.148-.446.148-.035.074-.11.11-.183.035-.075-.074-.145.04-.184.04 0 .034-.035.034-.074.034h-.219c-.039.075-.113.075-.187.075-.07 0-.22-.04-.329-.075.036-.074.036-.183.11-.183.035-.04.11-.074.148-.149-.039-.035-.074-.035-.113-.035a.393.393 0 00-.219.07c-.039 0-.039 0-.039.075 0 .039.04.113.04.148zm-4.02 5.82l-.589 1.919c-.035.11 0 .257 0 .406.074 0 .113-.074.113-.149.184-.515.293-1.07.477-1.585.074-.22.113-.442.113-.665zm3.614 11.571c.149-.219.332-.402.551-.55v.292l-.258.184c-.074.074-.183.074-.293.074zm4.383-17.906c.04-.04.074-.074.113-.074.07 0 .145.074.258.109-.074.074-.187.074-.258.113-.148 0-.37.07-.554.07h-.075c.149-.183.332-.183.516-.218zm-3.61 1.511c-.515 0 .407.145.407.145h.074v-.11l-.039-.074c-.148 0-.258 0-.441.04zm-3.093.516a.991.991 0 00-.445-.113c-.11 0-.184 0-.258.039 0 .035-.035.11-.035.11l.035.038c.258 0 .441-.039.703-.074zm3.535-1.879a.68.68 0 00.223.035c.074 0 .11-.035.144-.148-.07-.035-.144-.035-.183-.035a1.77 1.77 0 00-.442.074s-.035.035-.035.074l.035.035c.035.036.074.075.11.075.074 0 .113-.075.148-.11zm-5.418 8.512c-.184.184-.219.441-.258.7-.035 0 .04.034.04.073.218-.222.218-.48.218-.773zm7.004-8.18c-.074.11-.148.145-.223.145-.035 0-.109-.035-.148-.11.039-.074.113-.074.148-.074.075 0 .11 0 .184.04.039-.114.113-.15.184-.15.074 0 .113 0 .222.075-.11.035-.222.11-.293.11-.039 0-.039 0-.074-.036zm.59-.922c.11.075.144.075.219.075.113 0 .222-.04.37-.149v-.039c-.296 0-.296 0-.59.113zm.07.848c-.07-.039-.11 0-.219 0h-.074c0-.074.035-.113.074-.148a.588.588 0 01.184-.075c.074-.035.148 0 .148.036 0 .074-.074.148-.113.187zm-4.531.477c-.074 0-.11.039-.184.039s-.074-.04-.074-.114c-.035-.035-.035-.109 0-.109.04 0 .11 0 .149-.035h.183zm.957-2.985c0 .113-.035.149-.145.223h-.039c0-.074-.035-.149-.035-.184 0-.113.035-.148.11-.148a.08.08 0 01.109.11zm2.101 2.063c-.074-.035-.109-.035-.183-.035-.035 0-.11.035-.184.109.075.074.149.148.184.113.074-.039.148-.113.148-.187.035 0 .075.039.075-.07-.04.035-.04.07-.04.07zm2.211.96c.11 0 .184-.038.258-.038.04 0 .074-.11.074-.11-.074-.035-.035-.035-.074-.035-.035-.039-.11-.039-.219 0-.039 0 0 .07-.039.184zm-1.582-1.144c0 .074 0 .074.036.113.074-.039.183 0 .222-.113-.039-.035-.039-.11-.039-.11-.074 0-.148 0-.183.075zm2.024.813v.109l.039.04c.035-.04.074 0 .144 0 0 0 .04 0 .075-.04v-.11zm-1.582.55c.035.04.074.04.074.04.07 0 .219-.075.367-.114 0 0 0-.07-.039-.035-.07-.035-.219.035-.328.074zm-1.477-.332c.04-.109.074-.183.114-.183 0 0 .035.039.074.113.035.035.035.035.035.07-.11.075-.149.04-.223 0zm-.734 16.953h-.113c-.07 0-.145 0-.184-.148.113 0 .258 0 .297.148zm-3.5-16.804c-.04 0-.074.039-.149.039-.074.035-.109 0-.109-.04.035-.034.07-.109.11-.109.074 0 .109.036.148.11zm5.305.297c-.075.035-.184-.04-.223-.075-.035 0-.11 0-.035.075 0 .035.035.11.074.07.035 0 .11.074.184-.07zm2.101-1.22c.035-.073.07-.144.145-.144.039 0 .039 0 .074.036-.035.109-.074.148-.11.148-.039 0-.074-.04-.109-.04zm-6.672.849c.114-.075.184-.11.258-.11l-.074.11c-.035.039-.11.039-.184.074zm3.54.515c-.075 0-.15 0-.184.074v.04c.035.074.074.109.074 0 .07 0 .07 0 .11-.075zm.406-.847c.035 0 .035.148.035.148v.04h-.11v-.15c0-.038 0-.038.035-.038zm-5.715 1.363c0-.07.039-.07.074-.07.039 0 .074.035.148.07-.035.039-.074.074-.109.074-.04 0-.074-.035-.113-.074zm5.972-1.363c.036-.07.11-.036.145-.036-.035.11-.035.149-.074.149 0 0-.035-.04-.07-.113zm-1.254.37c0 .036-.074.036-.109.075l-.039-.04v-.073c.074-.075.11-.036.148.039zm-7.554 18.72l-.074.07c0-.035-.036-.07-.036-.11l.11-.109zm7.222-2.434a.16.16 0 01.149-.149.16.16 0 01-.149.149zm-4.57-15.328c.04-.035.074 0 .184.035h-.035c-.036.039-.075.039-.149.039zm3.723 16.175c0-.074.074-.109.148-.148a.16.16 0 01-.148.148zm-2.395 3.243c.074 0 .11 0 .11-.11h-.11zm5.344-20.043c.035-.075.035-.114.035-.114 0-.035 0 0-.035 0-.04 0 0 .114 0 .114zm-1.254 15.254c-.074 0-.11.074-.148.148.074-.039.148-.074.148-.148zm-.996.847c.039-.074.074-.148.148-.148 0 .074-.074.11-.148.148zm.738-.59c.074 0 .11-.039.11-.109zm3.684-16.84c.074-.109.113-.109.148 0v-.035c-.035.07-.074.036-.148.036zm-.848-.48c-.035-.035-.11-.07-.144 0 .035.04.109.074.144 0zm-1.324 1.809c-.074-.04-.148-.114-.148 0 .035 0 .074.07.148 0zm-2.617-.149c.035-.039.074-.11.11-.074 0-.035 0 0 .038.035l-.039.04c-.035-.04-.074.034-.11 0zm1.512 15.254c-.075 0-.114.074-.149.149a.305.305 0 00.149-.149zm-5.16-14.445c0-.11.074-.07.109-.035-.035.074-.07.035-.11.035zm-.626 0c-.039 0 0 .074 0 .074h-.074c0-.035 0-.11.035-.074zm9.32-2.098a.359.359 0 01-.074.11c0-.11 0-.11.075-.11zm-1.105-.37c.04 0 .074.038.113.038v-.039s0-.035-.039-.035c0 0-.035 0-.074.035zm-1.879 1.292c-.035-.148 0-.113.04-.148 0 .109-.04.148-.04.148zm2.434-1.512c0 .035.074.11.11.035-.036-.035-.036-.035-.11-.035zm-5.602 19.641c-.074-.074 0-.074.035-.074 0 .035 0 .035-.035.074zm.7-.703c-.075-.074 0-.074.039-.074 0 .039 0 .039-.04.074zm-2.098 2.95c-.04 0-.074-.036-.074-.036v.07c0-.035.035-.035.074-.035zm8.547-21.224c-.035-.039-.035-.074 0-.039zm-10.242 1.989c0 .074-.04.074-.075.074 0-.04 0-.074.075-.074zm-2.434 17.504c.074.07-.035.07-.074.07.039 0 .039-.035.074-.07zm7.184-19.235s-.036 0-.07.035h.109c-.04 0-.04-.074-.04-.035zm.628.735s-.039 0-.074-.036c.035 0 .074 0 .074.036zm2.836.039c0-.04-.035-.04-.074 0h-.035c.035 0 .035.035.035.035zm-1.214 14.039c-.075 0-.04 0-.04-.04h.04zm-1.77-13.707s-.035 0-.035-.04v.075c.035.035.035 0 .035-.035zm.738.183c0-.039 0-.039-.039-.039l.04.074v-.035zm-2.765 17.242c.074.075 0 .075-.035.075.035-.035.035-.035.035-.075zm-2.356-16.652c-.039 0-.039 0-.039.074 0 0 .04 0 .04-.074zm7.7-2.691s-.11-.075-.036.039zm-6.926 21.851h-.04v-.039zm5.414-6.34c0 .04 0 .075-.035.075.035 0 .074 0 .035-.075zm-.11.114c-.035 0-.074 0 0 .074zm-.664-15.035v.074zm1.547.332c0-.04.04 0 .04 0zm-2.504 16.543h-.035v-.036zm-3.683 4.277c-.04 0-.04-.04-.04-.04zm7.55-20.527s.04 0 .04-.036c0 0-.04-.074-.04.036zm-.625-1.215c0-.035.036.039 0-.075zm-4.937-.922l-.035-.035zm1.512 18.351c.035.036 0 .036 0 .036zm.476-16.73s.04 0 .04-.035zm-2.761 19.09l-.04.035zm2.433-2.469l.035-.039zm-3.797 4.64v.04zm2.692-20.19c0 .034.035.034.035 0zm0 0" fill="#ff5757"/><path d="M286.998 276.398c.035-.074-.04-.148-.113-.183v-.075c0-.074 0-.148.074-.148 0 0 .039.039.074.039.11.035.258.07.258.293v.7c0 .222.11.44.148.663.036 1.07.7 1.805 1.473 2.469.035.035.148.035.184.074.074.035.148.074.222.074.477 0 1.953-1.218 2.285-1.546.145-.114.075-.297.184-.407.11-.074.258-.183.367-.297.04-.035.04-.109 0-.109h-.11c-.663.441-1.288.883-1.991 1.215a1.4 1.4 0 01-.66.148c-.114 0-.223 0-.333-.035-.332-.445-.48-.996-.48-1.55 0-1.915.957-6.004 1.73-7.551.262-.442.297-.922.223-1.403-.183-.11-.367-.218-.55-.218a.58.58 0 00-.333.109c-.039.035-.113.035-.148.035-.074 0-.11 0-.184-.035-.515-.258-1.03-.258-1.586-.258-.882.035-1.656.258-2.359.848-.293.258-.586.59-.957.738-.035.035-.074.07-.074.11-.11.218-.293.44-.477.515-.297.148-.222.48-.48.664-.774.7-1.325 1.84-1.77 2.8a.664.664 0 00-.144.22c-.664 2.027-.996 3.28-.996 5.492 0 .7.257 1.324.808 1.805l.258.257a.62.62 0 00.445.184c.184-.035.403-.035.59-.149.55-.257 1.84-1.105 2.137-1.582.074-.113.293-.148.367-.296.11-.22.293-.403.441-.59-.109-.293.258-.442.297-.66.035-.223.184-.446.293-.63.074-.218.184-.406.332-.624.075-.149.184-.258.149-.442.258-.113.332-.406.406-.664zm-4.938 4.68c-.039.035-.113.035-.187.074-.074-.074-.145-.113-.145-.148-.074-.075-.074-.184-.074-.258 0-.258 0-.516-.113-.774a.427.427 0 010-.296c.148-.516.148-1.032.223-1.582.074-.184.109-.407.148-.59.219-.664.332-1.364.625-1.989.184-.406.297-.812.48-1.18.075-.148.184-.257.258-.406.149-.332.407-.59.477-.921.039-.036.039-.11.074-.149.371-.258.555-.66.922-.957.297-.258.555-.625.887-.883.55-.406 1.066-.812 1.73-1.07.367-.148.7-.367.996-.664.11-.074.145-.11.219-.11.074 0 .11.036.184.11.222.187.257.297.148.555-.184.441-.406.882-.516 1.363-.074.516-.48 1.77-.738 2.246-.332.738-.7 1.477-1.066 2.25-.184.477-.516.918-.813 1.363-.219.442-.515.848-.734 1.29-.738 1.179-1.844 1.988-2.985 2.726zm4.532-4.422c.035-.039.035-.074.035-.11l.074.071c0 .039-.035.074-.074.113 0-.039-.035-.039-.035-.074zm-4.203-3.5h.039v.035zm4.867 2.285h-.04v-.039zm-4.977-2.027v.035h-.035zm3.649 4.457v-.074zm0 0" fill="#ff5757"/><path d="M294.181 273.265c.477.332 1.032.59 1.582.883-.148.149-.218.223-.257.332-.036.188-.11.371-.407.406-.183 0-.258.11-.367.184 0 .074-.074.184-.11.184-.074 0-.148-.035-.183-.035-.223 0-.297.148-.371.296.04.07 0 .11-.074.11-.328.11-.516.332-.7.515a1.39 1.39 0 00-.331.22c-.625.257-1.106.589-1.325 1.144-.257.332-.332.699-.629 1.105-.109.219-.074.442-.035.664.184.774.516 1.438 1.106 1.988.332.516.996.7 1.547.774.367 0 .773-.074 1.03-.184.556-.183 1.106-.406 1.438-.847.075-.075.184-.149.332-.258.774-.555 1.032-.664 1.399-1.328.113-.258.297-.477.445-.66.07-.114.07-.223.145-.372.37-.55.445-1.18.59-1.84v-.187c-.036-.476-.442-.992-.625-1.433-.075-.297-.333-.516-.555-.704-.145-.144-.11-.218 0-.293.074-.074.074-.109.187-.148.7-.332 4.09-1.105 4.825-1.289.183-.035.37-.11.515-.184.113-.039.113-.074.113-.109-.074-.074-.187-.148-.296-.148h-.149c-.367.218-.808.218-1.176.367-.332.148-3.316.773-3.722.922a1.479 1.479 0 00-.516.222 1.04 1.04 0 01-.441.11c-.188 0-.371-.075-.555-.184-.406-.148-.957-.48-1.29-.738-.405-.258-.48-.59-.331-.883.183-.258.406-.516.59-.848.11-.332.367-.554.812-.703a1.72 1.72 0 00.625-.367c.442-.293.809-.477 1.324-.55.63-.04 1.036-.259 1.477-.446.184-.035.773-.145.883-.145.11 0 .297 0 .37-.039.259-.074.368-.144.368-.293 0-.183-.223-.297-.367-.37-.332-.11-.59-.22-.922-.22-.297 0-.555-.039-.848-.074-.664-.11-.996-.183-1.254-.183-.222 0-.406.074-.773.148-.297.07-.664.258-.957.367-1.145.516-1.992 1.29-2.543 2.285-.258.332-.371.848-.48 1.25-.036.114 0 .223.109.332.187.223.406.446.406.774 0 .187.223.332.371.48zm2.797 1.73c.113.114.113.224.149.333.109.738 0 1.402-.368 2.027-.738 1.29-1.918 2.617-3.316 3.168-.148.04-.297.113-.48.113h-.22c-.148 0-.296 0-.515-.113-.187-.144-.187-.402-.37-.625 0 0 0-.035-.036-.074.219-.441.035-.922.219-1.438.297-.882 1.105-1.953 1.992-2.32a1.06 1.06 0 01.367-.222c.406-.145.738-.403 1.106-.66.222-.188.628-.298.886-.481.035 0 .07-.035.11-.035.183 0 .406.144.476.328zm-1.62 5.161c-.036 0-.11 0-.036-.074 0 0-.149-.035-.11-.074.145-.442.516-.735.883-.993.075-.039-.074 0 .075.036 0 0 .109.109.035.109-.258.297-.516.629-.848.996zm1.292-1.656c-.074.11-.113.219-.258.293h-.113l-.035-.035c.035-.114.074-.258.148-.446.035-.07.258-.144.258-.07.07.07.07.11 0 .258zm-2.508 2.43c-.035 0-.074 0-.11-.036 0-.183.15-.258.442-.258.035.258.035.258-.332.293zm2.836-2.985c-.035.04-.07.074-.11.074-.034 0-.034-.035-.109-.035.075-.039.11-.113.11-.148h.074c.035.035.035.11.035.11zm-3.277 3.059c.035-.035.035-.075.035-.075h.258c0 .04 0 .075-.07.075zm1.328-.883l.035.035h-.035zm-.813 1.289h-.035v-.04zm0 0" fill="#ff5757"/><path d="M101.536 256.553h18.047v10.515H84.411l-.062-8.625 16.218-16.75c1.164-1.164 2.102-2.343 2.813-3.53.719-1.188 1.078-2.212 1.078-3.079 0-1.039-.36-1.832-1.078-2.375-.711-.539-1.715-.812-3.016-.812-1.773 0-3.75.511-5.937 1.53-2.18 1.013-4.371 2.43-6.578 4.25l-5.063-9.734c6.75-4.632 13.281-6.953 19.594-6.953 3.113 0 5.89.512 8.328 1.532 2.445 1.023 4.375 2.437 5.781 4.25 1.407 1.812 2.11 3.914 2.11 6.296 0 2.375-.766 4.809-2.297 7.297-1.531 2.493-3.73 5.164-6.594 8.016zm0 0" fill="#fff"/></svg>