<svg xmlns="http://www.w3.org/2000/svg" xmlns:xlink="http://www.w3.org/1999/xlink" width="500" zoomAndPan="magnify" viewBox="0 0 375 374.999991" height="500" preserveAspectRatio="xMidYMid meet" version="1.0"><defs><clipPath id="34b61b2673"><path d="M 112.5 112.5 L 262.5 112.5 L 262.5 262.5 L 112.5 262.5 Z M 112.5 112.5 " clip-rule="nonzero"/></clipPath><clipPath id="b10edcdefa"><path d="M 143.265625 155.929688 L 231.765625 155.929688 L 231.765625 218.929688 L 143.265625 218.929688 Z M 143.265625 155.929688 " clip-rule="nonzero"/></clipPath></defs><g clip-path="url(#34b61b2673)"><path fill="#004aad" d="M 187.5 262.5 C 146.066406 262.5 112.5 228.703125 112.5 187.5 C 112.5 146.296875 146.066406 112.5 187.5 112.5 C 228.933594 112.5 262.5 146.066406 262.5 187.5 C 262.5 228.933594 228.703125 262.5 187.5 262.5 Z M 187.5 117.128906 C 148.609375 117.128906 117.128906 148.609375 117.128906 187.5 C 117.128906 226.390625 148.609375 257.871094 187.5 257.871094 C 226.390625 257.871094 257.871094 226.390625 257.871094 187.5 C 257.871094 148.609375 226.15625 117.128906 187.5 117.128906 Z M 187.5 117.128906 " fill-opacity="1" fill-rule="nonzero"/></g><g clip-path="url(#b10edcdefa)"><path fill="#004aad" d="M 152.777344 155.929688 C 147.542969 155.929688 143.300781 160.152344 143.300781 165.378906 C 143.417969 179.707031 143.300781 194.875 143.300781 209.480469 C 143.300781 214.507812 147.222656 218.578125 152.183594 218.878906 L 222.652344 218.929688 C 227.707031 218.726562 231.734375 214.574219 231.734375 209.480469 L 231.734375 163.753906 C 230.96875 159.300781 227.089844 155.929688 222.40625 155.929688 C 199.210938 155.941406 175.984375 155.929688 152.777344 155.929688 Z M 152.628906 160.898438 L 222.703125 160.898438 L 188.800781 194.714844 C 188.179688 195.332031 187.199219 195.332031 186.578125 194.714844 Z M 226.996094 163.3125 L 226.996094 209.132812 C 226.996094 211.863281 226.011719 213.40625 224.035156 213.957031 L 200.152344 190.085938 Z M 148.582031 163.507812 L 174.984375 189.839844 L 150.851562 213.910156 C 149.203125 213.351562 148.625 212.027344 148.582031 210.21875 Z M 178.339844 193.136719 L 186.582031 201.40625 C 187.199219 202.023438 188.183594 202.023438 188.800781 201.40625 L 196.796875 193.433594 L 217.621094 214.203125 L 157.21875 214.203125 Z M 178.339844 193.136719 " fill-opacity="1" fill-rule="nonzero"/></g></svg>