<svg xmlns="http://www.w3.org/2000/svg" xmlns:xlink="http://www.w3.org/1999/xlink" width="500" zoomAndPan="magnify" viewBox="0 0 375 374.999991" height="500" preserveAspectRatio="xMidYMid meet" version="1.0"><defs><clipPath id="3da5ebe3d1"><path d="M 112.5 112.5 L 262.5 112.5 L 262.5 262.5 L 112.5 262.5 Z M 112.5 112.5 " clip-rule="nonzero"/></clipPath><clipPath id="ec91542a2c"><path d="M 147.621094 228 L 148 228 L 148 229 L 147.621094 229 Z M 147.621094 228 " clip-rule="nonzero"/></clipPath><clipPath id="761e4fd43d"><path d="M 147.621094 146 L 227 146 L 227 235 L 147.621094 235 Z M 147.621094 146 " clip-rule="nonzero"/></clipPath></defs><g clip-path="url(#3da5ebe3d1)"><path fill="#f20f10" d="M 187.5 262.5 C 146.066406 262.5 112.5 228.703125 112.5 187.5 C 112.5 146.296875 146.066406 112.5 187.5 112.5 C 228.933594 112.5 262.5 146.066406 262.5 187.5 C 262.5 228.933594 228.703125 262.5 187.5 262.5 Z M 187.5 117.128906 C 148.609375 117.128906 117.128906 148.609375 117.128906 187.5 C 117.128906 226.390625 148.609375 257.871094 187.5 257.871094 C 226.390625 257.871094 257.871094 226.390625 257.871094 187.5 C 257.871094 148.609375 226.15625 117.128906 187.5 117.128906 Z M 187.5 117.128906 " fill-opacity="1" fill-rule="nonzero"/></g><path fill="#f20f10" d="M 209.210938 219.65625 C 209.328125 219.65625 209.421875 219.78125 209.378906 219.832031 C 209.285156 219.820312 209.253906 219.730469 209.210938 219.65625 " fill-opacity="1" fill-rule="nonzero"/><path fill="#f20f10" d="M 164.972656 172.390625 C 164.835938 172.320312 164.738281 172.0625 164.976562 172.105469 C 164.960938 172.242188 164.980469 172.253906 164.972656 172.390625 " fill-opacity="1" fill-rule="nonzero"/><path fill="#f20f10" d="M 210.566406 220.796875 C 210.464844 220.777344 210.421875 220.679688 210.378906 220.582031 C 210.457031 220.632812 210.535156 220.683594 210.566406 220.796875 " fill-opacity="1" fill-rule="nonzero"/><path fill="#f20f10" d="M 165.125 172.671875 C 165.050781 172.28125 165.386719 172.867188 165.285156 172.527344 C 165.503906 172.8125 165.3125 172.777344 165.125 172.671875 " fill-opacity="1" fill-rule="nonzero"/><path fill="#f20f10" d="M 164.804688 172.027344 C 164.671875 171.835938 164.886719 171.851562 164.898438 172.035156 C 164.851562 172.007812 164.800781 171.984375 164.804688 172.027344 " fill-opacity="1" fill-rule="nonzero"/><path fill="#f20f10" d="M 165.414062 161.75 C 165.4375 161.835938 165.453125 161.914062 165.460938 161.988281 C 165.449219 161.90625 165.429688 161.828125 165.414062 161.75 " fill-opacity="1" fill-rule="nonzero"/><path fill="#f20f10" d="M 217.859375 226.125 C 219.855469 227.324219 221.800781 228.382812 223.6875 229.28125 C 221.699219 228.375 219.761719 227.316406 217.859375 226.125 " fill-opacity="1" fill-rule="nonzero"/><path fill="#f20f10" d="M 211.222656 222.101562 C 211.332031 222.09375 211.332031 222.234375 211.378906 222.308594 C 211.285156 222.328125 211.148438 222.113281 211.222656 222.101562 " fill-opacity="1" fill-rule="nonzero"/><path fill="#f20f10" d="M 214.40625 224.5625 C 214.269531 224.535156 214.070312 224.378906 214.101562 224.300781 C 214.234375 224.34375 214.351562 224.402344 214.40625 224.5625 " fill-opacity="1" fill-rule="nonzero"/><path fill="#f20f10" d="M 194.597656 197 C 194.632812 197.027344 194.691406 197.078125 194.773438 197.15625 C 194.71875 197.117188 194.65625 197.0625 194.597656 197 " fill-opacity="1" fill-rule="nonzero"/><path fill="#f20f10" d="M 197.824219 199.753906 C 197.816406 199.910156 197.847656 200.039062 197.898438 200.15625 C 197.707031 199.957031 197.417969 199.628906 197.824219 199.753906 " fill-opacity="1" fill-rule="nonzero"/><path fill="#f20f10" d="M 214.515625 216.394531 C 214.511719 216.378906 214.507812 216.371094 214.507812 216.359375 C 214.519531 216.382812 214.527344 216.394531 214.515625 216.394531 " fill-opacity="1" fill-rule="nonzero"/><path fill="#f20f10" d="M 211.1875 213.753906 C 211.230469 213.792969 211.273438 213.828125 211.320312 213.867188 C 211.15625 213.765625 211.136719 213.738281 211.1875 213.753906 " fill-opacity="1" fill-rule="nonzero"/><path fill="#f20f10" d="M 210.546875 213.792969 C 210.527344 213.785156 210.507812 213.777344 210.488281 213.769531 C 210.300781 213.617188 210.382812 213.664062 210.546875 213.792969 " fill-opacity="1" fill-rule="nonzero"/><path fill="#f20f10" d="M 207.683594 209.167969 C 207.726562 209.136719 207.804688 209.160156 207.714844 209.171875 C 207.695312 209.167969 207.6875 209.164062 207.683594 209.167969 " fill-opacity="1" fill-rule="nonzero"/><path fill="#f20f10" d="M 198.015625 200.273438 C 197.988281 200.261719 197.964844 200.25 197.941406 200.238281 C 197.925781 200.210938 197.914062 200.183594 197.898438 200.15625 C 197.949219 200.207031 197.992188 200.25 198.015625 200.273438 " fill-opacity="1" fill-rule="nonzero"/><path fill="#f20f10" d="M 165.339844 172.949219 C 165.402344 172.476562 165.65625 173.210938 165.433594 173.242188 C 165.292969 173.082031 165.589844 173.027344 165.339844 172.949219 " fill-opacity="1" fill-rule="nonzero"/><path fill="#f20f10" d="M 172.394531 209.457031 C 172.378906 209.488281 172.359375 209.503906 172.394531 209.457031 " fill-opacity="1" fill-rule="nonzero"/><path fill="#f20f10" d="M 199.78125 159.9375 C 199.90625 159.75 200.039062 160.023438 200.050781 159.746094 C 200.53125 159.648438 199.871094 160.15625 199.78125 159.9375 " fill-opacity="1" fill-rule="nonzero"/><path fill="#f20f10" d="M 164.886719 216.808594 C 164.902344 216.769531 164.921875 216.734375 164.941406 216.695312 C 165.105469 216.457031 165.039062 216.582031 164.886719 216.808594 " fill-opacity="1" fill-rule="nonzero"/><path fill="#f20f10" d="M 201.664062 167.359375 C 201.625 167.496094 201.554688 167.613281 201.414062 167.691406 C 201.523438 167.59375 201.53125 167.441406 201.664062 167.359375 " fill-opacity="1" fill-rule="nonzero"/><path fill="#f20f10" d="M 200.855469 158.992188 C 200.867188 158.933594 200.878906 158.875 200.835938 158.894531 C 200.996094 158.699219 201.03125 158.921875 200.855469 158.992188 " fill-opacity="1" fill-rule="nonzero"/><path fill="#f20f10" d="M 200.800781 159.09375 C 200.660156 159.125 200.65625 159.148438 200.515625 159.1875 C 200.546875 159.039062 200.78125 158.835938 200.800781 159.09375 " fill-opacity="1" fill-rule="nonzero"/><g clip-path="url(#ec91542a2c)"><path fill="#f20f10" d="M 147.929688 228.214844 C 147.886719 228.253906 147.851562 228.28125 147.820312 228.304688 C 147.855469 228.277344 147.890625 228.246094 147.929688 228.214844 " fill-opacity="1" fill-rule="nonzero"/></g><path fill="#f20f10" d="M 152.566406 224.632812 C 152.5 224.578125 152.6875 224.320312 152.808594 224.253906 C 152.785156 224.425781 152.628906 224.492188 152.566406 224.632812 " fill-opacity="1" fill-rule="nonzero"/><path fill="#f20f10" d="M 153.679688 223.101562 C 153.738281 222.976562 153.804688 222.855469 153.941406 222.789062 C 153.863281 222.898438 153.832031 223.046875 153.679688 223.101562 " fill-opacity="1" fill-rule="nonzero"/><path fill="#f20f10" d="M 200.453125 159.546875 C 199.9375 160.113281 200.449219 159.074219 200.378906 159.507812 C 200.339844 159.585938 200.304688 159.648438 200.453125 159.546875 " fill-opacity="1" fill-rule="nonzero"/><g clip-path="url(#761e4fd43d)"><path fill="#f20f10" d="M 152.90625 226.230469 C 154.109375 225.191406 149.792969 229.722656 150.4375 229.632812 C 149.738281 230.046875 149.050781 231.132812 150.152344 230.175781 C 150.242188 229.582031 151.890625 228.355469 152.683594 227.203125 C 153.652344 226.691406 150.679688 229.632812 152.472656 228.238281 C 152.117188 228.40625 151.90625 228.523438 152.371094 228.109375 C 152.558594 227.945312 152.742188 227.777344 152.921875 227.601562 C 152.957031 227.632812 153.125 227.523438 153.128906 227.464844 C 153.125 227.457031 153.101562 227.457031 153.070312 227.460938 C 154.960938 225.632812 153.15625 229.214844 150.863281 231.316406 C 150.140625 232.570312 148.160156 235.199219 150.886719 232.28125 C 151.101562 232.183594 151.117188 231.828125 151.628906 231.664062 C 152.039062 230.964844 151.34375 232.03125 151.410156 231.578125 C 152.050781 231.160156 153.007812 229.664062 152.699219 230.425781 C 153.417969 229.390625 154.1875 229.496094 152.859375 230.359375 C 151.675781 232.050781 151.039062 232.496094 149.496094 234.964844 C 151.09375 234.550781 152.65625 230.824219 154.453125 230.523438 C 154.351562 230.058594 154.996094 229.34375 155.464844 228.984375 C 155.792969 228.398438 155.296875 229.332031 155.289062 229.429688 C 156.488281 228.628906 156.121094 228.800781 156.933594 227.757812 C 158.027344 225.703125 160.597656 223.703125 156.09375 229.675781 C 155.53125 230.503906 157.25 228.734375 157.394531 228.210938 C 158.070312 227.578125 157.648438 227.898438 157.246094 228.238281 C 157.628906 227.65625 157.554688 227.796875 157.941406 227.660156 C 158.828125 226.601562 160.441406 224.148438 160.328125 224.804688 C 160.964844 223.996094 160.070312 225.242188 159.824219 225.527344 C 163.0625 222.195312 166.800781 216.328125 168.863281 214.0625 C 168.625 214.738281 169.972656 212.871094 169.4375 213.390625 C 169.976562 212.636719 169.359375 213.585938 169.195312 213.234375 C 169.375 213.121094 169.535156 213 169.679688 212.878906 C 169.6875 212.882812 169.695312 212.882812 169.707031 212.882812 C 169.710938 212.871094 169.71875 212.859375 169.722656 212.847656 C 169.792969 212.785156 169.855469 212.726562 169.921875 212.667969 C 169.980469 212.636719 170.039062 212.613281 170.070312 212.578125 C 170.078125 212.550781 170.074219 212.535156 170.066406 212.523438 C 170.914062 211.65625 171.136719 210.800781 171.628906 210.820312 C 171.75 211.160156 171.96875 209.484375 172.308594 209.320312 C 172.421875 209.351562 172.414062 209.417969 172.394531 209.457031 C 172.417969 209.429688 172.464844 209.378906 172.550781 209.292969 C 172.496094 209.707031 172.652344 209.085938 172.785156 208.945312 C 174.988281 205.738281 176.699219 202.511719 178.761719 200.917969 C 178.859375 200.339844 178.371094 201.089844 178.242188 201.226562 C 178.457031 200.726562 178.066406 200.988281 177.917969 201.121094 C 178.683594 200.429688 180.152344 198.644531 178.832031 200.433594 C 179.0625 200.160156 179.640625 200.136719 179.085938 200.101562 C 179.59375 199.792969 179.390625 199.949219 179.414062 200.160156 C 180.226562 198.328125 179.882812 199.605469 180.953125 197.691406 C 180.804688 197.851562 180.816406 197.789062 180.695312 197.847656 C 181.839844 196.714844 180.90625 197.300781 180.363281 198.074219 C 180.761719 197.453125 180.601562 197.640625 180.925781 196.933594 C 181.050781 197.007812 180.5625 197.488281 180.910156 197.273438 C 181.324219 196.726562 182.179688 196.015625 181.914062 195.414062 C 182.515625 194.683594 181.925781 195.429688 182.332031 195.128906 C 182.335938 195.132812 182.339844 195.136719 182.347656 195.140625 C 182.230469 195.390625 182.285156 195.347656 182.398438 195.203125 C 193.5625 207.90625 206.46875 219.292969 217.859375 226.125 C 214.726562 224.167969 213.332031 222.390625 213.390625 222.417969 C 214.242188 223.078125 215.070312 223.695312 215.859375 224.261719 C 215.832031 224.25 215.800781 224.238281 215.773438 224.222656 C 215.851562 224.347656 215.972656 224.398438 216.101562 224.441406 C 216.101562 224.4375 216.097656 224.433594 216.097656 224.429688 C 219.300781 226.695312 221.917969 228.078125 223.355469 227.871094 C 222.539062 227.46875 224.191406 227.890625 223.648438 227.90625 C 223.449219 227.769531 223.257812 228.128906 223.714844 227.933594 C 223.839844 228.070312 223.878906 228.167969 224.449219 228.273438 C 222.980469 227.386719 225.394531 228.625 225.941406 228.640625 C 224.886719 228.058594 226 228.554688 226.261719 228.734375 C 225.757812 228.449219 224.800781 228.335938 223.457031 226.964844 C 222.386719 226.875 222.339844 226.34375 223.109375 226.171875 C 225.316406 226.988281 220.25 225.191406 220.042969 224.390625 C 220.152344 224.503906 222.105469 225.472656 221.410156 224.964844 C 221.070312 224.773438 220.730469 224.574219 220.394531 224.367188 C 220.40625 224.367188 220.414062 224.367188 220.425781 224.363281 C 220.5 224.355469 220.347656 224.183594 220.285156 224.195312 C 220.277344 224.207031 220.289062 224.273438 220.320312 224.320312 C 220.222656 224.257812 220.128906 224.199219 220.03125 224.136719 C 220.035156 224.128906 220.027344 224.113281 220 224.085938 C 219.976562 224.078125 219.953125 224.078125 219.9375 224.074219 C 215.046875 220.925781 220.125 223.835938 224.335938 224.960938 C 224.503906 224.992188 224.660156 225.023438 224.804688 225.046875 C 224.871094 225.066406 224.933594 225.078125 224.976562 225.078125 C 227.089844 225.4375 226.261719 224.957031 224.65625 224.488281 C 224.011719 224.382812 223.414062 224.128906 221.921875 223.117188 C 222.636719 223.261719 222.503906 223.121094 222.878906 223.59375 C 222.671875 223.257812 223.5 223.804688 223.253906 223.550781 C 223.867188 224.046875 225.910156 224.800781 223.996094 223.972656 C 224.972656 224.054688 224.101562 223.261719 223.285156 222.894531 C 223.527344 222.980469 223.472656 223.03125 223.429688 222.726562 C 223.296875 222.746094 223.269531 222.808594 223.011719 222.691406 C 223.265625 222.210938 222.003906 222.171875 221.179688 221.609375 C 221.546875 221.683594 221.511719 221.5625 221.214844 221.3125 C 221.25 221.289062 221.246094 221.222656 221.160156 221.191406 C 221.175781 221.226562 221.144531 221.226562 221.121094 221.234375 C 219.988281 220.332031 218.992188 219.242188 219.105469 219.4375 C 219.390625 219.621094 221.507812 220.703125 221.921875 220.890625 C 222.113281 220.542969 220.351562 220.128906 219.339844 219.140625 C 218.75 218.738281 219.09375 219.582031 218.660156 218.671875 C 218.367188 218.925781 218.042969 217.996094 217.84375 218.167969 C 218.398438 218.925781 216.96875 217.488281 217.621094 217.875 C 216.917969 217.363281 218 218.074219 218.25 218.261719 C 215.699219 215.902344 214.007812 214.984375 212.4375 213.429688 C 212.066406 213.042969 207.621094 209.5625 208.414062 209.878906 C 208.164062 209.699219 208.660156 209.925781 208.480469 209.964844 C 209.058594 210.058594 207.65625 209.207031 207.683594 209.167969 C 207.65625 209.1875 207.640625 209.226562 207.683594 209.296875 C 207.609375 209.226562 207.488281 209.105469 207.34375 208.964844 C 207.308594 208.886719 207.296875 208.800781 207.257812 208.761719 C 207.203125 208.746094 207.1875 208.773438 207.195312 208.816406 C 207.148438 208.773438 207.101562 208.730469 207.054688 208.683594 C 207.023438 208.59375 206.925781 208.464844 206.78125 208.378906 C 206.796875 208.40625 206.808594 208.429688 206.820312 208.449219 C 206.445312 208.078125 206.074219 207.703125 205.960938 207.542969 C 205.675781 207.570312 205.519531 207.085938 206.035156 207.558594 C 206.109375 207.359375 205.367188 206.613281 205.144531 207.039062 C 203.648438 205.367188 202.160156 204.515625 200.273438 202.398438 C 200.160156 202.371094 200.234375 202.546875 200.09375 202.351562 C 200.050781 202.425781 200.335938 202.640625 200.183594 202.675781 C 199.722656 202.1875 199.683594 202.238281 199.375 201.5625 C 199.121094 201.613281 199.597656 201.859375 199.382812 201.933594 C 198.976562 201 198.230469 200.734375 197.941406 200.238281 C 197.578125 200.066406 197.796875 200.484375 197.875 200.609375 C 197.585938 200.347656 197.246094 199.890625 197.746094 200.171875 C 196.230469 198.746094 196.902344 199.09375 197.230469 199.460938 C 197.363281 199.375 197.308594 199.195312 197.148438 199.136719 C 197.335938 199.710938 196.894531 198.988281 197.058594 198.976562 C 197.542969 199.253906 196.261719 198.382812 196.179688 198.070312 C 196.71875 199.449219 195.828125 197.417969 195.269531 197.359375 C 195.539062 197.941406 195.03125 197.191406 194.949219 197 C 194.203125 196.757812 196.34375 198.601562 195.324219 197.878906 C 195.152344 197.585938 194.917969 197.238281 194.910156 197.632812 C 194.632812 197.4375 194.484375 197.089844 194.820312 197.476562 C 194.90625 197.511719 194.980469 197.414062 194.878906 197.355469 C 194.949219 197.542969 194.351562 196.8125 194.597656 197 C 194.085938 196.484375 193.507812 195.449219 193.847656 196.574219 C 193.800781 196.523438 193.753906 196.46875 193.707031 196.417969 C 193.6875 196.394531 193.667969 196.375 193.648438 196.351562 C 193.453125 196.136719 193.257812 195.917969 193.058594 195.695312 C 193.082031 195.683594 193.105469 195.664062 193.128906 195.632812 C 192.878906 195.40625 192.585938 195.128906 192.9375 195.546875 C 192.925781 195.535156 192.914062 195.53125 192.902344 195.523438 C 192.792969 195.40625 192.679688 195.285156 192.570312 195.167969 C 192.601562 195.191406 192.632812 195.214844 192.667969 195.234375 C 192.5 194.996094 192.472656 194.96875 192.285156 194.859375 C 192.191406 194.757812 192.097656 194.65625 192.003906 194.554688 C 192.007812 194.5 192.007812 194.441406 191.996094 194.402344 C 191.898438 194.351562 191.832031 194.335938 191.800781 194.339844 C 190.183594 192.621094 188.40625 190.824219 186.597656 188.972656 C 191.21875 182.074219 196.699219 174.25 199.390625 170.574219 C 200.867188 168.210938 203.253906 165.179688 205.6875 162.308594 C 205.742188 162.265625 205.789062 162.210938 205.8125 162.164062 C 205.855469 162.113281 205.898438 162.0625 205.941406 162.015625 C 206.019531 161.953125 206.082031 161.882812 206.125 161.796875 C 206.175781 161.738281 206.222656 161.679688 206.273438 161.625 C 206.347656 161.59375 206.375 161.535156 206.402344 161.472656 C 208.140625 159.453125 209.859375 157.554688 211.242188 156.078125 C 210.273438 156.164062 212.421875 154.578125 212.703125 154.421875 C 211.925781 155.535156 210.300781 156.460938 212.359375 155.171875 C 213.359375 153.65625 214.523438 153.304688 214.878906 152.363281 C 212.988281 153.828125 216.964844 150.152344 216.824219 149.621094 C 217.078125 149.488281 217.042969 149.519531 216.921875 149.328125 C 216.96875 149.339844 217.421875 148.882812 217.15625 149.042969 C 217.15625 149.03125 217.152344 149.03125 217.148438 149.03125 C 217.574219 148.605469 217.789062 148.101562 217.152344 148.589844 C 217.292969 148.09375 217.917969 148.050781 217.949219 147.660156 C 218.59375 147.488281 216.992188 147.789062 215.171875 147.878906 C 216.777344 146.898438 214.441406 147.402344 213.066406 148.601562 C 212.539062 148.640625 213.160156 148.449219 213.285156 148.25 C 215.929688 139.949219 199.097656 161.242188 181.820312 183.953125 C 181.097656 183.160156 180.382812 182.359375 179.691406 181.554688 C 179.691406 181.554688 179.691406 181.554688 179.691406 181.550781 C 179.691406 181.550781 179.6875 181.550781 179.6875 181.550781 C 179.121094 180.894531 178.566406 180.230469 178.035156 179.566406 C 177.179688 178.597656 176.375 177.660156 175.582031 176.691406 C 175.53125 176.601562 175.476562 176.535156 175.449219 176.53125 C 174.632812 175.527344 173.824219 174.492188 172.988281 173.359375 C 172.957031 173.285156 172.914062 173.226562 172.855469 173.179688 C 171.789062 171.738281 170.671875 170.136719 169.40625 168.253906 C 169.40625 168.253906 169.402344 168.25 169.402344 168.246094 C 169.355469 168.175781 169.308594 168.105469 169.257812 168.035156 C 169.226562 167.957031 169.183594 167.890625 169.128906 167.835938 C 169.089844 167.78125 169.054688 167.726562 169.015625 167.667969 C 169.015625 167.578125 168.953125 167.542969 168.898438 167.496094 C 168.648438 167.117188 168.390625 166.726562 168.125 166.320312 C 167.902344 166.371094 167.40625 164.539062 167.519531 165.070312 C 167.640625 165.34375 167.207031 164.914062 167.355469 164.816406 C 166.796875 164.277344 167.554688 164.96875 167.625 164.941406 C 167.320312 164.769531 167.273438 164.4375 167.164062 164.1875 C 167.097656 164.847656 166.929688 164.320312 166.789062 163.980469 C 166.234375 163.273438 166.453125 163.496094 166.148438 162.679688 C 165.636719 161.761719 165.15625 162.335938 165.078125 161.136719 C 164.199219 159.472656 165.171875 160.835938 165.414062 161.75 C 165.015625 159.785156 163.917969 158.261719 163.511719 157.660156 C 164.121094 159.605469 161.894531 154.617188 161.328125 154.761719 C 161.601562 155.328125 161.011719 154.234375 160.9375 154.140625 C 160.664062 154.285156 161.054688 154.652344 160.765625 154.671875 C 160.765625 153.957031 159.886719 153.847656 159.714844 153.617188 C 160.117188 153.253906 158.378906 152.082031 159.144531 154.558594 C 157.390625 152.4375 155.613281 149.796875 157.847656 155.078125 C 157.863281 155.238281 157.429688 153.773438 156.535156 153.800781 C 159.933594 164.722656 167.816406 177.480469 177.597656 189.519531 C 163.386719 208.296875 149.929688 226.472656 147.929688 228.214844 C 150.570312 226.101562 148.261719 229.796875 148.566406 229.765625 C 147.648438 229.882812 150.679688 227.828125 152.90625 226.230469 " fill-opacity="1" fill-rule="nonzero"/></g><path fill="#f20f10" d="M 152.097656 225.066406 C 152.039062 225.179688 151.988281 225.296875 151.847656 225.34375 C 151.878906 225.207031 152.035156 225.03125 152.097656 225.066406 " fill-opacity="1" fill-rule="nonzero"/></svg>