<svg xmlns="http://www.w3.org/2000/svg" xmlns:xlink="http://www.w3.org/1999/xlink" width="500" zoomAndPan="magnify" viewBox="0 0 375 374.999991" height="500" preserveAspectRatio="xMidYMid meet" version="1.0"><defs><clipPath id="0c9d837b69"><path d="M 112.5 112.5 L 262.5 112.5 L 262.5 262.5 L 112.5 262.5 Z M 112.5 112.5 " clip-rule="nonzero"/></clipPath><clipPath id="9dcde855f3"><path d="M 177.699219 165 L 197.199219 165 L 197.199219 237.320312 L 177.699219 237.320312 Z M 177.699219 165 " clip-rule="nonzero"/></clipPath><clipPath id="92bb43fb67"><path d="M 177.699219 137.570312 L 197.199219 137.570312 L 197.199219 158 L 177.699219 158 Z M 177.699219 137.570312 " clip-rule="nonzero"/></clipPath></defs><g clip-path="url(#0c9d837b69)"><path fill="#91067e" d="M 187.5 262.5 C 146.066406 262.5 112.5 228.703125 112.5 187.5 C 112.5 146.296875 146.066406 112.5 187.5 112.5 C 228.933594 112.5 262.5 146.066406 262.5 187.5 C 262.5 228.933594 228.703125 262.5 187.5 262.5 Z M 187.5 117.128906 C 148.609375 117.128906 117.128906 148.609375 117.128906 187.5 C 117.128906 226.390625 148.609375 257.871094 187.5 257.871094 C 226.390625 257.871094 257.871094 226.390625 257.871094 187.5 C 257.871094 148.609375 226.15625 117.128906 187.5 117.128906 Z M 187.5 117.128906 " fill-opacity="1" fill-rule="nonzero"/></g><g clip-path="url(#9dcde855f3)"><path fill="#91067e" d="M 187.449219 237.320312 C 192.804688 237.320312 197.144531 232.964844 197.144531 227.589844 L 197.144531 175.191406 C 197.144531 169.816406 192.804688 165.457031 187.449219 165.457031 C 182.097656 165.457031 177.757812 169.816406 177.757812 175.191406 L 177.757812 227.589844 C 177.757812 232.964844 182.097656 237.320312 187.449219 237.320312 " fill-opacity="1" fill-rule="nonzero"/></g><g clip-path="url(#92bb43fb67)"><path fill="#91067e" d="M 187.449219 157.03125 C 192.804688 157.03125 197.144531 152.671875 197.144531 147.296875 C 197.144531 141.925781 192.804688 137.570312 187.449219 137.570312 C 182.097656 137.570312 177.757812 141.925781 177.757812 147.296875 C 177.757812 152.671875 182.097656 157.03125 187.449219 157.03125 " fill-opacity="1" fill-rule="nonzero"/></g></svg>