<svg xmlns="http://www.w3.org/2000/svg" viewBox="0 0 487.622 487.622"><circle cx="243.811" cy="243.811" r="243.811" fill="#65b3ad"/><path d="M487.622 243.811c0-25.926-4.062-50.899-11.559-74.338l-85.139-50.042-9.113 71.372-26 27.008-98.634-52.41 2.2 85.41-177.82 15.985 301.438 177.197c63.234-44.049 104.627-117.277 104.627-200.182z" opacity=".37" fill="#56a49e"/><path d="M390.924 119.431c-4.45 19.311-12.688 36.823-23.533 51.296-10.826 14.501-24.199 25.99-38.531 34.005-14.337 8.034-29.606 12.579-44.245 13.801a98.772 98.772 0 01-21.368-.493 95.497 95.497 0 01-6.069-1.016v-51.623l-87.81 50.697-87.811 50.698 87.811 50.697 87.81 50.697v-50.684c1.902-.462 3.801-.942 5.682-1.459a194.087 194.087 0 0018.534-6.099c12.055-4.652 23.446-10.461 33.948-17.227 21.025-13.527 38.432-30.875 51.374-50.137 12.966-19.265 21.482-40.452 25.407-61.616 3.957-21.174 3.276-42.259-1.199-61.537z" fill="#fff"/></svg>