<svg xmlns="http://www.w3.org/2000/svg" xmlns:xlink="http://www.w3.org/1999/xlink" width="500" zoomAndPan="magnify" viewBox="0 0 375 374.999991" height="500" preserveAspectRatio="xMidYMid meet" version="1.0"><defs><clipPath id="abe39f3983"><path d="M 73 14 L 314.613281 14 L 314.613281 356 L 73 356 Z M 73 14 " clip-rule="nonzero"/></clipPath></defs><g clip-path="url(#abe39f3983)"><path fill="#ffffff" d="M 169.09375 355.535156 C 174.636719 355.160156 180.046875 354.066406 185.199219 352.074219 C 151.121094 344.722656 141.949219 306.75 149.40625 276.210938 C 153.574219 259.15625 164.351562 244.011719 174.953125 230.730469 C 190.398438 211.386719 194.925781 190.695312 200.289062 167.300781 C 197.800781 184.386719 200.039062 202.082031 209.414062 216.851562 C 215.820312 226.945312 224.824219 235.109375 231.917969 244.726562 C 245.183594 262.726562 249.90625 284.875 248.46875 307.136719 C 246.242188 341.667969 223.386719 352.816406 217.277344 350.53125 C 245.117188 360.953125 313.277344 339.09375 314.261719 266.601562 C 314.558594 244.925781 310.425781 212.585938 296.054688 196.363281 C 301.867188 207.539062 296.578125 238.636719 283.703125 245.054688 C 284.453125 213.074219 272.894531 193.226562 262.414062 170.75 C 252.203125 148.847656 245.382812 123.582031 255.140625 100.3125 C 249.023438 105.292969 246.878906 115.230469 243.183594 121.96875 C 238.195312 131.054688 232.664062 139.875 226.675781 148.335938 C 230.800781 101.386719 218.222656 53.136719 191.699219 14.1875 C 200.363281 26.90625 200.308594 43.902344 195.871094 58.644531 C 191.433594 73.378906 183.136719 86.589844 175.996094 100.222656 C 168.847656 113.859375 162.0625 125.75 162.488281 141.136719 C 157.140625 118.554688 158.582031 94.414062 166.578125 72.628906 C 144.433594 87.105469 140.667969 117.578125 140.183594 144.039062 C 139.699219 170.5 138.9375 200.351562 119.492188 218.296875 C 124.199219 190.921875 125.277344 167.121094 113.675781 158.007812 C 116.222656 178.410156 108.195312 197.074219 94.53125 212.429688 C 60.339844 250.863281 71.441406 307.050781 97.972656 333.019531 C 114.167969 348.867188 144.546875 357.199219 169.09375 355.535156 " fill-opacity="1" fill-rule="nonzero"/></g></svg>