<svg xmlns="http://www.w3.org/2000/svg" xmlns:xlink="http://www.w3.org/1999/xlink" width="500" zoomAndPan="magnify" viewBox="0 0 375 374.999991" height="500" preserveAspectRatio="xMidYMid meet" version="1.0"><defs><g/><clipPath id="6cbaa2c8ea"><path d="M 151 88.210938 L 227.535156 88.210938 L 227.535156 196 L 151 196 Z M 151 88.210938 " clip-rule="nonzero"/></clipPath></defs><rect x="-37.5" width="450" fill="#ffffff" y="-37.499999" height="449.999989" fill-opacity="1"/><rect x="-37.5" width="450" fill="#ffffff" y="-37.499999" height="449.999989" fill-opacity="1"/><rect x="-37.5" width="450" fill="#000000" y="-37.499999" height="449.999989" fill-opacity="1"/><g clip-path="url(#6cbaa2c8ea)"><path fill="#ff5757" d="M 181.605469 195.933594 C 183.351562 195.8125 185.0625 195.46875 186.6875 194.839844 C 175.929688 192.523438 173.035156 180.546875 175.390625 170.917969 C 176.703125 165.539062 180.105469 160.765625 183.453125 156.574219 C 188.328125 150.476562 189.757812 143.949219 191.449219 136.574219 C 190.664062 141.960938 191.371094 147.542969 194.332031 152.199219 C 196.351562 155.382812 199.195312 157.957031 201.433594 160.988281 C 205.621094 166.667969 207.109375 173.648438 206.65625 180.667969 C 205.953125 191.558594 198.738281 195.074219 196.8125 194.355469 C 205.597656 197.640625 227.113281 190.746094 227.421875 167.886719 C 227.515625 161.054688 226.210938 150.855469 221.675781 145.738281 C 223.511719 149.261719 221.839844 159.070312 217.777344 161.09375 C 218.015625 151.007812 214.367188 144.75 211.058594 137.664062 C 207.835938 130.753906 205.683594 122.789062 208.761719 115.449219 C 206.832031 117.019531 206.15625 120.15625 204.988281 122.28125 C 203.414062 125.144531 201.667969 127.925781 199.777344 130.59375 C 201.082031 115.789062 197.109375 100.574219 188.738281 88.292969 C 191.472656 92.304688 191.457031 97.664062 190.054688 102.3125 C 188.65625 106.957031 186.035156 111.125 183.78125 115.421875 C 181.527344 119.722656 179.382812 123.472656 179.519531 128.324219 C 177.832031 121.203125 178.285156 113.589844 180.808594 106.71875 C 173.820312 111.285156 172.628906 120.894531 172.480469 129.238281 C 172.324219 137.582031 172.085938 146.996094 165.945312 152.65625 C 167.433594 144.023438 167.773438 136.519531 164.113281 133.644531 C 164.914062 140.078125 162.382812 145.960938 158.070312 150.804688 C 147.277344 162.925781 150.78125 180.640625 159.15625 188.832031 C 164.265625 193.828125 173.855469 196.457031 181.605469 195.933594 " fill-opacity="1" fill-rule="nonzero"/></g><g fill="#ffffff" fill-opacity="1"><g transform="translate(131.204495, 267.444635)"><g><path d="M 32.609375 -45.546875 L 46.0625 -45.546875 L 29.6875 -14.421875 L 29.6875 0 L 16.171875 0 L 16.171875 -14.15625 L -0.515625 -45.546875 L 13 -45.546875 L 22.9375 -26.96875 Z M 32.609375 -45.546875 "/></g></g></g><g fill="#ffffff" fill-opacity="1"><g transform="translate(180.451308, 267.444635)"><g><path d="M 26.046875 -46.390625 C 30.722656 -46.390625 34.957031 -45.367188 38.75 -43.328125 C 42.539062 -41.296875 45.507812 -38.492188 47.65625 -34.921875 C 49.800781 -31.347656 50.875 -27.332031 50.875 -22.875 C 50.875 -18.363281 49.800781 -14.300781 47.65625 -10.6875 C 45.507812 -7.070312 42.539062 -4.234375 38.75 -2.171875 C 34.957031 -0.117188 30.722656 0.90625 26.046875 0.90625 C 21.328125 0.90625 17.082031 -0.117188 13.3125 -2.171875 C 9.550781 -4.234375 6.597656 -7.070312 4.453125 -10.6875 C 2.304688 -14.300781 1.234375 -18.363281 1.234375 -22.875 C 1.234375 -27.332031 2.304688 -31.347656 4.453125 -34.921875 C 6.597656 -38.492188 9.550781 -41.296875 13.3125 -43.328125 C 17.082031 -45.367188 21.328125 -46.390625 26.046875 -46.390625 Z M 26.25 -35.140625 C 24.257812 -35.140625 22.40625 -34.597656 20.6875 -33.515625 C 18.976562 -32.441406 17.613281 -30.960938 16.59375 -29.078125 C 15.582031 -27.191406 15.078125 -25.097656 15.078125 -22.796875 C 15.078125 -20.503906 15.582031 -18.40625 16.59375 -16.5 C 17.613281 -14.59375 18.976562 -13.085938 20.6875 -11.984375 C 22.40625 -10.878906 24.257812 -10.328125 26.25 -10.328125 C 28.195312 -10.328125 30.003906 -10.878906 31.671875 -11.984375 C 33.335938 -13.085938 34.644531 -14.582031 35.59375 -16.46875 C 36.550781 -18.351562 37.03125 -20.460938 37.03125 -22.796875 C 37.03125 -25.097656 36.550781 -27.191406 35.59375 -29.078125 C 34.644531 -30.960938 33.347656 -32.441406 31.703125 -33.515625 C 30.054688 -34.597656 28.238281 -35.140625 26.25 -35.140625 Z M 26.25 -35.140625 "/></g></g></g><g fill="#ffffff" fill-opacity="1"><g transform="translate(236.195, 267.444635)"><g><path d="M 16.625 -18.84375 C 16.625 -16.28125 17.359375 -14.21875 18.828125 -12.65625 C 20.304688 -11.101562 22.148438 -10.328125 24.359375 -10.328125 C 26.523438 -10.328125 28.300781 -11.09375 29.6875 -12.625 C 31.070312 -14.164062 31.765625 -16.238281 31.765625 -18.84375 L 31.765625 -45.546875 L 45.28125 -45.546875 L 45.28125 -18.84375 C 45.28125 -14.851562 44.425781 -11.375 42.71875 -8.40625 C 41.007812 -5.445312 38.570312 -3.15625 35.40625 -1.53125 C 32.25 0.09375 28.566406 0.90625 24.359375 0.90625 C 20.117188 0.90625 16.394531 0.09375 13.1875 -1.53125 C 9.976562 -3.15625 7.5 -5.445312 5.75 -8.40625 C 4 -11.375 3.125 -14.851562 3.125 -18.84375 L 3.125 -45.546875 L 16.625 -45.546875 Z M 16.625 -18.84375 "/></g></g></g><g fill="#ff5757" fill-opacity="1"><g transform="translate(256.785489, 281.003684)"><g><path d="M 6.078125 -0.367188 C 6.265625 -0.550781 6.523438 -0.699219 6.707031 -0.882812 C 8.476562 -2.210938 10.023438 -3.90625 11.570312 -6.042969 C 11.644531 -6.226562 11.976562 -7.074219 11.828125 -7.074219 C 11.753906 -7.074219 11.679688 -7.039062 11.53125 -6.855469 C 10.390625 -5.601562 8.878906 -3.648438 7.738281 -2.578125 C 7 -1.84375 5.488281 -0.921875 4.53125 -0.550781 C 4.238281 -0.441406 3.941406 -0.332031 3.648438 -0.148438 C 3.316406 0 2.984375 0 2.652344 0.109375 C 2.503906 0.148438 2.359375 0.148438 2.210938 0.148438 C 1.953125 0.148438 1.65625 0.109375 1.398438 0 C 1.289062 -0.0351562 1.214844 -0.148438 1.179688 -0.257812 C 1.03125 -0.773438 0.957031 -1.328125 0.882812 -1.84375 C 0.847656 -1.988281 0.921875 -2.136719 0.921875 -2.246094 C 0.957031 -2.359375 0.996094 -2.503906 0.996094 -2.617188 C 0.996094 -2.984375 1.105469 -3.316406 1.214844 -3.683594 C 1.804688 -5.75 2.800781 -8.21875 4.347656 -9.765625 C 4.570312 -10.023438 4.863281 -10.242188 5.046875 -10.539062 C 5.5625 -11.273438 6.335938 -11.9375 7.074219 -12.417969 C 7.113281 -12.378906 7.222656 -12.34375 7.296875 -12.308594 C 7.371094 -12.308594 7.441406 -12.269531 7.480469 -12.234375 C 7.699219 -12.050781 7.738281 -11.792969 7.699219 -11.53125 C 7.589844 -11.089844 7.296875 -10.757812 7.074219 -10.390625 C 6.964844 -10.28125 6.890625 -10.167969 6.816406 -10.058594 C 6.667969 -9.839844 6.742188 -9.617188 7 -9.617188 C 7.074219 -9.617188 7.148438 -9.617188 7.222656 -9.617188 C 7.371094 -9.617188 7.515625 -9.617188 7.628906 -9.617188 C 7.8125 -9.582031 7.960938 -9.691406 8.070312 -9.800781 C 8.363281 -10.058594 8.511719 -10.429688 8.660156 -10.757812 C 9.101562 -11.71875 8.511719 -12.75 7.589844 -13.007812 C 7.371094 -13.042969 7.148438 -13.117188 6.925781 -13.117188 C 6.78125 -13.117188 6.667969 -13.117188 6.523438 -13.042969 C 6.449219 -13.007812 6.375 -13.007812 6.300781 -13.007812 C 6.226562 -13.007812 6.152344 -13.007812 6.078125 -13.007812 C 5.820312 -12.96875 5.5625 -12.898438 5.378906 -12.75 C 4.273438 -12.011719 2.726562 -10.28125 2.136719 -9.0625 C 1.289062 -7.589844 0.625 -6.078125 0.183594 -4.457031 C 0.0351562 -3.757812 -0.148438 -3.058594 -0.148438 -2.320312 C -0.148438 -1.328125 0.109375 -0.8125 0.515625 0.0351562 C 0.847656 0.738281 1.472656 0.996094 2.136719 1.253906 C 2.210938 1.289062 2.285156 1.253906 2.359375 1.289062 C 2.875 1.289062 3.425781 1.214844 3.867188 0.921875 C 3.941406 0.882812 4.015625 0.882812 4.089844 0.847656 C 4.457031 0.738281 4.789062 0.625 5.011719 0.292969 C 5.160156 0.148438 5.304688 0.0742188 5.453125 -0.0351562 C 5.675781 -0.183594 5.894531 -0.222656 6.078125 -0.367188 Z M 2.101562 -8.402344 C 2.136719 -8.476562 2.175781 -8.511719 2.210938 -8.585938 C 2.246094 -8.511719 2.246094 -8.4375 2.246094 -8.363281 C 2.246094 -8.289062 2.210938 -8.253906 2.136719 -8.21875 L 2.101562 -8.21875 C 2.027344 -8.289062 2.0625 -8.363281 2.101562 -8.402344 Z M 1.4375 -6.925781 C 1.4375 -7.039062 1.398438 -7.148438 1.546875 -7.183594 C 1.546875 -7.074219 1.546875 -6.964844 1.4375 -6.925781 Z M 1.03125 -6.226562 C 1.03125 -6.300781 1.070312 -6.335938 1.140625 -6.335938 C 1.140625 -6.265625 1.140625 -6.226562 1.105469 -6.191406 C 1.105469 -6.152344 1.105469 -6.152344 1.070312 -6.117188 C 1.070312 -6.152344 1.03125 -6.191406 1.03125 -6.226562 Z M 1.84375 -7.628906 C 1.804688 -7.554688 1.769531 -7.515625 1.730469 -7.515625 L 1.730469 -7.664062 C 1.730469 -7.699219 1.769531 -7.699219 1.769531 -7.738281 C 1.804688 -7.699219 1.84375 -7.664062 1.84375 -7.628906 Z M 0.8125 -5.453125 C 0.8125 -5.417969 0.8125 -5.378906 0.847656 -5.34375 L 0.773438 -5.269531 C 0.773438 -5.304688 0.773438 -5.34375 0.738281 -5.417969 C 0.738281 -5.417969 0.773438 -5.417969 0.8125 -5.453125 Z M 0.921875 -5.859375 C 0.957031 -5.820312 0.957031 -5.785156 0.996094 -5.75 C 0.957031 -5.75 0.957031 -5.710938 0.921875 -5.710938 C 0.921875 -5.75 0.882812 -5.785156 0.882812 -5.820312 Z M 2.359375 -8.804688 C 2.320312 -8.878906 2.359375 -8.878906 2.394531 -8.878906 C 2.394531 -8.84375 2.394531 -8.84375 2.359375 -8.804688 Z M 1.917969 -8.03125 L 1.953125 -7.960938 L 1.917969 -7.960938 Z M 1.917969 -8.03125 "/></g></g></g><g fill="#ff5757" fill-opacity="1"><g transform="translate(267.02732, 281.003684)"><g><path d="M 5.75 -3.648438 C 5.785156 -3.683594 5.820312 -3.722656 5.859375 -3.757812 C 5.933594 -3.867188 5.933594 -4.089844 5.859375 -4.015625 C 5.820312 -3.980469 5.75 -3.90625 5.710938 -3.832031 C 5.710938 -3.796875 5.75 -3.722656 5.75 -3.683594 C 5.34375 -3.609375 5.34375 -3.207031 5.160156 -3.09375 C 5.085938 -3.09375 5.046875 -3.058594 5.046875 -3.019531 C 5.085938 -3.019531 5.121094 -3.058594 5.160156 -3.058594 C 5.121094 -3.019531 5.085938 -2.949219 5.046875 -2.910156 C 5.046875 -2.910156 5.046875 -2.949219 5.046875 -2.984375 L 4.9375 -2.875 C 4.9375 -2.875 4.9375 -2.835938 4.972656 -2.800781 C 4.53125 -2.136719 3.09375 -0.480469 2.394531 -0.332031 C 2.285156 -0.183594 1.953125 -0.699219 1.730469 -0.699219 C 1.695312 -0.773438 1.695312 -0.847656 1.621094 -0.882812 C 1.4375 -1.214844 1.398438 -1.546875 1.472656 -1.878906 C 1.472656 -2.0625 1.472656 -2.285156 1.511719 -2.433594 C 1.546875 -2.910156 1.511719 -3.390625 1.695312 -3.867188 C 1.730469 -3.941406 1.730469 -4.015625 1.65625 -4.089844 C 1.621094 -4.164062 1.621094 -4.238281 1.65625 -4.3125 C 1.84375 -4.53125 1.84375 -4.902344 1.878906 -5.195312 C 1.953125 -5.527344 1.917969 -5.859375 2.136719 -6.117188 C 2.0625 -6.484375 2.320312 -6.707031 2.394531 -7.074219 C 2.46875 -7.441406 2.726562 -8.511719 2.875 -8.84375 C 3.464844 -10.097656 4.015625 -11.421875 4.273438 -12.785156 C 4.3125 -13.15625 4.054688 -13.632812 3.722656 -13.816406 C 3.648438 -13.816406 3.574219 -13.855469 3.5 -13.855469 L 3.09375 -13.855469 C 3.019531 -13.855469 2.949219 -13.816406 2.875 -13.78125 C 2.503906 -13.191406 2.285156 -12.566406 2.0625 -11.902344 C 1.917969 -11.386719 1.769531 -10.832031 1.585938 -10.316406 C 1.511719 -10.058594 1.398438 -9.875 1.328125 -9.617188 C 1.03125 -8.621094 0.773438 -7.628906 0.480469 -6.667969 C 0.40625 -6.226562 0.257812 -5.859375 0.222656 -5.488281 C 0.183594 -4.789062 0.0742188 -4.089844 0 -3.390625 C -0.0351562 -2.875 -0.0742188 -2.359375 0.0742188 -1.804688 C 0.109375 -1.730469 0.109375 -1.621094 0.148438 -1.511719 C 0.183594 -1.214844 0.332031 -0.957031 0.515625 -0.738281 C 0.738281 -0.480469 0.957031 -0.183594 1.179688 0.0742188 C 1.363281 0.332031 1.621094 0.515625 1.953125 0.625 C 2.0625 0.699219 2.210938 0.699219 2.359375 0.699219 C 2.984375 0.699219 3.832031 0.257812 4.238281 -0.292969 C 4.496094 -0.515625 4.421875 -0.589844 4.644531 -0.882812 C 4.863281 -1.105469 5.160156 -1.878906 5.046875 -2.246094 C 5.046875 -2.320312 5.011719 -2.394531 5.085938 -2.394531 C 5.160156 -2.359375 5.195312 -2.285156 5.269531 -2.246094 C 5.34375 -2.359375 5.230469 -2.503906 5.269531 -2.617188 C 5.304688 -2.761719 5.378906 -2.875 5.453125 -3.019531 C 5.527344 -3.207031 5.710938 -3.425781 5.710938 -3.648438 Z M 3.832031 -16.730469 C 4.054688 -16.542969 4.347656 -16.46875 4.644531 -16.324219 C 4.789062 -16.398438 4.972656 -16.46875 5.160156 -16.542969 C 5.269531 -16.582031 5.304688 -16.691406 5.304688 -16.765625 C 5.417969 -17.132812 5.34375 -17.464844 5.488281 -17.796875 C 5.527344 -17.835938 5.488281 -17.871094 5.453125 -17.90625 C 5.378906 -17.980469 5.230469 -18.054688 5.121094 -18.054688 C 5.085938 -18.054688 5.046875 -18.054688 5.011719 -18.019531 C 4.679688 -17.796875 4.3125 -17.539062 4.015625 -17.28125 C 3.90625 -17.207031 3.832031 -17.097656 3.757812 -16.988281 C 3.722656 -16.914062 3.757812 -16.765625 3.832031 -16.730469 Z M 5.046875 -2.910156 C 5.046875 -2.875 5.046875 -2.835938 5.046875 -2.835938 C 5.046875 -2.800781 5.011719 -2.800781 5.011719 -2.761719 C 5.011719 -2.835938 5.011719 -2.875 5.046875 -2.910156 Z M 5.046875 -2.910156 "/></g></g></g><g fill="#ff5757" fill-opacity="1"><g transform="translate(272.627174, 281.003684)"><g><path d="M 8.546875 -25.570312 C 8.511719 -25.609375 8.476562 -25.609375 8.4375 -25.609375 C 8.4375 -25.570312 8.476562 -25.535156 8.476562 -25.535156 C 8.511719 -25.535156 8.546875 -25.570312 8.546875 -25.570312 Z M 7.113281 -21.113281 C 7.074219 -20.964844 7.074219 -20.890625 7 -20.890625 C 6.964844 -20.890625 6.925781 -20.890625 6.890625 -20.929688 C 6.855469 -20.929688 6.816406 -20.964844 6.78125 -20.964844 C 7.332031 -22.476562 7.847656 -23.617188 8.4375 -24.761719 C 8.546875 -24.980469 8.660156 -25.09375 8.695312 -25.3125 C 8.769531 -25.570312 8.878906 -25.792969 8.917969 -26.050781 C 8.953125 -26.199219 8.953125 -26.347656 8.917969 -26.457031 C 8.84375 -26.714844 8.695312 -26.933594 8.585938 -27.15625 C 8.511719 -27.304688 7.996094 -27.449219 7.886719 -27.414062 C 7.847656 -27.414062 7.847656 -27.414062 7.8125 -27.378906 C 7.257812 -27.007812 7.074219 -26.417969 6.855469 -25.792969 C 6.484375 -24.722656 6.191406 -24.28125 5.859375 -23.175781 C 5.820312 -23.03125 5.710938 -22.882812 5.675781 -22.734375 L 5.269531 -21.335938 L 5.269531 -21.261719 C 5.34375 -21.261719 5.417969 -21.335938 5.417969 -21.410156 C 5.417969 -21.554688 5.488281 -21.703125 5.601562 -21.851562 C 5.636719 -21.925781 5.710938 -21.960938 5.75 -21.960938 C 5.820312 -21.960938 5.894531 -21.925781 5.96875 -21.851562 L 5.75 -21.261719 C 5.601562 -21.222656 5.417969 -21.222656 5.269531 -21.222656 L 5.269531 -21.261719 C 5.230469 -21.222656 5.230469 -21.222656 5.195312 -21.222656 C 4.902344 -21.1875 4.605469 -21.148438 4.347656 -21.148438 C 4.199219 -21.148438 4.054688 -21.148438 3.941406 -21.113281 C 3.683594 -21.039062 3.539062 -21.039062 3.28125 -21.039062 C 2.691406 -21.039062 2.0625 -20.890625 1.511719 -20.855469 C 1.253906 -20.855469 1.03125 -20.820312 0.8125 -20.820312 C 0.738281 -20.820312 0.699219 -20.820312 0.625 -20.820312 L 0.292969 -20.746094 C 0.109375 -20.746094 0.0351562 -20.5625 -0.0351562 -20.304688 C -0.109375 -20.082031 -0.0742188 -19.75 0 -19.457031 C 0 -19.234375 0.148438 -19.050781 0.292969 -19.085938 C 0.332031 -19.085938 0.40625 -19.125 0.480469 -19.085938 C 0.996094 -19.199219 1.4375 -19.34375 1.878906 -19.34375 C 1.953125 -19.34375 1.988281 -19.34375 2.027344 -19.34375 C 2.285156 -19.382812 2.542969 -19.417969 2.800781 -19.417969 C 2.949219 -19.417969 3.167969 -19.457031 3.351562 -19.492188 C 3.425781 -19.492188 3.464844 -19.492188 3.5 -19.527344 C 3.464844 -19.601562 3.425781 -19.714844 3.351562 -19.75 C 3.425781 -19.824219 3.5 -19.824219 3.574219 -19.824219 C 3.832031 -19.859375 4.089844 -19.824219 4.347656 -19.933594 C 4.457031 -19.933594 4.605469 -19.933594 4.753906 -19.972656 L 4.753906 -19.859375 C 4.753906 -19.824219 4.753906 -19.785156 4.714844 -19.75 C 4.679688 -19.675781 4.644531 -19.640625 4.679688 -19.601562 C 4.347656 -18.71875 3.132812 -15.660156 3.207031 -15.367188 C 3.390625 -15.4375 4.789062 -19.269531 4.828125 -19.382812 L 4.828125 -19.527344 C 5.011719 -19.527344 5.046875 -19.640625 4.902344 -19.785156 C 4.902344 -19.859375 4.9375 -19.933594 4.972656 -20.007812 C 5.011719 -20.007812 5.085938 -20.007812 5.160156 -20.042969 C 5.230469 -20.082031 5.304688 -20.082031 5.417969 -20.082031 C 5.378906 -20.007812 5.34375 -19.972656 5.34375 -19.933594 C 5.304688 -19.898438 5.304688 -19.859375 5.304688 -19.824219 L 5.304688 -19.785156 C 5.269531 -19.785156 5.269531 -19.785156 5.230469 -19.785156 C 5.121094 -19.785156 5.011719 -19.675781 5.269531 -19.601562 C 5.011719 -18.679688 3.722656 -15.402344 3.648438 -15.035156 C 3.464844 -14.445312 3.351562 -13.855469 3.132812 -13.300781 C 2.949219 -12.710938 2.136719 -9.726562 1.804688 -9.175781 C 1.769531 -9.101562 1.769531 -8.953125 1.730469 -8.84375 C 1.65625 -8.363281 1.4375 -7.921875 1.398438 -7.441406 C 1.398438 -7.371094 1.363281 -7.332031 1.328125 -7.296875 L 1.179688 -6.78125 C 1.070312 -6.300781 0.847656 -5.894531 0.882812 -5.417969 C 0.882812 -5.378906 0.882812 -5.378906 0.847656 -5.34375 C 0.625 -4.9375 0.589844 -4.496094 0.515625 -4.054688 C 0.441406 -3.648438 0.292969 -3.242188 0.332031 -2.835938 C 0.332031 -2.761719 0.292969 -2.691406 0.257812 -2.617188 C 0.257812 -2.652344 0.222656 -2.691406 0.222656 -2.691406 C 0.109375 -3.425781 0.367188 -4.125 0.367188 -4.863281 L 0.367188 -4.902344 C 0.589844 -5.230469 0.625 -5.601562 0.664062 -6.007812 C 0.664062 -6.335938 1.328125 -8.734375 1.4375 -9.101562 C 1.472656 -9.210938 2.210938 -11.679688 2.101562 -11.9375 C 1.988281 -11.421875 1.140625 -8.621094 0.996094 -8.179688 C 0.664062 -7.039062 -0.109375 -4.570312 -0.109375 -3.390625 L -0.109375 -3.132812 C -0.332031 -2.542969 -0.222656 -1.917969 -0.222656 -1.289062 C -0.222656 -0.921875 0 -0.109375 0.367188 0.0742188 C 0.699219 0.257812 0.957031 0.550781 1.253906 0.8125 C 1.363281 0.921875 1.472656 0.957031 1.585938 0.957031 C 1.695312 0.957031 1.769531 0.921875 1.878906 0.882812 L 2.910156 0.441406 C 3.351562 0.222656 3.757812 0.0351562 4.125 -0.292969 C 4.089844 -0.332031 4.054688 -0.332031 4.054688 -0.40625 L 4.164062 -0.480469 L 4.164062 -0.441406 C 4.164062 -0.515625 4.199219 -0.550781 4.273438 -0.589844 C 4.421875 -0.847656 4.644531 -1.03125 4.863281 -1.214844 C 4.9375 -1.289062 4.972656 -1.289062 5.046875 -1.289062 C 5.121094 -1.289062 5.160156 -1.289062 5.230469 -1.253906 C 5.269531 -1.253906 5.304688 -1.214844 5.378906 -1.214844 C 5.417969 -1.214844 5.453125 -1.253906 5.488281 -1.289062 C 5.527344 -1.363281 5.488281 -1.398438 5.417969 -1.4375 C 5.378906 -1.472656 5.34375 -1.511719 5.34375 -1.546875 C 5.34375 -1.65625 5.527344 -1.695312 5.601562 -1.695312 C 5.601562 -1.695312 5.636719 -1.695312 5.675781 -1.695312 C 5.710938 -1.65625 5.75 -1.65625 5.785156 -1.65625 C 5.820312 -1.65625 5.859375 -1.730469 5.820312 -1.769531 C 5.75 -1.953125 5.785156 -2.027344 5.933594 -2.136719 C 6.226562 -2.359375 6.523438 -2.617188 6.707031 -2.949219 C 6.78125 -3.019531 6.78125 -3.09375 6.78125 -3.207031 C 6.742188 -3.316406 6.816406 -3.351562 6.925781 -3.390625 C 7 -3.425781 7.113281 -3.425781 7.183594 -3.425781 C 7.441406 -3.464844 7.554688 -3.609375 7.554688 -3.867188 C 7.664062 -3.90625 7.699219 -3.980469 7.699219 -4.089844 L 7.699219 -4.570312 L 7.554688 -4.570312 C 7.554688 -4.644531 7.628906 -4.679688 7.699219 -4.714844 L 7.699219 -4.570312 C 7.886719 -4.605469 7.921875 -4.605469 7.960938 -4.828125 L 7.8125 -4.828125 C 7.773438 -4.753906 7.773438 -4.714844 7.699219 -4.714844 C 7.699219 -4.789062 7.738281 -4.828125 7.8125 -4.863281 C 7.847656 -4.9375 7.886719 -4.9375 7.960938 -4.972656 L 8.03125 -5.230469 C 8.179688 -5.417969 8.328125 -5.601562 8.546875 -5.710938 C 8.546875 -5.785156 8.621094 -5.820312 8.695312 -5.859375 C 8.660156 -5.75 8.621094 -5.710938 8.546875 -5.675781 C 8.546875 -5.488281 8.4375 -5.378906 8.402344 -5.269531 C 8.660156 -5.269531 8.804688 -5.453125 8.917969 -5.636719 C 8.953125 -5.675781 8.917969 -5.785156 8.804688 -5.820312 L 8.695312 -5.820312 C 8.769531 -6.007812 8.917969 -6.191406 9.101562 -6.265625 C 9.136719 -6.226562 9.101562 -6.117188 9.210938 -6.191406 L 9.101562 -6.265625 C 9.101562 -6.410156 9.175781 -6.523438 9.285156 -6.632812 L 9.984375 -7.371094 C 10.390625 -7.921875 10.796875 -8.4375 11.273438 -8.917969 C 11.386719 -9.101562 11.386719 -9.175781 11.3125 -9.175781 C 11.273438 -9.175781 11.203125 -9.136719 11.089844 -9.027344 L 9.726562 -7.515625 C 9.136719 -6.78125 8.585938 -6.078125 7.921875 -5.453125 L 7.332031 -4.828125 C 7.148438 -4.53125 6.925781 -4.3125 6.707031 -4.089844 L 5.636719 -3.019531 C 5.527344 -2.910156 5.417969 -2.761719 5.304688 -2.691406 C 4.972656 -2.503906 4.753906 -2.246094 4.496094 -1.988281 C 3.867188 -1.398438 3.167969 -0.882812 2.433594 -0.40625 C 2.246094 -0.257812 1.988281 -0.148438 1.769531 -0.0351562 C 1.730469 -0.0351562 1.695312 0 1.621094 0 C 1.472656 0 1.398438 -0.109375 1.328125 -0.257812 C 1.214844 -0.515625 1.179688 -0.773438 1.179688 -1.03125 L 1.179688 -1.878906 C 1.179688 -2.0625 1.179688 -2.320312 1.214844 -2.503906 C 1.328125 -2.761719 1.328125 -3.058594 1.328125 -3.316406 C 1.328125 -3.574219 1.363281 -3.796875 1.4375 -4.015625 C 1.511719 -4.199219 1.585938 -4.386719 1.585938 -4.570312 L 1.730469 -5.378906 C 1.769531 -5.710938 1.917969 -5.96875 2.027344 -6.226562 C 2.101562 -6.449219 2.101562 -6.632812 2.175781 -6.855469 C 2.210938 -7.039062 2.246094 -7.222656 2.320312 -7.371094 C 2.359375 -7.480469 2.617188 -8.402344 2.617188 -8.511719 C 2.617188 -8.660156 2.652344 -8.769531 2.726562 -8.917969 C 2.800781 -9.0625 3.609375 -11.570312 3.648438 -11.753906 C 3.757812 -12.234375 3.90625 -12.710938 4.054688 -13.15625 C 4.3125 -14.039062 5.96875 -18.496094 6.265625 -19.382812 L 6.59375 -20.339844 C 6.707031 -20.304688 6.78125 -20.304688 6.855469 -20.304688 C 6.925781 -20.304688 7 -20.304688 7.039062 -20.339844 C 7.113281 -20.339844 7.222656 -20.414062 7.296875 -20.375 C 7.332031 -20.304688 7.371094 -20.304688 7.40625 -20.304688 C 7.480469 -20.304688 7.515625 -20.339844 7.554688 -20.339844 C 7.589844 -20.414062 7.628906 -20.488281 7.664062 -20.488281 C 7.699219 -20.488281 7.699219 -20.449219 7.738281 -20.414062 C 7.8125 -20.265625 7.8125 -20.265625 7.886719 -20.339844 L 7.738281 -20.414062 C 7.773438 -20.523438 7.847656 -20.488281 7.886719 -20.488281 L 7.886719 -20.414062 C 7.921875 -20.523438 7.921875 -20.523438 7.921875 -20.375 L 8.105469 -20.523438 C 8.144531 -20.5625 8.21875 -20.597656 8.328125 -20.597656 C 8.363281 -20.597656 8.402344 -20.597656 8.4375 -20.597656 C 8.695312 -20.632812 8.917969 -20.671875 9.136719 -20.78125 C 9.25 -20.78125 9.324219 -20.890625 9.394531 -20.855469 C 9.726562 -20.820312 10.058594 -21.078125 10.390625 -21.078125 C 10.6875 -21.148438 10.90625 -21.296875 11.089844 -21.335938 C 11.3125 -21.335938 12.050781 -21.59375 12.195312 -21.738281 C 12.308594 -21.8125 12.378906 -21.8125 12.492188 -21.8125 C 12.601562 -21.8125 12.75 -21.777344 12.859375 -21.738281 C 12.566406 -21.519531 12.234375 -21.296875 11.902344 -21.113281 C 11.976562 -21.078125 12.011719 -21.078125 12.085938 -21.078125 C 12.121094 -21.078125 12.195312 -21.078125 12.269531 -21.113281 C 12.417969 -21.261719 12.566406 -21.222656 12.636719 -21.371094 C 12.675781 -21.371094 12.710938 -21.371094 12.710938 -21.371094 C 12.785156 -21.371094 13.265625 -21.628906 13.265625 -21.738281 C 13.339844 -22.035156 13.226562 -22.253906 13.265625 -22.585938 C 13.300781 -22.699219 13.226562 -22.808594 13.15625 -22.84375 C 13.117188 -22.882812 13.042969 -22.917969 13.007812 -22.917969 C 12.96875 -22.917969 12.933594 -22.882812 12.898438 -22.773438 C 12.785156 -22.585938 12.636719 -22.511719 12.527344 -22.511719 C 12.34375 -22.511719 12.234375 -22.367188 12.085938 -22.292969 C 12.011719 -22.183594 11.902344 -22.109375 11.792969 -22.109375 C 11.753906 -22.144531 11.71875 -22.144531 11.679688 -22.144531 C 11.570312 -22.144531 11.496094 -22.070312 11.386719 -22.070312 C 11.347656 -21.996094 11.238281 -21.925781 11.128906 -21.960938 C 11.089844 -21.960938 11.054688 -21.960938 11.015625 -21.960938 C 10.90625 -21.960938 10.832031 -21.960938 10.796875 -21.886719 C 10.722656 -21.851562 10.613281 -21.777344 10.539062 -21.777344 C 10.5 -21.777344 10.464844 -21.8125 10.429688 -21.8125 C 10.390625 -21.886719 10.316406 -21.851562 10.242188 -21.777344 C 10.097656 -21.667969 9.910156 -21.59375 9.800781 -21.628906 C 9.765625 -21.667969 9.726562 -21.667969 9.691406 -21.667969 C 9.652344 -21.667969 9.582031 -21.628906 9.542969 -21.59375 C 9.542969 -21.480469 9.285156 -21.445312 9.175781 -21.445312 C 9.101562 -21.445312 9.027344 -21.480469 8.953125 -21.519531 C 8.917969 -21.480469 8.804688 -21.480469 8.734375 -21.371094 C 8.621094 -21.261719 8.476562 -21.222656 8.289062 -21.222656 C 8.253906 -21.148438 8.179688 -21.113281 8.105469 -21.1875 C 8.03125 -21.261719 7.960938 -21.148438 7.921875 -21.148438 C 7.921875 -21.113281 7.886719 -21.113281 7.847656 -21.113281 C 7.8125 -21.113281 7.738281 -21.113281 7.699219 -21.113281 C 7.664062 -21.113281 7.664062 -21.113281 7.628906 -21.113281 C 7.589844 -21.039062 7.515625 -21.039062 7.441406 -21.039062 C 7.371094 -21.039062 7.222656 -21.078125 7.113281 -21.113281 C 7.148438 -21.1875 7.148438 -21.296875 7.222656 -21.296875 C 7.257812 -21.335938 7.332031 -21.371094 7.371094 -21.445312 C 7.332031 -21.480469 7.296875 -21.480469 7.257812 -21.480469 C 7.183594 -21.480469 7.074219 -21.445312 7.039062 -21.410156 C 7 -21.410156 7 -21.410156 7 -21.335938 C 7 -21.296875 7.039062 -21.222656 7.039062 -21.1875 Z M 3.09375 -15.292969 L 2.503906 -13.375 C 2.46875 -13.265625 2.503906 -13.117188 2.503906 -12.96875 C 2.578125 -12.96875 2.617188 -13.042969 2.617188 -13.117188 C 2.800781 -13.632812 2.910156 -14.1875 3.09375 -14.703125 C 3.167969 -14.921875 3.207031 -15.144531 3.207031 -15.367188 Z M 6.707031 -3.722656 C 6.855469 -3.941406 7.039062 -4.125 7.257812 -4.273438 L 7.257812 -3.980469 L 7 -3.796875 C 6.925781 -3.722656 6.816406 -3.722656 6.707031 -3.722656 Z M 11.089844 -21.628906 C 11.128906 -21.667969 11.164062 -21.703125 11.203125 -21.703125 C 11.273438 -21.703125 11.347656 -21.628906 11.460938 -21.59375 C 11.386719 -21.519531 11.273438 -21.519531 11.203125 -21.480469 C 11.054688 -21.480469 10.832031 -21.410156 10.648438 -21.410156 C 10.613281 -21.410156 10.613281 -21.410156 10.574219 -21.410156 C 10.722656 -21.59375 10.90625 -21.59375 11.089844 -21.628906 Z M 7.480469 -20.117188 C 6.964844 -20.117188 7.886719 -19.972656 7.886719 -19.972656 L 7.960938 -19.972656 L 7.960938 -20.082031 L 7.921875 -20.15625 C 7.773438 -20.15625 7.664062 -20.15625 7.480469 -20.117188 Z M 4.386719 -19.601562 C 4.238281 -19.675781 4.089844 -19.714844 3.941406 -19.714844 C 3.832031 -19.714844 3.757812 -19.714844 3.683594 -19.675781 C 3.683594 -19.640625 3.648438 -19.566406 3.648438 -19.566406 L 3.683594 -19.527344 C 3.941406 -19.527344 4.125 -19.566406 4.386719 -19.601562 Z M 7.921875 -21.480469 C 8.03125 -21.445312 8.105469 -21.445312 8.144531 -21.445312 C 8.21875 -21.445312 8.253906 -21.480469 8.289062 -21.59375 C 8.21875 -21.628906 8.144531 -21.628906 8.105469 -21.628906 C 7.960938 -21.628906 7.8125 -21.59375 7.664062 -21.554688 C 7.664062 -21.554688 7.628906 -21.519531 7.628906 -21.480469 L 7.664062 -21.445312 C 7.699219 -21.410156 7.738281 -21.371094 7.773438 -21.371094 C 7.847656 -21.371094 7.886719 -21.445312 7.921875 -21.480469 Z M 2.503906 -12.96875 C 2.320312 -12.785156 2.285156 -12.527344 2.246094 -12.269531 C 2.210938 -12.269531 2.285156 -12.234375 2.285156 -12.195312 C 2.503906 -12.417969 2.503906 -12.675781 2.503906 -12.96875 Z M 9.507812 -21.148438 C 9.433594 -21.039062 9.359375 -21.003906 9.285156 -21.003906 C 9.25 -21.003906 9.175781 -21.039062 9.136719 -21.113281 C 9.175781 -21.1875 9.25 -21.1875 9.285156 -21.1875 C 9.359375 -21.1875 9.394531 -21.1875 9.46875 -21.148438 C 9.507812 -21.261719 9.582031 -21.296875 9.652344 -21.296875 C 9.726562 -21.296875 9.765625 -21.296875 9.875 -21.222656 C 9.765625 -21.1875 9.652344 -21.113281 9.582031 -21.113281 C 9.542969 -21.113281 9.542969 -21.113281 9.507812 -21.148438 Z M 10.097656 -22.070312 C 10.207031 -21.996094 10.242188 -21.996094 10.316406 -21.996094 C 10.429688 -21.996094 10.539062 -22.035156 10.6875 -22.144531 L 10.6875 -22.183594 C 10.390625 -22.183594 10.390625 -22.183594 10.097656 -22.070312 Z M 10.167969 -21.222656 C 10.097656 -21.261719 10.058594 -21.222656 9.949219 -21.222656 C 9.949219 -21.222656 9.910156 -21.222656 9.875 -21.222656 C 9.875 -21.296875 9.910156 -21.335938 9.949219 -21.371094 C 10.023438 -21.410156 10.097656 -21.445312 10.132812 -21.445312 C 10.207031 -21.480469 10.28125 -21.445312 10.28125 -21.410156 C 10.28125 -21.335938 10.207031 -21.261719 10.167969 -21.222656 Z M 5.636719 -20.746094 C 5.5625 -20.746094 5.527344 -20.707031 5.453125 -20.707031 C 5.378906 -20.707031 5.378906 -20.746094 5.378906 -20.820312 C 5.34375 -20.855469 5.34375 -20.929688 5.378906 -20.929688 C 5.417969 -20.929688 5.488281 -20.929688 5.527344 -20.964844 L 5.710938 -20.964844 Z M 6.59375 -23.730469 C 6.59375 -23.617188 6.558594 -23.582031 6.449219 -23.507812 L 6.410156 -23.507812 C 6.410156 -23.582031 6.375 -23.65625 6.375 -23.691406 C 6.375 -23.804688 6.410156 -23.839844 6.484375 -23.839844 C 6.558594 -23.878906 6.632812 -23.804688 6.59375 -23.730469 Z M 8.695312 -21.667969 C 8.621094 -21.703125 8.585938 -21.703125 8.511719 -21.703125 C 8.476562 -21.703125 8.402344 -21.667969 8.328125 -21.59375 C 8.402344 -21.519531 8.476562 -21.445312 8.511719 -21.480469 C 8.585938 -21.519531 8.660156 -21.59375 8.660156 -21.667969 C 8.695312 -21.667969 8.734375 -21.628906 8.734375 -21.738281 C 8.695312 -21.703125 8.695312 -21.667969 8.695312 -21.667969 Z M 10.90625 -20.707031 C 11.015625 -20.707031 11.089844 -20.746094 11.164062 -20.746094 C 11.203125 -20.746094 11.238281 -20.855469 11.238281 -20.855469 C 11.164062 -20.890625 11.203125 -20.890625 11.164062 -20.890625 C 11.128906 -20.929688 11.054688 -20.929688 10.945312 -20.890625 C 10.90625 -20.890625 10.945312 -20.820312 10.90625 -20.707031 Z M 9.324219 -21.851562 C 9.324219 -21.777344 9.324219 -21.777344 9.359375 -21.738281 C 9.433594 -21.777344 9.542969 -21.738281 9.582031 -21.851562 C 9.542969 -21.886719 9.542969 -21.960938 9.542969 -21.960938 C 9.46875 -21.960938 9.394531 -21.960938 9.359375 -21.886719 Z M 11.347656 -21.039062 L 11.347656 -20.929688 L 11.386719 -20.890625 C 11.421875 -20.929688 11.460938 -20.890625 11.53125 -20.890625 C 11.53125 -20.890625 11.570312 -20.890625 11.605469 -20.929688 L 11.605469 -21.039062 Z M 9.765625 -20.488281 C 9.800781 -20.449219 9.839844 -20.449219 9.839844 -20.449219 C 9.910156 -20.449219 10.058594 -20.523438 10.207031 -20.5625 C 10.207031 -20.5625 10.207031 -20.632812 10.167969 -20.597656 C 10.097656 -20.632812 9.949219 -20.5625 9.839844 -20.523438 Z M 8.289062 -20.820312 C 8.328125 -20.929688 8.363281 -21.003906 8.402344 -21.003906 C 8.402344 -21.003906 8.4375 -20.964844 8.476562 -20.890625 C 8.511719 -20.855469 8.511719 -20.855469 8.511719 -20.820312 C 8.402344 -20.746094 8.363281 -20.78125 8.289062 -20.820312 Z M 7.554688 -3.867188 C 7.515625 -3.867188 7.480469 -3.867188 7.441406 -3.867188 C 7.371094 -3.867188 7.296875 -3.867188 7.257812 -4.015625 C 7.371094 -4.015625 7.515625 -4.015625 7.554688 -3.867188 Z M 4.054688 -20.671875 C 4.015625 -20.671875 3.980469 -20.632812 3.90625 -20.632812 C 3.832031 -20.597656 3.796875 -20.632812 3.796875 -20.671875 C 3.832031 -20.707031 3.867188 -20.78125 3.90625 -20.78125 C 3.980469 -20.78125 4.015625 -20.746094 4.054688 -20.671875 Z M 9.359375 -20.375 C 9.285156 -20.339844 9.175781 -20.414062 9.136719 -20.449219 C 9.101562 -20.449219 9.027344 -20.449219 9.101562 -20.375 C 9.101562 -20.339844 9.136719 -20.265625 9.175781 -20.304688 C 9.210938 -20.304688 9.285156 -20.230469 9.359375 -20.375 Z M 11.460938 -21.59375 C 11.496094 -21.667969 11.53125 -21.738281 11.605469 -21.738281 C 11.644531 -21.738281 11.644531 -21.738281 11.679688 -21.703125 C 11.644531 -21.59375 11.605469 -21.554688 11.570312 -21.554688 C 11.53125 -21.554688 11.496094 -21.59375 11.460938 -21.59375 Z M 4.789062 -20.746094 C 4.902344 -20.820312 4.972656 -20.855469 5.046875 -20.855469 L 4.972656 -20.746094 C 4.9375 -20.707031 4.863281 -20.707031 4.789062 -20.671875 Z M 8.328125 -20.230469 C 8.253906 -20.230469 8.179688 -20.230469 8.144531 -20.15625 L 8.144531 -20.117188 C 8.179688 -20.042969 8.21875 -20.007812 8.21875 -20.117188 C 8.289062 -20.117188 8.289062 -20.117188 8.328125 -20.191406 Z M 8.734375 -21.078125 C 8.769531 -21.078125 8.769531 -20.929688 8.769531 -20.929688 L 8.769531 -20.890625 L 8.660156 -20.890625 L 8.660156 -21.039062 C 8.660156 -21.078125 8.660156 -21.078125 8.695312 -21.078125 Z M 3.019531 -19.714844 C 3.019531 -19.785156 3.058594 -19.785156 3.09375 -19.785156 C 3.132812 -19.785156 3.167969 -19.75 3.242188 -19.714844 C 3.207031 -19.675781 3.167969 -19.640625 3.132812 -19.640625 C 3.09375 -19.640625 3.058594 -19.675781 3.019531 -19.714844 Z M 8.992188 -21.078125 C 9.027344 -21.148438 9.101562 -21.113281 9.136719 -21.113281 C 9.101562 -21.003906 9.101562 -20.964844 9.0625 -20.964844 C 9.0625 -20.964844 9.027344 -21.003906 8.992188 -21.078125 Z M 7.738281 -20.707031 C 7.738281 -20.671875 7.664062 -20.671875 7.628906 -20.632812 L 7.589844 -20.671875 L 7.589844 -20.746094 C 7.664062 -20.820312 7.699219 -20.78125 7.738281 -20.707031 Z M 0.183594 -1.988281 L 0.109375 -1.917969 C 0.109375 -1.953125 0.0742188 -1.988281 0.0742188 -2.027344 L 0.183594 -2.136719 Z M 7.40625 -4.421875 C 7.40625 -4.496094 7.480469 -4.570312 7.554688 -4.570312 C 7.554688 -4.496094 7.480469 -4.421875 7.40625 -4.421875 Z M 2.835938 -19.75 C 2.875 -19.785156 2.910156 -19.75 3.019531 -19.714844 L 2.984375 -19.714844 C 2.949219 -19.675781 2.910156 -19.675781 2.835938 -19.675781 Z M 6.558594 -3.574219 C 6.558594 -3.648438 6.632812 -3.683594 6.707031 -3.722656 C 6.707031 -3.648438 6.632812 -3.574219 6.558594 -3.574219 Z M 4.164062 -0.332031 C 4.238281 -0.332031 4.273438 -0.332031 4.273438 -0.441406 L 4.164062 -0.441406 Z M 9.507812 -20.375 C 9.542969 -20.449219 9.542969 -20.488281 9.542969 -20.488281 C 9.542969 -20.523438 9.542969 -20.488281 9.507812 -20.488281 C 9.46875 -20.488281 9.507812 -20.375 9.507812 -20.375 Z M 8.253906 -5.121094 C 8.179688 -5.121094 8.144531 -5.046875 8.105469 -4.972656 C 8.179688 -5.011719 8.253906 -5.046875 8.253906 -5.121094 Z M 7.257812 -4.273438 C 7.296875 -4.347656 7.332031 -4.421875 7.40625 -4.421875 C 7.40625 -4.347656 7.332031 -4.3125 7.257812 -4.273438 Z M 7.996094 -4.863281 C 8.070312 -4.863281 8.105469 -4.902344 8.105469 -4.972656 Z M 11.679688 -21.703125 C 11.753906 -21.8125 11.792969 -21.8125 11.828125 -21.703125 L 11.828125 -21.738281 C 11.792969 -21.667969 11.753906 -21.703125 11.679688 -21.703125 Z M 10.832031 -22.183594 C 10.796875 -22.21875 10.722656 -22.253906 10.6875 -22.183594 C 10.722656 -22.144531 10.796875 -22.109375 10.832031 -22.183594 Z M 9.507812 -20.375 C 9.433594 -20.414062 9.359375 -20.488281 9.359375 -20.375 C 9.394531 -20.375 9.433594 -20.304688 9.507812 -20.375 Z M 6.890625 -20.523438 C 6.925781 -20.5625 6.964844 -20.632812 7 -20.597656 C 7 -20.632812 7 -20.597656 7.039062 -20.5625 L 7 -20.523438 C 6.964844 -20.5625 6.925781 -20.488281 6.890625 -20.523438 Z M 8.402344 -5.269531 C 8.328125 -5.269531 8.289062 -5.195312 8.253906 -5.121094 C 8.328125 -5.160156 8.363281 -5.195312 8.402344 -5.269531 Z M 3.242188 -19.714844 C 3.242188 -19.824219 3.316406 -19.785156 3.351562 -19.75 C 3.316406 -19.675781 3.28125 -19.714844 3.242188 -19.714844 Z M 2.617188 -19.714844 C 2.578125 -19.714844 2.617188 -19.640625 2.617188 -19.640625 L 2.542969 -19.640625 C 2.542969 -19.675781 2.542969 -19.75 2.578125 -19.714844 Z M 11.9375 -21.8125 C 11.902344 -21.738281 11.863281 -21.703125 11.863281 -21.703125 C 11.863281 -21.8125 11.863281 -21.8125 11.9375 -21.8125 Z M 10.832031 -22.183594 C 10.871094 -22.183594 10.90625 -22.144531 10.945312 -22.144531 L 10.945312 -22.183594 C 10.945312 -22.183594 10.945312 -22.21875 10.90625 -22.21875 C 10.90625 -22.21875 10.871094 -22.21875 10.832031 -22.183594 Z M 8.953125 -20.890625 C 8.917969 -21.039062 8.953125 -21.003906 8.992188 -21.039062 C 8.992188 -20.929688 8.953125 -20.890625 8.953125 -20.890625 Z M 11.386719 -22.402344 C 11.386719 -22.367188 11.460938 -22.292969 11.496094 -22.367188 C 11.460938 -22.402344 11.460938 -22.402344 11.386719 -22.402344 Z M 5.785156 -2.761719 C 5.710938 -2.835938 5.785156 -2.835938 5.820312 -2.835938 C 5.820312 -2.800781 5.820312 -2.800781 5.785156 -2.761719 Z M 6.484375 -3.464844 C 6.410156 -3.539062 6.484375 -3.539062 6.523438 -3.539062 C 6.523438 -3.5 6.523438 -3.5 6.484375 -3.464844 Z M 4.386719 -0.515625 C 4.347656 -0.515625 4.3125 -0.550781 4.3125 -0.550781 L 4.3125 -0.480469 C 4.3125 -0.515625 4.347656 -0.515625 4.386719 -0.515625 Z M 12.933594 -21.738281 C 12.898438 -21.777344 12.898438 -21.8125 12.933594 -21.777344 Z M 2.691406 -19.75 C 2.691406 -19.675781 2.652344 -19.675781 2.617188 -19.675781 C 2.617188 -19.714844 2.617188 -19.75 2.691406 -19.75 Z M 0.257812 -2.246094 C 0.332031 -2.175781 0.222656 -2.175781 0.183594 -2.175781 C 0.222656 -2.175781 0.222656 -2.210938 0.257812 -2.246094 Z M 7.441406 -21.480469 C 7.441406 -21.480469 7.40625 -21.480469 7.371094 -21.445312 L 7.480469 -21.445312 C 7.441406 -21.445312 7.441406 -21.519531 7.441406 -21.480469 Z M 8.070312 -20.746094 C 8.070312 -20.746094 8.03125 -20.746094 7.996094 -20.78125 C 8.03125 -20.78125 8.070312 -20.78125 8.070312 -20.746094 Z M 10.90625 -20.707031 C 10.90625 -20.746094 10.871094 -20.746094 10.832031 -20.707031 L 10.796875 -20.707031 C 10.832031 -20.707031 10.832031 -20.671875 10.832031 -20.671875 Z M 9.691406 -6.667969 C 9.617188 -6.667969 9.652344 -6.667969 9.652344 -6.707031 L 9.691406 -6.707031 Z M 7.921875 -20.375 C 7.921875 -20.375 7.886719 -20.375 7.886719 -20.414062 L 7.886719 -20.339844 C 7.921875 -20.304688 7.921875 -20.339844 7.921875 -20.375 Z M 8.660156 -20.191406 C 8.660156 -20.230469 8.660156 -20.230469 8.621094 -20.230469 L 8.660156 -20.15625 C 8.660156 -20.15625 8.660156 -20.191406 8.660156 -20.191406 Z M 5.894531 -2.949219 C 5.96875 -2.875 5.894531 -2.875 5.859375 -2.875 C 5.894531 -2.910156 5.894531 -2.910156 5.894531 -2.949219 Z M 3.539062 -19.601562 C 3.5 -19.601562 3.5 -19.601562 3.5 -19.527344 C 3.5 -19.527344 3.539062 -19.527344 3.539062 -19.601562 Z M 11.238281 -22.292969 C 11.238281 -22.292969 11.128906 -22.367188 11.203125 -22.253906 Z M 4.3125 -0.441406 L 4.273438 -0.441406 L 4.273438 -0.480469 Z M 9.726562 -6.78125 C 9.726562 -6.742188 9.726562 -6.707031 9.691406 -6.707031 C 9.726562 -6.707031 9.765625 -6.707031 9.726562 -6.78125 Z M 9.617188 -6.667969 C 9.582031 -6.667969 9.542969 -6.667969 9.617188 -6.59375 Z M 8.953125 -21.703125 L 8.953125 -21.628906 Z M 10.5 -21.371094 C 10.5 -21.410156 10.539062 -21.371094 10.539062 -21.371094 Z M 7.996094 -4.828125 L 7.960938 -4.828125 L 7.960938 -4.863281 Z M 4.3125 -0.550781 C 4.273438 -0.550781 4.273438 -0.589844 4.273438 -0.589844 Z M 11.863281 -21.078125 C 11.863281 -21.078125 11.902344 -21.078125 11.902344 -21.113281 C 11.902344 -21.113281 11.863281 -21.1875 11.863281 -21.078125 Z M 11.238281 -22.292969 C 11.238281 -22.328125 11.273438 -22.253906 11.238281 -22.367188 Z M 6.300781 -23.214844 L 6.265625 -23.25 Z M 7.8125 -4.863281 C 7.847656 -4.828125 7.8125 -4.828125 7.8125 -4.828125 Z M 8.289062 -21.59375 C 8.289062 -21.59375 8.328125 -21.59375 8.328125 -21.628906 Z M 5.527344 -2.503906 L 5.488281 -2.46875 Z M 7.960938 -4.972656 L 7.996094 -5.011719 Z M 4.164062 -0.332031 L 4.164062 -0.292969 Z M 6.855469 -20.523438 C 6.855469 -20.488281 6.890625 -20.488281 6.890625 -20.523438 Z M 6.855469 -20.523438 "/></g></g></g><g fill="#ff5757" fill-opacity="1"><g transform="translate(281.247997, 281.003684)"><g><path d="M 5.75 -4.605469 C 5.785156 -4.679688 5.710938 -4.753906 5.636719 -4.789062 L 5.636719 -4.863281 C 5.636719 -4.9375 5.636719 -5.011719 5.710938 -5.011719 C 5.710938 -5.011719 5.75 -4.972656 5.785156 -4.972656 C 5.894531 -4.9375 6.042969 -4.902344 6.042969 -4.679688 L 6.042969 -3.980469 C 6.042969 -3.757812 6.152344 -3.539062 6.191406 -3.316406 C 6.226562 -2.246094 6.890625 -1.511719 7.664062 -0.847656 C 7.699219 -0.8125 7.8125 -0.8125 7.847656 -0.773438 C 7.921875 -0.738281 7.996094 -0.699219 8.070312 -0.699219 C 8.546875 -0.699219 10.023438 -1.917969 10.355469 -2.246094 C 10.5 -2.359375 10.429688 -2.542969 10.539062 -2.652344 C 10.648438 -2.726562 10.796875 -2.835938 10.90625 -2.949219 C 10.945312 -2.984375 10.945312 -3.058594 10.90625 -3.058594 L 10.796875 -3.058594 C 10.132812 -2.617188 9.507812 -2.175781 8.804688 -1.84375 C 8.585938 -1.730469 8.363281 -1.695312 8.144531 -1.695312 C 8.03125 -1.695312 7.921875 -1.695312 7.8125 -1.730469 C 7.480469 -2.175781 7.332031 -2.726562 7.332031 -3.28125 C 7.332031 -5.195312 8.289062 -9.285156 9.0625 -10.832031 C 9.324219 -11.273438 9.359375 -11.753906 9.285156 -12.234375 C 9.101562 -12.34375 8.917969 -12.453125 8.734375 -12.453125 C 8.621094 -12.453125 8.511719 -12.417969 8.402344 -12.34375 C 8.363281 -12.308594 8.289062 -12.308594 8.253906 -12.308594 C 8.179688 -12.308594 8.144531 -12.308594 8.070312 -12.34375 C 7.554688 -12.601562 7.039062 -12.601562 6.484375 -12.601562 C 5.601562 -12.566406 4.828125 -12.34375 4.125 -11.753906 C 3.832031 -11.496094 3.539062 -11.164062 3.167969 -11.015625 C 3.132812 -10.980469 3.09375 -10.945312 3.09375 -10.90625 C 2.984375 -10.6875 2.800781 -10.464844 2.617188 -10.390625 C 2.320312 -10.242188 2.394531 -9.910156 2.136719 -9.726562 C 1.363281 -9.027344 0.8125 -7.886719 0.367188 -6.925781 C 0.292969 -6.855469 0.257812 -6.78125 0.222656 -6.707031 C -0.441406 -4.679688 -0.773438 -3.425781 -0.773438 -1.214844 C -0.773438 -0.515625 -0.515625 0.109375 0.0351562 0.589844 L 0.292969 0.847656 C 0.40625 0.957031 0.550781 1.03125 0.738281 1.03125 C 0.921875 0.996094 1.140625 0.996094 1.328125 0.882812 C 1.878906 0.625 3.167969 -0.222656 3.464844 -0.699219 C 3.539062 -0.8125 3.757812 -0.847656 3.832031 -0.996094 C 3.941406 -1.214844 4.125 -1.398438 4.273438 -1.585938 C 4.164062 -1.878906 4.53125 -2.027344 4.570312 -2.246094 C 4.605469 -2.46875 4.753906 -2.691406 4.863281 -2.875 C 4.9375 -3.09375 5.046875 -3.28125 5.195312 -3.5 C 5.269531 -3.648438 5.378906 -3.757812 5.34375 -3.941406 C 5.601562 -4.054688 5.675781 -4.347656 5.75 -4.605469 Z M 0.8125 0.0742188 C 0.773438 0.109375 0.699219 0.109375 0.625 0.148438 C 0.550781 0.0742188 0.480469 0.0351562 0.480469 0 C 0.40625 -0.0742188 0.40625 -0.183594 0.40625 -0.257812 C 0.40625 -0.515625 0.40625 -0.773438 0.292969 -1.03125 C 0.257812 -1.105469 0.257812 -1.214844 0.292969 -1.328125 C 0.441406 -1.84375 0.441406 -2.359375 0.515625 -2.910156 C 0.589844 -3.09375 0.625 -3.316406 0.664062 -3.5 C 0.882812 -4.164062 0.996094 -4.863281 1.289062 -5.488281 C 1.472656 -5.894531 1.585938 -6.300781 1.769531 -6.667969 C 1.84375 -6.816406 1.953125 -6.925781 2.027344 -7.074219 C 2.175781 -7.40625 2.433594 -7.664062 2.503906 -7.996094 C 2.542969 -8.03125 2.542969 -8.105469 2.578125 -8.144531 C 2.949219 -8.402344 3.132812 -8.804688 3.5 -9.101562 C 3.796875 -9.359375 4.054688 -9.726562 4.386719 -9.984375 C 4.9375 -10.390625 5.453125 -10.796875 6.117188 -11.054688 C 6.484375 -11.203125 6.816406 -11.421875 7.113281 -11.71875 C 7.222656 -11.792969 7.257812 -11.828125 7.332031 -11.828125 C 7.40625 -11.828125 7.441406 -11.792969 7.515625 -11.71875 C 7.738281 -11.53125 7.773438 -11.421875 7.664062 -11.164062 C 7.480469 -10.722656 7.257812 -10.28125 7.148438 -9.800781 C 7.074219 -9.285156 6.667969 -8.03125 6.410156 -7.554688 C 6.078125 -6.816406 5.710938 -6.078125 5.34375 -5.304688 C 5.160156 -4.828125 4.828125 -4.386719 4.53125 -3.941406 C 4.3125 -3.5 4.015625 -3.09375 3.796875 -2.652344 C 3.058594 -1.472656 1.953125 -0.664062 0.8125 0.0742188 Z M 5.34375 -4.347656 C 5.378906 -4.386719 5.378906 -4.421875 5.378906 -4.457031 L 5.453125 -4.386719 C 5.453125 -4.347656 5.417969 -4.3125 5.378906 -4.273438 C 5.378906 -4.3125 5.34375 -4.3125 5.34375 -4.347656 Z M 1.140625 -7.847656 L 1.179688 -7.847656 L 1.179688 -7.8125 Z M 6.007812 -5.5625 L 5.96875 -5.5625 L 5.96875 -5.601562 Z M 1.03125 -7.589844 L 1.03125 -7.554688 L 0.996094 -7.554688 Z M 4.679688 -3.132812 L 4.679688 -3.207031 Z M 4.679688 -3.132812 "/></g></g></g><g fill="#ff5757" fill-opacity="1"><g transform="translate(291.747714, 281.003684)"><g><path d="M 2.433594 -7.738281 C 2.910156 -7.40625 3.464844 -7.148438 4.015625 -6.855469 C 3.867188 -6.707031 3.796875 -6.632812 3.757812 -6.523438 C 3.722656 -6.335938 3.648438 -6.152344 3.351562 -6.117188 C 3.167969 -6.117188 3.09375 -6.007812 2.984375 -5.933594 C 2.984375 -5.859375 2.910156 -5.75 2.875 -5.75 C 2.800781 -5.75 2.726562 -5.785156 2.691406 -5.785156 C 2.46875 -5.785156 2.394531 -5.636719 2.320312 -5.488281 C 2.359375 -5.417969 2.320312 -5.378906 2.246094 -5.378906 C 1.917969 -5.269531 1.730469 -5.046875 1.546875 -4.863281 C 1.398438 -4.789062 1.289062 -4.714844 1.214844 -4.644531 C 0.589844 -4.386719 0.109375 -4.054688 -0.109375 -3.5 C -0.367188 -3.167969 -0.441406 -2.800781 -0.738281 -2.394531 C -0.847656 -2.175781 -0.8125 -1.953125 -0.773438 -1.730469 C -0.589844 -0.957031 -0.257812 -0.292969 0.332031 0.257812 C 0.664062 0.773438 1.328125 0.957031 1.878906 1.03125 C 2.246094 1.03125 2.652344 0.957031 2.910156 0.847656 C 3.464844 0.664062 4.015625 0.441406 4.347656 0 C 4.421875 -0.0742188 4.53125 -0.148438 4.679688 -0.257812 C 5.453125 -0.8125 5.710938 -0.921875 6.078125 -1.585938 C 6.191406 -1.84375 6.375 -2.0625 6.523438 -2.246094 C 6.59375 -2.359375 6.59375 -2.46875 6.667969 -2.617188 C 7.039062 -3.167969 7.113281 -3.796875 7.257812 -4.457031 L 7.257812 -4.644531 C 7.222656 -5.121094 6.816406 -5.636719 6.632812 -6.078125 C 6.558594 -6.375 6.300781 -6.59375 6.078125 -6.78125 C 5.933594 -6.925781 5.96875 -7 6.078125 -7.074219 C 6.152344 -7.148438 6.152344 -7.183594 6.265625 -7.222656 C 6.964844 -7.554688 10.355469 -8.328125 11.089844 -8.511719 C 11.273438 -8.546875 11.460938 -8.621094 11.605469 -8.695312 C 11.71875 -8.734375 11.71875 -8.769531 11.71875 -8.804688 C 11.644531 -8.878906 11.53125 -8.953125 11.421875 -8.953125 L 11.273438 -8.953125 C 10.90625 -8.734375 10.464844 -8.734375 10.097656 -8.585938 C 9.765625 -8.4375 6.78125 -7.8125 6.375 -7.664062 C 6.191406 -7.628906 6.042969 -7.554688 5.859375 -7.441406 C 5.710938 -7.371094 5.5625 -7.332031 5.417969 -7.332031 C 5.230469 -7.332031 5.046875 -7.40625 4.863281 -7.515625 C 4.457031 -7.664062 3.90625 -7.996094 3.574219 -8.253906 C 3.167969 -8.511719 3.09375 -8.84375 3.242188 -9.136719 C 3.425781 -9.394531 3.648438 -9.652344 3.832031 -9.984375 C 3.941406 -10.316406 4.199219 -10.539062 4.644531 -10.6875 C 4.863281 -10.757812 5.121094 -10.90625 5.269531 -11.054688 C 5.710938 -11.347656 6.078125 -11.53125 6.59375 -11.605469 C 7.222656 -11.644531 7.628906 -11.863281 8.070312 -12.050781 C 8.253906 -12.085938 8.84375 -12.195312 8.953125 -12.195312 C 9.0625 -12.195312 9.25 -12.195312 9.324219 -12.234375 C 9.582031 -12.308594 9.691406 -12.378906 9.691406 -12.527344 C 9.691406 -12.710938 9.46875 -12.824219 9.324219 -12.898438 C 8.992188 -13.007812 8.734375 -13.117188 8.402344 -13.117188 C 8.105469 -13.117188 7.847656 -13.15625 7.554688 -13.191406 C 6.890625 -13.300781 6.558594 -13.375 6.300781 -13.375 C 6.078125 -13.375 5.894531 -13.300781 5.527344 -13.226562 C 5.230469 -13.15625 4.863281 -12.96875 4.570312 -12.859375 C 3.425781 -12.34375 2.578125 -11.570312 2.027344 -10.574219 C 1.769531 -10.242188 1.65625 -9.726562 1.546875 -9.324219 C 1.511719 -9.210938 1.546875 -9.101562 1.65625 -8.992188 C 1.84375 -8.769531 2.0625 -8.546875 2.0625 -8.21875 C 2.0625 -8.03125 2.285156 -7.886719 2.433594 -7.738281 Z M 5.230469 -6.007812 C 5.34375 -5.894531 5.34375 -5.785156 5.378906 -5.675781 C 5.488281 -4.9375 5.378906 -4.273438 5.011719 -3.648438 C 4.273438 -2.359375 3.09375 -1.03125 1.695312 -0.480469 C 1.546875 -0.441406 1.398438 -0.367188 1.214844 -0.367188 C 1.140625 -0.367188 1.070312 -0.367188 0.996094 -0.367188 C 0.847656 -0.367188 0.699219 -0.367188 0.480469 -0.480469 C 0.292969 -0.625 0.292969 -0.882812 0.109375 -1.105469 C 0.109375 -1.105469 0.109375 -1.140625 0.0742188 -1.179688 C 0.292969 -1.621094 0.109375 -2.101562 0.292969 -2.617188 C 0.589844 -3.5 1.398438 -4.570312 2.285156 -4.9375 C 2.359375 -5.011719 2.46875 -5.085938 2.652344 -5.160156 C 3.058594 -5.304688 3.390625 -5.5625 3.757812 -5.820312 C 3.980469 -6.007812 4.386719 -6.117188 4.644531 -6.300781 C 4.679688 -6.300781 4.714844 -6.335938 4.753906 -6.335938 C 4.9375 -6.335938 5.160156 -6.191406 5.230469 -6.007812 Z M 3.609375 -0.847656 C 3.574219 -0.847656 3.5 -0.847656 3.574219 -0.921875 C 3.574219 -0.921875 3.425781 -0.957031 3.464844 -0.996094 C 3.609375 -1.4375 3.980469 -1.730469 4.347656 -1.988281 C 4.421875 -2.027344 4.273438 -1.988281 4.421875 -1.953125 C 4.421875 -1.953125 4.53125 -1.84375 4.457031 -1.84375 C 4.199219 -1.546875 3.941406 -1.214844 3.609375 -0.847656 Z M 4.902344 -2.503906 C 4.828125 -2.394531 4.789062 -2.285156 4.644531 -2.210938 L 4.53125 -2.210938 L 4.496094 -2.246094 C 4.53125 -2.359375 4.570312 -2.503906 4.644531 -2.691406 C 4.679688 -2.761719 4.902344 -2.835938 4.902344 -2.761719 C 4.972656 -2.691406 4.972656 -2.652344 4.902344 -2.503906 Z M 2.394531 -0.0742188 C 2.359375 -0.0742188 2.320312 -0.0742188 2.285156 -0.109375 C 2.285156 -0.292969 2.433594 -0.367188 2.726562 -0.367188 C 2.761719 -0.109375 2.761719 -0.109375 2.394531 -0.0742188 Z M 5.230469 -3.058594 C 5.195312 -3.019531 5.160156 -2.984375 5.121094 -2.984375 C 5.085938 -2.984375 5.085938 -3.019531 5.011719 -3.019531 C 5.085938 -3.058594 5.121094 -3.132812 5.121094 -3.167969 L 5.195312 -3.167969 C 5.230469 -3.132812 5.230469 -3.058594 5.230469 -3.058594 Z M 1.953125 0 C 1.988281 -0.0351562 1.988281 -0.0742188 1.988281 -0.0742188 L 2.246094 -0.0742188 C 2.246094 -0.0351562 2.246094 0 2.175781 0 Z M 3.28125 -0.882812 L 3.316406 -0.847656 L 3.28125 -0.847656 Z M 2.46875 0.40625 L 2.433594 0.40625 L 2.433594 0.367188 Z M 2.46875 0.40625 "/></g></g></g><g fill="#ffffff" fill-opacity="1"><g transform="translate(81.942418, 267.068454)"><g><path d="M 19.59375 -10.515625 L 37.640625 -10.515625 L 37.640625 0 L 2.46875 0 L 2.40625 -8.625 L 18.625 -25.375 C 19.789062 -26.539062 20.726562 -27.71875 21.4375 -28.90625 C 22.15625 -30.09375 22.515625 -31.117188 22.515625 -31.984375 C 22.515625 -33.023438 22.15625 -33.816406 21.4375 -34.359375 C 20.726562 -34.898438 19.722656 -35.171875 18.421875 -35.171875 C 16.648438 -35.171875 14.671875 -34.660156 12.484375 -33.640625 C 10.304688 -32.628906 8.113281 -31.210938 5.90625 -29.390625 L 0.84375 -39.125 C 7.59375 -43.757812 14.125 -46.078125 20.4375 -46.078125 C 23.550781 -46.078125 26.328125 -45.566406 28.765625 -44.546875 C 31.210938 -43.523438 33.140625 -42.109375 34.546875 -40.296875 C 35.953125 -38.484375 36.65625 -36.382812 36.65625 -34 C 36.65625 -31.625 35.890625 -29.191406 34.359375 -26.703125 C 32.828125 -24.210938 30.628906 -21.539062 27.765625 -18.6875 Z M 19.59375 -10.515625 "/></g></g></g></svg>