<?xml version="1.0" encoding="UTF-8"?>
<svg xmlns="http://www.w3.org/2000/svg" xmlns:xlink="http://www.w3.org/1999/xlink" width="200px" height="200px" viewBox="0 0 200 200" version="1.1">
<defs>
<clipPath id="clip1">
  <path d="M 80.535156 47.046875 L 121.351562 47.046875 L 121.351562 104.535156 L 80.535156 104.535156 Z M 80.535156 47.046875 "/>
</clipPath>
</defs>
<g id="surface1">
<rect x="0" y="0" width="200" height="200" style="fill:rgb(0%,0%,0%);fill-opacity:1;stroke:none;"/>
<g clip-path="url(#clip1)" clip-rule="nonzero">
<path style=" stroke:none;fill-rule:nonzero;fill:rgb(100%,34.117647%,34.117647%);fill-opacity:1;" d="M 96.855469 104.496094 C 97.789062 104.433594 98.699219 104.25 99.566406 103.914062 C 93.828125 102.679688 92.285156 96.292969 93.542969 91.15625 C 94.242188 88.289062 96.054688 85.742188 97.839844 83.507812 C 100.441406 80.253906 101.203125 76.773438 102.105469 72.839844 C 101.6875 75.710938 102.066406 78.691406 103.644531 81.171875 C 104.722656 82.871094 106.238281 84.242188 107.429688 85.859375 C 109.664062 88.890625 110.457031 92.613281 110.214844 96.355469 C 109.839844 102.164062 105.992188 104.039062 104.964844 103.65625 C 109.652344 105.410156 121.128906 101.730469 121.292969 89.539062 C 121.339844 85.894531 120.644531 80.457031 118.226562 77.726562 C 119.207031 79.605469 118.316406 84.835938 116.148438 85.917969 C 116.273438 80.539062 114.328125 77.199219 112.566406 73.421875 C 110.847656 69.734375 109.699219 65.488281 111.339844 61.574219 C 110.308594 62.410156 109.949219 64.082031 109.328125 65.214844 C 108.488281 66.742188 107.554688 68.226562 106.546875 69.648438 C 107.242188 61.753906 105.125 53.640625 100.660156 47.089844 C 102.117188 49.230469 102.109375 52.085938 101.363281 54.566406 C 100.617188 57.042969 99.21875 59.265625 98.015625 61.558594 C 96.816406 63.851562 95.671875 65.851562 95.742188 68.441406 C 94.84375 64.640625 95.085938 60.582031 96.429688 56.917969 C 92.703125 59.351562 92.070312 64.476562 91.988281 68.925781 C 91.90625 73.378906 91.777344 78.398438 88.503906 81.417969 C 89.296875 76.8125 89.480469 72.808594 87.527344 71.277344 C 87.953125 74.707031 86.605469 77.847656 84.304688 80.429688 C 78.546875 86.894531 80.417969 96.339844 84.882812 100.710938 C 87.609375 103.375 92.722656 104.777344 96.855469 104.496094 "/>
</g>
<path style=" stroke:none;fill-rule:nonzero;fill:rgb(100%,100%,100%);fill-opacity:1;" d="M 87.367188 118.34375 L 94.542969 118.34375 L 85.808594 134.945312 L 85.808594 142.636719 L 78.601562 142.636719 L 78.601562 135.085938 L 69.699219 118.34375 L 76.910156 118.34375 L 82.210938 128.253906 Z M 87.367188 118.34375 "/>
<path style=" stroke:none;fill-rule:nonzero;fill:rgb(100%,100%,100%);fill-opacity:1;" d="M 110.132812 117.894531 C 112.625 117.894531 114.882812 118.441406 116.90625 119.527344 C 118.929688 120.613281 120.511719 122.109375 121.65625 124.011719 C 122.800781 125.917969 123.375 128.058594 123.375 130.4375 C 123.375 132.84375 122.800781 135.011719 121.65625 136.9375 C 120.511719 138.867188 118.929688 140.378906 116.90625 141.480469 C 114.882812 142.574219 112.625 143.121094 110.132812 143.121094 C 107.617188 143.121094 105.351562 142.574219 103.339844 141.480469 C 101.335938 140.378906 99.757812 138.867188 98.617188 136.9375 C 97.46875 135.011719 96.898438 132.84375 96.898438 130.4375 C 96.898438 128.058594 97.46875 125.917969 98.617188 124.011719 C 99.757812 122.109375 101.335938 120.613281 103.339844 119.527344 C 105.351562 118.441406 107.617188 117.894531 110.132812 117.894531 Z M 110.242188 123.894531 C 109.179688 123.894531 108.191406 124.183594 107.273438 124.761719 C 106.363281 125.335938 105.632812 126.125 105.089844 127.128906 C 104.550781 128.136719 104.28125 129.25 104.28125 130.480469 C 104.28125 131.703125 104.550781 132.820312 105.089844 133.835938 C 105.632812 134.855469 106.363281 135.65625 107.273438 136.246094 C 108.191406 136.835938 109.179688 137.128906 110.242188 137.128906 C 111.277344 137.128906 112.242188 136.835938 113.132812 136.246094 C 114.019531 135.65625 114.71875 134.859375 115.222656 133.855469 C 115.734375 132.851562 115.992188 131.726562 115.992188 130.480469 C 115.992188 129.25 115.734375 128.136719 115.222656 127.128906 C 114.71875 126.125 114.027344 125.335938 113.148438 124.761719 C 112.269531 124.183594 111.300781 123.894531 110.242188 123.894531 Z M 110.242188 123.894531 "/>
<path style=" stroke:none;fill-rule:nonzero;fill:rgb(100%,100%,100%);fill-opacity:1;" d="M 134.835938 132.585938 C 134.835938 133.953125 135.230469 135.054688 136.011719 135.886719 C 136.800781 136.714844 137.78125 137.128906 138.960938 137.128906 C 140.117188 137.128906 141.0625 136.71875 141.804688 135.902344 C 142.542969 135.082031 142.914062 133.976562 142.914062 132.585938 L 142.914062 118.34375 L 150.121094 118.34375 L 150.121094 132.585938 C 150.121094 134.714844 149.664062 136.570312 148.753906 138.152344 C 147.839844 139.734375 146.542969 140.953125 144.855469 141.820312 C 143.171875 142.6875 141.207031 143.121094 138.960938 143.121094 C 136.699219 143.121094 134.714844 142.6875 133.003906 141.820312 C 131.292969 140.953125 129.96875 139.734375 129.039062 138.152344 C 128.105469 136.570312 127.636719 134.714844 127.636719 132.585938 L 127.636719 118.34375 L 134.835938 118.34375 Z M 134.835938 132.585938 "/>
<path style=" stroke:none;fill-rule:nonzero;fill:rgb(100%,34.117647%,34.117647%);fill-opacity:1;" d="M 140.195312 149.671875 C 140.292969 149.574219 140.429688 149.496094 140.53125 149.398438 C 141.472656 148.691406 142.296875 147.785156 143.125 146.644531 C 143.164062 146.546875 143.339844 146.097656 143.261719 146.097656 C 143.222656 146.097656 143.179688 146.113281 143.101562 146.210938 C 142.492188 146.882812 141.6875 147.921875 141.078125 148.492188 C 140.6875 148.886719 139.878906 149.378906 139.367188 149.574219 C 139.210938 149.632812 139.054688 149.691406 138.898438 149.789062 C 138.722656 149.867188 138.542969 149.867188 138.367188 149.925781 C 138.289062 149.949219 138.210938 149.949219 138.132812 149.949219 C 137.992188 149.949219 137.835938 149.925781 137.699219 149.867188 C 137.640625 149.851562 137.601562 149.789062 137.582031 149.730469 C 137.503906 149.457031 137.460938 149.160156 137.421875 148.886719 C 137.40625 148.808594 137.445312 148.730469 137.445312 148.671875 C 137.460938 148.609375 137.484375 148.535156 137.484375 148.472656 C 137.484375 148.277344 137.542969 148.101562 137.601562 147.902344 C 137.914062 146.800781 138.445312 145.484375 139.269531 144.660156 C 139.390625 144.523438 139.546875 144.40625 139.644531 144.246094 C 139.917969 143.855469 140.332031 143.503906 140.726562 143.246094 C 140.746094 143.265625 140.804688 143.285156 140.84375 143.304688 C 140.882812 143.304688 140.921875 143.324219 140.941406 143.34375 C 141.058594 143.441406 141.078125 143.578125 141.058594 143.71875 C 141 143.953125 140.84375 144.132812 140.726562 144.328125 C 140.667969 144.386719 140.628906 144.445312 140.585938 144.503906 C 140.507812 144.621094 140.546875 144.738281 140.6875 144.738281 C 140.726562 144.738281 140.765625 144.738281 140.804688 144.738281 C 140.882812 144.738281 140.960938 144.738281 141.019531 144.738281 C 141.117188 144.757812 141.199219 144.699219 141.257812 144.640625 C 141.414062 144.503906 141.492188 144.304688 141.570312 144.132812 C 141.804688 143.617188 141.492188 143.070312 141 142.929688 C 140.882812 142.914062 140.765625 142.871094 140.644531 142.871094 C 140.570312 142.871094 140.507812 142.871094 140.429688 142.914062 C 140.390625 142.929688 140.351562 142.929688 140.3125 142.929688 C 140.273438 142.929688 140.234375 142.929688 140.195312 142.929688 C 140.054688 142.953125 139.917969 142.988281 139.820312 143.070312 C 139.230469 143.460938 138.40625 144.386719 138.09375 145.035156 C 137.640625 145.820312 137.285156 146.628906 137.050781 147.492188 C 136.972656 147.863281 136.875 148.238281 136.875 148.632812 C 136.875 149.160156 137.011719 149.433594 137.226562 149.886719 C 137.40625 150.261719 137.738281 150.398438 138.09375 150.539062 C 138.132812 150.554688 138.171875 150.539062 138.210938 150.554688 C 138.484375 150.554688 138.78125 150.515625 139.015625 150.359375 C 139.054688 150.339844 139.09375 150.339844 139.132812 150.320312 C 139.328125 150.261719 139.507812 150.203125 139.625 150.023438 C 139.703125 149.949219 139.78125 149.910156 139.859375 149.851562 C 139.980469 149.769531 140.097656 149.75 140.195312 149.671875 Z M 138.074219 145.386719 C 138.09375 145.347656 138.113281 145.328125 138.132812 145.289062 C 138.148438 145.328125 138.148438 145.367188 138.148438 145.410156 C 138.148438 145.449219 138.132812 145.464844 138.09375 145.484375 L 138.074219 145.484375 C 138.035156 145.449219 138.050781 145.410156 138.074219 145.386719 Z M 137.71875 146.175781 C 137.71875 146.113281 137.699219 146.054688 137.777344 146.039062 C 137.777344 146.097656 137.777344 146.152344 137.71875 146.175781 Z M 137.503906 146.546875 C 137.503906 146.507812 137.523438 146.488281 137.5625 146.488281 C 137.5625 146.527344 137.5625 146.546875 137.542969 146.566406 C 137.542969 146.585938 137.542969 146.585938 137.523438 146.605469 C 137.523438 146.585938 137.503906 146.566406 137.503906 146.546875 Z M 137.9375 145.800781 C 137.914062 145.839844 137.894531 145.859375 137.875 145.859375 L 137.875 145.78125 C 137.875 145.761719 137.894531 145.761719 137.894531 145.742188 C 137.914062 145.761719 137.9375 145.78125 137.9375 145.800781 Z M 137.386719 146.960938 C 137.386719 146.980469 137.386719 147 137.40625 147.019531 L 137.363281 147.058594 C 137.363281 147.039062 137.363281 147.019531 137.347656 146.980469 C 137.347656 146.980469 137.363281 146.980469 137.386719 146.960938 Z M 137.445312 146.742188 C 137.460938 146.765625 137.460938 146.785156 137.484375 146.800781 C 137.460938 146.800781 137.460938 146.824219 137.445312 146.824219 C 137.445312 146.800781 137.421875 146.785156 137.421875 146.765625 Z M 138.210938 145.171875 C 138.191406 145.132812 138.210938 145.132812 138.230469 145.132812 C 138.230469 145.152344 138.230469 145.152344 138.210938 145.171875 Z M 137.976562 145.585938 L 137.992188 145.621094 L 137.976562 145.621094 Z M 137.976562 145.585938 "/>
<path style=" stroke:none;fill-rule:nonzero;fill:rgb(100%,34.117647%,34.117647%);fill-opacity:1;" d="M 145.480469 147.921875 C 145.5 147.902344 145.519531 147.882812 145.539062 147.863281 C 145.578125 147.804688 145.578125 147.6875 145.539062 147.726562 C 145.519531 147.746094 145.480469 147.785156 145.460938 147.824219 C 145.460938 147.84375 145.480469 147.882812 145.480469 147.902344 C 145.265625 147.945312 145.265625 148.160156 145.167969 148.21875 C 145.128906 148.21875 145.105469 148.238281 145.105469 148.257812 C 145.128906 148.257812 145.144531 148.238281 145.167969 148.238281 C 145.144531 148.257812 145.128906 148.296875 145.105469 148.316406 C 145.105469 148.316406 145.105469 148.296875 145.105469 148.277344 L 145.046875 148.335938 C 145.046875 148.335938 145.046875 148.355469 145.066406 148.375 C 144.832031 148.730469 144.066406 149.613281 143.691406 149.691406 C 143.632812 149.769531 143.457031 149.496094 143.335938 149.496094 C 143.320312 149.457031 143.320312 149.417969 143.277344 149.398438 C 143.179688 149.222656 143.160156 149.042969 143.199219 148.867188 C 143.199219 148.769531 143.199219 148.648438 143.222656 148.570312 C 143.238281 148.316406 143.222656 148.058594 143.320312 147.804688 C 143.335938 147.765625 143.335938 147.726562 143.296875 147.6875 C 143.277344 147.648438 143.277344 147.609375 143.296875 147.570312 C 143.398438 147.453125 143.398438 147.253906 143.417969 147.097656 C 143.457031 146.921875 143.4375 146.742188 143.554688 146.605469 C 143.515625 146.410156 143.652344 146.292969 143.691406 146.097656 C 143.730469 145.898438 143.867188 145.328125 143.949219 145.152344 C 144.261719 144.484375 144.554688 143.777344 144.695312 143.050781 C 144.714844 142.851562 144.578125 142.597656 144.398438 142.5 C 144.359375 142.5 144.320312 142.480469 144.28125 142.480469 L 144.066406 142.480469 C 144.023438 142.480469 143.988281 142.5 143.949219 142.519531 C 143.75 142.832031 143.632812 143.167969 143.515625 143.519531 C 143.4375 143.796875 143.359375 144.089844 143.261719 144.367188 C 143.222656 144.503906 143.160156 144.601562 143.121094 144.738281 C 142.964844 145.269531 142.828125 145.800781 142.671875 146.3125 C 142.632812 146.546875 142.550781 146.742188 142.535156 146.941406 C 142.511719 147.316406 142.453125 147.6875 142.414062 148.058594 C 142.394531 148.335938 142.375 148.609375 142.453125 148.90625 C 142.472656 148.945312 142.472656 149.003906 142.492188 149.0625 C 142.511719 149.222656 142.589844 149.359375 142.691406 149.476562 C 142.808594 149.613281 142.925781 149.769531 143.042969 149.910156 C 143.140625 150.046875 143.277344 150.144531 143.457031 150.203125 C 143.515625 150.242188 143.59375 150.242188 143.671875 150.242188 C 144.007812 150.242188 144.457031 150.007812 144.675781 149.710938 C 144.8125 149.59375 144.773438 149.554688 144.890625 149.398438 C 145.007812 149.277344 145.167969 148.867188 145.105469 148.671875 C 145.105469 148.632812 145.085938 148.589844 145.128906 148.589844 C 145.167969 148.609375 145.183594 148.648438 145.226562 148.671875 C 145.265625 148.609375 145.203125 148.535156 145.226562 148.472656 C 145.242188 148.394531 145.285156 148.335938 145.324219 148.257812 C 145.363281 148.160156 145.460938 148.042969 145.460938 147.921875 Z M 144.457031 140.945312 C 144.578125 141.046875 144.734375 141.085938 144.890625 141.164062 C 144.96875 141.121094 145.066406 141.085938 145.167969 141.046875 C 145.226562 141.023438 145.242188 140.964844 145.242188 140.925781 C 145.304688 140.730469 145.265625 140.554688 145.339844 140.378906 C 145.363281 140.355469 145.339844 140.335938 145.324219 140.320312 C 145.285156 140.277344 145.203125 140.238281 145.144531 140.238281 C 145.128906 140.238281 145.105469 140.238281 145.085938 140.257812 C 144.910156 140.378906 144.714844 140.515625 144.554688 140.652344 C 144.496094 140.691406 144.457031 140.75 144.417969 140.808594 C 144.398438 140.847656 144.417969 140.925781 144.457031 140.945312 Z M 145.105469 148.316406 C 145.105469 148.335938 145.105469 148.355469 145.105469 148.355469 C 145.105469 148.375 145.085938 148.375 145.085938 148.394531 C 145.085938 148.355469 145.085938 148.335938 145.105469 148.316406 Z M 145.105469 148.316406 "/>
<path style=" stroke:none;fill-rule:nonzero;fill:rgb(100%,34.117647%,34.117647%);fill-opacity:1;" d="M 149.960938 136.230469 C 149.941406 136.210938 149.921875 136.210938 149.902344 136.210938 C 149.902344 136.230469 149.921875 136.25 149.921875 136.25 C 149.941406 136.25 149.960938 136.230469 149.960938 136.230469 Z M 149.195312 138.609375 C 149.175781 138.6875 149.175781 138.726562 149.132812 138.726562 C 149.117188 138.726562 149.09375 138.726562 149.074219 138.707031 C 149.058594 138.707031 149.035156 138.6875 149.019531 138.6875 C 149.3125 137.882812 149.585938 137.273438 149.902344 136.664062 C 149.960938 136.546875 150.019531 136.484375 150.039062 136.367188 C 150.078125 136.230469 150.136719 136.113281 150.15625 135.976562 C 150.175781 135.894531 150.175781 135.816406 150.15625 135.757812 C 150.117188 135.621094 150.039062 135.503906 149.980469 135.386719 C 149.941406 135.304688 149.664062 135.230469 149.605469 135.246094 C 149.585938 135.246094 149.585938 135.246094 149.566406 135.265625 C 149.273438 135.464844 149.175781 135.777344 149.058594 136.113281 C 148.859375 136.683594 148.703125 136.917969 148.527344 137.507812 C 148.503906 137.585938 148.445312 137.664062 148.429688 137.742188 L 148.210938 138.488281 L 148.210938 138.527344 C 148.25 138.527344 148.289062 138.488281 148.289062 138.449219 C 148.289062 138.371094 148.328125 138.292969 148.386719 138.214844 C 148.40625 138.175781 148.445312 138.15625 148.46875 138.15625 C 148.503906 138.15625 148.542969 138.175781 148.585938 138.214844 L 148.46875 138.527344 C 148.386719 138.550781 148.289062 138.550781 148.210938 138.550781 L 148.210938 138.527344 C 148.191406 138.550781 148.191406 138.550781 148.171875 138.550781 C 148.015625 138.570312 147.855469 138.589844 147.71875 138.589844 C 147.640625 138.589844 147.5625 138.589844 147.503906 138.609375 C 147.367188 138.648438 147.289062 138.648438 147.152344 138.648438 C 146.835938 138.648438 146.5 138.726562 146.207031 138.746094 C 146.070312 138.746094 145.949219 138.765625 145.835938 138.765625 C 145.792969 138.765625 145.773438 138.765625 145.734375 138.765625 L 145.558594 138.804688 C 145.460938 138.804688 145.417969 138.902344 145.382812 139.039062 C 145.34375 139.160156 145.363281 139.335938 145.402344 139.492188 C 145.402344 139.609375 145.480469 139.707031 145.558594 139.691406 C 145.578125 139.691406 145.617188 139.667969 145.65625 139.691406 C 145.933594 139.628906 146.167969 139.550781 146.402344 139.550781 C 146.441406 139.550781 146.460938 139.550781 146.480469 139.550781 C 146.621094 139.53125 146.757812 139.511719 146.894531 139.511719 C 146.972656 139.511719 147.089844 139.492188 147.1875 139.472656 C 147.226562 139.472656 147.25 139.472656 147.269531 139.453125 C 147.25 139.414062 147.226562 139.355469 147.1875 139.335938 C 147.226562 139.296875 147.269531 139.296875 147.308594 139.296875 C 147.445312 139.277344 147.582031 139.296875 147.71875 139.238281 C 147.777344 139.238281 147.855469 139.238281 147.9375 139.214844 L 147.9375 139.277344 C 147.9375 139.296875 147.9375 139.316406 147.914062 139.335938 C 147.898438 139.375 147.878906 139.394531 147.898438 139.414062 C 147.71875 139.886719 147.070312 141.515625 147.113281 141.671875 C 147.210938 141.636719 147.957031 139.589844 147.976562 139.53125 L 147.976562 139.453125 C 148.074219 139.453125 148.09375 139.394531 148.015625 139.316406 C 148.015625 139.277344 148.035156 139.238281 148.054688 139.199219 C 148.074219 139.199219 148.113281 139.199219 148.152344 139.179688 C 148.191406 139.160156 148.230469 139.160156 148.289062 139.160156 C 148.269531 139.199219 148.25 139.214844 148.25 139.238281 C 148.230469 139.257812 148.230469 139.277344 148.230469 139.296875 L 148.230469 139.316406 C 148.210938 139.316406 148.210938 139.316406 148.191406 139.316406 C 148.132812 139.316406 148.074219 139.375 148.210938 139.414062 C 148.074219 139.90625 147.386719 141.652344 147.347656 141.851562 C 147.25 142.164062 147.1875 142.480469 147.070312 142.773438 C 146.972656 143.089844 146.539062 144.679688 146.363281 144.976562 C 146.34375 145.015625 146.34375 145.09375 146.324219 145.152344 C 146.285156 145.410156 146.167969 145.644531 146.148438 145.898438 C 146.148438 145.9375 146.128906 145.957031 146.109375 145.976562 L 146.03125 146.253906 C 145.972656 146.507812 145.851562 146.726562 145.871094 146.980469 C 145.871094 147 145.871094 147 145.851562 147.019531 C 145.734375 147.234375 145.714844 147.472656 145.675781 147.707031 C 145.636719 147.921875 145.558594 148.140625 145.578125 148.355469 C 145.578125 148.394531 145.558594 148.433594 145.539062 148.472656 C 145.539062 148.453125 145.519531 148.433594 145.519531 148.433594 C 145.460938 148.042969 145.597656 147.667969 145.597656 147.273438 L 145.597656 147.253906 C 145.714844 147.078125 145.734375 146.882812 145.753906 146.664062 C 145.753906 146.488281 146.109375 145.210938 146.167969 145.015625 C 146.1875 144.957031 146.582031 143.640625 146.523438 143.503906 C 146.460938 143.777344 146.007812 145.269531 145.933594 145.507812 C 145.753906 146.113281 145.34375 147.429688 145.34375 148.058594 L 145.34375 148.199219 C 145.222656 148.511719 145.28125 148.847656 145.28125 149.179688 C 145.28125 149.378906 145.402344 149.808594 145.597656 149.910156 C 145.773438 150.007812 145.910156 150.164062 146.070312 150.300781 C 146.128906 150.359375 146.1875 150.378906 146.246094 150.378906 C 146.304688 150.378906 146.34375 150.359375 146.402344 150.339844 L 146.953125 150.105469 C 147.1875 149.988281 147.40625 149.886719 147.601562 149.710938 C 147.582031 149.691406 147.5625 149.691406 147.5625 149.652344 L 147.621094 149.613281 L 147.621094 149.632812 C 147.621094 149.59375 147.640625 149.574219 147.679688 149.554688 C 147.757812 149.417969 147.878906 149.320312 147.996094 149.222656 C 148.035156 149.179688 148.054688 149.179688 148.09375 149.179688 C 148.132812 149.179688 148.152344 149.179688 148.191406 149.199219 C 148.210938 149.199219 148.230469 149.222656 148.269531 149.222656 C 148.289062 149.222656 148.308594 149.199219 148.328125 149.179688 C 148.347656 149.140625 148.328125 149.121094 148.289062 149.101562 C 148.269531 149.082031 148.25 149.0625 148.25 149.042969 C 148.25 148.984375 148.347656 148.964844 148.386719 148.964844 C 148.386719 148.964844 148.40625 148.964844 148.429688 148.964844 C 148.445312 148.984375 148.46875 148.984375 148.488281 148.984375 C 148.503906 148.984375 148.527344 148.945312 148.503906 148.925781 C 148.46875 148.828125 148.488281 148.789062 148.566406 148.730469 C 148.722656 148.609375 148.878906 148.472656 148.976562 148.296875 C 149.019531 148.257812 149.019531 148.21875 149.019531 148.160156 C 148.996094 148.101562 149.035156 148.082031 149.09375 148.058594 C 149.132812 148.042969 149.195312 148.042969 149.230469 148.042969 C 149.371094 148.019531 149.429688 147.945312 149.429688 147.804688 C 149.488281 147.785156 149.507812 147.746094 149.507812 147.6875 L 149.507812 147.429688 L 149.429688 147.429688 C 149.429688 147.390625 149.46875 147.371094 149.507812 147.355469 L 149.507812 147.429688 C 149.605469 147.414062 149.625 147.414062 149.648438 147.292969 L 149.566406 147.292969 C 149.546875 147.332031 149.546875 147.355469 149.507812 147.355469 C 149.507812 147.316406 149.527344 147.292969 149.566406 147.273438 C 149.585938 147.234375 149.605469 147.234375 149.648438 147.214844 L 149.683594 147.078125 C 149.761719 146.980469 149.84375 146.882812 149.960938 146.824219 C 149.960938 146.785156 150 146.765625 150.039062 146.742188 C 150.019531 146.800781 150 146.824219 149.960938 146.839844 C 149.960938 146.941406 149.902344 147 149.882812 147.058594 C 150.019531 147.058594 150.097656 146.960938 150.15625 146.863281 C 150.175781 146.839844 150.15625 146.785156 150.097656 146.765625 L 150.039062 146.765625 C 150.078125 146.664062 150.15625 146.566406 150.253906 146.527344 C 150.273438 146.546875 150.253906 146.605469 150.3125 146.566406 L 150.253906 146.527344 C 150.253906 146.449219 150.292969 146.390625 150.351562 146.332031 L 150.726562 145.9375 C 150.941406 145.644531 151.160156 145.367188 151.414062 145.113281 C 151.472656 145.015625 151.472656 144.976562 151.433594 144.976562 C 151.414062 144.976562 151.375 144.996094 151.316406 145.054688 L 150.589844 145.859375 C 150.273438 146.253906 149.980469 146.628906 149.625 146.960938 L 149.3125 147.292969 C 149.214844 147.453125 149.09375 147.570312 148.976562 147.6875 L 148.40625 148.257812 C 148.347656 148.316406 148.289062 148.394531 148.230469 148.433594 C 148.054688 148.535156 147.9375 148.671875 147.800781 148.808594 C 147.464844 149.121094 147.089844 149.398438 146.699219 149.652344 C 146.597656 149.730469 146.460938 149.789062 146.34375 149.851562 C 146.324219 149.851562 146.304688 149.867188 146.265625 149.867188 C 146.1875 149.867188 146.148438 149.808594 146.109375 149.730469 C 146.050781 149.59375 146.03125 149.457031 146.03125 149.320312 L 146.03125 148.867188 C 146.03125 148.769531 146.03125 148.632812 146.050781 148.535156 C 146.109375 148.394531 146.109375 148.238281 146.109375 148.101562 C 146.109375 147.960938 146.128906 147.84375 146.167969 147.726562 C 146.207031 147.628906 146.246094 147.527344 146.246094 147.429688 L 146.324219 147 C 146.34375 146.824219 146.425781 146.683594 146.480469 146.546875 C 146.523438 146.429688 146.523438 146.332031 146.5625 146.210938 C 146.582031 146.113281 146.597656 146.015625 146.636719 145.9375 C 146.660156 145.878906 146.796875 145.386719 146.796875 145.328125 C 146.796875 145.25 146.816406 145.191406 146.855469 145.113281 C 146.894531 145.035156 147.324219 143.699219 147.347656 143.601562 C 147.40625 143.34375 147.484375 143.089844 147.5625 142.851562 C 147.699219 142.382812 148.585938 140.003906 148.742188 139.53125 L 148.917969 139.019531 C 148.976562 139.039062 149.019531 139.039062 149.058594 139.039062 C 149.09375 139.039062 149.132812 139.039062 149.15625 139.019531 C 149.195312 139.019531 149.253906 138.980469 149.292969 139.003906 C 149.3125 139.039062 149.332031 139.039062 149.351562 139.039062 C 149.390625 139.039062 149.410156 139.019531 149.429688 139.019531 C 149.449219 138.980469 149.46875 138.941406 149.488281 138.941406 C 149.507812 138.941406 149.507812 138.960938 149.527344 138.980469 C 149.566406 139.058594 149.566406 139.058594 149.605469 139.019531 L 149.527344 138.980469 C 149.546875 138.921875 149.585938 138.941406 149.605469 138.941406 L 149.605469 138.980469 C 149.625 138.921875 149.625 138.921875 149.625 139.003906 L 149.722656 138.921875 C 149.746094 138.902344 149.785156 138.882812 149.84375 138.882812 C 149.863281 138.882812 149.882812 138.882812 149.902344 138.882812 C 150.039062 138.863281 150.15625 138.84375 150.273438 138.785156 C 150.335938 138.785156 150.375 138.726562 150.410156 138.746094 C 150.589844 138.765625 150.765625 138.628906 150.941406 138.628906 C 151.101562 138.589844 151.21875 138.511719 151.316406 138.488281 C 151.433594 138.488281 151.828125 138.351562 151.90625 138.273438 C 151.964844 138.234375 152.003906 138.234375 152.0625 138.234375 C 152.121094 138.234375 152.199219 138.253906 152.257812 138.273438 C 152.101562 138.390625 151.925781 138.511719 151.75 138.609375 C 151.789062 138.628906 151.808594 138.628906 151.847656 138.628906 C 151.867188 138.628906 151.90625 138.628906 151.945312 138.609375 C 152.023438 138.527344 152.101562 138.550781 152.140625 138.472656 C 152.160156 138.472656 152.179688 138.472656 152.179688 138.472656 C 152.21875 138.472656 152.476562 138.332031 152.476562 138.273438 C 152.515625 138.117188 152.457031 138 152.476562 137.824219 C 152.496094 137.761719 152.457031 137.703125 152.417969 137.683594 C 152.398438 137.664062 152.355469 137.644531 152.339844 137.644531 C 152.316406 137.644531 152.300781 137.664062 152.28125 137.722656 C 152.21875 137.824219 152.140625 137.863281 152.082031 137.863281 C 151.984375 137.863281 151.925781 137.941406 151.847656 137.980469 C 151.808594 138.039062 151.75 138.078125 151.691406 138.078125 C 151.667969 138.058594 151.652344 138.058594 151.628906 138.058594 C 151.570312 138.058594 151.53125 138.097656 151.472656 138.097656 C 151.453125 138.136719 151.394531 138.175781 151.335938 138.15625 C 151.316406 138.15625 151.296875 138.15625 151.277344 138.15625 C 151.21875 138.15625 151.179688 138.15625 151.160156 138.195312 C 151.121094 138.214844 151.0625 138.253906 151.023438 138.253906 C 151 138.253906 150.980469 138.234375 150.964844 138.234375 C 150.941406 138.195312 150.902344 138.214844 150.863281 138.253906 C 150.785156 138.3125 150.6875 138.351562 150.628906 138.332031 C 150.609375 138.3125 150.589844 138.3125 150.570312 138.3125 C 150.550781 138.3125 150.511719 138.332031 150.492188 138.351562 C 150.492188 138.414062 150.351562 138.429688 150.292969 138.429688 C 150.253906 138.429688 150.214844 138.414062 150.175781 138.390625 C 150.15625 138.414062 150.097656 138.414062 150.058594 138.472656 C 150 138.527344 149.921875 138.550781 149.820312 138.550781 C 149.804688 138.589844 149.761719 138.609375 149.722656 138.570312 C 149.683594 138.527344 149.648438 138.589844 149.625 138.589844 C 149.625 138.609375 149.605469 138.609375 149.585938 138.609375 C 149.566406 138.609375 149.527344 138.609375 149.507812 138.609375 C 149.488281 138.609375 149.488281 138.609375 149.46875 138.609375 C 149.449219 138.648438 149.410156 138.648438 149.371094 138.648438 C 149.332031 138.648438 149.253906 138.628906 149.195312 138.609375 C 149.214844 138.570312 149.214844 138.511719 149.253906 138.511719 C 149.273438 138.488281 149.3125 138.472656 149.332031 138.429688 C 149.3125 138.414062 149.292969 138.414062 149.273438 138.414062 C 149.230469 138.414062 149.175781 138.429688 149.15625 138.449219 C 149.132812 138.449219 149.132812 138.449219 149.132812 138.488281 C 149.132812 138.511719 149.15625 138.550781 149.15625 138.570312 Z M 147.050781 141.710938 L 146.738281 142.734375 C 146.71875 142.792969 146.738281 142.871094 146.738281 142.953125 C 146.777344 142.953125 146.796875 142.914062 146.796875 142.871094 C 146.894531 142.597656 146.953125 142.300781 147.050781 142.027344 C 147.089844 141.910156 147.113281 141.792969 147.113281 141.671875 Z M 148.976562 147.882812 C 149.058594 147.765625 149.15625 147.667969 149.273438 147.589844 L 149.273438 147.746094 L 149.132812 147.84375 C 149.09375 147.882812 149.035156 147.882812 148.976562 147.882812 Z M 151.316406 138.332031 C 151.335938 138.3125 151.355469 138.292969 151.375 138.292969 C 151.414062 138.292969 151.453125 138.332031 151.511719 138.351562 C 151.472656 138.390625 151.414062 138.390625 151.375 138.414062 C 151.296875 138.414062 151.179688 138.449219 151.082031 138.449219 C 151.0625 138.449219 151.0625 138.449219 151.039062 138.449219 C 151.121094 138.351562 151.21875 138.351562 151.316406 138.332031 Z M 149.390625 139.140625 C 149.117188 139.140625 149.605469 139.214844 149.605469 139.214844 L 149.648438 139.214844 L 149.648438 139.160156 L 149.625 139.117188 C 149.546875 139.117188 149.488281 139.117188 149.390625 139.140625 Z M 147.742188 139.414062 C 147.660156 139.375 147.582031 139.355469 147.503906 139.355469 C 147.445312 139.355469 147.40625 139.355469 147.367188 139.375 C 147.367188 139.394531 147.347656 139.433594 147.347656 139.433594 L 147.367188 139.453125 C 147.503906 139.453125 147.601562 139.433594 147.742188 139.414062 Z M 149.625 138.414062 C 149.683594 138.429688 149.722656 138.429688 149.746094 138.429688 C 149.785156 138.429688 149.804688 138.414062 149.820312 138.351562 C 149.785156 138.332031 149.746094 138.332031 149.722656 138.332031 C 149.648438 138.332031 149.566406 138.351562 149.488281 138.371094 C 149.488281 138.371094 149.46875 138.390625 149.46875 138.414062 L 149.488281 138.429688 C 149.507812 138.449219 149.527344 138.472656 149.546875 138.472656 C 149.585938 138.472656 149.605469 138.429688 149.625 138.414062 Z M 146.738281 142.953125 C 146.636719 143.050781 146.621094 143.1875 146.597656 143.324219 C 146.582031 143.324219 146.621094 143.34375 146.621094 143.363281 C 146.738281 143.246094 146.738281 143.109375 146.738281 142.953125 Z M 150.472656 138.589844 C 150.433594 138.648438 150.394531 138.667969 150.351562 138.667969 C 150.335938 138.667969 150.292969 138.648438 150.273438 138.609375 C 150.292969 138.570312 150.335938 138.570312 150.351562 138.570312 C 150.394531 138.570312 150.410156 138.570312 150.449219 138.589844 C 150.472656 138.527344 150.511719 138.511719 150.550781 138.511719 C 150.589844 138.511719 150.609375 138.511719 150.667969 138.550781 C 150.609375 138.570312 150.550781 138.609375 150.511719 138.609375 C 150.492188 138.609375 150.492188 138.609375 150.472656 138.589844 Z M 150.785156 138.097656 C 150.84375 138.136719 150.863281 138.136719 150.902344 138.136719 C 150.964844 138.136719 151.023438 138.117188 151.101562 138.058594 L 151.101562 138.039062 C 150.941406 138.039062 150.941406 138.039062 150.785156 138.097656 Z M 150.824219 138.550781 C 150.785156 138.527344 150.765625 138.550781 150.707031 138.550781 C 150.707031 138.550781 150.6875 138.550781 150.667969 138.550781 C 150.667969 138.511719 150.6875 138.488281 150.707031 138.472656 C 150.746094 138.449219 150.785156 138.429688 150.804688 138.429688 C 150.84375 138.414062 150.882812 138.429688 150.882812 138.449219 C 150.882812 138.488281 150.84375 138.527344 150.824219 138.550781 Z M 148.40625 138.804688 C 148.367188 138.804688 148.347656 138.824219 148.308594 138.824219 C 148.269531 138.824219 148.269531 138.804688 148.269531 138.765625 C 148.25 138.746094 148.25 138.707031 148.269531 138.707031 C 148.289062 138.707031 148.328125 138.707031 148.347656 138.6875 L 148.445312 138.6875 Z M 148.917969 137.210938 C 148.917969 137.273438 148.898438 137.292969 148.839844 137.332031 L 148.820312 137.332031 C 148.820312 137.292969 148.800781 137.253906 148.800781 137.234375 C 148.800781 137.171875 148.820312 137.152344 148.859375 137.152344 C 148.898438 137.132812 148.9375 137.171875 148.917969 137.210938 Z M 150.039062 138.3125 C 150 138.292969 149.980469 138.292969 149.941406 138.292969 C 149.921875 138.292969 149.882812 138.3125 149.84375 138.351562 C 149.882812 138.390625 149.921875 138.429688 149.941406 138.414062 C 149.980469 138.390625 150.019531 138.351562 150.019531 138.3125 C 150.039062 138.3125 150.058594 138.332031 150.058594 138.273438 C 150.039062 138.292969 150.039062 138.3125 150.039062 138.3125 Z M 151.21875 138.824219 C 151.277344 138.824219 151.316406 138.804688 151.355469 138.804688 C 151.375 138.804688 151.394531 138.746094 151.394531 138.746094 C 151.355469 138.726562 151.375 138.726562 151.355469 138.726562 C 151.335938 138.707031 151.296875 138.707031 151.238281 138.726562 C 151.21875 138.726562 151.238281 138.765625 151.21875 138.824219 Z M 150.375 138.214844 C 150.375 138.253906 150.375 138.253906 150.394531 138.273438 C 150.433594 138.253906 150.492188 138.273438 150.511719 138.214844 C 150.492188 138.195312 150.492188 138.15625 150.492188 138.15625 C 150.449219 138.15625 150.410156 138.15625 150.394531 138.195312 Z M 151.453125 138.648438 L 151.453125 138.707031 L 151.472656 138.726562 C 151.492188 138.707031 151.511719 138.726562 151.550781 138.726562 C 151.550781 138.726562 151.570312 138.726562 151.589844 138.707031 L 151.589844 138.648438 Z M 150.609375 138.941406 C 150.628906 138.960938 150.648438 138.960938 150.648438 138.960938 C 150.6875 138.960938 150.765625 138.921875 150.84375 138.902344 C 150.84375 138.902344 150.84375 138.863281 150.824219 138.882812 C 150.785156 138.863281 150.707031 138.902344 150.648438 138.921875 Z M 149.820312 138.765625 C 149.84375 138.707031 149.863281 138.667969 149.882812 138.667969 C 149.882812 138.667969 149.902344 138.6875 149.921875 138.726562 C 149.941406 138.746094 149.941406 138.746094 149.941406 138.765625 C 149.882812 138.804688 149.863281 138.785156 149.820312 138.765625 Z M 149.429688 147.804688 C 149.410156 147.804688 149.390625 147.804688 149.371094 147.804688 C 149.332031 147.804688 149.292969 147.804688 149.273438 147.726562 C 149.332031 147.726562 149.410156 147.726562 149.429688 147.804688 Z M 147.5625 138.84375 C 147.542969 138.84375 147.523438 138.863281 147.484375 138.863281 C 147.445312 138.882812 147.425781 138.863281 147.425781 138.84375 C 147.445312 138.824219 147.464844 138.785156 147.484375 138.785156 C 147.523438 138.785156 147.542969 138.804688 147.5625 138.84375 Z M 150.394531 139.003906 C 150.351562 139.019531 150.292969 138.980469 150.273438 138.960938 C 150.253906 138.960938 150.214844 138.960938 150.253906 139.003906 C 150.253906 139.019531 150.273438 139.058594 150.292969 139.039062 C 150.3125 139.039062 150.351562 139.078125 150.394531 139.003906 Z M 151.511719 138.351562 C 151.53125 138.3125 151.550781 138.273438 151.589844 138.273438 C 151.613281 138.273438 151.613281 138.273438 151.628906 138.292969 C 151.613281 138.351562 151.589844 138.371094 151.570312 138.371094 C 151.550781 138.371094 151.53125 138.351562 151.511719 138.351562 Z M 147.957031 138.804688 C 148.015625 138.765625 148.054688 138.746094 148.09375 138.746094 L 148.054688 138.804688 C 148.035156 138.824219 147.996094 138.824219 147.957031 138.84375 Z M 149.84375 139.078125 C 149.804688 139.078125 149.761719 139.078125 149.746094 139.117188 L 149.746094 139.140625 C 149.761719 139.179688 149.785156 139.199219 149.785156 139.140625 C 149.820312 139.140625 149.820312 139.140625 149.84375 139.101562 Z M 150.058594 138.628906 C 150.078125 138.628906 150.078125 138.707031 150.078125 138.707031 L 150.078125 138.726562 L 150.019531 138.726562 L 150.019531 138.648438 C 150.019531 138.628906 150.019531 138.628906 150.039062 138.628906 Z M 147.011719 139.355469 C 147.011719 139.316406 147.03125 139.316406 147.050781 139.316406 C 147.070312 139.316406 147.089844 139.335938 147.128906 139.355469 C 147.113281 139.375 147.089844 139.394531 147.070312 139.394531 C 147.050781 139.394531 147.03125 139.375 147.011719 139.355469 Z M 150.195312 138.628906 C 150.214844 138.589844 150.253906 138.609375 150.273438 138.609375 C 150.253906 138.667969 150.253906 138.6875 150.234375 138.6875 C 150.234375 138.6875 150.214844 138.667969 150.195312 138.628906 Z M 149.527344 138.824219 C 149.527344 138.84375 149.488281 138.84375 149.46875 138.863281 L 149.449219 138.84375 L 149.449219 138.804688 C 149.488281 138.765625 149.507812 138.785156 149.527344 138.824219 Z M 145.5 148.808594 L 145.460938 148.847656 C 145.460938 148.828125 145.441406 148.808594 145.441406 148.789062 L 145.5 148.730469 Z M 149.351562 147.511719 C 149.351562 147.472656 149.390625 147.429688 149.429688 147.429688 C 149.429688 147.472656 149.390625 147.511719 149.351562 147.511719 Z M 146.914062 139.335938 C 146.933594 139.316406 146.953125 139.335938 147.011719 139.355469 L 146.992188 139.355469 C 146.972656 139.375 146.953125 139.375 146.914062 139.375 Z M 148.898438 147.960938 C 148.898438 147.921875 148.9375 147.902344 148.976562 147.882812 C 148.976562 147.921875 148.9375 147.960938 148.898438 147.960938 Z M 147.621094 149.691406 C 147.660156 149.691406 147.679688 149.691406 147.679688 149.632812 L 147.621094 149.632812 Z M 150.472656 139.003906 C 150.492188 138.960938 150.492188 138.941406 150.492188 138.941406 C 150.492188 138.921875 150.492188 138.941406 150.472656 138.941406 C 150.449219 138.941406 150.472656 139.003906 150.472656 139.003906 Z M 149.804688 147.136719 C 149.761719 147.136719 149.746094 147.175781 149.722656 147.214844 C 149.761719 147.195312 149.804688 147.175781 149.804688 147.136719 Z M 149.273438 147.589844 C 149.292969 147.550781 149.3125 147.511719 149.351562 147.511719 C 149.351562 147.550781 149.3125 147.570312 149.273438 147.589844 Z M 149.664062 147.273438 C 149.707031 147.273438 149.722656 147.253906 149.722656 147.214844 Z M 151.628906 138.292969 C 151.667969 138.234375 151.691406 138.234375 151.710938 138.292969 L 151.710938 138.273438 C 151.691406 138.3125 151.667969 138.292969 151.628906 138.292969 Z M 151.179688 138.039062 C 151.160156 138.019531 151.121094 138 151.101562 138.039062 C 151.121094 138.058594 151.160156 138.078125 151.179688 138.039062 Z M 150.472656 139.003906 C 150.433594 138.980469 150.394531 138.941406 150.394531 139.003906 C 150.410156 139.003906 150.433594 139.039062 150.472656 139.003906 Z M 149.074219 138.921875 C 149.09375 138.902344 149.117188 138.863281 149.132812 138.882812 C 149.132812 138.863281 149.132812 138.882812 149.15625 138.902344 L 149.132812 138.921875 C 149.117188 138.902344 149.09375 138.941406 149.074219 138.921875 Z M 149.882812 147.058594 C 149.84375 147.058594 149.820312 147.097656 149.804688 147.136719 C 149.84375 147.117188 149.863281 147.097656 149.882812 147.058594 Z M 147.128906 139.355469 C 147.128906 139.296875 147.167969 139.316406 147.1875 139.335938 C 147.167969 139.375 147.152344 139.355469 147.128906 139.355469 Z M 146.796875 139.355469 C 146.777344 139.355469 146.796875 139.394531 146.796875 139.394531 L 146.757812 139.394531 C 146.757812 139.375 146.757812 139.335938 146.777344 139.355469 Z M 151.769531 138.234375 C 151.75 138.273438 151.726562 138.292969 151.726562 138.292969 C 151.726562 138.234375 151.726562 138.234375 151.769531 138.234375 Z M 151.179688 138.039062 C 151.199219 138.039062 151.21875 138.058594 151.238281 138.058594 L 151.238281 138.039062 C 151.238281 138.039062 151.238281 138.019531 151.21875 138.019531 C 151.21875 138.019531 151.199219 138.019531 151.179688 138.039062 Z M 150.175781 138.726562 C 150.15625 138.648438 150.175781 138.667969 150.195312 138.648438 C 150.195312 138.707031 150.175781 138.726562 150.175781 138.726562 Z M 151.472656 137.921875 C 151.472656 137.941406 151.511719 137.980469 151.53125 137.941406 C 151.511719 137.921875 151.511719 137.921875 151.472656 137.921875 Z M 148.488281 148.394531 C 148.445312 148.355469 148.488281 148.355469 148.503906 148.355469 C 148.503906 148.375 148.503906 148.375 148.488281 148.394531 Z M 148.859375 148.019531 C 148.820312 147.980469 148.859375 147.980469 148.878906 147.980469 C 148.878906 148.003906 148.878906 148.003906 148.859375 148.019531 Z M 147.742188 149.59375 C 147.71875 149.59375 147.699219 149.574219 147.699219 149.574219 L 147.699219 149.613281 C 147.699219 149.59375 147.71875 149.59375 147.742188 149.59375 Z M 152.300781 138.273438 C 152.28125 138.253906 152.28125 138.234375 152.300781 138.253906 Z M 146.835938 139.335938 C 146.835938 139.375 146.816406 139.375 146.796875 139.375 C 146.796875 139.355469 146.796875 139.335938 146.835938 139.335938 Z M 145.539062 148.671875 C 145.578125 148.707031 145.519531 148.707031 145.5 148.707031 C 145.519531 148.707031 145.519531 148.691406 145.539062 148.671875 Z M 149.371094 138.414062 C 149.371094 138.414062 149.351562 138.414062 149.332031 138.429688 L 149.390625 138.429688 C 149.371094 138.429688 149.371094 138.390625 149.371094 138.414062 Z M 149.707031 138.804688 C 149.707031 138.804688 149.683594 138.804688 149.664062 138.785156 C 149.683594 138.785156 149.707031 138.785156 149.707031 138.804688 Z M 151.21875 138.824219 C 151.21875 138.804688 151.199219 138.804688 151.179688 138.824219 L 151.160156 138.824219 C 151.179688 138.824219 151.179688 138.84375 151.179688 138.84375 Z M 150.570312 146.3125 C 150.53125 146.3125 150.550781 146.3125 150.550781 146.292969 L 150.570312 146.292969 Z M 149.625 139.003906 C 149.625 139.003906 149.605469 139.003906 149.605469 138.980469 L 149.605469 139.019531 C 149.625 139.039062 149.625 139.019531 149.625 139.003906 Z M 150.019531 139.101562 C 150.019531 139.078125 150.019531 139.078125 150 139.078125 L 150.019531 139.117188 C 150.019531 139.117188 150.019531 139.101562 150.019531 139.101562 Z M 148.542969 148.296875 C 148.585938 148.335938 148.542969 148.335938 148.527344 148.335938 C 148.542969 148.316406 148.542969 148.316406 148.542969 148.296875 Z M 147.289062 139.414062 C 147.269531 139.414062 147.269531 139.414062 147.269531 139.453125 C 147.269531 139.453125 147.289062 139.453125 147.289062 139.414062 Z M 151.394531 137.980469 C 151.394531 137.980469 151.335938 137.941406 151.375 138 Z M 147.699219 149.632812 L 147.679688 149.632812 L 147.679688 149.613281 Z M 150.589844 146.253906 C 150.589844 146.273438 150.589844 146.292969 150.570312 146.292969 C 150.589844 146.292969 150.609375 146.292969 150.589844 146.253906 Z M 150.53125 146.3125 C 150.511719 146.3125 150.492188 146.3125 150.53125 146.351562 Z M 150.175781 138.292969 L 150.175781 138.332031 Z M 151 138.472656 C 151 138.449219 151.023438 138.472656 151.023438 138.472656 Z M 149.664062 147.292969 L 149.648438 147.292969 L 149.648438 147.273438 Z M 147.699219 149.574219 C 147.679688 149.574219 147.679688 149.554688 147.679688 149.554688 Z M 151.726562 138.628906 C 151.726562 138.628906 151.75 138.628906 151.75 138.609375 C 151.75 138.609375 151.726562 138.570312 151.726562 138.628906 Z M 151.394531 137.980469 C 151.394531 137.960938 151.414062 138 151.394531 137.941406 Z M 148.761719 137.488281 L 148.742188 137.46875 Z M 149.566406 147.273438 C 149.585938 147.292969 149.566406 147.292969 149.566406 147.292969 Z M 149.820312 138.351562 C 149.820312 138.351562 149.84375 138.351562 149.84375 138.332031 Z M 148.347656 148.535156 L 148.328125 148.550781 Z M 149.648438 147.214844 L 149.664062 147.195312 Z M 147.621094 149.691406 L 147.621094 149.710938 Z M 149.058594 138.921875 C 149.058594 138.941406 149.074219 138.941406 149.074219 138.921875 Z M 149.058594 138.921875 "/>
<path style=" stroke:none;fill-rule:nonzero;fill:rgb(100%,34.117647%,34.117647%);fill-opacity:1;" d="M 153.066406 147.414062 C 153.085938 147.371094 153.042969 147.332031 153.003906 147.316406 L 153.003906 147.273438 C 153.003906 147.234375 153.003906 147.195312 153.042969 147.195312 C 153.042969 147.195312 153.066406 147.214844 153.085938 147.214844 C 153.144531 147.234375 153.222656 147.253906 153.222656 147.371094 L 153.222656 147.746094 C 153.222656 147.863281 153.28125 147.980469 153.300781 148.101562 C 153.320312 148.671875 153.675781 149.0625 154.085938 149.417969 C 154.105469 149.433594 154.164062 149.433594 154.183594 149.457031 C 154.222656 149.476562 154.261719 149.496094 154.304688 149.496094 C 154.558594 149.496094 155.34375 148.847656 155.523438 148.671875 C 155.597656 148.609375 155.5625 148.511719 155.621094 148.453125 C 155.679688 148.414062 155.757812 148.355469 155.816406 148.296875 C 155.835938 148.277344 155.835938 148.238281 155.816406 148.238281 L 155.757812 148.238281 C 155.402344 148.472656 155.070312 148.707031 154.695312 148.886719 C 154.578125 148.945312 154.460938 148.964844 154.34375 148.964844 C 154.28125 148.964844 154.222656 148.964844 154.164062 148.945312 C 153.988281 148.707031 153.910156 148.414062 153.910156 148.117188 C 153.910156 147.097656 154.417969 144.917969 154.832031 144.089844 C 154.972656 143.855469 154.992188 143.601562 154.949219 143.34375 C 154.851562 143.285156 154.753906 143.226562 154.65625 143.226562 C 154.597656 143.226562 154.539062 143.246094 154.480469 143.285156 C 154.460938 143.304688 154.417969 143.304688 154.402344 143.304688 C 154.363281 143.304688 154.34375 143.304688 154.304688 143.285156 C 154.027344 143.148438 153.753906 143.148438 153.457031 143.148438 C 152.988281 143.167969 152.574219 143.285156 152.199219 143.601562 C 152.042969 143.738281 151.886719 143.914062 151.6875 143.992188 C 151.667969 144.011719 151.648438 144.03125 151.648438 144.050781 C 151.589844 144.167969 151.492188 144.289062 151.394531 144.328125 C 151.238281 144.40625 151.277344 144.582031 151.136719 144.679688 C 150.726562 145.054688 150.433594 145.664062 150.195312 146.175781 C 150.15625 146.210938 150.136719 146.253906 150.117188 146.292969 C 149.761719 147.371094 149.585938 148.042969 149.585938 149.222656 C 149.585938 149.59375 149.722656 149.925781 150.019531 150.183594 L 150.15625 150.320312 C 150.214844 150.378906 150.292969 150.417969 150.394531 150.417969 C 150.492188 150.398438 150.605469 150.398438 150.707031 150.339844 C 151 150.203125 151.6875 149.75 151.847656 149.496094 C 151.886719 149.433594 152.003906 149.417969 152.042969 149.335938 C 152.101562 149.222656 152.199219 149.121094 152.277344 149.023438 C 152.21875 148.867188 152.414062 148.789062 152.4375 148.671875 C 152.457031 148.550781 152.535156 148.433594 152.59375 148.335938 C 152.632812 148.21875 152.691406 148.117188 152.769531 148.003906 C 152.808594 147.921875 152.867188 147.863281 152.847656 147.765625 C 152.988281 147.707031 153.027344 147.550781 153.066406 147.414062 Z M 150.433594 149.910156 C 150.410156 149.925781 150.371094 149.925781 150.332031 149.949219 C 150.292969 149.910156 150.253906 149.886719 150.253906 149.867188 C 150.214844 149.828125 150.214844 149.769531 150.214844 149.730469 C 150.214844 149.59375 150.214844 149.457031 150.15625 149.320312 C 150.136719 149.277344 150.136719 149.222656 150.15625 149.160156 C 150.234375 148.886719 150.234375 148.609375 150.273438 148.316406 C 150.3125 148.21875 150.332031 148.101562 150.351562 148.003906 C 150.46875 147.648438 150.53125 147.273438 150.6875 146.941406 C 150.785156 146.726562 150.84375 146.507812 150.941406 146.3125 C 150.980469 146.234375 151.039062 146.175781 151.082031 146.097656 C 151.160156 145.917969 151.296875 145.78125 151.335938 145.605469 C 151.355469 145.585938 151.355469 145.546875 151.375 145.523438 C 151.570312 145.386719 151.667969 145.171875 151.867188 145.015625 C 152.023438 144.878906 152.160156 144.679688 152.339844 144.542969 C 152.632812 144.328125 152.90625 144.109375 153.261719 143.972656 C 153.457031 143.894531 153.632812 143.777344 153.792969 143.617188 C 153.851562 143.578125 153.871094 143.558594 153.910156 143.558594 C 153.949219 143.558594 153.96875 143.578125 154.007812 143.617188 C 154.125 143.71875 154.144531 143.777344 154.085938 143.914062 C 153.988281 144.148438 153.871094 144.386719 153.8125 144.640625 C 153.773438 144.917969 153.554688 145.585938 153.417969 145.839844 C 153.242188 146.234375 153.042969 146.628906 152.847656 147.039062 C 152.75 147.292969 152.574219 147.527344 152.414062 147.765625 C 152.300781 148.003906 152.140625 148.21875 152.023438 148.453125 C 151.628906 149.082031 151.039062 149.515625 150.433594 149.910156 Z M 152.847656 147.550781 C 152.867188 147.527344 152.867188 147.511719 152.867188 147.492188 L 152.90625 147.527344 C 152.90625 147.550781 152.886719 147.570312 152.867188 147.589844 C 152.867188 147.570312 152.847656 147.570312 152.847656 147.550781 Z M 150.605469 145.683594 L 150.628906 145.683594 L 150.628906 145.703125 Z M 153.203125 146.902344 L 153.183594 146.902344 L 153.183594 146.882812 Z M 150.550781 145.820312 L 150.550781 145.839844 L 150.53125 145.839844 Z M 152.496094 148.199219 L 152.496094 148.160156 Z M 152.496094 148.199219 "/>
<path style=" stroke:none;fill-rule:nonzero;fill:rgb(100%,34.117647%,34.117647%);fill-opacity:1;" d="M 156.898438 145.742188 C 157.152344 145.917969 157.445312 146.054688 157.742188 146.210938 C 157.660156 146.292969 157.625 146.332031 157.601562 146.390625 C 157.585938 146.488281 157.542969 146.585938 157.386719 146.605469 C 157.289062 146.605469 157.25 146.664062 157.191406 146.703125 C 157.191406 146.742188 157.152344 146.800781 157.132812 146.800781 C 157.09375 146.800781 157.054688 146.785156 157.035156 146.785156 C 156.914062 146.785156 156.875 146.863281 156.835938 146.941406 C 156.855469 146.980469 156.835938 147 156.796875 147 C 156.621094 147.058594 156.523438 147.175781 156.421875 147.273438 C 156.34375 147.316406 156.285156 147.355469 156.246094 147.390625 C 155.914062 147.527344 155.65625 147.707031 155.539062 148.003906 C 155.402344 148.179688 155.363281 148.375 155.203125 148.589844 C 155.148438 148.707031 155.164062 148.828125 155.1875 148.945312 C 155.285156 149.359375 155.460938 149.710938 155.777344 150.007812 C 155.953125 150.28125 156.308594 150.378906 156.601562 150.417969 C 156.796875 150.417969 157.011719 150.378906 157.152344 150.320312 C 157.445312 150.222656 157.742188 150.105469 157.917969 149.867188 C 157.957031 149.828125 158.015625 149.789062 158.09375 149.730469 C 158.507812 149.433594 158.644531 149.378906 158.839844 149.023438 C 158.902344 148.886719 159 148.769531 159.078125 148.671875 C 159.117188 148.609375 159.117188 148.550781 159.15625 148.472656 C 159.351562 148.179688 159.390625 147.84375 159.46875 147.492188 L 159.46875 147.390625 C 159.449219 147.136719 159.234375 146.863281 159.136719 146.628906 C 159.097656 146.46875 158.960938 146.351562 158.839844 146.253906 C 158.761719 146.175781 158.78125 146.136719 158.839844 146.097656 C 158.878906 146.054688 158.878906 146.039062 158.941406 146.015625 C 159.3125 145.839844 161.121094 145.425781 161.511719 145.328125 C 161.609375 145.308594 161.710938 145.269531 161.789062 145.230469 C 161.847656 145.210938 161.847656 145.191406 161.847656 145.171875 C 161.808594 145.132812 161.75 145.09375 161.691406 145.09375 L 161.609375 145.09375 C 161.414062 145.210938 161.179688 145.210938 160.984375 145.289062 C 160.808594 145.367188 159.214844 145.703125 159 145.78125 C 158.902344 145.800781 158.820312 145.839844 158.722656 145.898438 C 158.644531 145.9375 158.566406 145.957031 158.488281 145.957031 C 158.386719 145.957031 158.289062 145.917969 158.191406 145.859375 C 157.976562 145.78125 157.683594 145.605469 157.503906 145.464844 C 157.289062 145.328125 157.25 145.152344 157.328125 144.996094 C 157.425781 144.859375 157.542969 144.722656 157.640625 144.542969 C 157.699219 144.367188 157.839844 144.246094 158.074219 144.167969 C 158.191406 144.132812 158.328125 144.050781 158.410156 143.972656 C 158.644531 143.816406 158.839844 143.71875 159.117188 143.679688 C 159.449219 143.660156 159.667969 143.542969 159.902344 143.441406 C 160 143.421875 160.316406 143.363281 160.375 143.363281 C 160.433594 143.363281 160.53125 143.363281 160.570312 143.34375 C 160.710938 143.304688 160.765625 143.265625 160.765625 143.1875 C 160.765625 143.089844 160.648438 143.027344 160.570312 142.988281 C 160.394531 142.929688 160.257812 142.871094 160.078125 142.871094 C 159.921875 142.871094 159.785156 142.851562 159.628906 142.832031 C 159.273438 142.773438 159.097656 142.734375 158.960938 142.734375 C 158.839844 142.734375 158.742188 142.773438 158.546875 142.816406 C 158.386719 142.851562 158.191406 142.953125 158.035156 143.011719 C 157.425781 143.285156 156.972656 143.699219 156.679688 144.230469 C 156.542969 144.40625 156.480469 144.679688 156.421875 144.894531 C 156.40625 144.957031 156.421875 145.015625 156.480469 145.074219 C 156.582031 145.191406 156.699219 145.308594 156.699219 145.484375 C 156.699219 145.585938 156.816406 145.664062 156.898438 145.742188 Z M 158.386719 146.664062 C 158.449219 146.726562 158.449219 146.785156 158.46875 146.839844 C 158.527344 147.234375 158.46875 147.589844 158.273438 147.921875 C 157.878906 148.609375 157.25 149.320312 156.503906 149.613281 C 156.421875 149.632812 156.34375 149.671875 156.246094 149.671875 C 156.207031 149.671875 156.167969 149.671875 156.128906 149.671875 C 156.050781 149.671875 155.972656 149.671875 155.855469 149.613281 C 155.753906 149.535156 155.753906 149.398438 155.65625 149.277344 C 155.65625 149.277344 155.65625 149.261719 155.636719 149.238281 C 155.753906 149.003906 155.65625 148.746094 155.753906 148.472656 C 155.914062 148.003906 156.34375 147.429688 156.816406 147.234375 C 156.855469 147.195312 156.914062 147.15625 157.011719 147.117188 C 157.230469 147.039062 157.40625 146.902344 157.601562 146.765625 C 157.722656 146.664062 157.9375 146.605469 158.074219 146.507812 C 158.09375 146.507812 158.113281 146.488281 158.132812 146.488281 C 158.230469 146.488281 158.351562 146.566406 158.386719 146.664062 Z M 157.523438 149.417969 C 157.503906 149.417969 157.464844 149.417969 157.503906 149.378906 C 157.503906 149.378906 157.425781 149.359375 157.445312 149.335938 C 157.523438 149.101562 157.722656 148.945312 157.917969 148.808594 C 157.957031 148.789062 157.878906 148.808594 157.957031 148.828125 C 157.957031 148.828125 158.015625 148.886719 157.976562 148.886719 C 157.839844 149.042969 157.699219 149.222656 157.523438 149.417969 Z M 158.214844 148.535156 C 158.171875 148.589844 158.152344 148.648438 158.074219 148.691406 L 158.015625 148.691406 L 157.996094 148.671875 C 158.015625 148.609375 158.035156 148.535156 158.074219 148.433594 C 158.09375 148.394531 158.214844 148.355469 158.214844 148.394531 C 158.25 148.433594 158.25 148.453125 158.214844 148.535156 Z M 156.875 149.828125 C 156.855469 149.828125 156.835938 149.828125 156.816406 149.808594 C 156.816406 149.710938 156.898438 149.671875 157.054688 149.671875 C 157.070312 149.808594 157.070312 149.808594 156.875 149.828125 Z M 158.386719 148.238281 C 158.371094 148.257812 158.351562 148.277344 158.328125 148.277344 C 158.3125 148.277344 158.3125 148.257812 158.273438 148.257812 C 158.3125 148.238281 158.328125 148.199219 158.328125 148.179688 L 158.371094 148.179688 C 158.386719 148.199219 158.386719 148.238281 158.386719 148.238281 Z M 156.640625 149.867188 C 156.660156 149.851562 156.660156 149.828125 156.660156 149.828125 L 156.796875 149.828125 C 156.796875 149.851562 156.796875 149.867188 156.757812 149.867188 Z M 157.347656 149.398438 L 157.367188 149.417969 L 157.347656 149.417969 Z M 156.914062 150.085938 L 156.898438 150.085938 L 156.898438 150.066406 Z M 156.914062 150.085938 "/>
<path style=" stroke:none;fill-rule:nonzero;fill:rgb(100%,100%,100%);fill-opacity:1;" d="M 54.152344 136.828125 L 63.777344 136.828125 L 63.777344 142.4375 L 45.019531 142.4375 L 44.984375 137.835938 L 53.636719 128.902344 C 54.257812 128.28125 54.757812 127.652344 55.136719 127.019531 C 55.519531 126.386719 55.710938 125.839844 55.710938 125.378906 C 55.710938 124.824219 55.519531 124.402344 55.136719 124.113281 C 54.757812 123.824219 54.222656 123.679688 53.527344 123.679688 C 52.582031 123.679688 51.527344 123.949219 50.359375 124.496094 C 49.199219 125.035156 48.03125 125.789062 46.851562 126.761719 L 44.152344 121.570312 C 47.753906 119.097656 51.234375 117.863281 54.601562 117.863281 C 56.261719 117.863281 57.746094 118.132812 59.042969 118.679688 C 60.347656 119.222656 61.378906 119.976562 62.128906 120.945312 C 62.878906 121.910156 63.253906 123.03125 63.253906 124.304688 C 63.253906 125.570312 62.84375 126.867188 62.027344 128.195312 C 61.210938 129.523438 60.039062 130.949219 58.511719 132.46875 Z M 54.152344 136.828125 "/>
</g>
</svg>
