<?xml version="1.0" encoding="UTF-8"?>
<svg xmlns="http://www.w3.org/2000/svg" xmlns:xlink="http://www.w3.org/1999/xlink" width="50px" height="50px" viewBox="0 0 50 50" version="1.1">
<defs>
<clipPath id="clip1">
  <path d="M 20.132812 11.761719 L 30.339844 11.761719 L 30.339844 26.132812 L 20.132812 26.132812 Z M 20.132812 11.761719 "/>
</clipPath>
</defs>
<g id="surface1">
<rect x="0" y="0" width="50" height="50" style="fill:rgb(0%,0%,0%);fill-opacity:1;stroke:none;"/>
<g clip-path="url(#clip1)" clip-rule="nonzero">
<path style=" stroke:none;fill-rule:nonzero;fill:rgb(100%,34.117647%,34.117647%);fill-opacity:1;" d="M 24.214844 26.125 C 24.445312 26.109375 24.675781 26.0625 24.890625 25.980469 C 23.457031 25.667969 23.070312 24.074219 23.386719 22.789062 C 23.558594 22.070312 24.015625 21.433594 24.460938 20.875 C 25.109375 20.0625 25.300781 19.191406 25.527344 18.210938 C 25.421875 18.929688 25.515625 19.671875 25.910156 20.292969 C 26.179688 20.71875 26.558594 21.0625 26.859375 21.464844 C 27.417969 22.222656 27.613281 23.152344 27.554688 24.089844 C 27.460938 25.542969 26.5 26.011719 26.242188 25.914062 C 27.414062 26.351562 30.28125 25.433594 30.324219 22.386719 C 30.335938 21.472656 30.160156 20.113281 29.558594 19.433594 C 29.800781 19.902344 29.578125 21.210938 29.035156 21.480469 C 29.070312 20.132812 28.582031 19.300781 28.140625 18.355469 C 27.710938 17.433594 27.425781 16.371094 27.835938 15.394531 C 27.578125 15.601562 27.488281 16.019531 27.332031 16.304688 C 27.121094 16.6875 26.890625 17.058594 26.636719 17.414062 C 26.8125 15.4375 26.28125 13.410156 25.164062 11.773438 C 25.53125 12.308594 25.527344 13.023438 25.339844 13.640625 C 25.152344 14.261719 24.804688 14.816406 24.503906 15.390625 C 24.203125 15.964844 23.917969 16.464844 23.9375 17.109375 C 23.710938 16.160156 23.769531 15.144531 24.109375 14.230469 C 23.175781 14.839844 23.015625 16.121094 22.996094 17.230469 C 22.976562 18.34375 22.945312 19.597656 22.125 20.355469 C 22.324219 19.203125 22.371094 18.203125 21.882812 17.820312 C 21.988281 18.675781 21.652344 19.460938 21.074219 20.105469 C 19.636719 21.722656 20.105469 24.085938 21.222656 25.175781 C 21.902344 25.84375 23.179688 26.195312 24.214844 26.125 "/>
</g>
<path style=" stroke:none;fill-rule:nonzero;fill:rgb(100%,100%,100%);fill-opacity:1;" d="M 21.84375 29.585938 L 23.636719 29.585938 L 21.453125 33.738281 L 21.453125 35.660156 L 19.648438 35.660156 L 19.648438 33.773438 L 17.425781 29.585938 L 19.226562 29.585938 L 20.550781 32.0625 Z M 21.84375 29.585938 "/>
<path style=" stroke:none;fill-rule:nonzero;fill:rgb(100%,100%,100%);fill-opacity:1;" d="M 27.53125 29.472656 C 28.15625 29.472656 28.722656 29.609375 29.226562 29.882812 C 29.730469 30.152344 30.128906 30.527344 30.414062 31.003906 C 30.699219 31.480469 30.84375 32.015625 30.84375 32.609375 C 30.84375 33.210938 30.699219 33.753906 30.414062 34.234375 C 30.128906 34.714844 29.730469 35.09375 29.226562 35.371094 C 28.722656 35.644531 28.15625 35.78125 27.53125 35.78125 C 26.902344 35.78125 26.335938 35.644531 25.835938 35.371094 C 25.332031 35.09375 24.941406 34.714844 24.652344 34.234375 C 24.367188 33.753906 24.226562 33.210938 24.226562 32.609375 C 24.226562 32.015625 24.367188 31.480469 24.652344 31.003906 C 24.941406 30.527344 25.332031 30.152344 25.835938 29.882812 C 26.335938 29.609375 26.902344 29.472656 27.53125 29.472656 Z M 27.558594 30.972656 C 27.292969 30.972656 27.046875 31.046875 26.820312 31.191406 C 26.589844 31.332031 26.410156 31.53125 26.273438 31.78125 C 26.136719 32.035156 26.070312 32.3125 26.070312 32.621094 C 26.070312 32.925781 26.136719 33.207031 26.273438 33.460938 C 26.410156 33.714844 26.589844 33.914062 26.820312 34.0625 C 27.046875 34.207031 27.292969 34.28125 27.558594 34.28125 C 27.820312 34.28125 28.0625 34.207031 28.28125 34.0625 C 28.503906 33.914062 28.679688 33.714844 28.804688 33.464844 C 28.933594 33.210938 28.996094 32.929688 28.996094 32.621094 C 28.996094 32.3125 28.933594 32.035156 28.804688 31.78125 C 28.679688 31.53125 28.507812 31.332031 28.289062 31.191406 C 28.066406 31.046875 27.824219 30.972656 27.558594 30.972656 Z M 27.558594 30.972656 "/>
<path style=" stroke:none;fill-rule:nonzero;fill:rgb(100%,100%,100%);fill-opacity:1;" d="M 33.710938 33.148438 C 33.710938 33.488281 33.808594 33.761719 34.003906 33.972656 C 34.199219 34.179688 34.445312 34.28125 34.742188 34.28125 C 35.027344 34.28125 35.265625 34.179688 35.449219 33.976562 C 35.636719 33.769531 35.726562 33.496094 35.726562 33.148438 L 35.726562 29.585938 L 37.53125 29.585938 L 37.53125 33.148438 C 37.53125 33.679688 37.417969 34.144531 37.1875 34.539062 C 36.960938 34.933594 36.636719 35.238281 36.214844 35.457031 C 35.792969 35.671875 35.300781 35.78125 34.742188 35.78125 C 34.175781 35.78125 33.679688 35.671875 33.25 35.457031 C 32.824219 35.238281 32.492188 34.933594 32.257812 34.539062 C 32.027344 34.144531 31.910156 33.679688 31.910156 33.148438 L 31.910156 29.585938 L 33.710938 29.585938 Z M 33.710938 33.148438 "/>
<path style=" stroke:none;fill-rule:nonzero;fill:rgb(100%,34.117647%,34.117647%);fill-opacity:1;" d="M 35.046875 37.417969 C 35.074219 37.394531 35.109375 37.375 35.132812 37.347656 C 35.367188 37.171875 35.574219 36.945312 35.78125 36.660156 C 35.789062 36.636719 35.835938 36.523438 35.816406 36.523438 C 35.804688 36.523438 35.796875 36.527344 35.777344 36.554688 C 35.625 36.71875 35.421875 36.980469 35.269531 37.125 C 35.171875 37.222656 34.96875 37.34375 34.84375 37.394531 C 34.804688 37.410156 34.761719 37.421875 34.722656 37.449219 C 34.679688 37.46875 34.636719 37.46875 34.589844 37.480469 C 34.570312 37.488281 34.550781 37.488281 34.53125 37.488281 C 34.5 37.488281 34.457031 37.480469 34.425781 37.46875 C 34.410156 37.460938 34.398438 37.449219 34.394531 37.433594 C 34.375 37.363281 34.367188 37.289062 34.355469 37.222656 C 34.351562 37.203125 34.359375 37.183594 34.359375 37.167969 C 34.367188 37.152344 34.371094 37.132812 34.371094 37.117188 C 34.371094 37.070312 34.386719 37.023438 34.398438 36.976562 C 34.480469 36.699219 34.613281 36.371094 34.816406 36.164062 C 34.847656 36.128906 34.886719 36.101562 34.910156 36.0625 C 34.980469 35.964844 35.082031 35.875 35.179688 35.8125 C 35.1875 35.816406 35.199219 35.820312 35.210938 35.824219 C 35.222656 35.824219 35.230469 35.832031 35.234375 35.835938 C 35.265625 35.859375 35.269531 35.894531 35.265625 35.929688 C 35.25 35.988281 35.210938 36.03125 35.179688 36.082031 C 35.167969 36.097656 35.15625 36.113281 35.148438 36.125 C 35.128906 36.15625 35.136719 36.183594 35.171875 36.183594 C 35.179688 36.183594 35.191406 36.183594 35.199219 36.183594 C 35.222656 36.183594 35.238281 36.183594 35.253906 36.183594 C 35.28125 36.191406 35.300781 36.175781 35.3125 36.160156 C 35.351562 36.125 35.371094 36.078125 35.394531 36.03125 C 35.453125 35.90625 35.371094 35.765625 35.25 35.734375 C 35.222656 35.726562 35.191406 35.71875 35.160156 35.71875 C 35.140625 35.71875 35.128906 35.71875 35.109375 35.726562 C 35.097656 35.734375 35.089844 35.734375 35.078125 35.734375 C 35.066406 35.734375 35.058594 35.734375 35.046875 35.734375 C 35.015625 35.738281 34.980469 35.746094 34.957031 35.765625 C 34.808594 35.867188 34.601562 36.097656 34.523438 36.257812 C 34.410156 36.457031 34.320312 36.65625 34.261719 36.871094 C 34.242188 36.964844 34.21875 37.058594 34.21875 37.15625 C 34.21875 37.289062 34.253906 37.359375 34.308594 37.472656 C 34.351562 37.566406 34.433594 37.601562 34.523438 37.632812 C 34.53125 37.640625 34.542969 37.632812 34.550781 37.640625 C 34.621094 37.640625 34.695312 37.628906 34.753906 37.589844 C 34.761719 37.585938 34.773438 37.585938 34.785156 37.582031 C 34.832031 37.566406 34.875 37.550781 34.90625 37.507812 C 34.925781 37.488281 34.945312 37.476562 34.964844 37.460938 C 34.996094 37.441406 35.023438 37.4375 35.046875 37.417969 Z M 34.519531 36.347656 C 34.523438 36.335938 34.527344 36.332031 34.53125 36.324219 C 34.539062 36.332031 34.539062 36.34375 34.539062 36.351562 C 34.539062 36.363281 34.53125 36.367188 34.523438 36.371094 L 34.519531 36.371094 C 34.507812 36.363281 34.511719 36.351562 34.519531 36.347656 Z M 34.429688 36.542969 C 34.429688 36.527344 34.425781 36.515625 34.445312 36.507812 C 34.445312 36.523438 34.445312 36.539062 34.429688 36.542969 Z M 34.375 36.636719 C 34.375 36.628906 34.378906 36.621094 34.390625 36.621094 C 34.390625 36.632812 34.390625 36.636719 34.386719 36.640625 C 34.386719 36.648438 34.386719 36.648438 34.378906 36.652344 C 34.378906 36.648438 34.375 36.640625 34.375 36.636719 Z M 34.484375 36.449219 C 34.480469 36.460938 34.472656 36.464844 34.46875 36.464844 L 34.46875 36.445312 C 34.46875 36.441406 34.472656 36.441406 34.472656 36.433594 C 34.480469 36.441406 34.484375 36.445312 34.484375 36.449219 Z M 34.347656 36.738281 C 34.347656 36.746094 34.347656 36.75 34.351562 36.753906 L 34.339844 36.765625 C 34.339844 36.761719 34.339844 36.753906 34.335938 36.746094 C 34.335938 36.746094 34.339844 36.746094 34.347656 36.738281 Z M 34.359375 36.6875 C 34.367188 36.691406 34.367188 36.695312 34.371094 36.699219 C 34.367188 36.699219 34.367188 36.707031 34.359375 36.707031 C 34.359375 36.699219 34.355469 36.695312 34.355469 36.691406 Z M 34.550781 36.292969 C 34.546875 36.285156 34.550781 36.285156 34.558594 36.285156 C 34.558594 36.289062 34.558594 36.289062 34.550781 36.292969 Z M 34.492188 36.394531 L 34.5 36.40625 L 34.492188 36.40625 Z M 34.492188 36.394531 "/>
<path style=" stroke:none;fill-rule:nonzero;fill:rgb(100%,34.117647%,34.117647%);fill-opacity:1;" d="M 36.371094 36.980469 C 36.375 36.976562 36.378906 36.972656 36.386719 36.964844 C 36.394531 36.953125 36.394531 36.921875 36.386719 36.933594 C 36.378906 36.9375 36.371094 36.945312 36.363281 36.957031 C 36.363281 36.960938 36.371094 36.972656 36.371094 36.976562 C 36.316406 36.984375 36.316406 37.039062 36.292969 37.054688 C 36.28125 37.054688 36.277344 37.058594 36.277344 37.066406 C 36.28125 37.066406 36.285156 37.058594 36.292969 37.058594 C 36.285156 37.066406 36.28125 37.074219 36.277344 37.078125 C 36.277344 37.078125 36.277344 37.074219 36.277344 37.070312 L 36.261719 37.082031 C 36.261719 37.082031 36.261719 37.089844 36.265625 37.09375 C 36.207031 37.183594 36.015625 37.402344 35.921875 37.421875 C 35.910156 37.441406 35.863281 37.375 35.835938 37.375 C 35.828125 37.363281 35.828125 37.355469 35.820312 37.347656 C 35.796875 37.304688 35.789062 37.261719 35.800781 37.214844 C 35.800781 37.191406 35.800781 37.164062 35.804688 37.144531 C 35.808594 37.078125 35.804688 37.015625 35.828125 36.953125 C 35.835938 36.941406 35.835938 36.933594 35.824219 36.921875 C 35.820312 36.910156 35.820312 36.902344 35.824219 36.890625 C 35.847656 36.863281 35.847656 36.8125 35.855469 36.773438 C 35.863281 36.730469 35.859375 36.6875 35.886719 36.652344 C 35.878906 36.601562 35.914062 36.574219 35.921875 36.523438 C 35.933594 36.476562 35.96875 36.332031 35.988281 36.289062 C 36.066406 36.121094 36.140625 35.945312 36.171875 35.761719 C 36.179688 35.714844 36.144531 35.648438 36.101562 35.625 C 36.089844 35.625 36.082031 35.621094 36.070312 35.621094 L 36.015625 35.621094 C 36.007812 35.621094 35.996094 35.625 35.988281 35.628906 C 35.9375 35.707031 35.910156 35.792969 35.878906 35.878906 C 35.859375 35.949219 35.839844 36.023438 35.816406 36.089844 C 35.804688 36.125 35.789062 36.152344 35.78125 36.183594 C 35.742188 36.316406 35.707031 36.449219 35.667969 36.578125 C 35.65625 36.636719 35.636719 36.6875 35.632812 36.734375 C 35.628906 36.828125 35.613281 36.921875 35.605469 37.015625 C 35.597656 37.082031 35.59375 37.152344 35.613281 37.226562 C 35.617188 37.238281 35.617188 37.25 35.625 37.265625 C 35.628906 37.304688 35.648438 37.339844 35.671875 37.367188 C 35.703125 37.402344 35.730469 37.441406 35.761719 37.476562 C 35.785156 37.511719 35.820312 37.535156 35.863281 37.550781 C 35.878906 37.558594 35.898438 37.558594 35.917969 37.558594 C 36 37.558594 36.113281 37.5 36.167969 37.429688 C 36.203125 37.398438 36.191406 37.386719 36.222656 37.347656 C 36.253906 37.320312 36.292969 37.214844 36.277344 37.167969 C 36.277344 37.15625 36.273438 37.148438 36.28125 37.148438 C 36.292969 37.152344 36.296875 37.164062 36.304688 37.167969 C 36.316406 37.152344 36.300781 37.132812 36.304688 37.117188 C 36.3125 37.097656 36.320312 37.082031 36.332031 37.066406 C 36.339844 37.039062 36.363281 37.011719 36.363281 36.980469 Z M 36.113281 35.238281 C 36.144531 35.261719 36.183594 35.269531 36.222656 35.289062 C 36.242188 35.28125 36.265625 35.269531 36.292969 35.261719 C 36.304688 35.257812 36.3125 35.242188 36.3125 35.230469 C 36.324219 35.183594 36.316406 35.136719 36.335938 35.09375 C 36.339844 35.089844 36.335938 35.085938 36.332031 35.078125 C 36.320312 35.070312 36.300781 35.058594 36.285156 35.058594 C 36.28125 35.058594 36.277344 35.058594 36.273438 35.066406 C 36.226562 35.09375 36.179688 35.128906 36.140625 35.164062 C 36.125 35.171875 36.113281 35.1875 36.105469 35.203125 C 36.101562 35.210938 36.105469 35.230469 36.113281 35.238281 Z M 36.277344 37.078125 C 36.277344 37.082031 36.277344 37.089844 36.277344 37.089844 C 36.277344 37.09375 36.273438 37.09375 36.273438 37.097656 C 36.273438 37.089844 36.273438 37.082031 36.277344 37.078125 Z M 36.277344 37.078125 "/>
<path style=" stroke:none;fill-rule:nonzero;fill:rgb(100%,34.117647%,34.117647%);fill-opacity:1;" d="M 37.488281 34.058594 C 37.484375 34.050781 37.480469 34.050781 37.476562 34.050781 C 37.476562 34.058594 37.480469 34.0625 37.480469 34.0625 C 37.484375 34.0625 37.488281 34.058594 37.488281 34.058594 Z M 37.296875 34.652344 C 37.292969 34.671875 37.292969 34.683594 37.285156 34.683594 C 37.277344 34.683594 37.273438 34.683594 37.269531 34.675781 C 37.265625 34.675781 37.257812 34.671875 37.253906 34.671875 C 37.328125 34.46875 37.398438 34.316406 37.476562 34.164062 C 37.488281 34.136719 37.503906 34.121094 37.507812 34.09375 C 37.519531 34.058594 37.535156 34.027344 37.539062 33.992188 C 37.542969 33.972656 37.542969 33.953125 37.539062 33.941406 C 37.53125 33.90625 37.507812 33.875 37.496094 33.847656 C 37.484375 33.828125 37.417969 33.808594 37.402344 33.8125 C 37.398438 33.8125 37.398438 33.8125 37.390625 33.816406 C 37.316406 33.867188 37.292969 33.945312 37.265625 34.027344 C 37.214844 34.171875 37.175781 34.230469 37.132812 34.378906 C 37.125 34.394531 37.113281 34.417969 37.105469 34.4375 L 37.054688 34.621094 L 37.054688 34.632812 C 37.0625 34.632812 37.074219 34.621094 37.074219 34.613281 C 37.074219 34.59375 37.082031 34.574219 37.097656 34.554688 C 37.101562 34.542969 37.113281 34.539062 37.117188 34.539062 C 37.125 34.539062 37.136719 34.542969 37.144531 34.554688 L 37.117188 34.632812 C 37.097656 34.636719 37.074219 34.636719 37.054688 34.636719 L 37.054688 34.632812 C 37.046875 34.636719 37.046875 34.636719 37.042969 34.636719 C 37.003906 34.640625 36.964844 34.648438 36.929688 34.648438 C 36.910156 34.648438 36.890625 34.648438 36.875 34.652344 C 36.839844 34.660156 36.820312 34.660156 36.789062 34.660156 C 36.710938 34.660156 36.625 34.683594 36.550781 34.6875 C 36.515625 34.6875 36.488281 34.691406 36.457031 34.691406 C 36.449219 34.691406 36.445312 34.691406 36.433594 34.691406 L 36.390625 34.699219 C 36.363281 34.699219 36.355469 34.726562 36.34375 34.761719 C 36.335938 34.789062 36.339844 34.832031 36.351562 34.871094 C 36.351562 34.902344 36.371094 34.925781 36.390625 34.921875 C 36.394531 34.921875 36.40625 34.917969 36.414062 34.921875 C 36.484375 34.90625 36.542969 34.886719 36.601562 34.886719 C 36.609375 34.886719 36.617188 34.886719 36.621094 34.886719 C 36.65625 34.882812 36.6875 34.878906 36.722656 34.878906 C 36.742188 34.878906 36.773438 34.871094 36.796875 34.867188 C 36.808594 34.867188 36.8125 34.867188 36.816406 34.863281 C 36.8125 34.855469 36.808594 34.839844 36.796875 34.832031 C 36.808594 34.824219 36.816406 34.824219 36.828125 34.824219 C 36.859375 34.820312 36.894531 34.824219 36.929688 34.808594 C 36.945312 34.808594 36.964844 34.808594 36.984375 34.804688 L 36.984375 34.820312 C 36.984375 34.824219 36.984375 34.828125 36.980469 34.832031 C 36.972656 34.84375 36.96875 34.847656 36.972656 34.855469 C 36.929688 34.972656 36.769531 35.378906 36.777344 35.417969 C 36.800781 35.410156 36.988281 34.898438 36.992188 34.882812 L 36.992188 34.863281 C 37.019531 34.863281 37.023438 34.847656 37.003906 34.828125 C 37.003906 34.820312 37.007812 34.808594 37.011719 34.800781 C 37.019531 34.800781 37.027344 34.800781 37.039062 34.792969 C 37.046875 34.789062 37.058594 34.789062 37.074219 34.789062 C 37.066406 34.800781 37.0625 34.804688 37.0625 34.808594 C 37.058594 34.8125 37.058594 34.820312 37.058594 34.824219 L 37.058594 34.828125 C 37.054688 34.828125 37.054688 34.828125 37.046875 34.828125 C 37.03125 34.828125 37.019531 34.84375 37.054688 34.855469 C 37.019531 34.976562 36.847656 35.414062 36.835938 35.460938 C 36.8125 35.542969 36.796875 35.621094 36.769531 35.695312 C 36.742188 35.773438 36.636719 36.171875 36.589844 36.242188 C 36.585938 36.253906 36.585938 36.273438 36.582031 36.289062 C 36.570312 36.351562 36.542969 36.410156 36.535156 36.476562 C 36.535156 36.484375 36.53125 36.488281 36.527344 36.496094 L 36.507812 36.5625 C 36.492188 36.628906 36.464844 36.679688 36.46875 36.746094 C 36.46875 36.75 36.46875 36.75 36.464844 36.753906 C 36.433594 36.808594 36.429688 36.867188 36.417969 36.925781 C 36.410156 36.980469 36.390625 37.035156 36.394531 37.089844 C 36.394531 37.097656 36.390625 37.109375 36.382812 37.117188 C 36.382812 37.113281 36.378906 37.109375 36.378906 37.109375 C 36.363281 37.011719 36.398438 36.917969 36.398438 36.820312 L 36.398438 36.8125 C 36.429688 36.769531 36.433594 36.71875 36.4375 36.667969 C 36.4375 36.621094 36.527344 36.300781 36.542969 36.253906 C 36.546875 36.238281 36.644531 35.910156 36.628906 35.875 C 36.617188 35.945312 36.503906 36.316406 36.484375 36.375 C 36.4375 36.527344 36.335938 36.859375 36.335938 37.015625 L 36.335938 37.050781 C 36.304688 37.128906 36.320312 37.210938 36.320312 37.296875 C 36.320312 37.34375 36.351562 37.453125 36.398438 37.476562 C 36.445312 37.5 36.476562 37.539062 36.515625 37.574219 C 36.53125 37.589844 36.546875 37.59375 36.5625 37.59375 C 36.578125 37.59375 36.585938 37.589844 36.601562 37.585938 L 36.738281 37.527344 C 36.796875 37.496094 36.851562 37.472656 36.898438 37.429688 C 36.894531 37.421875 36.890625 37.421875 36.890625 37.414062 L 36.90625 37.402344 L 36.90625 37.410156 C 36.90625 37.398438 36.910156 37.394531 36.921875 37.386719 C 36.941406 37.355469 36.96875 37.328125 37 37.304688 C 37.007812 37.296875 37.011719 37.296875 37.023438 37.296875 C 37.03125 37.296875 37.039062 37.296875 37.046875 37.300781 C 37.054688 37.300781 37.058594 37.304688 37.066406 37.304688 C 37.074219 37.304688 37.078125 37.300781 37.082031 37.296875 C 37.085938 37.285156 37.082031 37.28125 37.074219 37.277344 C 37.066406 37.269531 37.0625 37.265625 37.0625 37.261719 C 37.0625 37.246094 37.085938 37.242188 37.097656 37.242188 C 37.097656 37.242188 37.101562 37.242188 37.105469 37.242188 C 37.113281 37.246094 37.117188 37.246094 37.121094 37.246094 C 37.125 37.246094 37.132812 37.238281 37.125 37.230469 C 37.117188 37.207031 37.121094 37.195312 37.140625 37.183594 C 37.179688 37.152344 37.21875 37.117188 37.246094 37.074219 C 37.253906 37.066406 37.253906 37.054688 37.253906 37.039062 C 37.25 37.023438 37.257812 37.019531 37.273438 37.015625 C 37.285156 37.011719 37.296875 37.011719 37.308594 37.011719 C 37.34375 37.003906 37.359375 36.984375 37.359375 36.953125 C 37.371094 36.945312 37.375 36.9375 37.375 36.921875 L 37.375 36.859375 L 37.359375 36.859375 C 37.359375 36.847656 37.367188 36.84375 37.375 36.839844 L 37.375 36.859375 C 37.402344 36.851562 37.40625 36.851562 37.410156 36.824219 L 37.390625 36.824219 C 37.386719 36.832031 37.386719 36.839844 37.375 36.839844 C 37.375 36.828125 37.382812 36.824219 37.390625 36.820312 C 37.398438 36.808594 37.402344 36.808594 37.410156 36.804688 L 37.421875 36.769531 C 37.441406 36.746094 37.460938 36.71875 37.488281 36.707031 C 37.488281 36.695312 37.5 36.691406 37.507812 36.6875 C 37.503906 36.699219 37.5 36.707031 37.488281 36.710938 C 37.488281 36.734375 37.476562 36.75 37.46875 36.765625 C 37.503906 36.765625 37.523438 36.738281 37.539062 36.714844 C 37.542969 36.710938 37.539062 36.695312 37.523438 36.691406 L 37.507812 36.691406 C 37.519531 36.667969 37.539062 36.640625 37.5625 36.632812 C 37.570312 36.636719 37.5625 36.652344 37.578125 36.640625 L 37.5625 36.632812 C 37.5625 36.613281 37.574219 36.597656 37.589844 36.582031 L 37.679688 36.484375 C 37.734375 36.410156 37.789062 36.34375 37.851562 36.277344 C 37.867188 36.253906 37.867188 36.242188 37.859375 36.242188 C 37.851562 36.242188 37.84375 36.25 37.828125 36.261719 L 37.648438 36.464844 C 37.570312 36.5625 37.496094 36.65625 37.40625 36.738281 L 37.328125 36.824219 C 37.304688 36.863281 37.273438 36.890625 37.246094 36.921875 L 37.101562 37.066406 C 37.085938 37.078125 37.074219 37.097656 37.058594 37.109375 C 37.011719 37.132812 36.984375 37.167969 36.949219 37.203125 C 36.867188 37.28125 36.773438 37.347656 36.675781 37.414062 C 36.648438 37.433594 36.617188 37.449219 36.585938 37.460938 C 36.582031 37.460938 36.578125 37.46875 36.566406 37.46875 C 36.546875 37.46875 36.535156 37.453125 36.527344 37.433594 C 36.511719 37.398438 36.507812 37.363281 36.507812 37.328125 L 36.507812 37.214844 C 36.507812 37.191406 36.507812 37.15625 36.511719 37.132812 C 36.527344 37.097656 36.527344 37.058594 36.527344 37.023438 C 36.527344 36.992188 36.53125 36.960938 36.542969 36.933594 C 36.550781 36.90625 36.5625 36.882812 36.5625 36.859375 L 36.582031 36.75 C 36.585938 36.707031 36.605469 36.671875 36.621094 36.636719 C 36.628906 36.605469 36.628906 36.582031 36.640625 36.554688 C 36.644531 36.527344 36.648438 36.503906 36.660156 36.484375 C 36.664062 36.46875 36.699219 36.347656 36.699219 36.332031 C 36.699219 36.3125 36.703125 36.296875 36.714844 36.277344 C 36.722656 36.257812 36.832031 35.925781 36.835938 35.898438 C 36.851562 35.835938 36.871094 35.773438 36.890625 35.714844 C 36.925781 35.59375 37.144531 35 37.1875 34.882812 L 37.230469 34.753906 C 37.246094 34.761719 37.253906 34.761719 37.265625 34.761719 C 37.273438 34.761719 37.285156 34.761719 37.289062 34.753906 C 37.296875 34.753906 37.3125 34.746094 37.324219 34.75 C 37.328125 34.761719 37.332031 34.761719 37.335938 34.761719 C 37.347656 34.761719 37.351562 34.753906 37.359375 34.753906 C 37.363281 34.746094 37.367188 34.734375 37.371094 34.734375 C 37.375 34.734375 37.375 34.742188 37.382812 34.746094 C 37.390625 34.765625 37.390625 34.765625 37.402344 34.753906 L 37.382812 34.746094 C 37.386719 34.730469 37.398438 34.734375 37.402344 34.734375 L 37.402344 34.746094 C 37.40625 34.730469 37.40625 34.730469 37.40625 34.75 L 37.429688 34.730469 C 37.4375 34.726562 37.445312 34.722656 37.460938 34.722656 C 37.464844 34.722656 37.46875 34.722656 37.476562 34.722656 C 37.507812 34.714844 37.539062 34.710938 37.570312 34.695312 C 37.582031 34.695312 37.59375 34.683594 37.601562 34.6875 C 37.648438 34.691406 37.691406 34.65625 37.734375 34.65625 C 37.773438 34.648438 37.804688 34.628906 37.828125 34.621094 C 37.859375 34.621094 37.957031 34.589844 37.976562 34.570312 C 37.992188 34.558594 38 34.558594 38.015625 34.558594 C 38.03125 34.558594 38.050781 34.5625 38.066406 34.570312 C 38.027344 34.597656 37.980469 34.628906 37.9375 34.652344 C 37.945312 34.65625 37.953125 34.65625 37.960938 34.65625 C 37.964844 34.65625 37.976562 34.65625 37.984375 34.652344 C 38.007812 34.632812 38.027344 34.636719 38.035156 34.617188 C 38.039062 34.617188 38.046875 34.617188 38.046875 34.617188 C 38.054688 34.617188 38.117188 34.582031 38.117188 34.570312 C 38.128906 34.527344 38.113281 34.5 38.117188 34.457031 C 38.125 34.441406 38.113281 34.425781 38.105469 34.421875 C 38.097656 34.417969 38.089844 34.410156 38.085938 34.410156 C 38.078125 34.410156 38.074219 34.417969 38.070312 34.429688 C 38.054688 34.457031 38.035156 34.464844 38.019531 34.464844 C 37.996094 34.464844 37.980469 34.484375 37.960938 34.496094 C 37.953125 34.507812 37.9375 34.519531 37.921875 34.519531 C 37.917969 34.515625 37.914062 34.515625 37.90625 34.515625 C 37.894531 34.515625 37.882812 34.523438 37.867188 34.523438 C 37.863281 34.535156 37.847656 34.542969 37.835938 34.539062 C 37.828125 34.539062 37.824219 34.539062 37.820312 34.539062 C 37.804688 34.539062 37.792969 34.539062 37.789062 34.550781 C 37.78125 34.554688 37.765625 34.5625 37.753906 34.5625 C 37.75 34.5625 37.746094 34.558594 37.742188 34.558594 C 37.734375 34.550781 37.726562 34.554688 37.714844 34.5625 C 37.695312 34.578125 37.671875 34.589844 37.65625 34.582031 C 37.652344 34.578125 37.648438 34.578125 37.640625 34.578125 C 37.636719 34.578125 37.628906 34.582031 37.621094 34.589844 C 37.621094 34.601562 37.589844 34.609375 37.574219 34.609375 C 37.5625 34.609375 37.554688 34.601562 37.542969 34.597656 C 37.539062 34.601562 37.523438 34.601562 37.515625 34.617188 C 37.5 34.632812 37.480469 34.636719 37.457031 34.636719 C 37.449219 34.648438 37.441406 34.652344 37.429688 34.640625 C 37.421875 34.632812 37.410156 34.648438 37.40625 34.648438 C 37.40625 34.652344 37.402344 34.652344 37.398438 34.652344 C 37.390625 34.652344 37.382812 34.652344 37.375 34.652344 C 37.371094 34.652344 37.371094 34.652344 37.367188 34.652344 C 37.363281 34.660156 37.351562 34.660156 37.34375 34.660156 C 37.332031 34.660156 37.3125 34.65625 37.296875 34.652344 C 37.304688 34.640625 37.304688 34.628906 37.3125 34.628906 C 37.316406 34.621094 37.328125 34.617188 37.332031 34.609375 C 37.328125 34.601562 37.324219 34.601562 37.316406 34.601562 C 37.308594 34.601562 37.292969 34.609375 37.289062 34.613281 C 37.285156 34.613281 37.285156 34.613281 37.285156 34.621094 C 37.285156 34.628906 37.289062 34.636719 37.289062 34.640625 Z M 36.761719 35.429688 L 36.683594 35.683594 C 36.679688 35.699219 36.683594 35.71875 36.683594 35.738281 C 36.695312 35.738281 36.699219 35.726562 36.699219 35.71875 C 36.722656 35.648438 36.738281 35.574219 36.761719 35.507812 C 36.773438 35.476562 36.777344 35.449219 36.777344 35.417969 Z M 37.246094 36.972656 C 37.265625 36.941406 37.289062 36.917969 37.316406 36.898438 L 37.316406 36.9375 L 37.285156 36.960938 C 37.273438 36.972656 37.257812 36.972656 37.246094 36.972656 Z M 37.828125 34.582031 C 37.835938 34.578125 37.839844 34.574219 37.84375 34.574219 C 37.851562 34.574219 37.863281 34.582031 37.878906 34.589844 C 37.867188 34.597656 37.851562 34.597656 37.84375 34.601562 C 37.824219 34.601562 37.792969 34.613281 37.769531 34.613281 C 37.765625 34.613281 37.765625 34.613281 37.761719 34.613281 C 37.78125 34.589844 37.804688 34.589844 37.828125 34.582031 Z M 37.347656 34.785156 C 37.277344 34.785156 37.402344 34.804688 37.402344 34.804688 L 37.410156 34.804688 L 37.410156 34.789062 L 37.40625 34.78125 C 37.386719 34.78125 37.371094 34.78125 37.347656 34.785156 Z M 36.933594 34.855469 C 36.914062 34.84375 36.894531 34.839844 36.875 34.839844 C 36.859375 34.839844 36.851562 34.839844 36.839844 34.84375 C 36.839844 34.847656 36.835938 34.859375 36.835938 34.859375 L 36.839844 34.863281 C 36.875 34.863281 36.898438 34.859375 36.933594 34.855469 Z M 37.40625 34.601562 C 37.421875 34.609375 37.429688 34.609375 37.4375 34.609375 C 37.445312 34.609375 37.449219 34.601562 37.457031 34.589844 C 37.445312 34.582031 37.4375 34.582031 37.429688 34.582031 C 37.410156 34.582031 37.390625 34.589844 37.371094 34.59375 C 37.371094 34.59375 37.367188 34.597656 37.367188 34.601562 L 37.371094 34.609375 C 37.375 34.613281 37.382812 34.617188 37.386719 34.617188 C 37.398438 34.617188 37.402344 34.609375 37.40625 34.601562 Z M 36.683594 35.738281 C 36.660156 35.761719 36.65625 35.796875 36.648438 35.832031 C 36.644531 35.832031 36.65625 35.835938 36.65625 35.839844 C 36.683594 35.8125 36.683594 35.777344 36.683594 35.738281 Z M 37.617188 34.648438 C 37.609375 34.660156 37.597656 34.667969 37.589844 34.667969 C 37.582031 34.667969 37.574219 34.660156 37.570312 34.652344 C 37.574219 34.640625 37.582031 34.640625 37.589844 34.640625 C 37.597656 34.640625 37.601562 34.640625 37.613281 34.648438 C 37.617188 34.632812 37.628906 34.628906 37.636719 34.628906 C 37.648438 34.628906 37.652344 34.628906 37.667969 34.636719 C 37.652344 34.640625 37.636719 34.652344 37.628906 34.652344 C 37.621094 34.652344 37.621094 34.652344 37.617188 34.648438 Z M 37.695312 34.523438 C 37.710938 34.535156 37.714844 34.535156 37.726562 34.535156 C 37.742188 34.535156 37.753906 34.527344 37.773438 34.515625 L 37.773438 34.507812 C 37.734375 34.507812 37.734375 34.507812 37.695312 34.523438 Z M 37.707031 34.636719 C 37.695312 34.632812 37.691406 34.636719 37.675781 34.636719 C 37.675781 34.636719 37.671875 34.636719 37.667969 34.636719 C 37.667969 34.628906 37.671875 34.621094 37.675781 34.617188 C 37.6875 34.613281 37.695312 34.609375 37.703125 34.609375 C 37.710938 34.601562 37.722656 34.609375 37.722656 34.613281 C 37.722656 34.621094 37.710938 34.632812 37.707031 34.636719 Z M 37.101562 34.699219 C 37.09375 34.699219 37.085938 34.707031 37.078125 34.707031 C 37.066406 34.707031 37.066406 34.699219 37.066406 34.691406 C 37.0625 34.6875 37.0625 34.675781 37.066406 34.675781 C 37.074219 34.675781 37.082031 34.675781 37.085938 34.671875 L 37.113281 34.671875 Z M 37.230469 34.304688 C 37.230469 34.316406 37.226562 34.324219 37.210938 34.332031 L 37.203125 34.332031 C 37.203125 34.324219 37.199219 34.3125 37.199219 34.308594 C 37.199219 34.292969 37.203125 34.289062 37.214844 34.289062 C 37.226562 34.285156 37.234375 34.292969 37.230469 34.304688 Z M 37.507812 34.578125 C 37.5 34.574219 37.496094 34.574219 37.484375 34.574219 C 37.480469 34.574219 37.46875 34.578125 37.460938 34.589844 C 37.46875 34.597656 37.480469 34.609375 37.484375 34.601562 C 37.496094 34.597656 37.503906 34.589844 37.503906 34.578125 C 37.507812 34.578125 37.515625 34.582031 37.515625 34.570312 C 37.507812 34.574219 37.507812 34.578125 37.507812 34.578125 Z M 37.804688 34.707031 C 37.820312 34.707031 37.828125 34.699219 37.839844 34.699219 C 37.84375 34.699219 37.847656 34.6875 37.847656 34.6875 C 37.839844 34.683594 37.84375 34.683594 37.839844 34.683594 C 37.835938 34.675781 37.824219 34.675781 37.808594 34.683594 C 37.804688 34.683594 37.808594 34.691406 37.804688 34.707031 Z M 37.59375 34.554688 C 37.59375 34.5625 37.59375 34.5625 37.597656 34.570312 C 37.609375 34.5625 37.621094 34.570312 37.628906 34.554688 C 37.621094 34.550781 37.621094 34.539062 37.621094 34.539062 C 37.613281 34.539062 37.601562 34.539062 37.597656 34.550781 Z M 37.863281 34.660156 L 37.863281 34.675781 L 37.867188 34.683594 C 37.875 34.675781 37.878906 34.683594 37.886719 34.683594 C 37.886719 34.683594 37.894531 34.683594 37.898438 34.675781 L 37.898438 34.660156 Z M 37.652344 34.734375 C 37.65625 34.742188 37.664062 34.742188 37.664062 34.742188 C 37.671875 34.742188 37.691406 34.730469 37.710938 34.726562 C 37.710938 34.726562 37.710938 34.714844 37.707031 34.722656 C 37.695312 34.714844 37.675781 34.726562 37.664062 34.730469 Z M 37.457031 34.691406 C 37.460938 34.675781 37.464844 34.667969 37.46875 34.667969 C 37.46875 34.667969 37.476562 34.671875 37.480469 34.683594 C 37.484375 34.6875 37.484375 34.6875 37.484375 34.691406 C 37.46875 34.699219 37.464844 34.695312 37.457031 34.691406 Z M 37.359375 36.953125 C 37.351562 36.953125 37.347656 36.953125 37.34375 36.953125 C 37.332031 36.953125 37.324219 36.953125 37.316406 36.933594 C 37.332031 36.933594 37.351562 36.933594 37.359375 36.953125 Z M 36.890625 34.710938 C 36.886719 34.710938 36.882812 34.714844 36.871094 34.714844 C 36.859375 34.722656 36.855469 34.714844 36.855469 34.710938 C 36.859375 34.707031 36.867188 34.695312 36.871094 34.695312 C 36.882812 34.695312 36.886719 34.699219 36.890625 34.710938 Z M 37.597656 34.75 C 37.589844 34.753906 37.574219 34.746094 37.570312 34.742188 C 37.5625 34.742188 37.554688 34.742188 37.5625 34.75 C 37.5625 34.753906 37.570312 34.765625 37.574219 34.761719 C 37.578125 34.761719 37.589844 34.769531 37.597656 34.75 Z M 37.878906 34.589844 C 37.882812 34.578125 37.886719 34.570312 37.898438 34.570312 C 37.902344 34.570312 37.902344 34.570312 37.90625 34.574219 C 37.902344 34.589844 37.898438 34.59375 37.894531 34.59375 C 37.886719 34.59375 37.882812 34.589844 37.878906 34.589844 Z M 36.988281 34.699219 C 37.003906 34.691406 37.011719 34.6875 37.023438 34.6875 L 37.011719 34.699219 C 37.007812 34.707031 37 34.707031 36.988281 34.710938 Z M 37.460938 34.769531 C 37.449219 34.769531 37.441406 34.769531 37.4375 34.78125 L 37.4375 34.785156 C 37.441406 34.792969 37.445312 34.800781 37.445312 34.785156 C 37.457031 34.785156 37.457031 34.785156 37.460938 34.773438 Z M 37.515625 34.65625 C 37.519531 34.65625 37.519531 34.675781 37.519531 34.675781 L 37.519531 34.683594 L 37.503906 34.683594 L 37.503906 34.660156 C 37.503906 34.65625 37.503906 34.65625 37.507812 34.65625 Z M 36.753906 34.839844 C 36.753906 34.828125 36.757812 34.828125 36.761719 34.828125 C 36.769531 34.828125 36.773438 34.832031 36.78125 34.839844 C 36.777344 34.84375 36.773438 34.847656 36.769531 34.847656 C 36.761719 34.847656 36.757812 34.84375 36.753906 34.839844 Z M 37.550781 34.65625 C 37.554688 34.648438 37.5625 34.652344 37.570312 34.652344 C 37.5625 34.667969 37.5625 34.671875 37.558594 34.671875 C 37.558594 34.671875 37.554688 34.667969 37.550781 34.65625 Z M 37.382812 34.707031 C 37.382812 34.710938 37.371094 34.710938 37.367188 34.714844 L 37.363281 34.710938 L 37.363281 34.699219 C 37.371094 34.691406 37.375 34.695312 37.382812 34.707031 Z M 36.375 37.203125 L 36.363281 37.210938 C 36.363281 37.207031 36.359375 37.203125 36.359375 37.195312 L 36.375 37.183594 Z M 37.335938 36.878906 C 37.335938 36.867188 37.347656 36.859375 37.359375 36.859375 C 37.359375 36.867188 37.347656 36.878906 37.335938 36.878906 Z M 36.726562 34.832031 C 36.734375 34.828125 36.738281 34.832031 36.753906 34.839844 L 36.75 34.839844 C 36.742188 34.84375 36.738281 34.84375 36.726562 34.84375 Z M 37.226562 36.992188 C 37.226562 36.980469 37.234375 36.976562 37.246094 36.972656 C 37.246094 36.980469 37.234375 36.992188 37.226562 36.992188 Z M 36.90625 37.421875 C 36.914062 37.421875 36.921875 37.421875 36.921875 37.410156 L 36.90625 37.410156 Z M 37.617188 34.75 C 37.621094 34.742188 37.621094 34.734375 37.621094 34.734375 C 37.621094 34.730469 37.621094 34.734375 37.617188 34.734375 C 37.613281 34.734375 37.617188 34.75 37.617188 34.75 Z M 37.449219 36.785156 C 37.441406 36.785156 37.4375 36.792969 37.429688 36.804688 C 37.441406 36.800781 37.449219 36.792969 37.449219 36.785156 Z M 37.316406 36.898438 C 37.324219 36.886719 37.328125 36.878906 37.335938 36.878906 C 37.335938 36.886719 37.328125 36.890625 37.316406 36.898438 Z M 37.417969 36.820312 C 37.425781 36.820312 37.429688 36.8125 37.429688 36.804688 Z M 37.90625 34.574219 C 37.917969 34.558594 37.921875 34.558594 37.925781 34.574219 L 37.925781 34.570312 C 37.921875 34.578125 37.917969 34.574219 37.90625 34.574219 Z M 37.792969 34.507812 C 37.789062 34.503906 37.78125 34.5 37.773438 34.507812 C 37.78125 34.515625 37.789062 34.519531 37.792969 34.507812 Z M 37.617188 34.75 C 37.609375 34.746094 37.597656 34.734375 37.597656 34.75 C 37.601562 34.75 37.609375 34.761719 37.617188 34.75 Z M 37.269531 34.730469 C 37.273438 34.726562 37.277344 34.714844 37.285156 34.722656 C 37.285156 34.714844 37.285156 34.722656 37.289062 34.726562 L 37.285156 34.730469 C 37.277344 34.726562 37.273438 34.734375 37.269531 34.730469 Z M 37.46875 36.765625 C 37.460938 36.765625 37.457031 36.773438 37.449219 36.785156 C 37.460938 36.777344 37.464844 36.773438 37.46875 36.765625 Z M 36.78125 34.839844 C 36.78125 34.824219 36.792969 34.828125 36.796875 34.832031 C 36.792969 34.84375 36.789062 34.839844 36.78125 34.839844 Z M 36.699219 34.839844 C 36.695312 34.839844 36.699219 34.847656 36.699219 34.847656 L 36.6875 34.847656 C 36.6875 34.84375 36.6875 34.832031 36.695312 34.839844 Z M 37.941406 34.558594 C 37.9375 34.570312 37.933594 34.574219 37.933594 34.574219 C 37.933594 34.558594 37.933594 34.558594 37.941406 34.558594 Z M 37.792969 34.507812 C 37.800781 34.507812 37.804688 34.515625 37.808594 34.515625 L 37.808594 34.507812 C 37.808594 34.507812 37.808594 34.503906 37.804688 34.503906 C 37.804688 34.503906 37.800781 34.503906 37.792969 34.507812 Z M 37.542969 34.683594 C 37.539062 34.660156 37.542969 34.667969 37.550781 34.660156 C 37.550781 34.675781 37.542969 34.683594 37.542969 34.683594 Z M 37.867188 34.480469 C 37.867188 34.484375 37.878906 34.496094 37.882812 34.484375 C 37.878906 34.480469 37.878906 34.480469 37.867188 34.480469 Z M 37.121094 37.097656 C 37.113281 37.089844 37.121094 37.089844 37.125 37.089844 C 37.125 37.09375 37.125 37.09375 37.121094 37.097656 Z M 37.214844 37.003906 C 37.203125 36.996094 37.214844 36.996094 37.21875 36.996094 C 37.21875 37 37.21875 37 37.214844 37.003906 Z M 36.933594 37.398438 C 36.929688 37.398438 36.925781 37.394531 36.925781 37.394531 L 36.925781 37.402344 C 36.925781 37.398438 36.929688 37.398438 36.933594 37.398438 Z M 38.074219 34.570312 C 38.070312 34.5625 38.070312 34.558594 38.074219 34.5625 Z M 36.710938 34.832031 C 36.710938 34.84375 36.703125 34.84375 36.699219 34.84375 C 36.699219 34.839844 36.699219 34.832031 36.710938 34.832031 Z M 36.382812 37.167969 C 36.394531 37.175781 36.378906 37.175781 36.375 37.175781 C 36.378906 37.175781 36.378906 37.171875 36.382812 37.167969 Z M 37.34375 34.601562 C 37.34375 34.601562 37.335938 34.601562 37.332031 34.609375 L 37.347656 34.609375 C 37.34375 34.609375 37.34375 34.597656 37.34375 34.601562 Z M 37.425781 34.699219 C 37.425781 34.699219 37.421875 34.699219 37.417969 34.695312 C 37.421875 34.695312 37.425781 34.695312 37.425781 34.699219 Z M 37.804688 34.707031 C 37.804688 34.699219 37.800781 34.699219 37.792969 34.707031 L 37.789062 34.707031 C 37.792969 34.707031 37.792969 34.710938 37.792969 34.710938 Z M 37.640625 36.578125 C 37.632812 36.578125 37.636719 36.578125 37.636719 36.574219 L 37.640625 36.574219 Z M 37.40625 34.75 C 37.40625 34.75 37.402344 34.75 37.402344 34.746094 L 37.402344 34.753906 C 37.40625 34.761719 37.40625 34.753906 37.40625 34.75 Z M 37.503906 34.773438 C 37.503906 34.769531 37.503906 34.769531 37.5 34.769531 L 37.503906 34.78125 C 37.503906 34.78125 37.503906 34.773438 37.503906 34.773438 Z M 37.136719 37.074219 C 37.144531 37.082031 37.136719 37.082031 37.132812 37.082031 C 37.136719 37.078125 37.136719 37.078125 37.136719 37.074219 Z M 36.820312 34.855469 C 36.816406 34.855469 36.816406 34.855469 36.816406 34.863281 C 36.816406 34.863281 36.820312 34.863281 36.820312 34.855469 Z M 37.847656 34.496094 C 37.847656 34.496094 37.835938 34.484375 37.84375 34.5 Z M 36.925781 37.410156 L 36.921875 37.410156 L 36.921875 37.402344 Z M 37.648438 36.5625 C 37.648438 36.566406 37.648438 36.574219 37.640625 36.574219 C 37.648438 36.574219 37.652344 36.574219 37.648438 36.5625 Z M 37.632812 36.578125 C 37.628906 36.578125 37.621094 36.578125 37.632812 36.589844 Z M 37.542969 34.574219 L 37.542969 34.582031 Z M 37.75 34.617188 C 37.75 34.613281 37.753906 34.617188 37.753906 34.617188 Z M 37.417969 36.824219 L 37.410156 36.824219 L 37.410156 36.820312 Z M 36.925781 37.394531 C 36.921875 37.394531 36.921875 37.386719 36.921875 37.386719 Z M 37.933594 34.65625 C 37.933594 34.65625 37.9375 34.65625 37.9375 34.652344 C 37.9375 34.652344 37.933594 34.640625 37.933594 34.65625 Z M 37.847656 34.496094 C 37.847656 34.488281 37.851562 34.5 37.847656 34.484375 Z M 37.191406 34.371094 L 37.1875 34.367188 Z M 37.390625 36.820312 C 37.398438 36.824219 37.390625 36.824219 37.390625 36.824219 Z M 37.457031 34.589844 C 37.457031 34.589844 37.460938 34.589844 37.460938 34.582031 Z M 37.085938 37.132812 L 37.082031 37.136719 Z M 37.410156 36.804688 L 37.417969 36.800781 Z M 36.90625 37.421875 L 36.90625 37.429688 Z M 37.265625 34.730469 C 37.265625 34.734375 37.269531 34.734375 37.269531 34.730469 Z M 37.265625 34.730469 "/>
<path style=" stroke:none;fill-rule:nonzero;fill:rgb(100%,34.117647%,34.117647%);fill-opacity:1;" d="M 38.265625 36.851562 C 38.269531 36.84375 38.261719 36.832031 38.25 36.828125 L 38.25 36.820312 C 38.25 36.808594 38.25 36.800781 38.261719 36.800781 C 38.261719 36.800781 38.265625 36.804688 38.269531 36.804688 C 38.285156 36.808594 38.304688 36.8125 38.304688 36.84375 L 38.304688 36.9375 C 38.304688 36.964844 38.320312 36.996094 38.324219 37.023438 C 38.328125 37.167969 38.417969 37.265625 38.523438 37.355469 C 38.527344 37.359375 38.542969 37.359375 38.546875 37.363281 C 38.554688 37.367188 38.566406 37.375 38.574219 37.375 C 38.640625 37.375 38.835938 37.210938 38.878906 37.167969 C 38.898438 37.152344 38.890625 37.128906 38.90625 37.113281 C 38.917969 37.105469 38.9375 37.089844 38.953125 37.074219 C 38.960938 37.070312 38.960938 37.058594 38.953125 37.058594 L 38.9375 37.058594 C 38.851562 37.117188 38.765625 37.175781 38.671875 37.222656 C 38.644531 37.238281 38.613281 37.242188 38.585938 37.242188 C 38.570312 37.242188 38.554688 37.242188 38.542969 37.238281 C 38.496094 37.175781 38.476562 37.105469 38.476562 37.03125 C 38.476562 36.773438 38.605469 36.230469 38.707031 36.023438 C 38.742188 35.964844 38.746094 35.898438 38.738281 35.835938 C 38.714844 35.820312 38.6875 35.808594 38.664062 35.808594 C 38.648438 35.808594 38.632812 35.8125 38.621094 35.820312 C 38.613281 35.824219 38.605469 35.824219 38.601562 35.824219 C 38.589844 35.824219 38.585938 35.824219 38.574219 35.820312 C 38.507812 35.785156 38.4375 35.785156 38.363281 35.785156 C 38.246094 35.792969 38.144531 35.820312 38.050781 35.898438 C 38.011719 35.933594 37.972656 35.980469 37.921875 36 C 37.917969 36.003906 37.914062 36.007812 37.914062 36.011719 C 37.898438 36.042969 37.875 36.070312 37.847656 36.082031 C 37.808594 36.101562 37.820312 36.144531 37.785156 36.171875 C 37.679688 36.261719 37.609375 36.414062 37.546875 36.542969 C 37.539062 36.554688 37.535156 36.5625 37.53125 36.574219 C 37.441406 36.84375 37.398438 37.011719 37.398438 37.304688 C 37.398438 37.398438 37.429688 37.480469 37.503906 37.546875 L 37.539062 37.582031 C 37.554688 37.59375 37.574219 37.605469 37.597656 37.605469 C 37.621094 37.601562 37.652344 37.601562 37.675781 37.585938 C 37.75 37.550781 37.921875 37.4375 37.960938 37.375 C 37.972656 37.359375 38 37.355469 38.011719 37.335938 C 38.023438 37.304688 38.050781 37.28125 38.070312 37.253906 C 38.054688 37.214844 38.105469 37.195312 38.109375 37.167969 C 38.113281 37.136719 38.132812 37.109375 38.148438 37.082031 C 38.15625 37.054688 38.171875 37.03125 38.191406 37 C 38.203125 36.980469 38.21875 36.964844 38.210938 36.941406 C 38.246094 36.925781 38.257812 36.886719 38.265625 36.851562 Z M 37.609375 37.476562 C 37.601562 37.480469 37.59375 37.480469 37.582031 37.488281 C 37.574219 37.476562 37.5625 37.472656 37.5625 37.46875 C 37.554688 37.457031 37.554688 37.441406 37.554688 37.433594 C 37.554688 37.398438 37.554688 37.363281 37.539062 37.328125 C 37.535156 37.320312 37.535156 37.304688 37.539062 37.289062 C 37.558594 37.222656 37.558594 37.152344 37.570312 37.078125 C 37.578125 37.054688 37.582031 37.023438 37.589844 37 C 37.617188 36.910156 37.632812 36.820312 37.671875 36.734375 C 37.695312 36.679688 37.710938 36.628906 37.734375 36.578125 C 37.746094 36.558594 37.761719 36.542969 37.769531 36.523438 C 37.789062 36.480469 37.824219 36.445312 37.832031 36.402344 C 37.839844 36.394531 37.839844 36.386719 37.84375 36.382812 C 37.894531 36.347656 37.917969 36.292969 37.964844 36.253906 C 38.007812 36.21875 38.039062 36.171875 38.085938 36.136719 C 38.15625 36.082031 38.226562 36.027344 38.316406 35.992188 C 38.363281 35.972656 38.410156 35.945312 38.449219 35.90625 C 38.460938 35.894531 38.46875 35.890625 38.476562 35.890625 C 38.488281 35.890625 38.492188 35.894531 38.5 35.90625 C 38.53125 35.929688 38.535156 35.945312 38.523438 35.980469 C 38.496094 36.039062 38.46875 36.097656 38.453125 36.160156 C 38.441406 36.230469 38.390625 36.394531 38.355469 36.460938 C 38.308594 36.558594 38.261719 36.65625 38.210938 36.761719 C 38.1875 36.824219 38.144531 36.882812 38.105469 36.941406 C 38.074219 37 38.035156 37.054688 38.007812 37.113281 C 37.90625 37.269531 37.761719 37.378906 37.609375 37.476562 Z M 38.210938 36.886719 C 38.21875 36.882812 38.21875 36.878906 38.21875 36.871094 L 38.226562 36.882812 C 38.226562 36.886719 38.222656 36.890625 38.21875 36.898438 C 38.21875 36.890625 38.210938 36.890625 38.210938 36.886719 Z M 37.652344 36.421875 L 37.65625 36.421875 L 37.65625 36.425781 Z M 38.300781 36.726562 L 38.296875 36.726562 L 38.296875 36.71875 Z M 37.636719 36.457031 L 37.636719 36.460938 L 37.632812 36.460938 Z M 38.125 37.050781 L 38.125 37.039062 Z M 38.125 37.050781 "/>
<path style=" stroke:none;fill-rule:nonzero;fill:rgb(100%,34.117647%,34.117647%);fill-opacity:1;" d="M 39.222656 36.433594 C 39.289062 36.480469 39.363281 36.515625 39.433594 36.554688 C 39.414062 36.574219 39.40625 36.582031 39.402344 36.597656 C 39.394531 36.621094 39.386719 36.648438 39.347656 36.652344 C 39.320312 36.652344 39.3125 36.667969 39.296875 36.675781 C 39.296875 36.6875 39.289062 36.699219 39.28125 36.699219 C 39.273438 36.699219 39.261719 36.695312 39.257812 36.695312 C 39.230469 36.695312 39.21875 36.714844 39.210938 36.734375 C 39.214844 36.746094 39.210938 36.75 39.199219 36.75 C 39.15625 36.765625 39.128906 36.792969 39.105469 36.820312 C 39.085938 36.828125 39.070312 36.839844 39.0625 36.847656 C 38.976562 36.882812 38.914062 36.925781 38.886719 37 C 38.851562 37.042969 38.839844 37.09375 38.800781 37.148438 C 38.785156 37.175781 38.792969 37.207031 38.796875 37.238281 C 38.820312 37.339844 38.867188 37.429688 38.945312 37.5 C 38.988281 37.570312 39.078125 37.59375 39.148438 37.605469 C 39.199219 37.605469 39.253906 37.59375 39.289062 37.582031 C 39.363281 37.554688 39.433594 37.527344 39.480469 37.46875 C 39.488281 37.457031 39.503906 37.449219 39.523438 37.433594 C 39.625 37.359375 39.660156 37.34375 39.710938 37.253906 C 39.726562 37.222656 39.75 37.191406 39.769531 37.167969 C 39.777344 37.152344 39.777344 37.136719 39.789062 37.117188 C 39.839844 37.042969 39.847656 36.960938 39.867188 36.871094 L 39.867188 36.847656 C 39.863281 36.785156 39.808594 36.714844 39.785156 36.65625 C 39.773438 36.617188 39.738281 36.589844 39.710938 36.5625 C 39.691406 36.542969 39.695312 36.535156 39.710938 36.523438 C 39.71875 36.515625 39.71875 36.507812 39.734375 36.503906 C 39.828125 36.460938 40.28125 36.355469 40.378906 36.332031 C 40.402344 36.328125 40.429688 36.316406 40.445312 36.308594 C 40.460938 36.300781 40.460938 36.296875 40.460938 36.292969 C 40.453125 36.285156 40.4375 36.273438 40.421875 36.273438 L 40.402344 36.273438 C 40.355469 36.300781 40.296875 36.300781 40.246094 36.324219 C 40.203125 36.34375 39.804688 36.425781 39.75 36.445312 C 39.726562 36.449219 39.707031 36.460938 39.679688 36.476562 C 39.660156 36.484375 39.640625 36.488281 39.621094 36.488281 C 39.597656 36.488281 39.574219 36.480469 39.546875 36.464844 C 39.492188 36.445312 39.421875 36.402344 39.375 36.367188 C 39.320312 36.332031 39.3125 36.289062 39.332031 36.25 C 39.355469 36.214844 39.386719 36.179688 39.410156 36.136719 C 39.425781 36.089844 39.460938 36.0625 39.519531 36.042969 C 39.546875 36.03125 39.582031 36.011719 39.601562 35.992188 C 39.660156 35.953125 39.710938 35.929688 39.777344 35.917969 C 39.863281 35.914062 39.917969 35.886719 39.976562 35.859375 C 40 35.855469 40.078125 35.839844 40.09375 35.839844 C 40.109375 35.839844 40.132812 35.839844 40.144531 35.835938 C 40.175781 35.824219 40.191406 35.816406 40.191406 35.796875 C 40.191406 35.773438 40.164062 35.757812 40.144531 35.746094 C 40.097656 35.734375 40.0625 35.71875 40.019531 35.71875 C 39.980469 35.71875 39.945312 35.714844 39.90625 35.707031 C 39.820312 35.695312 39.773438 35.683594 39.738281 35.683594 C 39.710938 35.683594 39.6875 35.695312 39.636719 35.703125 C 39.597656 35.714844 39.546875 35.738281 39.507812 35.753906 C 39.355469 35.820312 39.242188 35.925781 39.171875 36.058594 C 39.136719 36.101562 39.121094 36.171875 39.105469 36.222656 C 39.101562 36.238281 39.105469 36.253906 39.121094 36.269531 C 39.144531 36.296875 39.175781 36.328125 39.175781 36.371094 C 39.175781 36.394531 39.203125 36.414062 39.222656 36.433594 Z M 39.597656 36.667969 C 39.613281 36.679688 39.613281 36.695312 39.617188 36.710938 C 39.632812 36.808594 39.617188 36.898438 39.566406 36.980469 C 39.46875 37.152344 39.3125 37.328125 39.125 37.402344 C 39.105469 37.410156 39.085938 37.417969 39.0625 37.417969 C 39.050781 37.417969 39.042969 37.417969 39.03125 37.417969 C 39.011719 37.417969 38.992188 37.417969 38.964844 37.402344 C 38.9375 37.382812 38.9375 37.347656 38.914062 37.320312 C 38.914062 37.320312 38.914062 37.316406 38.910156 37.308594 C 38.9375 37.25 38.914062 37.1875 38.9375 37.117188 C 38.976562 37 39.085938 36.859375 39.203125 36.808594 C 39.214844 36.800781 39.230469 36.789062 39.253906 36.777344 C 39.308594 36.761719 39.351562 36.726562 39.402344 36.691406 C 39.429688 36.667969 39.484375 36.652344 39.519531 36.628906 C 39.523438 36.628906 39.527344 36.621094 39.535156 36.621094 C 39.558594 36.621094 39.585938 36.640625 39.597656 36.667969 Z M 39.382812 37.355469 C 39.375 37.355469 39.367188 37.355469 39.375 37.34375 C 39.375 37.34375 39.355469 37.339844 39.363281 37.335938 C 39.382812 37.277344 39.429688 37.238281 39.480469 37.203125 C 39.488281 37.195312 39.46875 37.203125 39.488281 37.207031 C 39.488281 37.207031 39.503906 37.222656 39.492188 37.222656 C 39.460938 37.261719 39.425781 37.304688 39.382812 37.355469 Z M 39.554688 37.132812 C 39.542969 37.148438 39.539062 37.164062 39.519531 37.171875 L 39.503906 37.171875 L 39.5 37.167969 C 39.503906 37.152344 39.507812 37.132812 39.519531 37.109375 C 39.523438 37.097656 39.554688 37.089844 39.554688 37.097656 C 39.5625 37.109375 39.5625 37.113281 39.554688 37.132812 Z M 39.21875 37.457031 C 39.214844 37.457031 39.210938 37.457031 39.203125 37.453125 C 39.203125 37.429688 39.222656 37.417969 39.261719 37.417969 C 39.269531 37.453125 39.269531 37.453125 39.21875 37.457031 Z M 39.597656 37.058594 C 39.59375 37.066406 39.585938 37.070312 39.582031 37.070312 C 39.578125 37.070312 39.578125 37.066406 39.566406 37.066406 C 39.578125 37.058594 39.582031 37.050781 39.582031 37.042969 L 39.59375 37.042969 C 39.597656 37.050781 39.597656 37.058594 39.597656 37.058594 Z M 39.160156 37.46875 C 39.164062 37.460938 39.164062 37.457031 39.164062 37.457031 L 39.199219 37.457031 C 39.199219 37.460938 39.199219 37.46875 39.191406 37.46875 Z M 39.335938 37.347656 L 39.34375 37.355469 L 39.335938 37.355469 Z M 39.230469 37.519531 L 39.222656 37.519531 L 39.222656 37.515625 Z M 39.230469 37.519531 "/>
<path style=" stroke:none;fill-rule:nonzero;fill:rgb(100%,100%,100%);fill-opacity:1;" d="M 13.539062 34.207031 L 15.945312 34.207031 L 15.945312 35.609375 L 11.253906 35.609375 L 11.246094 34.460938 L 13.410156 32.226562 C 13.5625 32.070312 13.6875 31.914062 13.785156 31.753906 C 13.878906 31.597656 13.929688 31.460938 13.929688 31.34375 C 13.929688 31.207031 13.878906 31.101562 13.785156 31.027344 C 13.6875 30.957031 13.554688 30.917969 13.382812 30.917969 C 13.144531 30.917969 12.882812 30.988281 12.589844 31.125 C 12.300781 31.257812 12.007812 31.449219 11.714844 31.691406 L 11.039062 30.390625 C 11.9375 29.773438 12.808594 29.464844 13.652344 29.464844 C 14.066406 29.464844 14.4375 29.535156 14.761719 29.667969 C 15.085938 29.804688 15.34375 29.996094 15.53125 30.234375 C 15.71875 30.476562 15.8125 30.757812 15.8125 31.074219 C 15.8125 31.390625 15.710938 31.71875 15.507812 32.046875 C 15.304688 32.382812 15.007812 32.738281 14.628906 33.117188 Z M 13.539062 34.207031 "/>
</g>
</svg>
