<?xml version="1.0" encoding="UTF-8"?>
<svg xmlns="http://www.w3.org/2000/svg" xmlns:xlink="http://www.w3.org/1999/xlink" width="150px" height="150px" viewBox="0 0 150 150" version="1.1">
<defs>
<clipPath id="clip1">
  <path d="M 33.199219 15 L 111 15 L 111 125 L 33.199219 125 Z M 33.199219 15 "/>
</clipPath>
</defs>
<g id="surface1">
<rect x="0" y="0" width="150" height="150" style="fill:rgb(0%,0%,0%);fill-opacity:1;stroke:none;"/>
<g clip-path="url(#clip1)" clip-rule="nonzero">
<path style=" stroke:none;fill-rule:nonzero;fill:rgb(100%,34.117647%,34.117647%);fill-opacity:1;" d="M 64.171875 124.785156 C 65.957031 124.664062 67.699219 124.3125 69.359375 123.671875 C 58.378906 121.308594 55.425781 109.105469 57.828125 99.289062 C 59.171875 93.808594 62.640625 88.945312 66.058594 84.675781 C 71.03125 78.457031 72.492188 71.808594 74.21875 64.289062 C 73.417969 69.78125 74.140625 75.46875 77.15625 80.214844 C 79.222656 83.457031 82.121094 86.082031 84.40625 89.171875 C 88.679688 94.957031 90.203125 102.074219 89.738281 109.230469 C 89.019531 120.328125 81.660156 123.910156 79.691406 123.175781 C 88.660156 126.523438 110.617188 119.5 110.933594 96.203125 C 111.027344 89.238281 109.695312 78.84375 105.066406 73.628906 C 106.9375 77.222656 105.234375 87.214844 101.089844 89.277344 C 101.328125 79 97.605469 72.621094 94.230469 65.398438 C 90.941406 58.359375 88.742188 50.238281 91.886719 42.761719 C 89.917969 44.359375 89.226562 47.554688 88.035156 49.71875 C 86.429688 52.640625 84.648438 55.476562 82.71875 58.195312 C 84.046875 43.105469 79.996094 27.601562 71.453125 15.082031 C 74.242188 19.171875 74.226562 24.632812 72.796875 29.367188 C 71.367188 34.105469 68.695312 38.351562 66.394531 42.734375 C 64.089844 47.113281 61.90625 50.9375 62.042969 55.882812 C 60.320312 48.625 60.785156 40.863281 63.359375 33.863281 C 56.226562 38.515625 55.011719 48.308594 54.859375 56.8125 C 54.703125 65.320312 54.457031 74.914062 48.191406 80.679688 C 49.710938 71.882812 50.054688 64.234375 46.320312 61.304688 C 47.140625 67.859375 44.554688 73.859375 40.152344 78.792969 C 29.136719 91.144531 32.714844 109.203125 41.261719 117.546875 C 46.476562 122.640625 56.261719 125.320312 64.171875 124.785156 "/>
</g>
</g>
</svg>
