<?xml version="1.0" encoding="UTF-8"?>
<svg xmlns="http://www.w3.org/2000/svg" xmlns:xlink="http://www.w3.org/1999/xlink" width="150px" height="150px" viewBox="0 0 150 150" version="1.1">
<defs>
<clipPath id="clip1">
  <path d="M 60.398438 35.285156 L 91 35.285156 L 91 78.398438 L 60.398438 78.398438 Z M 60.398438 35.285156 "/>
</clipPath>
</defs>
<g id="surface1">
<rect x="0" y="0" width="150" height="150" style="fill:rgb(0%,0%,0%);fill-opacity:1;stroke:none;"/>
<g clip-path="url(#clip1)" clip-rule="nonzero">
<path style=" stroke:none;fill-rule:nonzero;fill:rgb(100%,34.117647%,34.117647%);fill-opacity:1;" d="M 72.640625 78.375 C 73.339844 78.324219 74.023438 78.1875 74.675781 77.9375 C 70.371094 77.007812 69.214844 72.21875 70.15625 68.367188 C 70.679688 66.214844 72.042969 64.304688 73.382812 62.628906 C 75.332031 60.191406 75.902344 57.578125 76.578125 54.628906 C 76.265625 56.785156 76.546875 59.015625 77.734375 60.878906 C 78.539062 62.152344 79.679688 63.183594 80.574219 64.394531 C 82.25 66.667969 82.84375 69.460938 82.664062 72.265625 C 82.382812 76.625 79.496094 78.03125 78.726562 77.742188 C 82.238281 79.054688 90.84375 76.296875 90.96875 67.15625 C 91.007812 64.421875 90.484375 60.34375 88.671875 58.296875 C 89.40625 59.703125 88.734375 63.628906 87.109375 64.4375 C 87.207031 60.402344 85.746094 57.898438 84.421875 55.066406 C 83.132812 52.300781 82.273438 49.117188 83.503906 46.179688 C 82.734375 46.808594 82.460938 48.0625 81.996094 48.914062 C 81.367188 50.058594 80.667969 51.171875 79.910156 52.238281 C 80.433594 46.316406 78.84375 40.230469 75.496094 35.316406 C 76.589844 36.921875 76.582031 39.066406 76.023438 40.925781 C 75.460938 42.78125 74.414062 44.449219 73.511719 46.167969 C 72.609375 47.890625 71.753906 49.390625 71.808594 51.328125 C 71.132812 48.480469 71.3125 45.4375 72.324219 42.6875 C 69.527344 44.515625 69.050781 48.359375 68.992188 51.695312 C 68.929688 55.03125 68.835938 58.796875 66.378906 61.0625 C 66.972656 57.609375 67.109375 54.609375 65.644531 53.457031 C 65.964844 56.03125 64.953125 58.382812 63.226562 60.320312 C 58.910156 65.171875 60.3125 72.257812 63.664062 75.53125 C 65.707031 77.53125 69.542969 78.582031 72.640625 78.375 "/>
</g>
<path style=" stroke:none;fill-rule:nonzero;fill:rgb(100%,100%,100%);fill-opacity:1;" d="M 65.527344 88.757812 L 70.90625 88.757812 L 64.355469 101.210938 L 64.355469 106.976562 L 58.949219 106.976562 L 58.949219 101.316406 L 52.277344 88.757812 L 57.683594 88.757812 L 61.65625 96.191406 Z M 65.527344 88.757812 "/>
<path style=" stroke:none;fill-rule:nonzero;fill:rgb(100%,100%,100%);fill-opacity:1;" d="M 82.597656 88.421875 C 84.46875 88.421875 86.164062 88.832031 87.679688 89.648438 C 89.195312 90.460938 90.382812 91.582031 91.242188 93.007812 C 92.101562 94.4375 92.53125 96.046875 92.53125 97.828125 C 92.53125 99.632812 92.101562 101.257812 91.242188 102.703125 C 90.382812 104.148438 89.195312 105.285156 87.679688 106.109375 C 86.164062 106.929688 84.46875 107.339844 82.597656 107.339844 C 80.710938 107.339844 79.011719 106.929688 77.503906 106.109375 C 76 105.285156 74.820312 104.148438 73.960938 102.703125 C 73.101562 101.257812 72.675781 99.632812 72.675781 97.828125 C 72.675781 96.046875 73.101562 94.4375 73.960938 93.007812 C 74.820312 91.582031 76 90.460938 77.503906 89.648438 C 79.011719 88.832031 80.710938 88.421875 82.597656 88.421875 Z M 82.679688 92.921875 C 81.882812 92.921875 81.144531 93.140625 80.457031 93.570312 C 79.769531 94 79.226562 94.59375 78.816406 95.347656 C 78.414062 96.101562 78.210938 96.9375 78.210938 97.859375 C 78.210938 98.777344 78.414062 99.617188 78.816406 100.378906 C 79.226562 101.140625 79.769531 101.742188 80.457031 102.183594 C 81.144531 102.625 81.882812 102.847656 82.679688 102.847656 C 83.457031 102.847656 84.183594 102.625 84.847656 102.183594 C 85.515625 101.742188 86.039062 101.144531 86.417969 100.390625 C 86.800781 99.636719 86.992188 98.792969 86.992188 97.859375 C 86.992188 96.9375 86.800781 96.101562 86.417969 95.347656 C 86.039062 94.59375 85.519531 94 84.863281 93.570312 C 84.203125 93.140625 83.476562 92.921875 82.679688 92.921875 Z M 82.679688 92.921875 "/>
<path style=" stroke:none;fill-rule:nonzero;fill:rgb(100%,100%,100%);fill-opacity:1;" d="M 101.128906 99.441406 C 101.128906 100.464844 101.421875 101.289062 102.007812 101.914062 C 102.601562 102.539062 103.335938 102.847656 104.222656 102.847656 C 105.085938 102.847656 105.796875 102.539062 106.351562 101.929688 C 106.90625 101.3125 107.183594 100.484375 107.183594 99.441406 L 107.183594 88.757812 L 112.589844 88.757812 L 112.589844 99.441406 C 112.589844 101.039062 112.25 102.429688 111.566406 103.617188 C 110.882812 104.800781 109.90625 105.714844 108.640625 106.367188 C 107.378906 107.015625 105.90625 107.339844 104.222656 107.339844 C 102.523438 107.339844 101.035156 107.015625 99.753906 106.367188 C 98.46875 105.714844 97.476562 104.800781 96.777344 103.617188 C 96.078125 102.429688 95.726562 101.039062 95.726562 99.441406 L 95.726562 88.757812 L 101.128906 88.757812 Z M 101.128906 99.441406 "/>
<path style=" stroke:none;fill-rule:nonzero;fill:rgb(100%,34.117647%,34.117647%);fill-opacity:1;" d="M 93.765625 117.808594 C 93.929688 117.640625 94.167969 117.507812 94.335938 117.339844 C 95.945312 116.132812 97.355469 114.585938 98.765625 112.640625 C 98.832031 112.472656 99.132812 111.699219 99 111.699219 C 98.933594 111.699219 98.867188 111.734375 98.730469 111.902344 C 97.691406 113.042969 96.316406 114.820312 95.273438 115.796875 C 94.601562 116.46875 93.226562 117.304688 92.355469 117.640625 C 92.085938 117.742188 91.816406 117.84375 91.546875 118.011719 C 91.246094 118.144531 90.945312 118.144531 90.640625 118.246094 C 90.507812 118.28125 90.375 118.28125 90.238281 118.28125 C 90.003906 118.28125 89.734375 118.246094 89.5 118.144531 C 89.398438 118.113281 89.332031 118.011719 89.296875 117.910156 C 89.164062 117.441406 89.097656 116.9375 89.03125 116.46875 C 88.996094 116.332031 89.0625 116.199219 89.0625 116.097656 C 89.097656 115.996094 89.132812 115.863281 89.132812 115.761719 C 89.132812 115.425781 89.234375 115.125 89.332031 114.789062 C 89.871094 112.910156 90.777344 110.660156 92.1875 109.25 C 92.386719 109.015625 92.65625 108.8125 92.824219 108.546875 C 93.292969 107.875 94 107.269531 94.671875 106.832031 C 94.703125 106.867188 94.804688 106.898438 94.871094 106.933594 C 94.9375 106.933594 95.007812 106.96875 95.039062 107 C 95.242188 107.167969 95.273438 107.402344 95.242188 107.640625 C 95.140625 108.039062 94.871094 108.34375 94.671875 108.679688 C 94.570312 108.78125 94.5 108.878906 94.433594 108.980469 C 94.300781 109.183594 94.367188 109.382812 94.601562 109.382812 C 94.671875 109.382812 94.738281 109.382812 94.804688 109.382812 C 94.9375 109.382812 95.074219 109.382812 95.171875 109.382812 C 95.34375 109.417969 95.476562 109.316406 95.578125 109.214844 C 95.84375 108.980469 95.980469 108.644531 96.113281 108.34375 C 96.515625 107.46875 95.980469 106.53125 95.140625 106.296875 C 94.9375 106.261719 94.738281 106.195312 94.535156 106.195312 C 94.402344 106.195312 94.300781 106.195312 94.167969 106.261719 C 94.101562 106.296875 94.03125 106.296875 93.964844 106.296875 C 93.898438 106.296875 93.832031 106.296875 93.765625 106.296875 C 93.527344 106.328125 93.292969 106.398438 93.125 106.53125 C 92.117188 107.203125 90.710938 108.78125 90.171875 109.886719 C 89.398438 111.230469 88.796875 112.605469 88.390625 114.082031 C 88.257812 114.722656 88.089844 115.359375 88.089844 116.03125 C 88.089844 116.9375 88.324219 117.40625 88.695312 118.179688 C 88.996094 118.816406 89.566406 119.050781 90.171875 119.285156 C 90.238281 119.320312 90.304688 119.285156 90.375 119.320312 C 90.84375 119.320312 91.347656 119.253906 91.75 118.984375 C 91.816406 118.953125 91.882812 118.953125 91.953125 118.917969 C 92.289062 118.816406 92.589844 118.714844 92.789062 118.414062 C 92.925781 118.28125 93.058594 118.210938 93.195312 118.113281 C 93.394531 117.976562 93.59375 117.945312 93.765625 117.808594 Z M 90.140625 110.492188 C 90.171875 110.425781 90.207031 110.390625 90.238281 110.324219 C 90.273438 110.390625 90.273438 110.457031 90.273438 110.523438 C 90.273438 110.59375 90.238281 110.625 90.171875 110.660156 L 90.140625 110.660156 C 90.070312 110.59375 90.105469 110.523438 90.140625 110.492188 Z M 89.535156 111.835938 C 89.535156 111.734375 89.5 111.632812 89.632812 111.601562 C 89.632812 111.699219 89.632812 111.800781 89.535156 111.835938 Z M 89.164062 112.472656 C 89.164062 112.40625 89.199219 112.371094 89.265625 112.371094 C 89.265625 112.4375 89.265625 112.472656 89.234375 112.507812 C 89.234375 112.539062 89.234375 112.539062 89.199219 112.574219 C 89.199219 112.539062 89.164062 112.507812 89.164062 112.472656 Z M 89.902344 111.195312 C 89.871094 111.265625 89.835938 111.296875 89.804688 111.296875 L 89.804688 111.164062 C 89.804688 111.128906 89.835938 111.128906 89.835938 111.09375 C 89.871094 111.128906 89.902344 111.164062 89.902344 111.195312 Z M 88.964844 113.175781 C 88.964844 113.210938 88.964844 113.242188 88.996094 113.277344 L 88.929688 113.34375 C 88.929688 113.3125 88.929688 113.277344 88.898438 113.210938 C 88.898438 113.210938 88.929688 113.210938 88.964844 113.175781 Z M 89.0625 112.808594 C 89.097656 112.84375 89.097656 112.875 89.132812 112.910156 C 89.097656 112.910156 89.097656 112.941406 89.0625 112.941406 C 89.0625 112.910156 89.03125 112.875 89.03125 112.84375 Z M 90.375 110.121094 C 90.339844 110.054688 90.375 110.054688 90.40625 110.054688 C 90.40625 110.089844 90.40625 110.089844 90.375 110.121094 Z M 89.96875 110.828125 L 90.003906 110.894531 L 89.96875 110.894531 Z M 89.96875 110.828125 "/>
<path style=" stroke:none;fill-rule:nonzero;fill:rgb(100%,34.117647%,34.117647%);fill-opacity:1;" d="M 102.792969 114.820312 C 102.824219 114.789062 102.859375 114.753906 102.894531 114.722656 C 102.960938 114.621094 102.960938 114.417969 102.894531 114.484375 C 102.859375 114.519531 102.792969 114.585938 102.757812 114.65625 C 102.757812 114.6875 102.792969 114.753906 102.792969 114.789062 C 102.421875 114.855469 102.421875 115.226562 102.253906 115.324219 C 102.1875 115.324219 102.152344 115.359375 102.152344 115.390625 C 102.1875 115.390625 102.222656 115.359375 102.253906 115.359375 C 102.222656 115.390625 102.1875 115.460938 102.152344 115.492188 C 102.152344 115.492188 102.152344 115.460938 102.152344 115.425781 L 102.054688 115.527344 C 102.054688 115.527344 102.054688 115.5625 102.085938 115.59375 C 101.683594 116.199219 100.375 117.710938 99.738281 117.84375 C 99.636719 117.976562 99.335938 117.507812 99.132812 117.507812 C 99.097656 117.441406 99.097656 117.375 99.03125 117.339844 C 98.863281 117.039062 98.832031 116.734375 98.898438 116.433594 C 98.898438 116.265625 98.898438 116.0625 98.933594 115.929688 C 98.964844 115.492188 98.933594 115.054688 99.097656 114.621094 C 99.132812 114.554688 99.132812 114.484375 99.066406 114.417969 C 99.03125 114.351562 99.03125 114.285156 99.066406 114.21875 C 99.234375 114.015625 99.234375 113.679688 99.269531 113.414062 C 99.335938 113.109375 99.300781 112.808594 99.503906 112.574219 C 99.433594 112.238281 99.667969 112.035156 99.738281 111.699219 C 99.804688 111.363281 100.039062 110.390625 100.175781 110.089844 C 100.710938 108.945312 101.214844 107.738281 101.449219 106.496094 C 101.484375 106.160156 101.246094 105.726562 100.945312 105.558594 C 100.878906 105.558594 100.8125 105.523438 100.746094 105.523438 L 100.375 105.523438 C 100.308594 105.523438 100.242188 105.558594 100.175781 105.589844 C 99.839844 106.128906 99.636719 106.699219 99.433594 107.304688 C 99.300781 107.773438 99.167969 108.277344 99 108.746094 C 98.933594 108.980469 98.832031 109.148438 98.761719 109.382812 C 98.496094 110.289062 98.261719 111.195312 97.992188 112.070312 C 97.925781 112.472656 97.789062 112.808594 97.757812 113.144531 C 97.722656 113.78125 97.621094 114.417969 97.554688 115.054688 C 97.523438 115.527344 97.488281 115.996094 97.621094 116.5 C 97.65625 116.566406 97.65625 116.667969 97.691406 116.769531 C 97.722656 117.039062 97.855469 117.273438 98.027344 117.472656 C 98.226562 117.710938 98.429688 117.976562 98.628906 118.210938 C 98.796875 118.445312 99.03125 118.617188 99.335938 118.714844 C 99.433594 118.78125 99.570312 118.78125 99.703125 118.78125 C 100.273438 118.78125 101.046875 118.378906 101.417969 117.875 C 101.652344 117.675781 101.582031 117.609375 101.785156 117.339844 C 101.988281 117.136719 102.253906 116.433594 102.152344 116.097656 C 102.152344 116.03125 102.121094 115.964844 102.1875 115.964844 C 102.253906 115.996094 102.289062 116.0625 102.355469 116.097656 C 102.421875 115.996094 102.324219 115.863281 102.355469 115.761719 C 102.390625 115.628906 102.457031 115.527344 102.523438 115.390625 C 102.589844 115.226562 102.757812 115.023438 102.757812 114.820312 Z M 101.046875 102.90625 C 101.246094 103.074219 101.515625 103.140625 101.785156 103.273438 C 101.917969 103.207031 102.085938 103.140625 102.253906 103.074219 C 102.355469 103.039062 102.390625 102.9375 102.390625 102.871094 C 102.488281 102.535156 102.421875 102.234375 102.558594 101.929688 C 102.589844 101.898438 102.558594 101.863281 102.523438 101.832031 C 102.457031 101.765625 102.324219 101.695312 102.222656 101.695312 C 102.1875 101.695312 102.152344 101.695312 102.121094 101.730469 C 101.816406 101.929688 101.484375 102.167969 101.214844 102.402344 C 101.113281 102.46875 101.046875 102.570312 100.980469 102.671875 C 100.945312 102.738281 100.980469 102.871094 101.046875 102.90625 Z M 102.152344 115.492188 C 102.152344 115.527344 102.152344 115.5625 102.152344 115.5625 C 102.152344 115.59375 102.121094 115.59375 102.121094 115.628906 C 102.121094 115.5625 102.121094 115.527344 102.152344 115.492188 Z M 102.152344 115.492188 "/>
<path style=" stroke:none;fill-rule:nonzero;fill:rgb(100%,34.117647%,34.117647%);fill-opacity:1;" d="M 110.445312 94.847656 C 110.410156 94.816406 110.378906 94.816406 110.34375 94.816406 C 110.34375 94.847656 110.378906 94.882812 110.378906 94.882812 C 110.410156 94.882812 110.445312 94.847656 110.445312 94.847656 Z M 109.136719 98.910156 C 109.101562 99.046875 109.101562 99.113281 109.035156 99.113281 C 109 99.113281 108.96875 99.113281 108.933594 99.078125 C 108.902344 99.078125 108.867188 99.046875 108.832031 99.046875 C 109.335938 97.667969 109.808594 96.628906 110.34375 95.585938 C 110.445312 95.386719 110.546875 95.285156 110.578125 95.085938 C 110.644531 94.847656 110.746094 94.648438 110.78125 94.414062 C 110.816406 94.277344 110.816406 94.144531 110.78125 94.042969 C 110.714844 93.808594 110.578125 93.605469 110.480469 93.40625 C 110.410156 93.273438 109.941406 93.136719 109.839844 93.171875 C 109.808594 93.171875 109.808594 93.171875 109.773438 93.203125 C 109.269531 93.539062 109.101562 94.078125 108.902344 94.648438 C 108.566406 95.621094 108.296875 96.023438 107.996094 97.03125 C 107.960938 97.164062 107.859375 97.300781 107.824219 97.433594 L 107.457031 98.710938 L 107.457031 98.777344 C 107.523438 98.777344 107.589844 98.710938 107.589844 98.640625 C 107.589844 98.507812 107.660156 98.375 107.761719 98.238281 C 107.792969 98.171875 107.859375 98.140625 107.894531 98.140625 C 107.960938 98.140625 108.027344 98.171875 108.09375 98.238281 L 107.894531 98.777344 C 107.761719 98.808594 107.589844 98.808594 107.457031 98.808594 L 107.457031 98.777344 C 107.425781 98.808594 107.425781 98.808594 107.390625 98.808594 C 107.121094 98.84375 106.851562 98.875 106.617188 98.875 C 106.484375 98.875 106.347656 98.875 106.25 98.910156 C 106.011719 98.976562 105.878906 98.976562 105.644531 98.976562 C 105.105469 98.976562 104.535156 99.113281 104.035156 99.144531 C 103.796875 99.144531 103.597656 99.179688 103.394531 99.179688 C 103.328125 99.179688 103.292969 99.179688 103.226562 99.179688 L 102.925781 99.246094 C 102.757812 99.246094 102.691406 99.414062 102.625 99.648438 C 102.558594 99.851562 102.589844 100.152344 102.65625 100.421875 C 102.65625 100.621094 102.792969 100.789062 102.925781 100.757812 C 102.957031 100.757812 103.027344 100.722656 103.09375 100.757812 C 103.5625 100.65625 103.964844 100.523438 104.371094 100.523438 C 104.4375 100.523438 104.46875 100.523438 104.503906 100.523438 C 104.738281 100.488281 104.972656 100.453125 105.207031 100.453125 C 105.34375 100.453125 105.542969 100.421875 105.710938 100.386719 C 105.777344 100.386719 105.8125 100.386719 105.847656 100.355469 C 105.8125 100.289062 105.777344 100.1875 105.710938 100.152344 C 105.777344 100.085938 105.847656 100.085938 105.914062 100.085938 C 106.148438 100.050781 106.382812 100.085938 106.617188 99.984375 C 106.71875 99.984375 106.851562 99.984375 106.988281 99.953125 L 106.988281 100.050781 C 106.988281 100.085938 106.988281 100.117188 106.953125 100.152344 C 106.917969 100.21875 106.886719 100.253906 106.917969 100.289062 C 106.617188 101.09375 105.511719 103.878906 105.578125 104.148438 C 105.746094 104.078125 107.019531 100.589844 107.054688 100.488281 L 107.054688 100.355469 C 107.222656 100.355469 107.253906 100.253906 107.121094 100.117188 C 107.121094 100.050781 107.15625 99.984375 107.1875 99.917969 C 107.222656 99.917969 107.289062 99.917969 107.355469 99.882812 C 107.425781 99.851562 107.492188 99.851562 107.589844 99.851562 C 107.558594 99.917969 107.523438 99.953125 107.523438 99.984375 C 107.492188 100.019531 107.492188 100.050781 107.492188 100.085938 L 107.492188 100.117188 C 107.457031 100.117188 107.457031 100.117188 107.425781 100.117188 C 107.324219 100.117188 107.222656 100.21875 107.457031 100.289062 C 107.222656 101.125 106.046875 104.113281 105.980469 104.449219 C 105.8125 104.984375 105.710938 105.523438 105.511719 106.027344 C 105.34375 106.5625 104.605469 109.28125 104.300781 109.789062 C 104.269531 109.855469 104.269531 109.988281 104.234375 110.089844 C 104.167969 110.523438 103.964844 110.929688 103.933594 111.363281 C 103.933594 111.429688 103.898438 111.464844 103.863281 111.5 L 103.730469 111.96875 C 103.628906 112.40625 103.429688 112.773438 103.464844 113.210938 C 103.464844 113.242188 103.464844 113.242188 103.429688 113.277344 C 103.226562 113.648438 103.195312 114.050781 103.128906 114.453125 C 103.058594 114.820312 102.925781 115.191406 102.957031 115.5625 C 102.957031 115.628906 102.925781 115.695312 102.890625 115.761719 C 102.890625 115.726562 102.859375 115.695312 102.859375 115.695312 C 102.757812 115.023438 102.992188 114.386719 102.992188 113.714844 L 102.992188 113.679688 C 103.195312 113.378906 103.226562 113.042969 103.261719 112.671875 C 103.261719 112.371094 103.863281 110.1875 103.964844 109.855469 C 104 109.753906 104.671875 107.503906 104.570312 107.269531 C 104.46875 107.738281 103.699219 110.289062 103.5625 110.695312 C 103.261719 111.734375 102.558594 113.984375 102.558594 115.054688 L 102.558594 115.292969 C 102.355469 115.828125 102.457031 116.398438 102.457031 116.96875 C 102.457031 117.304688 102.65625 118.046875 102.992188 118.210938 C 103.292969 118.378906 103.53125 118.648438 103.796875 118.882812 C 103.898438 118.984375 104 119.019531 104.101562 119.019531 C 104.199219 119.019531 104.269531 118.984375 104.371094 118.953125 L 105.308594 118.546875 C 105.710938 118.347656 106.082031 118.179688 106.417969 117.875 C 106.382812 117.84375 106.347656 117.84375 106.347656 117.777344 L 106.449219 117.710938 L 106.449219 117.742188 C 106.449219 117.675781 106.484375 117.640625 106.550781 117.609375 C 106.683594 117.375 106.886719 117.203125 107.089844 117.039062 C 107.15625 116.96875 107.1875 116.96875 107.253906 116.96875 C 107.324219 116.96875 107.355469 116.96875 107.425781 117.003906 C 107.457031 117.003906 107.492188 117.039062 107.558594 117.039062 C 107.589844 117.039062 107.625 117.003906 107.660156 116.96875 C 107.691406 116.902344 107.660156 116.871094 107.589844 116.835938 C 107.558594 116.804688 107.523438 116.769531 107.523438 116.734375 C 107.523438 116.632812 107.691406 116.601562 107.761719 116.601562 C 107.761719 116.601562 107.792969 116.601562 107.824219 116.601562 C 107.859375 116.632812 107.894531 116.632812 107.925781 116.632812 C 107.960938 116.632812 107.996094 116.566406 107.960938 116.535156 C 107.894531 116.367188 107.925781 116.296875 108.0625 116.199219 C 108.332031 115.996094 108.597656 115.761719 108.765625 115.460938 C 108.832031 115.390625 108.832031 115.324219 108.832031 115.226562 C 108.800781 115.125 108.867188 115.089844 108.96875 115.054688 C 109.035156 115.023438 109.136719 115.023438 109.203125 115.023438 C 109.4375 114.992188 109.539062 114.855469 109.539062 114.621094 C 109.640625 114.585938 109.671875 114.519531 109.671875 114.417969 L 109.671875 113.984375 L 109.539062 113.984375 C 109.539062 113.914062 109.605469 113.882812 109.671875 113.847656 L 109.671875 113.984375 C 109.839844 113.949219 109.875 113.949219 109.90625 113.75 L 109.773438 113.75 C 109.738281 113.816406 109.738281 113.847656 109.671875 113.847656 C 109.671875 113.78125 109.707031 113.75 109.773438 113.714844 C 109.808594 113.648438 109.839844 113.648438 109.90625 113.613281 L 109.972656 113.378906 C 110.109375 113.210938 110.242188 113.042969 110.445312 112.941406 C 110.445312 112.875 110.511719 112.84375 110.578125 112.808594 C 110.546875 112.910156 110.511719 112.941406 110.445312 112.976562 C 110.445312 113.144531 110.34375 113.242188 110.308594 113.34375 C 110.546875 113.34375 110.679688 113.175781 110.78125 113.007812 C 110.816406 112.976562 110.78125 112.875 110.679688 112.84375 L 110.578125 112.84375 C 110.644531 112.671875 110.78125 112.507812 110.949219 112.4375 C 110.980469 112.472656 110.949219 112.574219 111.050781 112.507812 L 110.949219 112.4375 C 110.949219 112.304688 111.015625 112.203125 111.117188 112.101562 L 111.753906 111.429688 C 112.121094 110.929688 112.492188 110.457031 112.929688 110.023438 C 113.027344 109.855469 113.027344 109.789062 112.964844 109.789062 C 112.929688 109.789062 112.863281 109.820312 112.761719 109.921875 L 111.519531 111.296875 C 110.980469 111.96875 110.480469 112.605469 109.875 113.175781 L 109.335938 113.75 C 109.167969 114.015625 108.96875 114.21875 108.765625 114.417969 L 107.792969 115.390625 C 107.691406 115.492188 107.589844 115.628906 107.492188 115.695312 C 107.1875 115.863281 106.988281 116.097656 106.753906 116.332031 C 106.183594 116.871094 105.542969 117.339844 104.871094 117.777344 C 104.707031 117.910156 104.46875 118.011719 104.269531 118.113281 C 104.234375 118.113281 104.199219 118.144531 104.132812 118.144531 C 104 118.144531 103.933594 118.046875 103.863281 117.910156 C 103.765625 117.675781 103.730469 117.441406 103.730469 117.203125 L 103.730469 116.433594 C 103.730469 116.265625 103.730469 116.03125 103.765625 115.863281 C 103.863281 115.628906 103.863281 115.359375 103.863281 115.125 C 103.863281 114.890625 103.898438 114.6875 103.964844 114.484375 C 104.035156 114.320312 104.101562 114.148438 104.101562 113.984375 L 104.234375 113.242188 C 104.269531 112.941406 104.402344 112.707031 104.503906 112.472656 C 104.570312 112.269531 104.570312 112.101562 104.636719 111.902344 C 104.671875 111.734375 104.707031 111.566406 104.769531 111.429688 C 104.804688 111.332031 105.039062 110.492188 105.039062 110.390625 C 105.039062 110.257812 105.074219 110.15625 105.140625 110.023438 C 105.207031 109.886719 105.945312 107.605469 105.980469 107.4375 C 106.082031 107 106.214844 106.5625 106.347656 106.160156 C 106.585938 105.355469 108.09375 101.292969 108.363281 100.488281 L 108.667969 99.617188 C 108.765625 99.648438 108.832031 99.648438 108.902344 99.648438 C 108.96875 99.648438 109.035156 99.648438 109.066406 99.617188 C 109.136719 99.617188 109.238281 99.546875 109.304688 99.582031 C 109.335938 99.648438 109.371094 99.648438 109.402344 99.648438 C 109.472656 99.648438 109.503906 99.617188 109.539062 99.617188 C 109.574219 99.546875 109.605469 99.480469 109.640625 99.480469 C 109.671875 99.480469 109.671875 99.515625 109.707031 99.546875 C 109.773438 99.683594 109.773438 99.683594 109.839844 99.617188 L 109.707031 99.546875 C 109.738281 99.449219 109.808594 99.480469 109.839844 99.480469 L 109.839844 99.546875 C 109.875 99.449219 109.875 99.449219 109.875 99.582031 L 110.042969 99.449219 C 110.074219 99.414062 110.144531 99.382812 110.242188 99.382812 C 110.277344 99.382812 110.308594 99.382812 110.34375 99.382812 C 110.578125 99.347656 110.78125 99.3125 110.980469 99.210938 C 111.082031 99.210938 111.148438 99.113281 111.214844 99.144531 C 111.519531 99.179688 111.820312 98.945312 112.121094 98.945312 C 112.390625 98.875 112.59375 98.742188 112.761719 98.710938 C 112.964844 98.710938 113.632812 98.476562 113.769531 98.339844 C 113.871094 98.273438 113.9375 98.273438 114.035156 98.273438 C 114.136719 98.273438 114.269531 98.304688 114.371094 98.339844 C 114.105469 98.539062 113.800781 98.742188 113.5 98.910156 C 113.566406 98.945312 113.601562 98.945312 113.667969 98.945312 C 113.699219 98.945312 113.769531 98.945312 113.835938 98.910156 C 113.96875 98.777344 114.105469 98.808594 114.171875 98.675781 C 114.203125 98.675781 114.238281 98.675781 114.238281 98.675781 C 114.304688 98.675781 114.742188 98.441406 114.742188 98.339844 C 114.808594 98.070312 114.707031 97.871094 114.742188 97.566406 C 114.777344 97.46875 114.707031 97.367188 114.640625 97.332031 C 114.605469 97.300781 114.539062 97.265625 114.507812 97.265625 C 114.472656 97.265625 114.441406 97.300781 114.40625 97.398438 C 114.304688 97.566406 114.171875 97.632812 114.070312 97.632812 C 113.902344 97.632812 113.800781 97.769531 113.667969 97.835938 C 113.601562 97.9375 113.5 98.003906 113.398438 98.003906 C 113.363281 97.96875 113.332031 97.96875 113.296875 97.96875 C 113.199219 97.96875 113.128906 98.039062 113.027344 98.039062 C 112.996094 98.105469 112.894531 98.171875 112.792969 98.140625 C 112.761719 98.140625 112.726562 98.140625 112.695312 98.140625 C 112.59375 98.140625 112.527344 98.140625 112.492188 98.207031 C 112.425781 98.238281 112.324219 98.304688 112.257812 98.304688 C 112.222656 98.304688 112.191406 98.273438 112.15625 98.273438 C 112.121094 98.207031 112.054688 98.238281 111.988281 98.304688 C 111.855469 98.40625 111.6875 98.476562 111.585938 98.441406 C 111.550781 98.40625 111.519531 98.40625 111.484375 98.40625 C 111.453125 98.40625 111.386719 98.441406 111.351562 98.476562 C 111.351562 98.574219 111.117188 98.609375 111.015625 98.609375 C 110.949219 98.609375 110.882812 98.574219 110.816406 98.539062 C 110.78125 98.574219 110.679688 98.574219 110.613281 98.675781 C 110.511719 98.777344 110.378906 98.808594 110.210938 98.808594 C 110.175781 98.875 110.109375 98.910156 110.042969 98.84375 C 109.972656 98.777344 109.90625 98.875 109.875 98.875 C 109.875 98.910156 109.839844 98.910156 109.808594 98.910156 C 109.773438 98.910156 109.707031 98.910156 109.671875 98.910156 C 109.640625 98.910156 109.640625 98.910156 109.605469 98.910156 C 109.574219 98.976562 109.503906 98.976562 109.4375 98.976562 C 109.371094 98.976562 109.238281 98.945312 109.136719 98.910156 C 109.167969 98.84375 109.167969 98.742188 109.238281 98.742188 C 109.269531 98.710938 109.335938 98.675781 109.371094 98.609375 C 109.335938 98.574219 109.304688 98.574219 109.269531 98.574219 C 109.203125 98.574219 109.101562 98.609375 109.066406 98.640625 C 109.035156 98.640625 109.035156 98.640625 109.035156 98.710938 C 109.035156 98.742188 109.066406 98.808594 109.066406 98.84375 Z M 105.476562 104.214844 L 104.941406 105.960938 C 104.90625 106.0625 104.941406 106.195312 104.941406 106.328125 C 105.007812 106.328125 105.039062 106.261719 105.039062 106.195312 C 105.207031 105.726562 105.308594 105.222656 105.476562 104.75 C 105.542969 104.550781 105.578125 104.347656 105.578125 104.148438 Z M 108.765625 114.753906 C 108.902344 114.554688 109.066406 114.386719 109.269531 114.25 L 109.269531 114.519531 L 109.035156 114.6875 C 108.96875 114.753906 108.867188 114.753906 108.765625 114.753906 Z M 112.761719 98.441406 C 112.792969 98.40625 112.828125 98.375 112.863281 98.375 C 112.929688 98.375 112.996094 98.441406 113.097656 98.476562 C 113.027344 98.539062 112.929688 98.539062 112.863281 98.574219 C 112.726562 98.574219 112.527344 98.640625 112.359375 98.640625 C 112.324219 98.640625 112.324219 98.640625 112.292969 98.640625 C 112.425781 98.476562 112.59375 98.476562 112.761719 98.441406 Z M 109.472656 99.816406 C 109 99.816406 109.839844 99.953125 109.839844 99.953125 L 109.90625 99.953125 L 109.90625 99.851562 L 109.875 99.78125 C 109.738281 99.78125 109.640625 99.78125 109.472656 99.816406 Z M 106.652344 100.289062 C 106.519531 100.21875 106.382812 100.1875 106.25 100.1875 C 106.148438 100.1875 106.082031 100.1875 106.011719 100.21875 C 106.011719 100.253906 105.980469 100.320312 105.980469 100.320312 L 106.011719 100.355469 C 106.25 100.355469 106.417969 100.320312 106.652344 100.289062 Z M 109.875 98.574219 C 109.972656 98.609375 110.042969 98.609375 110.074219 98.609375 C 110.144531 98.609375 110.175781 98.574219 110.210938 98.476562 C 110.144531 98.441406 110.074219 98.441406 110.042969 98.441406 C 109.90625 98.441406 109.773438 98.476562 109.640625 98.507812 C 109.640625 98.507812 109.605469 98.539062 109.605469 98.574219 L 109.640625 98.609375 C 109.671875 98.640625 109.707031 98.675781 109.738281 98.675781 C 109.808594 98.675781 109.839844 98.609375 109.875 98.574219 Z M 104.941406 106.328125 C 104.769531 106.496094 104.738281 106.734375 104.707031 106.96875 C 104.671875 106.96875 104.738281 107 104.738281 107.035156 C 104.941406 106.832031 104.941406 106.597656 104.941406 106.328125 Z M 111.316406 98.875 C 111.25 98.976562 111.183594 99.011719 111.117188 99.011719 C 111.082031 99.011719 111.015625 98.976562 110.980469 98.910156 C 111.015625 98.84375 111.082031 98.84375 111.117188 98.84375 C 111.183594 98.84375 111.214844 98.84375 111.285156 98.875 C 111.316406 98.777344 111.386719 98.742188 111.453125 98.742188 C 111.519531 98.742188 111.550781 98.742188 111.652344 98.808594 C 111.550781 98.84375 111.453125 98.910156 111.386719 98.910156 C 111.351562 98.910156 111.351562 98.910156 111.316406 98.875 Z M 111.855469 98.039062 C 111.957031 98.105469 111.988281 98.105469 112.054688 98.105469 C 112.15625 98.105469 112.257812 98.070312 112.390625 97.96875 L 112.390625 97.9375 C 112.121094 97.9375 112.121094 97.9375 111.855469 98.039062 Z M 111.921875 98.808594 C 111.855469 98.777344 111.820312 98.808594 111.722656 98.808594 C 111.722656 98.808594 111.6875 98.808594 111.652344 98.808594 C 111.652344 98.742188 111.6875 98.710938 111.722656 98.675781 C 111.789062 98.640625 111.855469 98.609375 111.886719 98.609375 C 111.957031 98.574219 112.023438 98.609375 112.023438 98.640625 C 112.023438 98.710938 111.957031 98.777344 111.921875 98.808594 Z M 107.792969 99.246094 C 107.726562 99.246094 107.691406 99.28125 107.625 99.28125 C 107.558594 99.28125 107.558594 99.246094 107.558594 99.179688 C 107.523438 99.144531 107.523438 99.078125 107.558594 99.078125 C 107.589844 99.078125 107.660156 99.078125 107.691406 99.046875 L 107.859375 99.046875 Z M 108.667969 96.527344 C 108.667969 96.628906 108.632812 96.660156 108.53125 96.726562 L 108.496094 96.726562 C 108.496094 96.660156 108.464844 96.59375 108.464844 96.5625 C 108.464844 96.460938 108.496094 96.425781 108.566406 96.425781 C 108.632812 96.394531 108.699219 96.460938 108.667969 96.527344 Z M 110.578125 98.40625 C 110.511719 98.375 110.480469 98.375 110.410156 98.375 C 110.378906 98.375 110.308594 98.40625 110.242188 98.476562 C 110.308594 98.539062 110.378906 98.609375 110.410156 98.574219 C 110.480469 98.539062 110.546875 98.476562 110.546875 98.40625 C 110.578125 98.40625 110.613281 98.441406 110.613281 98.339844 C 110.578125 98.375 110.578125 98.40625 110.578125 98.40625 Z M 112.59375 99.28125 C 112.695312 99.28125 112.761719 99.246094 112.828125 99.246094 C 112.863281 99.246094 112.894531 99.144531 112.894531 99.144531 C 112.828125 99.113281 112.863281 99.113281 112.828125 99.113281 C 112.792969 99.078125 112.726562 99.078125 112.628906 99.113281 C 112.59375 99.113281 112.628906 99.179688 112.59375 99.28125 Z M 111.148438 98.238281 C 111.148438 98.304688 111.148438 98.304688 111.183594 98.339844 C 111.25 98.304688 111.351562 98.339844 111.386719 98.238281 C 111.351562 98.207031 111.351562 98.140625 111.351562 98.140625 C 111.285156 98.140625 111.214844 98.140625 111.183594 98.207031 Z M 112.996094 98.976562 L 112.996094 99.078125 L 113.027344 99.113281 C 113.0625 99.078125 113.097656 99.113281 113.164062 99.113281 C 113.164062 99.113281 113.199219 99.113281 113.230469 99.078125 L 113.230469 98.976562 Z M 111.550781 99.480469 C 111.585938 99.515625 111.621094 99.515625 111.621094 99.515625 C 111.6875 99.515625 111.820312 99.449219 111.957031 99.414062 C 111.957031 99.414062 111.957031 99.347656 111.921875 99.382812 C 111.855469 99.347656 111.722656 99.414062 111.621094 99.449219 Z M 110.210938 99.179688 C 110.242188 99.078125 110.277344 99.011719 110.308594 99.011719 C 110.308594 99.011719 110.34375 99.046875 110.378906 99.113281 C 110.410156 99.144531 110.410156 99.144531 110.410156 99.179688 C 110.308594 99.246094 110.277344 99.210938 110.210938 99.179688 Z M 109.539062 114.621094 C 109.503906 114.621094 109.472656 114.621094 109.4375 114.621094 C 109.371094 114.621094 109.304688 114.621094 109.269531 114.484375 C 109.371094 114.484375 109.503906 114.484375 109.539062 114.621094 Z M 106.347656 99.3125 C 106.316406 99.3125 106.28125 99.347656 106.214844 99.347656 C 106.148438 99.382812 106.113281 99.347656 106.113281 99.3125 C 106.148438 99.28125 106.183594 99.210938 106.214844 99.210938 C 106.28125 99.210938 106.316406 99.246094 106.347656 99.3125 Z M 111.183594 99.582031 C 111.117188 99.617188 111.015625 99.546875 110.980469 99.515625 C 110.949219 99.515625 110.882812 99.515625 110.949219 99.582031 C 110.949219 99.617188 110.980469 99.683594 111.015625 99.648438 C 111.050781 99.648438 111.117188 99.714844 111.183594 99.582031 Z M 113.097656 98.476562 C 113.128906 98.40625 113.164062 98.339844 113.230469 98.339844 C 113.265625 98.339844 113.265625 98.339844 113.296875 98.375 C 113.265625 98.476562 113.230469 98.507812 113.199219 98.507812 C 113.164062 98.507812 113.128906 98.476562 113.097656 98.476562 Z M 107.019531 99.246094 C 107.121094 99.179688 107.1875 99.144531 107.253906 99.144531 L 107.1875 99.246094 C 107.15625 99.28125 107.089844 99.28125 107.019531 99.3125 Z M 110.242188 99.714844 C 110.175781 99.714844 110.109375 99.714844 110.074219 99.78125 L 110.074219 99.816406 C 110.109375 99.882812 110.144531 99.917969 110.144531 99.816406 C 110.210938 99.816406 110.210938 99.816406 110.242188 99.75 Z M 110.613281 98.945312 C 110.644531 98.945312 110.644531 99.078125 110.644531 99.078125 L 110.644531 99.113281 L 110.546875 99.113281 L 110.546875 98.976562 C 110.546875 98.945312 110.546875 98.945312 110.578125 98.945312 Z M 105.410156 100.1875 C 105.410156 100.117188 105.441406 100.117188 105.476562 100.117188 C 105.511719 100.117188 105.542969 100.152344 105.613281 100.1875 C 105.578125 100.21875 105.542969 100.253906 105.511719 100.253906 C 105.476562 100.253906 105.441406 100.21875 105.410156 100.1875 Z M 110.847656 98.945312 C 110.882812 98.875 110.949219 98.910156 110.980469 98.910156 C 110.949219 99.011719 110.949219 99.046875 110.914062 99.046875 C 110.914062 99.046875 110.882812 99.011719 110.847656 98.945312 Z M 109.707031 99.28125 C 109.707031 99.3125 109.640625 99.3125 109.605469 99.347656 L 109.574219 99.3125 L 109.574219 99.246094 C 109.640625 99.179688 109.671875 99.210938 109.707031 99.28125 Z M 102.824219 116.332031 L 102.757812 116.398438 C 102.757812 116.367188 102.722656 116.332031 102.722656 116.296875 L 102.824219 116.199219 Z M 109.402344 114.117188 C 109.402344 114.050781 109.472656 113.984375 109.539062 113.984375 C 109.539062 114.050781 109.472656 114.117188 109.402344 114.117188 Z M 105.242188 100.152344 C 105.277344 100.117188 105.308594 100.152344 105.410156 100.1875 L 105.375 100.1875 C 105.34375 100.21875 105.308594 100.21875 105.242188 100.21875 Z M 108.632812 114.890625 C 108.632812 114.820312 108.699219 114.789062 108.765625 114.753906 C 108.765625 114.820312 108.699219 114.890625 108.632812 114.890625 Z M 106.449219 117.84375 C 106.519531 117.84375 106.550781 117.84375 106.550781 117.742188 L 106.449219 117.742188 Z M 111.316406 99.582031 C 111.351562 99.515625 111.351562 99.480469 111.351562 99.480469 C 111.351562 99.449219 111.351562 99.480469 111.316406 99.480469 C 111.285156 99.480469 111.316406 99.582031 111.316406 99.582031 Z M 110.175781 113.480469 C 110.109375 113.480469 110.074219 113.546875 110.042969 113.613281 C 110.109375 113.578125 110.175781 113.546875 110.175781 113.480469 Z M 109.269531 114.25 C 109.304688 114.183594 109.335938 114.117188 109.402344 114.117188 C 109.402344 114.183594 109.335938 114.21875 109.269531 114.25 Z M 109.941406 113.714844 C 110.007812 113.714844 110.042969 113.679688 110.042969 113.613281 Z M 113.296875 98.375 C 113.363281 98.273438 113.398438 98.273438 113.433594 98.375 L 113.433594 98.339844 C 113.398438 98.40625 113.363281 98.375 113.296875 98.375 Z M 112.527344 97.9375 C 112.492188 97.902344 112.425781 97.871094 112.390625 97.9375 C 112.425781 97.96875 112.492188 98.003906 112.527344 97.9375 Z M 111.316406 99.582031 C 111.25 99.546875 111.183594 99.480469 111.183594 99.582031 C 111.214844 99.582031 111.25 99.648438 111.316406 99.582031 Z M 108.933594 99.449219 C 108.96875 99.414062 109 99.347656 109.035156 99.382812 C 109.035156 99.347656 109.035156 99.382812 109.066406 99.414062 L 109.035156 99.449219 C 109 99.414062 108.96875 99.480469 108.933594 99.449219 Z M 110.308594 113.34375 C 110.242188 113.34375 110.210938 113.414062 110.175781 113.480469 C 110.242188 113.445312 110.277344 113.414062 110.308594 113.34375 Z M 105.613281 100.1875 C 105.613281 100.085938 105.679688 100.117188 105.710938 100.152344 C 105.679688 100.21875 105.644531 100.1875 105.613281 100.1875 Z M 105.039062 100.1875 C 105.007812 100.1875 105.039062 100.253906 105.039062 100.253906 L 104.972656 100.253906 C 104.972656 100.21875 104.972656 100.152344 105.007812 100.1875 Z M 113.535156 98.273438 C 113.5 98.339844 113.464844 98.375 113.464844 98.375 C 113.464844 98.273438 113.464844 98.273438 113.535156 98.273438 Z M 112.527344 97.9375 C 112.558594 97.9375 112.59375 97.96875 112.628906 97.96875 L 112.628906 97.9375 C 112.628906 97.9375 112.628906 97.902344 112.59375 97.902344 C 112.59375 97.902344 112.558594 97.902344 112.527344 97.9375 Z M 110.816406 99.113281 C 110.78125 98.976562 110.816406 99.011719 110.847656 98.976562 C 110.847656 99.078125 110.816406 99.113281 110.816406 99.113281 Z M 113.027344 97.734375 C 113.027344 97.769531 113.097656 97.835938 113.128906 97.769531 C 113.097656 97.734375 113.097656 97.734375 113.027344 97.734375 Z M 107.925781 115.628906 C 107.859375 115.5625 107.925781 115.5625 107.960938 115.5625 C 107.960938 115.59375 107.960938 115.59375 107.925781 115.628906 Z M 108.566406 114.992188 C 108.496094 114.921875 108.566406 114.921875 108.597656 114.921875 C 108.597656 114.957031 108.597656 114.957031 108.566406 114.992188 Z M 106.652344 117.675781 C 106.617188 117.675781 106.585938 117.640625 106.585938 117.640625 L 106.585938 117.710938 C 106.585938 117.675781 106.617188 117.675781 106.652344 117.675781 Z M 114.441406 98.339844 C 114.40625 98.304688 114.40625 98.273438 114.441406 98.304688 Z M 105.105469 100.152344 C 105.105469 100.21875 105.074219 100.21875 105.039062 100.21875 C 105.039062 100.1875 105.039062 100.152344 105.105469 100.152344 Z M 102.890625 116.097656 C 102.957031 116.164062 102.859375 116.164062 102.824219 116.164062 C 102.859375 116.164062 102.859375 116.132812 102.890625 116.097656 Z M 109.4375 98.574219 C 109.4375 98.574219 109.402344 98.574219 109.371094 98.609375 L 109.472656 98.609375 C 109.4375 98.609375 109.4375 98.539062 109.4375 98.574219 Z M 110.007812 99.246094 C 110.007812 99.246094 109.972656 99.246094 109.941406 99.210938 C 109.972656 99.210938 110.007812 99.210938 110.007812 99.246094 Z M 112.59375 99.28125 C 112.59375 99.246094 112.558594 99.246094 112.527344 99.28125 L 112.492188 99.28125 C 112.527344 99.28125 112.527344 99.3125 112.527344 99.3125 Z M 111.484375 112.070312 C 111.417969 112.070312 111.453125 112.070312 111.453125 112.035156 L 111.484375 112.035156 Z M 109.875 99.582031 C 109.875 99.582031 109.839844 99.582031 109.839844 99.546875 L 109.839844 99.617188 C 109.875 99.648438 109.875 99.617188 109.875 99.582031 Z M 110.546875 99.75 C 110.546875 99.714844 110.546875 99.714844 110.511719 99.714844 L 110.546875 99.78125 C 110.546875 99.78125 110.546875 99.75 110.546875 99.75 Z M 108.027344 115.460938 C 108.09375 115.527344 108.027344 115.527344 107.996094 115.527344 C 108.027344 115.492188 108.027344 115.492188 108.027344 115.460938 Z M 105.878906 100.289062 C 105.847656 100.289062 105.847656 100.289062 105.847656 100.355469 C 105.847656 100.355469 105.878906 100.355469 105.878906 100.289062 Z M 112.894531 97.835938 C 112.894531 97.835938 112.792969 97.769531 112.863281 97.871094 Z M 106.585938 117.742188 L 106.550781 117.742188 L 106.550781 117.710938 Z M 111.519531 111.96875 C 111.519531 112 111.519531 112.035156 111.484375 112.035156 C 111.519531 112.035156 111.550781 112.035156 111.519531 111.96875 Z M 111.417969 112.070312 C 111.386719 112.070312 111.351562 112.070312 111.417969 112.136719 Z M 110.816406 98.375 L 110.816406 98.441406 Z M 112.222656 98.675781 C 112.222656 98.640625 112.257812 98.675781 112.257812 98.675781 Z M 109.941406 113.75 L 109.90625 113.75 L 109.90625 113.714844 Z M 106.585938 117.640625 C 106.550781 117.640625 106.550781 117.609375 106.550781 117.609375 Z M 113.464844 98.945312 C 113.464844 98.945312 113.5 98.945312 113.5 98.910156 C 113.5 98.910156 113.464844 98.84375 113.464844 98.945312 Z M 112.894531 97.835938 C 112.894531 97.804688 112.929688 97.871094 112.894531 97.769531 Z M 108.398438 96.996094 L 108.363281 96.964844 Z M 109.773438 113.714844 C 109.808594 113.75 109.773438 113.75 109.773438 113.75 Z M 110.210938 98.476562 C 110.210938 98.476562 110.242188 98.476562 110.242188 98.441406 Z M 107.691406 115.863281 L 107.660156 115.898438 Z M 109.90625 113.613281 L 109.941406 113.578125 Z M 106.449219 117.84375 L 106.449219 117.875 Z M 108.902344 99.449219 C 108.902344 99.480469 108.933594 99.480469 108.933594 99.449219 Z M 108.902344 99.449219 "/>
<path style=" stroke:none;fill-rule:nonzero;fill:rgb(100%,34.117647%,34.117647%);fill-opacity:1;" d="M 115.746094 113.949219 C 115.78125 113.882812 115.714844 113.816406 115.644531 113.78125 L 115.644531 113.714844 C 115.644531 113.648438 115.644531 113.578125 115.714844 113.578125 C 115.714844 113.578125 115.746094 113.613281 115.78125 113.613281 C 115.878906 113.648438 116.015625 113.679688 116.015625 113.882812 L 116.015625 114.519531 C 116.015625 114.722656 116.117188 114.921875 116.148438 115.125 C 116.183594 116.097656 116.785156 116.769531 117.492188 117.375 C 117.527344 117.40625 117.628906 117.40625 117.660156 117.441406 C 117.726562 117.472656 117.792969 117.507812 117.863281 117.507812 C 118.296875 117.507812 119.640625 116.398438 119.941406 116.097656 C 120.078125 115.996094 120.011719 115.828125 120.109375 115.726562 C 120.210938 115.660156 120.347656 115.5625 120.445312 115.460938 C 120.480469 115.425781 120.480469 115.359375 120.445312 115.359375 L 120.347656 115.359375 C 119.742188 115.761719 119.171875 116.164062 118.535156 116.46875 C 118.332031 116.566406 118.128906 116.601562 117.929688 116.601562 C 117.828125 116.601562 117.726562 116.601562 117.628906 116.566406 C 117.324219 116.164062 117.191406 115.660156 117.191406 115.15625 C 117.191406 113.414062 118.0625 109.6875 118.769531 108.277344 C 119.003906 107.875 119.035156 107.4375 118.96875 107 C 118.800781 106.898438 118.632812 106.796875 118.464844 106.796875 C 118.363281 106.796875 118.265625 106.832031 118.164062 106.898438 C 118.128906 106.933594 118.0625 106.933594 118.027344 106.933594 C 117.960938 106.933594 117.929688 106.933594 117.863281 106.898438 C 117.390625 106.664062 116.921875 106.664062 116.417969 106.664062 C 115.613281 106.699219 114.90625 106.898438 114.269531 107.4375 C 114 107.671875 113.730469 107.972656 113.398438 108.109375 C 113.363281 108.140625 113.332031 108.175781 113.332031 108.210938 C 113.230469 108.410156 113.0625 108.613281 112.894531 108.679688 C 112.625 108.8125 112.691406 109.117188 112.457031 109.28125 C 111.753906 109.921875 111.25 110.960938 110.847656 111.835938 C 110.777344 111.902344 110.746094 111.96875 110.710938 112.035156 C 110.105469 113.882812 109.804688 115.023438 109.804688 117.039062 C 109.804688 117.675781 110.039062 118.246094 110.542969 118.683594 L 110.777344 118.917969 C 110.878906 119.019531 111.011719 119.085938 111.183594 119.085938 C 111.347656 119.050781 111.550781 119.050781 111.71875 118.953125 C 112.222656 118.714844 113.398438 117.945312 113.664062 117.507812 C 113.730469 117.40625 113.933594 117.375 114 117.238281 C 114.101562 117.039062 114.269531 116.871094 114.402344 116.703125 C 114.304688 116.433594 114.640625 116.296875 114.671875 116.097656 C 114.707031 115.898438 114.839844 115.695312 114.941406 115.527344 C 115.007812 115.324219 115.109375 115.15625 115.242188 114.957031 C 115.308594 114.820312 115.410156 114.722656 115.378906 114.554688 C 115.613281 114.453125 115.679688 114.183594 115.746094 113.949219 Z M 111.25 118.210938 C 111.214844 118.246094 111.148438 118.246094 111.082031 118.28125 C 111.011719 118.210938 110.945312 118.179688 110.945312 118.144531 C 110.878906 118.078125 110.878906 117.976562 110.878906 117.910156 C 110.878906 117.675781 110.878906 117.441406 110.777344 117.203125 C 110.746094 117.136719 110.746094 117.039062 110.777344 116.9375 C 110.914062 116.46875 110.914062 115.996094 110.980469 115.492188 C 111.046875 115.324219 111.082031 115.125 111.113281 114.957031 C 111.316406 114.351562 111.417969 113.714844 111.683594 113.144531 C 111.851562 112.773438 111.953125 112.40625 112.121094 112.070312 C 112.1875 111.9375 112.289062 111.835938 112.355469 111.699219 C 112.492188 111.398438 112.726562 111.164062 112.792969 110.859375 C 112.824219 110.828125 112.824219 110.761719 112.859375 110.726562 C 113.195312 110.492188 113.363281 110.121094 113.699219 109.855469 C 113.96875 109.617188 114.203125 109.28125 114.503906 109.046875 C 115.007812 108.679688 115.480469 108.308594 116.082031 108.074219 C 116.417969 107.941406 116.71875 107.738281 116.988281 107.46875 C 117.089844 107.402344 117.121094 107.371094 117.191406 107.371094 C 117.257812 107.371094 117.292969 107.402344 117.359375 107.46875 C 117.558594 107.640625 117.59375 107.738281 117.492188 107.972656 C 117.324219 108.375 117.121094 108.78125 117.023438 109.214844 C 116.957031 109.6875 116.585938 110.828125 116.351562 111.265625 C 116.050781 111.9375 115.714844 112.605469 115.378906 113.3125 C 115.210938 113.75 114.90625 114.148438 114.640625 114.554688 C 114.4375 114.957031 114.167969 115.324219 113.96875 115.726562 C 113.296875 116.804688 112.289062 117.539062 111.25 118.210938 Z M 115.378906 114.183594 C 115.410156 114.148438 115.410156 114.117188 115.410156 114.082031 L 115.480469 114.148438 C 115.480469 114.183594 115.445312 114.21875 115.410156 114.25 C 115.410156 114.21875 115.378906 114.21875 115.378906 114.183594 Z M 111.550781 110.996094 L 111.582031 110.996094 L 111.582031 111.027344 Z M 115.980469 113.078125 L 115.949219 113.078125 L 115.949219 113.042969 Z M 111.449219 111.230469 L 111.449219 111.265625 L 111.417969 111.265625 Z M 114.773438 115.292969 L 114.773438 115.226562 Z M 114.773438 115.292969 "/>
<path style=" stroke:none;fill-rule:nonzero;fill:rgb(100%,34.117647%,34.117647%);fill-opacity:1;" d="M 122.292969 111.09375 C 122.726562 111.398438 123.230469 111.632812 123.734375 111.902344 C 123.601562 112.035156 123.535156 112.101562 123.5 112.203125 C 123.464844 112.371094 123.398438 112.539062 123.128906 112.574219 C 122.964844 112.574219 122.894531 112.671875 122.792969 112.742188 C 122.792969 112.808594 122.726562 112.910156 122.695312 112.910156 C 122.628906 112.910156 122.558594 112.875 122.527344 112.875 C 122.324219 112.875 122.257812 113.007812 122.191406 113.144531 C 122.222656 113.210938 122.191406 113.242188 122.125 113.242188 C 121.820312 113.34375 121.652344 113.546875 121.484375 113.714844 C 121.351562 113.78125 121.25 113.847656 121.183594 113.914062 C 120.613281 114.148438 120.175781 114.453125 119.976562 114.957031 C 119.738281 115.257812 119.671875 115.59375 119.402344 115.964844 C 119.304688 116.164062 119.335938 116.367188 119.371094 116.566406 C 119.539062 117.273438 119.839844 117.875 120.378906 118.378906 C 120.679688 118.851562 121.285156 119.019531 121.789062 119.085938 C 122.125 119.085938 122.492188 119.019531 122.726562 118.917969 C 123.230469 118.75 123.734375 118.546875 124.035156 118.144531 C 124.105469 118.078125 124.207031 118.011719 124.339844 117.910156 C 125.042969 117.40625 125.277344 117.304688 125.613281 116.703125 C 125.714844 116.46875 125.882812 116.265625 126.019531 116.097656 C 126.085938 115.996094 126.085938 115.898438 126.152344 115.761719 C 126.488281 115.257812 126.554688 114.6875 126.6875 114.082031 L 126.6875 113.914062 C 126.65625 113.480469 126.285156 113.007812 126.117188 112.605469 C 126.050781 112.335938 125.816406 112.136719 125.613281 111.96875 C 125.480469 111.835938 125.511719 111.765625 125.613281 111.699219 C 125.683594 111.632812 125.683594 111.601562 125.78125 111.566406 C 126.417969 111.265625 129.507812 110.558594 130.179688 110.390625 C 130.347656 110.359375 130.515625 110.289062 130.648438 110.222656 C 130.75 110.1875 130.75 110.15625 130.75 110.121094 C 130.683594 110.054688 130.582031 109.988281 130.480469 109.988281 L 130.347656 109.988281 C 130.011719 110.1875 129.609375 110.1875 129.273438 110.324219 C 128.972656 110.457031 126.253906 111.027344 125.882812 111.164062 C 125.714844 111.195312 125.582031 111.265625 125.414062 111.363281 C 125.277344 111.429688 125.144531 111.464844 125.011719 111.464844 C 124.84375 111.464844 124.675781 111.398438 124.507812 111.296875 C 124.136719 111.164062 123.632812 110.859375 123.332031 110.625 C 122.964844 110.390625 122.894531 110.089844 123.03125 109.820312 C 123.199219 109.585938 123.398438 109.351562 123.566406 109.046875 C 123.667969 108.746094 123.902344 108.546875 124.304688 108.410156 C 124.507812 108.34375 124.742188 108.210938 124.875 108.074219 C 125.277344 107.804688 125.613281 107.640625 126.085938 107.570312 C 126.65625 107.539062 127.023438 107.335938 127.425781 107.167969 C 127.59375 107.132812 128.132812 107.035156 128.234375 107.035156 C 128.332031 107.035156 128.5 107.035156 128.566406 107 C 128.804688 106.933594 128.902344 106.867188 128.902344 106.734375 C 128.902344 106.5625 128.703125 106.464844 128.566406 106.398438 C 128.265625 106.296875 128.03125 106.195312 127.730469 106.195312 C 127.460938 106.195312 127.226562 106.160156 126.957031 106.128906 C 126.351562 106.027344 126.050781 105.960938 125.816406 105.960938 C 125.613281 105.960938 125.445312 106.027344 125.113281 106.09375 C 124.84375 106.160156 124.507812 106.328125 124.238281 106.429688 C 123.199219 106.898438 122.425781 107.605469 121.921875 108.511719 C 121.6875 108.8125 121.585938 109.28125 121.484375 109.652344 C 121.453125 109.753906 121.484375 109.855469 121.585938 109.953125 C 121.753906 110.15625 121.957031 110.359375 121.957031 110.660156 C 121.957031 110.828125 122.15625 110.960938 122.292969 111.09375 Z M 124.84375 112.671875 C 124.941406 112.773438 124.941406 112.875 124.976562 112.976562 C 125.078125 113.648438 124.976562 114.25 124.640625 114.820312 C 123.96875 115.996094 122.894531 117.203125 121.621094 117.710938 C 121.484375 117.742188 121.351562 117.808594 121.183594 117.808594 C 121.117188 117.808594 121.050781 117.808594 120.980469 117.808594 C 120.847656 117.808594 120.714844 117.808594 120.511719 117.710938 C 120.34375 117.574219 120.34375 117.339844 120.175781 117.136719 C 120.175781 117.136719 120.175781 117.105469 120.144531 117.070312 C 120.34375 116.667969 120.175781 116.230469 120.34375 115.761719 C 120.613281 114.957031 121.351562 113.984375 122.15625 113.648438 C 122.222656 113.578125 122.324219 113.511719 122.492188 113.445312 C 122.863281 113.3125 123.164062 113.078125 123.5 112.84375 C 123.699219 112.671875 124.070312 112.574219 124.304688 112.40625 C 124.339844 112.40625 124.371094 112.371094 124.40625 112.371094 C 124.574219 112.371094 124.777344 112.507812 124.84375 112.671875 Z M 123.363281 117.375 C 123.332031 117.375 123.265625 117.375 123.332031 117.304688 C 123.332031 117.304688 123.199219 117.273438 123.230469 117.238281 C 123.363281 116.835938 123.699219 116.566406 124.035156 116.332031 C 124.105469 116.296875 123.96875 116.332031 124.105469 116.367188 C 124.105469 116.367188 124.207031 116.46875 124.136719 116.46875 C 123.902344 116.734375 123.667969 117.039062 123.363281 117.375 Z M 124.539062 115.863281 C 124.472656 115.964844 124.441406 116.0625 124.304688 116.132812 L 124.207031 116.132812 L 124.171875 116.097656 C 124.207031 115.996094 124.238281 115.863281 124.304688 115.695312 C 124.339844 115.628906 124.539062 115.5625 124.539062 115.628906 C 124.605469 115.695312 124.605469 115.726562 124.539062 115.863281 Z M 122.257812 118.078125 C 122.222656 118.078125 122.191406 118.078125 122.15625 118.046875 C 122.15625 117.875 122.292969 117.808594 122.558594 117.808594 C 122.59375 118.046875 122.59375 118.046875 122.257812 118.078125 Z M 124.84375 115.359375 C 124.808594 115.390625 124.777344 115.425781 124.742188 115.425781 C 124.707031 115.425781 124.707031 115.390625 124.640625 115.390625 C 124.707031 115.359375 124.742188 115.292969 124.742188 115.257812 L 124.808594 115.257812 C 124.84375 115.292969 124.84375 115.359375 124.84375 115.359375 Z M 121.855469 118.144531 C 121.886719 118.113281 121.886719 118.078125 121.886719 118.078125 L 122.125 118.078125 C 122.125 118.113281 122.125 118.144531 122.058594 118.144531 Z M 123.0625 117.339844 L 123.097656 117.375 L 123.0625 117.375 Z M 122.324219 118.515625 L 122.292969 118.515625 L 122.292969 118.480469 Z M 122.324219 118.515625 "/>
<path style=" stroke:none;fill-rule:nonzero;fill:rgb(100%,100%,100%);fill-opacity:1;" d="M 40.613281 102.621094 L 47.832031 102.621094 L 47.832031 106.828125 L 33.765625 106.828125 L 33.738281 103.378906 L 40.226562 96.675781 C 40.691406 96.210938 41.066406 95.738281 41.351562 95.265625 C 41.640625 94.789062 41.785156 94.378906 41.785156 94.035156 C 41.785156 93.617188 41.640625 93.300781 41.351562 93.082031 C 41.066406 92.867188 40.667969 92.757812 40.144531 92.757812 C 39.4375 92.757812 38.644531 92.964844 37.769531 93.371094 C 36.898438 93.777344 36.023438 94.34375 35.140625 95.070312 L 33.113281 91.175781 C 35.816406 89.324219 38.425781 88.394531 40.953125 88.394531 C 42.199219 88.394531 43.308594 88.601562 44.285156 89.007812 C 45.261719 89.417969 46.035156 89.984375 46.597656 90.707031 C 47.160156 91.433594 47.441406 92.273438 47.441406 93.226562 C 47.441406 94.175781 47.132812 95.152344 46.519531 96.144531 C 45.910156 97.144531 45.027344 98.210938 43.882812 99.351562 Z M 40.613281 102.621094 "/>
</g>
</svg>
