<?xml version="1.0" encoding="UTF-8"?>
<svg xmlns="http://www.w3.org/2000/svg" xmlns:xlink="http://www.w3.org/1999/xlink" width="150px" height="150px" viewBox="0 0 150 150" version="1.1">
<defs>
<clipPath id="clip1">
  <path d="M 60.398438 35.285156 L 91 35.285156 L 91 78.398438 L 60.398438 78.398438 Z M 60.398438 35.285156 "/>
</clipPath>
</defs>
<g id="surface1">
<rect x="0" y="0" width="150" height="150" style="fill:rgb(0%,0%,0%);fill-opacity:1;stroke:none;"/>
<g clip-path="url(#clip1)" clip-rule="nonzero">
<path style=" stroke:none;fill-rule:nonzero;fill:rgb(100%,34.117647%,34.117647%);fill-opacity:1;" d="M 72.644531 78.375 C 73.335938 78.328125 74.027344 78.1875 74.671875 77.941406 C 70.371094 77.003906 69.210938 72.222656 70.160156 68.367188 C 70.675781 66.210938 72.046875 64.300781 73.382812 62.625 C 75.328125 60.1875 75.902344 57.574219 76.582031 54.632812 C 76.265625 56.789062 76.546875 59.015625 77.730469 60.878906 C 78.539062 62.15625 79.675781 63.1875 80.578125 64.394531 C 82.253906 66.667969 82.839844 69.457031 82.664062 72.269531 C 82.382812 76.628906 79.5 78.035156 78.726562 77.742188 C 82.242188 79.054688 90.84375 76.300781 90.972656 67.160156 C 91.007812 64.417969 90.480469 60.339844 88.675781 58.300781 C 89.402344 59.707031 88.734375 63.632812 87.105469 64.441406 C 87.210938 60.398438 85.746094 57.902344 84.421875 55.066406 C 83.132812 52.300781 82.277344 49.113281 83.507812 46.183594 C 82.734375 46.804688 82.464844 48.058594 81.996094 48.914062 C 81.363281 50.0625 80.671875 51.175781 79.910156 52.242188 C 80.4375 46.3125 78.84375 40.230469 75.492188 35.320312 C 76.59375 36.925781 76.582031 39.070312 76.019531 40.921875 C 75.457031 42.785156 74.414062 44.449219 73.511719 46.171875 C 72.609375 47.894531 71.753906 49.394531 71.8125 51.328125 C 71.132812 48.480469 71.308594 45.433594 72.328125 42.691406 C 69.527344 44.519531 69.046875 48.363281 68.988281 51.691406 C 68.929688 55.03125 68.835938 58.792969 66.375 61.066406 C 66.972656 57.609375 67.113281 54.609375 65.648438 53.460938 C 65.964844 56.027344 64.957031 58.382812 63.222656 60.316406 C 58.910156 65.167969 60.316406 72.257812 63.667969 75.527344 C 65.707031 77.53125 69.539062 78.585938 72.644531 78.375 "/>
</g>
<path style=" stroke:none;fill-rule:nonzero;fill:rgb(100%,100%,100%);fill-opacity:1;" d="M 65.53125 88.757812 L 70.910156 88.757812 L 64.359375 101.214844 L 64.359375 106.980469 L 58.945312 106.980469 L 58.945312 101.320312 L 52.277344 88.757812 L 57.679688 88.757812 L 61.652344 96.1875 Z M 65.53125 88.757812 "/>
<path style=" stroke:none;fill-rule:nonzero;fill:rgb(100%,100%,100%);fill-opacity:1;" d="M 82.59375 88.417969 C 84.46875 88.417969 86.167969 88.828125 87.679688 89.648438 C 89.191406 90.457031 90.386719 91.582031 91.242188 93.011719 C 92.097656 94.441406 92.53125 96.046875 92.53125 97.828125 C 92.53125 99.632812 92.097656 101.261719 91.242188 102.703125 C 90.386719 104.144531 89.191406 105.28125 87.679688 106.113281 C 86.167969 106.933594 84.46875 107.34375 82.59375 107.34375 C 80.707031 107.34375 79.007812 106.933594 77.507812 106.113281 C 75.996094 105.28125 74.824219 104.144531 73.957031 102.703125 C 73.101562 101.261719 72.679688 99.632812 72.679688 97.828125 C 72.679688 96.046875 73.101562 94.441406 73.957031 93.011719 C 74.824219 91.582031 75.996094 90.457031 77.507812 89.648438 C 79.007812 88.828125 80.707031 88.417969 82.59375 88.417969 Z M 82.675781 92.917969 C 81.878906 92.917969 81.140625 93.140625 80.460938 93.574219 C 79.769531 93.996094 79.230469 94.59375 78.820312 95.34375 C 78.410156 96.105469 78.210938 96.9375 78.210938 97.863281 C 78.210938 98.777344 78.410156 99.621094 78.820312 100.382812 C 79.230469 101.144531 79.769531 101.742188 80.460938 102.1875 C 81.140625 102.621094 81.878906 102.84375 82.675781 102.84375 C 83.460938 102.84375 84.1875 102.621094 84.84375 102.1875 C 85.511719 101.742188 86.039062 101.144531 86.414062 100.394531 C 86.800781 99.632812 86.988281 98.789062 86.988281 97.863281 C 86.988281 96.9375 86.800781 96.105469 86.414062 95.34375 C 86.039062 94.59375 85.523438 93.996094 84.867188 93.574219 C 84.199219 93.140625 83.472656 92.917969 82.675781 92.917969 Z M 82.675781 92.917969 "/>
<path style=" stroke:none;fill-rule:nonzero;fill:rgb(100%,100%,100%);fill-opacity:1;" d="M 101.132812 99.445312 C 101.132812 100.464844 101.425781 101.285156 102.011719 101.917969 C 102.597656 102.539062 103.335938 102.84375 104.226562 102.84375 C 105.082031 102.84375 105.796875 102.539062 106.347656 101.929688 C 106.910156 101.308594 107.179688 100.488281 107.179688 99.445312 L 107.179688 88.757812 L 112.59375 88.757812 L 112.59375 99.445312 C 112.59375 101.039062 112.253906 102.433594 111.5625 103.617188 C 110.882812 104.800781 109.910156 105.714844 108.644531 106.371094 C 107.378906 107.015625 105.902344 107.34375 104.226562 107.34375 C 102.527344 107.34375 101.039062 107.015625 99.75 106.371094 C 98.472656 105.714844 97.476562 104.800781 96.773438 103.617188 C 96.082031 102.433594 95.730469 101.039062 95.730469 99.445312 L 95.730469 88.757812 L 101.132812 88.757812 Z M 101.132812 99.445312 "/>
<path style=" stroke:none;fill-rule:nonzero;fill:rgb(100%,34.117647%,34.117647%);fill-opacity:1;" d="M 105.140625 112.253906 C 105.222656 112.183594 105.328125 112.125 105.398438 112.042969 C 106.101562 111.515625 106.722656 110.835938 107.34375 109.980469 C 107.367188 109.910156 107.507812 109.570312 107.449219 109.570312 C 107.414062 109.570312 107.390625 109.582031 107.332031 109.664062 C 106.875 110.15625 106.265625 110.941406 105.808594 111.375 C 105.515625 111.667969 104.90625 112.03125 104.53125 112.183594 C 104.414062 112.230469 104.285156 112.265625 104.167969 112.347656 C 104.039062 112.40625 103.910156 112.40625 103.769531 112.441406 C 103.710938 112.464844 103.652344 112.464844 103.59375 112.464844 C 103.5 112.464844 103.371094 112.441406 103.277344 112.40625 C 103.230469 112.382812 103.195312 112.347656 103.183594 112.300781 C 103.125 112.089844 103.101562 111.867188 103.066406 111.667969 C 103.054688 111.609375 103.078125 111.550781 103.078125 111.503906 C 103.101562 111.457031 103.113281 111.398438 103.113281 111.351562 C 103.113281 111.210938 103.160156 111.070312 103.195312 110.929688 C 103.441406 110.097656 103.839844 109.113281 104.449219 108.492188 C 104.542969 108.386719 104.660156 108.304688 104.730469 108.1875 C 104.941406 107.894531 105.246094 107.625 105.539062 107.4375 C 105.5625 107.449219 105.597656 107.460938 105.632812 107.472656 C 105.667969 107.472656 105.691406 107.496094 105.703125 107.507812 C 105.796875 107.578125 105.808594 107.683594 105.796875 107.789062 C 105.75 107.964844 105.632812 108.09375 105.539062 108.246094 C 105.503906 108.292969 105.46875 108.339844 105.445312 108.375 C 105.386719 108.46875 105.410156 108.550781 105.515625 108.550781 C 105.539062 108.550781 105.574219 108.550781 105.597656 108.550781 C 105.667969 108.550781 105.714844 108.550781 105.761719 108.550781 C 105.84375 108.574219 105.902344 108.527344 105.9375 108.480469 C 106.054688 108.375 106.113281 108.234375 106.183594 108.09375 C 106.359375 107.71875 106.113281 107.296875 105.75 107.203125 C 105.667969 107.179688 105.574219 107.15625 105.480469 107.15625 C 105.421875 107.15625 105.386719 107.15625 105.328125 107.179688 C 105.292969 107.203125 105.269531 107.203125 105.234375 107.203125 C 105.199219 107.203125 105.175781 107.203125 105.140625 107.203125 C 105.046875 107.214844 104.941406 107.238281 104.871094 107.296875 C 104.425781 107.601562 103.804688 108.292969 103.570312 108.773438 C 103.230469 109.371094 102.960938 109.96875 102.785156 110.613281 C 102.726562 110.894531 102.65625 111.175781 102.65625 111.46875 C 102.65625 111.867188 102.761719 112.078125 102.925781 112.417969 C 103.054688 112.699219 103.300781 112.804688 103.570312 112.898438 C 103.59375 112.921875 103.628906 112.898438 103.652344 112.921875 C 103.863281 112.921875 104.085938 112.886719 104.261719 112.769531 C 104.285156 112.757812 104.320312 112.757812 104.355469 112.746094 C 104.496094 112.699219 104.625 112.652344 104.71875 112.523438 C 104.777344 112.464844 104.835938 112.429688 104.894531 112.382812 C 104.988281 112.324219 105.070312 112.3125 105.140625 112.253906 Z M 103.558594 109.042969 C 103.570312 109.007812 103.582031 108.996094 103.59375 108.972656 C 103.617188 108.996094 103.617188 109.03125 103.617188 109.054688 C 103.617188 109.089844 103.59375 109.101562 103.570312 109.113281 L 103.558594 109.113281 C 103.523438 109.089844 103.535156 109.054688 103.558594 109.042969 Z M 103.289062 109.628906 C 103.289062 109.582031 103.277344 109.546875 103.335938 109.523438 C 103.335938 109.570312 103.335938 109.617188 103.289062 109.628906 Z M 103.125 109.910156 C 103.125 109.886719 103.136719 109.863281 103.171875 109.863281 C 103.171875 109.898438 103.171875 109.910156 103.160156 109.921875 C 103.160156 109.945312 103.160156 109.945312 103.136719 109.957031 C 103.136719 109.945312 103.125 109.921875 103.125 109.910156 Z M 103.453125 109.347656 C 103.441406 109.382812 103.417969 109.394531 103.40625 109.394531 L 103.40625 109.335938 C 103.40625 109.324219 103.417969 109.324219 103.417969 109.300781 C 103.441406 109.324219 103.453125 109.335938 103.453125 109.347656 Z M 103.042969 110.214844 C 103.042969 110.238281 103.042969 110.25 103.054688 110.261719 L 103.019531 110.296875 C 103.019531 110.285156 103.019531 110.261719 103.007812 110.238281 C 103.007812 110.238281 103.019531 110.238281 103.042969 110.214844 Z M 103.078125 110.0625 C 103.101562 110.074219 103.101562 110.085938 103.113281 110.097656 C 103.101562 110.097656 103.101562 110.121094 103.078125 110.121094 C 103.078125 110.097656 103.066406 110.085938 103.066406 110.074219 Z M 103.652344 108.878906 C 103.640625 108.855469 103.652344 108.855469 103.675781 108.855469 C 103.675781 108.867188 103.675781 108.867188 103.652344 108.878906 Z M 103.476562 109.183594 L 103.5 109.21875 L 103.476562 109.21875 Z M 103.476562 109.183594 "/>
<path style=" stroke:none;fill-rule:nonzero;fill:rgb(100%,34.117647%,34.117647%);fill-opacity:1;" d="M 109.113281 110.941406 C 109.125 110.929688 109.136719 110.917969 109.160156 110.894531 C 109.183594 110.859375 109.183594 110.765625 109.160156 110.800781 C 109.136719 110.8125 109.113281 110.835938 109.089844 110.871094 C 109.089844 110.882812 109.113281 110.917969 109.113281 110.929688 C 108.949219 110.953125 108.949219 111.117188 108.878906 111.164062 C 108.84375 111.164062 108.832031 111.175781 108.832031 111.199219 C 108.84375 111.199219 108.855469 111.175781 108.878906 111.175781 C 108.855469 111.199219 108.84375 111.222656 108.832031 111.234375 C 108.832031 111.234375 108.832031 111.222656 108.832031 111.210938 L 108.785156 111.246094 C 108.785156 111.246094 108.785156 111.269531 108.796875 111.28125 C 108.621094 111.550781 108.046875 112.207031 107.765625 112.265625 C 107.730469 112.324219 107.589844 112.125 107.507812 112.125 C 107.484375 112.089844 107.484375 112.066406 107.460938 112.042969 C 107.390625 111.914062 107.367188 111.785156 107.402344 111.644531 C 107.402344 111.574219 107.402344 111.492188 107.414062 111.433594 C 107.425781 111.234375 107.414062 111.046875 107.484375 110.859375 C 107.507812 110.824219 107.507812 110.800781 107.472656 110.765625 C 107.460938 110.730469 107.460938 110.707031 107.472656 110.671875 C 107.542969 110.589844 107.542969 110.4375 107.566406 110.320312 C 107.589844 110.191406 107.578125 110.0625 107.660156 109.957031 C 107.636719 109.804688 107.742188 109.722656 107.765625 109.570312 C 107.800781 109.429688 107.90625 108.996094 107.964844 108.867188 C 108.199219 108.363281 108.421875 107.835938 108.515625 107.285156 C 108.539062 107.144531 108.433594 106.945312 108.304688 106.875 C 108.269531 106.875 108.246094 106.863281 108.210938 106.863281 L 108.046875 106.863281 C 108.023438 106.863281 107.988281 106.875 107.964844 106.886719 C 107.8125 107.121094 107.730469 107.378906 107.636719 107.636719 C 107.578125 107.847656 107.519531 108.070312 107.449219 108.269531 C 107.414062 108.375 107.367188 108.457031 107.34375 108.550781 C 107.226562 108.949219 107.121094 109.347656 107.003906 109.734375 C 106.96875 109.910156 106.910156 110.0625 106.898438 110.203125 C 106.886719 110.484375 106.839844 110.765625 106.816406 111.046875 C 106.792969 111.246094 106.78125 111.457031 106.839844 111.679688 C 106.851562 111.714844 106.851562 111.75 106.875 111.796875 C 106.886719 111.914062 106.945312 112.019531 107.015625 112.101562 C 107.109375 112.207031 107.191406 112.324219 107.285156 112.429688 C 107.355469 112.535156 107.460938 112.605469 107.589844 112.652344 C 107.636719 112.675781 107.695312 112.675781 107.753906 112.675781 C 108 112.675781 108.339844 112.5 108.503906 112.289062 C 108.609375 112.195312 108.574219 112.160156 108.667969 112.042969 C 108.761719 111.960938 108.878906 111.644531 108.832031 111.503906 C 108.832031 111.46875 108.820312 111.445312 108.84375 111.445312 C 108.878906 111.457031 108.890625 111.492188 108.914062 111.503906 C 108.949219 111.457031 108.902344 111.398438 108.914062 111.351562 C 108.9375 111.292969 108.960938 111.246094 108.996094 111.199219 C 109.019531 111.117188 109.089844 111.035156 109.089844 110.941406 Z M 108.339844 105.714844 C 108.433594 105.785156 108.550781 105.808594 108.667969 105.867188 C 108.726562 105.84375 108.796875 105.808594 108.878906 105.785156 C 108.914062 105.773438 108.9375 105.726562 108.9375 105.691406 C 108.972656 105.550781 108.949219 105.410156 109.007812 105.28125 C 109.019531 105.269531 109.007812 105.257812 108.996094 105.234375 C 108.960938 105.210938 108.902344 105.175781 108.855469 105.175781 C 108.84375 105.175781 108.832031 105.175781 108.820312 105.199219 C 108.679688 105.28125 108.539062 105.386719 108.421875 105.492188 C 108.375 105.515625 108.339844 105.5625 108.316406 105.609375 C 108.304688 105.632812 108.316406 105.691406 108.339844 105.714844 Z M 108.832031 111.234375 C 108.832031 111.246094 108.832031 111.269531 108.832031 111.269531 C 108.832031 111.28125 108.820312 111.28125 108.820312 111.292969 C 108.820312 111.269531 108.820312 111.246094 108.832031 111.234375 Z M 108.832031 111.234375 "/>
<path style=" stroke:none;fill-rule:nonzero;fill:rgb(100%,34.117647%,34.117647%);fill-opacity:1;" d="M 112.464844 102.175781 C 112.453125 102.152344 112.441406 102.152344 112.429688 102.152344 C 112.429688 102.175781 112.441406 102.1875 112.441406 102.1875 C 112.453125 102.1875 112.464844 102.175781 112.464844 102.175781 Z M 111.890625 103.957031 C 111.878906 104.015625 111.878906 104.050781 111.855469 104.050781 C 111.832031 104.050781 111.820312 104.050781 111.808594 104.027344 C 111.796875 104.027344 111.773438 104.015625 111.761719 104.015625 C 111.984375 103.40625 112.195312 102.949219 112.429688 102.492188 C 112.464844 102.410156 112.511719 102.363281 112.523438 102.28125 C 112.558594 102.175781 112.605469 102.082031 112.617188 101.976562 C 112.628906 101.917969 112.628906 101.859375 112.617188 101.824219 C 112.59375 101.71875 112.523438 101.625 112.488281 101.542969 C 112.453125 101.484375 112.253906 101.425781 112.207031 101.4375 C 112.195312 101.4375 112.195312 101.4375 112.171875 101.449219 C 111.949219 101.601562 111.878906 101.835938 111.796875 102.082031 C 111.644531 102.515625 111.527344 102.691406 111.398438 103.136719 C 111.375 103.183594 111.339844 103.253906 111.316406 103.3125 L 111.164062 103.863281 L 111.164062 103.898438 C 111.1875 103.898438 111.222656 103.863281 111.222656 103.839844 C 111.222656 103.78125 111.246094 103.722656 111.292969 103.664062 C 111.304688 103.628906 111.339844 103.617188 111.351562 103.617188 C 111.375 103.617188 111.410156 103.628906 111.433594 103.664062 L 111.351562 103.898438 C 111.292969 103.910156 111.222656 103.910156 111.164062 103.910156 L 111.164062 103.898438 C 111.140625 103.910156 111.140625 103.910156 111.128906 103.910156 C 111.011719 103.921875 110.894531 103.945312 110.789062 103.945312 C 110.730469 103.945312 110.671875 103.945312 110.625 103.957031 C 110.519531 103.980469 110.460938 103.980469 110.367188 103.980469 C 110.132812 103.980469 109.875 104.050781 109.652344 104.0625 C 109.546875 104.0625 109.464844 104.074219 109.371094 104.074219 C 109.347656 104.074219 109.335938 104.074219 109.300781 104.074219 L 109.171875 104.097656 C 109.089844 104.097656 109.066406 104.179688 109.03125 104.285156 C 109.007812 104.367188 109.019531 104.496094 109.054688 104.613281 C 109.054688 104.707031 109.113281 104.777344 109.171875 104.765625 C 109.183594 104.765625 109.21875 104.753906 109.242188 104.765625 C 109.453125 104.71875 109.628906 104.660156 109.804688 104.660156 C 109.828125 104.660156 109.851562 104.660156 109.863281 104.660156 C 109.96875 104.648438 110.0625 104.636719 110.167969 104.636719 C 110.226562 104.636719 110.320312 104.613281 110.390625 104.601562 C 110.425781 104.601562 110.4375 104.601562 110.449219 104.589844 C 110.4375 104.566406 110.425781 104.519531 110.390625 104.496094 C 110.425781 104.472656 110.449219 104.472656 110.484375 104.472656 C 110.578125 104.460938 110.683594 104.472656 110.789062 104.425781 C 110.835938 104.425781 110.894531 104.425781 110.953125 104.414062 L 110.953125 104.460938 C 110.953125 104.472656 110.953125 104.484375 110.941406 104.496094 C 110.917969 104.53125 110.90625 104.542969 110.917969 104.566406 C 110.789062 104.917969 110.308594 106.136719 110.332031 106.253906 C 110.402344 106.230469 110.964844 104.695312 110.976562 104.648438 L 110.976562 104.589844 C 111.058594 104.589844 111.070312 104.542969 111.011719 104.484375 C 111.011719 104.460938 111.023438 104.425781 111.035156 104.402344 C 111.058594 104.402344 111.082031 104.402344 111.117188 104.378906 C 111.140625 104.367188 111.175781 104.367188 111.222656 104.367188 C 111.199219 104.402344 111.1875 104.414062 111.1875 104.425781 C 111.175781 104.4375 111.175781 104.460938 111.175781 104.472656 L 111.175781 104.484375 C 111.164062 104.484375 111.164062 104.484375 111.140625 104.484375 C 111.09375 104.484375 111.058594 104.53125 111.164062 104.566406 C 111.058594 104.929688 110.542969 106.242188 110.507812 106.382812 C 110.4375 106.628906 110.390625 106.863281 110.308594 107.085938 C 110.226562 107.320312 109.910156 108.515625 109.769531 108.726562 C 109.757812 108.761719 109.757812 108.820312 109.746094 108.867188 C 109.710938 109.054688 109.628906 109.230469 109.605469 109.429688 C 109.605469 109.453125 109.59375 109.464844 109.582031 109.488281 L 109.523438 109.6875 C 109.476562 109.886719 109.394531 110.039062 109.40625 110.238281 C 109.40625 110.25 109.40625 110.25 109.394531 110.261719 C 109.300781 110.425781 109.289062 110.601562 109.253906 110.777344 C 109.230469 110.941406 109.171875 111.105469 109.183594 111.269531 C 109.183594 111.292969 109.171875 111.328125 109.148438 111.351562 C 109.148438 111.339844 109.136719 111.328125 109.136719 111.328125 C 109.089844 111.035156 109.195312 110.753906 109.195312 110.460938 L 109.195312 110.4375 C 109.289062 110.308594 109.300781 110.15625 109.3125 110.003906 C 109.3125 109.863281 109.582031 108.902344 109.628906 108.761719 C 109.640625 108.714844 109.933594 107.730469 109.886719 107.625 C 109.851562 107.835938 109.511719 108.949219 109.453125 109.125 C 109.3125 109.582031 109.007812 110.578125 109.007812 111.046875 L 109.007812 111.152344 C 108.914062 111.386719 108.960938 111.632812 108.960938 111.890625 C 108.960938 112.03125 109.054688 112.359375 109.195312 112.429688 C 109.335938 112.5 109.429688 112.617188 109.546875 112.722656 C 109.59375 112.769531 109.640625 112.78125 109.6875 112.78125 C 109.734375 112.78125 109.757812 112.769531 109.804688 112.757812 L 110.214844 112.582031 C 110.390625 112.488281 110.554688 112.417969 110.695312 112.289062 C 110.683594 112.265625 110.671875 112.265625 110.671875 112.242188 L 110.71875 112.207031 L 110.71875 112.230469 C 110.71875 112.195312 110.730469 112.183594 110.765625 112.160156 C 110.824219 112.066406 110.90625 111.984375 111 111.914062 C 111.023438 111.890625 111.035156 111.890625 111.070312 111.890625 C 111.09375 111.890625 111.117188 111.890625 111.140625 111.902344 C 111.164062 111.902344 111.175781 111.914062 111.199219 111.914062 C 111.222656 111.914062 111.234375 111.902344 111.246094 111.890625 C 111.257812 111.855469 111.246094 111.84375 111.222656 111.832031 C 111.199219 111.808594 111.1875 111.796875 111.1875 111.785156 C 111.1875 111.738281 111.257812 111.726562 111.292969 111.726562 C 111.292969 111.726562 111.304688 111.726562 111.316406 111.726562 C 111.339844 111.738281 111.351562 111.738281 111.363281 111.738281 C 111.375 111.738281 111.398438 111.714844 111.375 111.691406 C 111.351562 111.621094 111.363281 111.585938 111.421875 111.550781 C 111.539062 111.457031 111.65625 111.351562 111.738281 111.222656 C 111.761719 111.199219 111.761719 111.164062 111.761719 111.117188 C 111.75 111.070312 111.773438 111.058594 111.820312 111.046875 C 111.855469 111.035156 111.890625 111.035156 111.925781 111.035156 C 112.03125 111.011719 112.078125 110.953125 112.078125 110.859375 C 112.113281 110.835938 112.125 110.8125 112.125 110.765625 L 112.125 110.578125 L 112.078125 110.578125 C 112.078125 110.542969 112.101562 110.53125 112.125 110.519531 L 112.125 110.578125 C 112.207031 110.554688 112.21875 110.554688 112.230469 110.472656 L 112.171875 110.472656 C 112.160156 110.496094 112.160156 110.519531 112.125 110.519531 C 112.125 110.484375 112.148438 110.472656 112.171875 110.460938 C 112.195312 110.425781 112.207031 110.425781 112.230469 110.414062 L 112.265625 110.308594 C 112.324219 110.238281 112.382812 110.15625 112.464844 110.121094 C 112.464844 110.085938 112.5 110.074219 112.523438 110.0625 C 112.511719 110.097656 112.5 110.121094 112.464844 110.132812 C 112.464844 110.203125 112.429688 110.25 112.40625 110.296875 C 112.511719 110.296875 112.570312 110.214844 112.617188 110.144531 C 112.628906 110.132812 112.617188 110.085938 112.570312 110.074219 L 112.523438 110.074219 C 112.558594 110.003906 112.617188 109.921875 112.6875 109.898438 C 112.710938 109.910156 112.6875 109.957031 112.734375 109.921875 L 112.6875 109.898438 C 112.6875 109.839844 112.722656 109.792969 112.769531 109.746094 L 113.039062 109.453125 C 113.203125 109.230469 113.367188 109.03125 113.554688 108.832031 C 113.601562 108.761719 113.601562 108.726562 113.578125 108.726562 C 113.554688 108.726562 113.53125 108.75 113.484375 108.785156 L 112.945312 109.394531 C 112.710938 109.6875 112.488281 109.96875 112.21875 110.214844 L 111.984375 110.472656 C 111.914062 110.589844 111.820312 110.671875 111.738281 110.765625 L 111.304688 111.199219 C 111.257812 111.234375 111.222656 111.292969 111.175781 111.328125 C 111.035156 111.398438 110.953125 111.503906 110.847656 111.609375 C 110.601562 111.84375 110.320312 112.042969 110.027344 112.242188 C 109.945312 112.300781 109.851562 112.347656 109.757812 112.382812 C 109.746094 112.382812 109.734375 112.40625 109.699219 112.40625 C 109.640625 112.40625 109.605469 112.359375 109.582031 112.300781 C 109.535156 112.195312 109.523438 112.089844 109.523438 111.984375 L 109.523438 111.644531 C 109.523438 111.574219 109.523438 111.46875 109.535156 111.398438 C 109.582031 111.292969 109.582031 111.175781 109.582031 111.070312 C 109.582031 110.976562 109.59375 110.882812 109.628906 110.800781 C 109.652344 110.71875 109.6875 110.648438 109.6875 110.578125 L 109.746094 110.25 C 109.757812 110.121094 109.816406 110.015625 109.863281 109.910156 C 109.886719 109.816406 109.886719 109.746094 109.921875 109.664062 C 109.933594 109.582031 109.945312 109.511719 109.980469 109.453125 C 109.992188 109.40625 110.097656 109.042969 110.097656 108.996094 C 110.097656 108.9375 110.109375 108.890625 110.144531 108.832031 C 110.167969 108.773438 110.496094 107.777344 110.507812 107.695312 C 110.554688 107.507812 110.613281 107.320312 110.671875 107.144531 C 110.777344 106.78125 111.433594 105 111.5625 104.648438 L 111.691406 104.261719 C 111.738281 104.285156 111.761719 104.285156 111.796875 104.285156 C 111.820312 104.285156 111.855469 104.285156 111.867188 104.261719 C 111.890625 104.261719 111.9375 104.238281 111.972656 104.25 C 111.984375 104.285156 111.996094 104.285156 112.007812 104.285156 C 112.042969 104.285156 112.054688 104.261719 112.078125 104.261719 C 112.089844 104.238281 112.101562 104.203125 112.113281 104.203125 C 112.125 104.203125 112.125 104.226562 112.148438 104.238281 C 112.171875 104.296875 112.171875 104.296875 112.207031 104.261719 L 112.148438 104.238281 C 112.160156 104.191406 112.195312 104.203125 112.207031 104.203125 L 112.207031 104.238281 C 112.21875 104.191406 112.21875 104.191406 112.21875 104.25 L 112.289062 104.191406 C 112.3125 104.179688 112.335938 104.167969 112.382812 104.167969 C 112.394531 104.167969 112.40625 104.167969 112.429688 104.167969 C 112.523438 104.144531 112.617188 104.132812 112.710938 104.085938 C 112.746094 104.085938 112.78125 104.050781 112.804688 104.0625 C 112.945312 104.074219 113.074219 103.96875 113.203125 103.96875 C 113.320312 103.945312 113.414062 103.886719 113.484375 103.863281 C 113.578125 103.863281 113.871094 103.769531 113.929688 103.710938 C 113.976562 103.675781 114 103.675781 114.046875 103.675781 C 114.09375 103.675781 114.152344 103.6875 114.199219 103.710938 C 114.082031 103.792969 113.941406 103.886719 113.8125 103.957031 C 113.835938 103.96875 113.859375 103.96875 113.882812 103.96875 C 113.894531 103.96875 113.929688 103.96875 113.953125 103.957031 C 114.023438 103.898438 114.082031 103.910156 114.105469 103.851562 C 114.117188 103.851562 114.140625 103.851562 114.140625 103.851562 C 114.164062 103.851562 114.351562 103.746094 114.351562 103.710938 C 114.386719 103.582031 114.339844 103.5 114.351562 103.371094 C 114.375 103.324219 114.339844 103.277344 114.316406 103.265625 C 114.292969 103.253906 114.269531 103.230469 114.257812 103.230469 C 114.234375 103.230469 114.222656 103.253906 114.210938 103.289062 C 114.164062 103.371094 114.105469 103.394531 114.058594 103.394531 C 113.988281 103.394531 113.941406 103.453125 113.882812 103.488281 C 113.859375 103.523438 113.8125 103.558594 113.765625 103.558594 C 113.753906 103.546875 113.742188 103.546875 113.71875 103.546875 C 113.683594 103.546875 113.648438 103.570312 113.601562 103.570312 C 113.589844 103.605469 113.542969 103.628906 113.507812 103.617188 C 113.484375 103.617188 113.472656 103.617188 113.460938 103.617188 C 113.414062 103.617188 113.378906 103.617188 113.367188 103.652344 C 113.34375 103.664062 113.296875 103.6875 113.261719 103.6875 C 113.25 103.6875 113.238281 103.675781 113.226562 103.675781 C 113.203125 103.652344 113.179688 103.664062 113.144531 103.6875 C 113.085938 103.734375 113.015625 103.769531 112.96875 103.746094 C 112.957031 103.734375 112.945312 103.734375 112.921875 103.734375 C 112.910156 103.734375 112.886719 103.746094 112.863281 103.769531 C 112.863281 103.804688 112.769531 103.828125 112.722656 103.828125 C 112.6875 103.828125 112.664062 103.804688 112.628906 103.792969 C 112.617188 103.804688 112.570312 103.804688 112.546875 103.851562 C 112.5 103.898438 112.441406 103.910156 112.371094 103.910156 C 112.347656 103.945312 112.324219 103.957031 112.289062 103.921875 C 112.265625 103.898438 112.230469 103.945312 112.21875 103.945312 C 112.21875 103.957031 112.207031 103.957031 112.195312 103.957031 C 112.171875 103.957031 112.148438 103.957031 112.125 103.957031 C 112.113281 103.957031 112.113281 103.957031 112.101562 103.957031 C 112.089844 103.980469 112.054688 103.980469 112.03125 103.980469 C 111.996094 103.980469 111.9375 103.96875 111.890625 103.957031 C 111.914062 103.921875 111.914062 103.886719 111.9375 103.886719 C 111.949219 103.863281 111.984375 103.851562 111.996094 103.828125 C 111.984375 103.804688 111.972656 103.804688 111.949219 103.804688 C 111.925781 103.804688 111.878906 103.828125 111.867188 103.839844 C 111.855469 103.839844 111.855469 103.839844 111.855469 103.863281 C 111.855469 103.886719 111.867188 103.910156 111.867188 103.921875 Z M 110.285156 106.289062 L 110.050781 107.050781 C 110.039062 107.097656 110.050781 107.15625 110.050781 107.214844 C 110.085938 107.214844 110.097656 107.179688 110.097656 107.15625 C 110.167969 106.945312 110.214844 106.722656 110.285156 106.523438 C 110.320312 106.429688 110.332031 106.347656 110.332031 106.253906 Z M 111.738281 110.917969 C 111.796875 110.824219 111.867188 110.753906 111.949219 110.695312 L 111.949219 110.8125 L 111.855469 110.882812 C 111.820312 110.917969 111.773438 110.917969 111.738281 110.917969 Z M 113.484375 103.746094 C 113.507812 103.734375 113.519531 103.722656 113.53125 103.722656 C 113.554688 103.722656 113.589844 103.746094 113.636719 103.769531 C 113.601562 103.792969 113.554688 103.792969 113.53125 103.804688 C 113.472656 103.804688 113.378906 103.839844 113.308594 103.839844 C 113.296875 103.839844 113.296875 103.839844 113.285156 103.839844 C 113.34375 103.769531 113.414062 103.769531 113.484375 103.746094 Z M 112.042969 104.355469 C 111.832031 104.355469 112.207031 104.414062 112.207031 104.414062 L 112.230469 104.414062 L 112.230469 104.367188 L 112.21875 104.34375 C 112.160156 104.34375 112.113281 104.34375 112.042969 104.355469 Z M 110.800781 104.566406 C 110.742188 104.53125 110.683594 104.519531 110.625 104.519531 C 110.578125 104.519531 110.554688 104.519531 110.519531 104.53125 C 110.519531 104.542969 110.507812 104.578125 110.507812 104.578125 L 110.519531 104.589844 C 110.625 104.589844 110.695312 104.578125 110.800781 104.566406 Z M 112.21875 103.804688 C 112.265625 103.828125 112.289062 103.828125 112.3125 103.828125 C 112.335938 103.828125 112.347656 103.804688 112.371094 103.769531 C 112.335938 103.746094 112.3125 103.746094 112.289062 103.746094 C 112.230469 103.746094 112.171875 103.769531 112.113281 103.78125 C 112.113281 103.78125 112.101562 103.792969 112.101562 103.804688 L 112.113281 103.828125 C 112.125 103.839844 112.148438 103.851562 112.160156 103.851562 C 112.195312 103.851562 112.207031 103.828125 112.21875 103.804688 Z M 110.050781 107.214844 C 109.980469 107.285156 109.96875 107.390625 109.945312 107.496094 C 109.933594 107.496094 109.96875 107.507812 109.96875 107.519531 C 110.050781 107.4375 110.050781 107.332031 110.050781 107.214844 Z M 112.851562 103.945312 C 112.828125 103.980469 112.792969 104.003906 112.769531 104.003906 C 112.746094 104.003906 112.722656 103.980469 112.710938 103.957031 C 112.722656 103.921875 112.746094 103.921875 112.769531 103.921875 C 112.792969 103.921875 112.804688 103.921875 112.839844 103.945312 C 112.851562 103.898438 112.886719 103.886719 112.910156 103.886719 C 112.945312 103.886719 112.957031 103.886719 113.003906 103.910156 C 112.957031 103.921875 112.910156 103.957031 112.886719 103.957031 C 112.863281 103.957031 112.863281 103.957031 112.851562 103.945312 Z M 113.085938 103.570312 C 113.132812 103.605469 113.144531 103.605469 113.179688 103.605469 C 113.226562 103.605469 113.261719 103.582031 113.320312 103.546875 L 113.320312 103.523438 C 113.203125 103.523438 113.203125 103.523438 113.085938 103.570312 Z M 113.121094 103.910156 C 113.085938 103.898438 113.074219 103.910156 113.027344 103.910156 C 113.027344 103.910156 113.015625 103.910156 113.003906 103.910156 C 113.003906 103.886719 113.015625 103.863281 113.027344 103.851562 C 113.0625 103.839844 113.085938 103.828125 113.109375 103.828125 C 113.132812 103.804688 113.167969 103.828125 113.167969 103.839844 C 113.167969 103.863281 113.132812 103.898438 113.121094 103.910156 Z M 111.304688 104.097656 C 111.28125 104.097656 111.257812 104.121094 111.234375 104.121094 C 111.199219 104.121094 111.199219 104.097656 111.199219 104.074219 C 111.1875 104.0625 111.1875 104.027344 111.199219 104.027344 C 111.222656 104.027344 111.246094 104.027344 111.257812 104.015625 L 111.339844 104.015625 Z M 111.691406 102.914062 C 111.691406 102.949219 111.679688 102.972656 111.632812 102.996094 L 111.609375 102.996094 C 111.609375 102.972656 111.597656 102.9375 111.597656 102.925781 C 111.597656 102.878906 111.609375 102.867188 111.644531 102.867188 C 111.679688 102.855469 111.703125 102.878906 111.691406 102.914062 Z M 112.523438 103.734375 C 112.5 103.722656 112.488281 103.722656 112.453125 103.722656 C 112.441406 103.722656 112.40625 103.734375 112.382812 103.769531 C 112.40625 103.792969 112.441406 103.828125 112.453125 103.804688 C 112.488281 103.792969 112.511719 103.769531 112.511719 103.734375 C 112.523438 103.734375 112.546875 103.746094 112.546875 103.710938 C 112.523438 103.722656 112.523438 103.734375 112.523438 103.734375 Z M 113.414062 104.121094 C 113.460938 104.121094 113.484375 104.097656 113.519531 104.097656 C 113.53125 104.097656 113.542969 104.0625 113.542969 104.0625 C 113.519531 104.050781 113.53125 104.050781 113.519531 104.050781 C 113.507812 104.027344 113.472656 104.027344 113.425781 104.050781 C 113.414062 104.050781 113.425781 104.074219 113.414062 104.121094 Z M 112.78125 103.664062 C 112.78125 103.6875 112.78125 103.6875 112.792969 103.710938 C 112.828125 103.6875 112.863281 103.710938 112.886719 103.664062 C 112.863281 103.652344 112.863281 103.617188 112.863281 103.617188 C 112.839844 103.617188 112.804688 103.617188 112.792969 103.652344 Z M 113.589844 103.980469 L 113.589844 104.027344 L 113.601562 104.050781 C 113.625 104.027344 113.636719 104.050781 113.660156 104.050781 C 113.660156 104.050781 113.683594 104.050781 113.695312 104.027344 L 113.695312 103.980469 Z M 112.957031 104.203125 C 112.96875 104.226562 112.992188 104.226562 112.992188 104.226562 C 113.015625 104.226562 113.074219 104.191406 113.132812 104.179688 C 113.132812 104.179688 113.132812 104.144531 113.121094 104.167969 C 113.085938 104.144531 113.027344 104.179688 112.992188 104.191406 Z M 112.371094 104.074219 C 112.382812 104.027344 112.394531 104.003906 112.40625 104.003906 C 112.40625 104.003906 112.429688 104.015625 112.441406 104.050781 C 112.453125 104.0625 112.453125 104.0625 112.453125 104.074219 C 112.40625 104.097656 112.394531 104.085938 112.371094 104.074219 Z M 112.078125 110.859375 C 112.054688 110.859375 112.042969 110.859375 112.03125 110.859375 C 111.996094 110.859375 111.972656 110.859375 111.949219 110.800781 C 111.996094 110.800781 112.054688 110.800781 112.078125 110.859375 Z M 110.671875 104.132812 C 110.660156 104.132812 110.648438 104.144531 110.613281 104.144531 C 110.578125 104.167969 110.566406 104.144531 110.566406 104.132812 C 110.578125 104.121094 110.601562 104.085938 110.613281 104.085938 C 110.648438 104.085938 110.660156 104.097656 110.671875 104.132812 Z M 112.792969 104.25 C 112.769531 104.261719 112.722656 104.238281 112.710938 104.226562 C 112.6875 104.226562 112.664062 104.226562 112.6875 104.25 C 112.6875 104.261719 112.710938 104.296875 112.722656 104.285156 C 112.734375 104.285156 112.769531 104.308594 112.792969 104.25 Z M 113.636719 103.769531 C 113.648438 103.734375 113.660156 103.710938 113.695312 103.710938 C 113.707031 103.710938 113.707031 103.710938 113.71875 103.722656 C 113.707031 103.769531 113.695312 103.78125 113.683594 103.78125 C 113.660156 103.78125 113.648438 103.769531 113.636719 103.769531 Z M 110.964844 104.097656 C 111.011719 104.074219 111.035156 104.0625 111.070312 104.0625 L 111.035156 104.097656 C 111.023438 104.121094 111 104.121094 110.964844 104.132812 Z M 112.382812 104.308594 C 112.347656 104.308594 112.324219 104.308594 112.3125 104.34375 L 112.3125 104.355469 C 112.324219 104.378906 112.335938 104.402344 112.335938 104.355469 C 112.371094 104.355469 112.371094 104.355469 112.382812 104.320312 Z M 112.546875 103.96875 C 112.558594 103.96875 112.558594 104.027344 112.558594 104.027344 L 112.558594 104.050781 L 112.511719 104.050781 L 112.511719 103.980469 C 112.511719 103.96875 112.511719 103.96875 112.523438 103.96875 Z M 110.261719 104.519531 C 110.261719 104.484375 110.273438 104.484375 110.285156 104.484375 C 110.308594 104.484375 110.320312 104.496094 110.34375 104.519531 C 110.332031 104.53125 110.320312 104.542969 110.308594 104.542969 C 110.285156 104.542969 110.273438 104.53125 110.261719 104.519531 Z M 112.652344 103.96875 C 112.664062 103.945312 112.6875 103.957031 112.710938 103.957031 C 112.6875 104.003906 112.6875 104.015625 112.675781 104.015625 C 112.675781 104.015625 112.664062 104.003906 112.652344 103.96875 Z M 112.148438 104.121094 C 112.148438 104.132812 112.113281 104.132812 112.101562 104.144531 L 112.089844 104.132812 L 112.089844 104.097656 C 112.113281 104.074219 112.125 104.085938 112.148438 104.121094 Z M 109.125 111.609375 L 109.089844 111.632812 C 109.089844 111.621094 109.078125 111.609375 109.078125 111.585938 L 109.125 111.550781 Z M 112.007812 110.636719 C 112.007812 110.601562 112.042969 110.578125 112.078125 110.578125 C 112.078125 110.601562 112.042969 110.636719 112.007812 110.636719 Z M 110.179688 104.496094 C 110.203125 104.484375 110.214844 104.496094 110.261719 104.519531 L 110.25 104.519531 C 110.226562 104.53125 110.214844 104.53125 110.179688 104.53125 Z M 111.679688 110.976562 C 111.679688 110.941406 111.703125 110.929688 111.738281 110.917969 C 111.738281 110.941406 111.703125 110.976562 111.679688 110.976562 Z M 110.71875 112.265625 C 110.742188 112.265625 110.765625 112.265625 110.765625 112.230469 L 110.71875 112.230469 Z M 112.851562 104.25 C 112.863281 104.226562 112.863281 104.203125 112.863281 104.203125 C 112.863281 104.191406 112.863281 104.203125 112.851562 104.203125 C 112.839844 104.203125 112.851562 104.25 112.851562 104.25 Z M 112.347656 110.355469 C 112.324219 110.355469 112.3125 110.378906 112.289062 110.414062 C 112.324219 110.402344 112.347656 110.378906 112.347656 110.355469 Z M 111.949219 110.695312 C 111.972656 110.660156 111.984375 110.636719 112.007812 110.636719 C 112.007812 110.660156 111.984375 110.671875 111.949219 110.695312 Z M 112.253906 110.460938 C 112.277344 110.460938 112.289062 110.4375 112.289062 110.414062 Z M 113.71875 103.722656 C 113.753906 103.675781 113.765625 103.675781 113.777344 103.722656 L 113.777344 103.710938 C 113.765625 103.734375 113.753906 103.722656 113.71875 103.722656 Z M 113.378906 103.523438 C 113.367188 103.511719 113.34375 103.5 113.320312 103.523438 C 113.34375 103.546875 113.367188 103.558594 113.378906 103.523438 Z M 112.851562 104.25 C 112.828125 104.238281 112.792969 104.203125 112.792969 104.25 C 112.804688 104.25 112.828125 104.285156 112.851562 104.25 Z M 111.808594 104.191406 C 111.820312 104.179688 111.832031 104.144531 111.855469 104.167969 C 111.855469 104.144531 111.855469 104.167969 111.867188 104.179688 L 111.855469 104.191406 C 111.832031 104.179688 111.820312 104.203125 111.808594 104.191406 Z M 112.40625 110.296875 C 112.382812 110.296875 112.371094 110.320312 112.347656 110.355469 C 112.382812 110.332031 112.394531 110.320312 112.40625 110.296875 Z M 110.34375 104.519531 C 110.34375 104.472656 110.378906 104.484375 110.390625 104.496094 C 110.378906 104.53125 110.367188 104.519531 110.34375 104.519531 Z M 110.097656 104.519531 C 110.085938 104.519531 110.097656 104.542969 110.097656 104.542969 L 110.0625 104.542969 C 110.0625 104.53125 110.0625 104.496094 110.085938 104.519531 Z M 113.824219 103.675781 C 113.8125 103.710938 113.800781 103.722656 113.800781 103.722656 C 113.800781 103.675781 113.800781 103.675781 113.824219 103.675781 Z M 113.378906 103.523438 C 113.402344 103.523438 113.414062 103.546875 113.425781 103.546875 L 113.425781 103.523438 C 113.425781 103.523438 113.425781 103.511719 113.414062 103.511719 C 113.414062 103.511719 113.402344 103.511719 113.378906 103.523438 Z M 112.628906 104.050781 C 112.617188 103.980469 112.628906 104.003906 112.652344 103.980469 C 112.652344 104.027344 112.628906 104.050781 112.628906 104.050781 Z M 113.601562 103.441406 C 113.601562 103.453125 113.636719 103.488281 113.648438 103.453125 C 113.636719 103.441406 113.636719 103.441406 113.601562 103.441406 Z M 111.363281 111.292969 C 111.339844 111.269531 111.363281 111.269531 111.375 111.269531 C 111.375 111.28125 111.375 111.28125 111.363281 111.292969 Z M 111.644531 111.011719 C 111.609375 110.988281 111.644531 110.988281 111.65625 110.988281 C 111.65625 111 111.65625 111 111.644531 111.011719 Z M 110.800781 112.195312 C 110.789062 112.195312 110.777344 112.183594 110.777344 112.183594 L 110.777344 112.207031 C 110.777344 112.195312 110.789062 112.195312 110.800781 112.195312 Z M 114.222656 103.710938 C 114.210938 103.6875 114.210938 103.675781 114.222656 103.6875 Z M 110.132812 104.496094 C 110.132812 104.53125 110.109375 104.53125 110.097656 104.53125 C 110.097656 104.519531 110.097656 104.496094 110.132812 104.496094 Z M 109.148438 111.503906 C 109.183594 111.527344 109.136719 111.527344 109.125 111.527344 C 109.136719 111.527344 109.136719 111.515625 109.148438 111.503906 Z M 112.03125 103.804688 C 112.03125 103.804688 112.007812 103.804688 111.996094 103.828125 L 112.042969 103.828125 C 112.03125 103.828125 112.03125 103.792969 112.03125 103.804688 Z M 112.277344 104.097656 C 112.277344 104.097656 112.265625 104.097656 112.253906 104.085938 C 112.265625 104.085938 112.277344 104.085938 112.277344 104.097656 Z M 113.414062 104.121094 C 113.414062 104.097656 113.402344 104.097656 113.378906 104.121094 L 113.367188 104.121094 C 113.378906 104.121094 113.378906 104.132812 113.378906 104.132812 Z M 112.921875 109.734375 C 112.898438 109.734375 112.910156 109.734375 112.910156 109.722656 L 112.921875 109.722656 Z M 112.21875 104.25 C 112.21875 104.25 112.207031 104.25 112.207031 104.238281 L 112.207031 104.261719 C 112.21875 104.285156 112.21875 104.261719 112.21875 104.25 Z M 112.511719 104.320312 C 112.511719 104.308594 112.511719 104.308594 112.5 104.308594 L 112.511719 104.34375 C 112.511719 104.34375 112.511719 104.320312 112.511719 104.320312 Z M 111.410156 111.222656 C 111.433594 111.246094 111.410156 111.246094 111.398438 111.246094 C 111.410156 111.234375 111.410156 111.234375 111.410156 111.222656 Z M 110.460938 104.566406 C 110.449219 104.566406 110.449219 104.566406 110.449219 104.589844 C 110.449219 104.589844 110.460938 104.589844 110.460938 104.566406 Z M 113.542969 103.488281 C 113.542969 103.488281 113.507812 103.453125 113.53125 103.5 Z M 110.777344 112.230469 L 110.765625 112.230469 L 110.765625 112.207031 Z M 112.945312 109.6875 C 112.945312 109.699219 112.945312 109.722656 112.921875 109.722656 C 112.945312 109.722656 112.957031 109.722656 112.945312 109.6875 Z M 112.898438 109.734375 C 112.886719 109.734375 112.863281 109.734375 112.898438 109.769531 Z M 112.628906 103.722656 L 112.628906 103.746094 Z M 113.25 103.851562 C 113.25 103.839844 113.261719 103.851562 113.261719 103.851562 Z M 112.253906 110.472656 L 112.230469 110.472656 L 112.230469 110.460938 Z M 110.777344 112.183594 C 110.765625 112.183594 110.765625 112.160156 110.765625 112.160156 Z M 113.800781 103.96875 C 113.800781 103.96875 113.8125 103.96875 113.8125 103.957031 C 113.8125 103.957031 113.800781 103.921875 113.800781 103.96875 Z M 113.542969 103.488281 C 113.542969 103.464844 113.554688 103.5 113.542969 103.453125 Z M 111.574219 103.113281 L 111.5625 103.101562 Z M 112.171875 110.460938 C 112.195312 110.472656 112.171875 110.472656 112.171875 110.472656 Z M 112.371094 103.769531 C 112.371094 103.769531 112.382812 103.769531 112.382812 103.746094 Z M 111.257812 111.398438 L 111.246094 111.410156 Z M 112.230469 110.414062 L 112.253906 110.402344 Z M 110.71875 112.265625 L 110.71875 112.289062 Z M 111.796875 104.191406 C 111.796875 104.203125 111.808594 104.203125 111.808594 104.191406 Z M 111.796875 104.191406 "/>
<path style=" stroke:none;fill-rule:nonzero;fill:rgb(100%,34.117647%,34.117647%);fill-opacity:1;" d="M 114.796875 110.554688 C 114.808594 110.53125 114.785156 110.496094 114.75 110.484375 L 114.75 110.460938 C 114.75 110.425781 114.75 110.402344 114.785156 110.402344 C 114.785156 110.402344 114.796875 110.414062 114.808594 110.414062 C 114.855469 110.425781 114.914062 110.4375 114.914062 110.53125 L 114.914062 110.8125 C 114.914062 110.894531 114.960938 110.988281 114.972656 111.070312 C 114.984375 111.503906 115.253906 111.796875 115.570312 112.066406 C 115.582031 112.078125 115.628906 112.078125 115.640625 112.089844 C 115.664062 112.101562 115.699219 112.125 115.722656 112.125 C 115.921875 112.125 116.507812 111.632812 116.636719 111.503906 C 116.695312 111.457031 116.671875 111.386719 116.71875 111.339844 C 116.753906 111.316406 116.8125 111.269531 116.859375 111.222656 C 116.882812 111.210938 116.882812 111.175781 116.859375 111.175781 L 116.8125 111.175781 C 116.554688 111.351562 116.296875 111.527344 116.015625 111.667969 C 115.933594 111.714844 115.839844 111.726562 115.757812 111.726562 C 115.710938 111.726562 115.664062 111.726562 115.628906 111.714844 C 115.488281 111.527344 115.429688 111.316406 115.429688 111.09375 C 115.429688 110.320312 115.816406 108.691406 116.121094 108.070312 C 116.226562 107.894531 116.238281 107.695312 116.214844 107.507812 C 116.144531 107.460938 116.0625 107.425781 115.992188 107.425781 C 115.945312 107.425781 115.898438 107.4375 115.863281 107.460938 C 115.839844 107.472656 115.816406 107.472656 115.804688 107.472656 C 115.769531 107.472656 115.757812 107.472656 115.722656 107.460938 C 115.523438 107.355469 115.3125 107.355469 115.089844 107.355469 C 114.738281 107.378906 114.433594 107.460938 114.152344 107.695312 C 114.035156 107.800781 113.917969 107.941406 113.765625 108 C 113.753906 108.011719 113.742188 108.023438 113.742188 108.035156 C 113.695312 108.128906 113.625 108.210938 113.542969 108.246094 C 113.425781 108.304688 113.460938 108.433594 113.355469 108.515625 C 113.039062 108.785156 112.828125 109.242188 112.640625 109.628906 C 112.617188 109.664062 112.605469 109.6875 112.59375 109.722656 C 112.324219 110.53125 112.195312 111.035156 112.195312 111.914062 C 112.195312 112.195312 112.289062 112.441406 112.511719 112.640625 L 112.617188 112.746094 C 112.664062 112.78125 112.722656 112.816406 112.792969 112.816406 C 112.863281 112.804688 112.957031 112.804688 113.027344 112.757812 C 113.25 112.652344 113.765625 112.3125 113.882812 112.125 C 113.917969 112.078125 114 112.066406 114.035156 112.007812 C 114.070312 111.914062 114.152344 111.84375 114.210938 111.761719 C 114.164062 111.644531 114.316406 111.585938 114.328125 111.503906 C 114.339844 111.410156 114.398438 111.328125 114.445312 111.246094 C 114.46875 111.164062 114.515625 111.09375 114.574219 111 C 114.609375 110.941406 114.65625 110.894531 114.632812 110.824219 C 114.738281 110.777344 114.773438 110.660156 114.796875 110.554688 Z M 112.828125 112.429688 C 112.804688 112.441406 112.78125 112.441406 112.746094 112.464844 C 112.722656 112.429688 112.6875 112.417969 112.6875 112.40625 C 112.664062 112.371094 112.664062 112.324219 112.664062 112.300781 C 112.664062 112.195312 112.664062 112.089844 112.617188 111.984375 C 112.605469 111.960938 112.605469 111.914062 112.617188 111.867188 C 112.675781 111.667969 112.675781 111.457031 112.710938 111.234375 C 112.734375 111.164062 112.746094 111.070312 112.769531 111 C 112.851562 110.730469 112.898438 110.460938 113.015625 110.203125 C 113.085938 110.039062 113.132812 109.886719 113.203125 109.734375 C 113.238281 109.675781 113.285156 109.628906 113.308594 109.570312 C 113.367188 109.441406 113.472656 109.335938 113.496094 109.207031 C 113.519531 109.183594 113.519531 109.160156 113.53125 109.148438 C 113.683594 109.042969 113.753906 108.878906 113.894531 108.761719 C 114.023438 108.65625 114.117188 108.515625 114.257812 108.410156 C 114.46875 108.246094 114.679688 108.082031 114.949219 107.976562 C 115.089844 107.917969 115.230469 107.835938 115.347656 107.71875 C 115.382812 107.683594 115.40625 107.671875 115.429688 107.671875 C 115.464844 107.671875 115.476562 107.683594 115.5 107.71875 C 115.59375 107.789062 115.605469 107.835938 115.570312 107.941406 C 115.488281 108.117188 115.40625 108.292969 115.359375 108.480469 C 115.324219 108.691406 115.171875 109.183594 115.066406 109.382812 C 114.925781 109.675781 114.785156 109.96875 114.632812 110.285156 C 114.5625 110.472656 114.433594 110.648438 114.316406 110.824219 C 114.222656 111 114.105469 111.164062 114.023438 111.339844 C 113.71875 111.808594 113.285156 112.136719 112.828125 112.429688 Z M 114.632812 110.660156 C 114.65625 110.648438 114.65625 110.636719 114.65625 110.613281 L 114.679688 110.648438 C 114.679688 110.660156 114.667969 110.671875 114.65625 110.695312 C 114.65625 110.671875 114.632812 110.671875 114.632812 110.660156 Z M 112.957031 109.265625 L 112.96875 109.265625 L 112.96875 109.277344 Z M 114.902344 110.179688 L 114.890625 110.179688 L 114.890625 110.15625 Z M 112.910156 109.371094 L 112.910156 109.382812 L 112.898438 109.382812 Z M 114.375 111.152344 L 114.375 111.117188 Z M 114.375 111.152344 "/>
<path style=" stroke:none;fill-rule:nonzero;fill:rgb(100%,34.117647%,34.117647%);fill-opacity:1;" d="M 117.667969 109.300781 C 117.867188 109.441406 118.089844 109.546875 118.300781 109.664062 C 118.242188 109.722656 118.21875 109.746094 118.207031 109.792969 C 118.183594 109.863281 118.160156 109.945312 118.042969 109.957031 C 117.960938 109.957031 117.9375 110.003906 117.890625 110.027344 C 117.890625 110.0625 117.867188 110.097656 117.84375 110.097656 C 117.820312 110.097656 117.785156 110.085938 117.773438 110.085938 C 117.691406 110.085938 117.65625 110.144531 117.632812 110.203125 C 117.644531 110.238281 117.632812 110.25 117.597656 110.25 C 117.46875 110.296875 117.386719 110.378906 117.316406 110.460938 C 117.257812 110.484375 117.210938 110.519531 117.1875 110.542969 C 116.929688 110.648438 116.742188 110.777344 116.660156 111 C 116.554688 111.128906 116.519531 111.28125 116.402344 111.445312 C 116.355469 111.527344 116.378906 111.621094 116.390625 111.714844 C 116.460938 112.019531 116.601562 112.289062 116.835938 112.5 C 116.964844 112.710938 117.234375 112.78125 117.445312 112.816406 C 117.597656 112.816406 117.761719 112.78125 117.867188 112.746094 C 118.089844 112.664062 118.300781 112.582031 118.441406 112.40625 C 118.464844 112.371094 118.511719 112.347656 118.570312 112.300781 C 118.875 112.078125 118.980469 112.03125 119.132812 111.761719 C 119.179688 111.667969 119.25 111.574219 119.308594 111.503906 C 119.332031 111.457031 119.332031 111.410156 119.367188 111.351562 C 119.519531 111.128906 119.542969 110.882812 119.601562 110.613281 L 119.601562 110.542969 C 119.589844 110.355469 119.425781 110.144531 119.355469 109.96875 C 119.320312 109.851562 119.214844 109.769531 119.132812 109.6875 C 119.074219 109.628906 119.085938 109.605469 119.132812 109.570312 C 119.15625 109.546875 119.15625 109.523438 119.203125 109.511719 C 119.484375 109.382812 120.84375 109.066406 121.136719 108.996094 C 121.207031 108.984375 121.289062 108.949219 121.335938 108.925781 C 121.382812 108.902344 121.382812 108.890625 121.382812 108.878906 C 121.359375 108.855469 121.3125 108.820312 121.265625 108.820312 L 121.207031 108.820312 C 121.066406 108.902344 120.890625 108.902344 120.738281 108.972656 C 120.609375 109.03125 119.414062 109.277344 119.25 109.335938 C 119.179688 109.347656 119.121094 109.382812 119.039062 109.429688 C 118.980469 109.453125 118.921875 109.464844 118.863281 109.464844 C 118.792969 109.464844 118.722656 109.441406 118.640625 109.394531 C 118.476562 109.335938 118.265625 109.207031 118.125 109.101562 C 117.960938 108.996094 117.9375 108.867188 117.996094 108.75 C 118.066406 108.644531 118.160156 108.539062 118.230469 108.410156 C 118.277344 108.269531 118.382812 108.1875 118.558594 108.128906 C 118.640625 108.09375 118.746094 108.035156 118.804688 107.976562 C 118.980469 107.859375 119.132812 107.789062 119.332031 107.753906 C 119.589844 107.742188 119.753906 107.660156 119.929688 107.578125 C 120 107.566406 120.234375 107.519531 120.28125 107.519531 C 120.328125 107.519531 120.398438 107.519531 120.433594 107.507812 C 120.527344 107.472656 120.574219 107.449219 120.574219 107.390625 C 120.574219 107.320312 120.492188 107.273438 120.433594 107.238281 C 120.292969 107.203125 120.1875 107.15625 120.058594 107.15625 C 119.941406 107.15625 119.835938 107.144531 119.71875 107.121094 C 119.460938 107.085938 119.320312 107.050781 119.214844 107.050781 C 119.132812 107.050781 119.0625 107.085938 118.910156 107.109375 C 118.792969 107.144531 118.640625 107.214844 118.523438 107.261719 C 118.066406 107.460938 117.726562 107.777344 117.515625 108.175781 C 117.410156 108.304688 117.363281 108.515625 117.316406 108.667969 C 117.304688 108.714844 117.316406 108.761719 117.363281 108.808594 C 117.433594 108.890625 117.527344 108.984375 117.527344 109.113281 C 117.527344 109.183594 117.609375 109.242188 117.667969 109.300781 Z M 118.792969 110.003906 C 118.839844 110.039062 118.839844 110.085938 118.851562 110.132812 C 118.898438 110.425781 118.851562 110.695312 118.699219 110.941406 C 118.40625 111.457031 117.9375 111.984375 117.375 112.207031 C 117.316406 112.230469 117.257812 112.253906 117.1875 112.253906 C 117.152344 112.253906 117.128906 112.253906 117.09375 112.253906 C 117.035156 112.253906 116.976562 112.253906 116.894531 112.207031 C 116.8125 112.148438 116.8125 112.042969 116.742188 111.960938 C 116.742188 111.960938 116.742188 111.949219 116.730469 111.925781 C 116.8125 111.75 116.742188 111.5625 116.8125 111.351562 C 116.929688 111 117.257812 110.578125 117.609375 110.425781 C 117.644531 110.402344 117.691406 110.367188 117.761719 110.332031 C 117.925781 110.285156 118.054688 110.179688 118.207031 110.074219 C 118.289062 110.003906 118.453125 109.957031 118.558594 109.886719 C 118.570312 109.886719 118.582031 109.863281 118.605469 109.863281 C 118.675781 109.863281 118.757812 109.921875 118.792969 110.003906 Z M 118.148438 112.066406 C 118.125 112.066406 118.101562 112.066406 118.125 112.03125 C 118.125 112.03125 118.066406 112.019531 118.089844 112.007812 C 118.148438 111.832031 118.289062 111.714844 118.441406 111.609375 C 118.464844 111.585938 118.40625 111.609375 118.464844 111.621094 C 118.464844 111.621094 118.511719 111.667969 118.476562 111.667969 C 118.382812 111.785156 118.277344 111.914062 118.148438 112.066406 Z M 118.664062 111.398438 C 118.628906 111.445312 118.617188 111.492188 118.558594 111.515625 L 118.511719 111.515625 L 118.5 111.503906 C 118.511719 111.457031 118.523438 111.398438 118.558594 111.328125 C 118.570312 111.292969 118.664062 111.269531 118.664062 111.292969 C 118.6875 111.328125 118.6875 111.339844 118.664062 111.398438 Z M 117.65625 112.371094 C 117.644531 112.371094 117.632812 112.371094 117.609375 112.359375 C 117.609375 112.289062 117.667969 112.253906 117.785156 112.253906 C 117.808594 112.359375 117.808594 112.359375 117.65625 112.371094 Z M 118.792969 111.175781 C 118.78125 111.199219 118.757812 111.210938 118.746094 111.210938 C 118.734375 111.210938 118.734375 111.199219 118.699219 111.199219 C 118.734375 111.175781 118.746094 111.152344 118.746094 111.128906 L 118.78125 111.128906 C 118.792969 111.152344 118.792969 111.175781 118.792969 111.175781 Z M 117.480469 112.40625 C 117.492188 112.382812 117.492188 112.371094 117.492188 112.371094 L 117.597656 112.371094 C 117.597656 112.382812 117.597656 112.40625 117.574219 112.40625 Z M 118.007812 112.042969 L 118.03125 112.066406 L 118.007812 112.066406 Z M 117.691406 112.558594 L 117.667969 112.558594 L 117.667969 112.546875 Z M 117.691406 112.558594 "/>
<path style=" stroke:none;fill-rule:nonzero;fill:rgb(100%,100%,100%);fill-opacity:1;" d="M 40.617188 102.621094 L 47.835938 102.621094 L 47.835938 106.828125 L 33.761719 106.828125 L 33.738281 103.382812 L 40.230469 96.679688 C 40.6875 96.210938 41.0625 95.742188 41.355469 95.261719 C 41.636719 94.792969 41.789062 94.382812 41.789062 94.03125 C 41.789062 93.621094 41.636719 93.304688 41.355469 93.082031 C 41.0625 92.871094 40.664062 92.753906 40.148438 92.753906 C 39.433594 92.753906 38.648438 92.964844 37.769531 93.375 C 36.902344 93.773438 36.023438 94.347656 35.144531 95.074219 L 33.117188 91.171875 C 35.8125 89.320312 38.425781 88.394531 40.957031 88.394531 C 42.199219 88.394531 43.3125 88.605469 44.285156 89.003906 C 45.257812 89.414062 46.03125 89.988281 46.59375 90.703125 C 47.15625 91.429688 47.4375 92.273438 47.4375 93.222656 C 47.4375 94.171875 47.132812 95.15625 46.523438 96.140625 C 45.914062 97.148438 45.023438 98.214844 43.886719 99.351562 Z M 40.617188 102.621094 "/>
</g>
</svg>
