<?xml version="1.0" encoding="UTF-8"?>
<svg xmlns="http://www.w3.org/2000/svg" xmlns:xlink="http://www.w3.org/1999/xlink" width="100px" height="100px" viewBox="0 0 100 100" version="1.1">
<defs>
<clipPath id="clip1">
  <path d="M 40.265625 23.523438 L 60.675781 23.523438 L 60.675781 52.265625 L 40.265625 52.265625 Z M 40.265625 23.523438 "/>
</clipPath>
</defs>
<g id="surface1">
<rect x="0" y="0" width="100" height="100" style="fill:rgb(0%,0%,0%);fill-opacity:1;stroke:none;"/>
<g clip-path="url(#clip1)" clip-rule="nonzero">
<path style=" stroke:none;fill-rule:nonzero;fill:rgb(100%,34.117647%,34.117647%);fill-opacity:1;" d="M 48.429688 52.25 C 48.894531 52.214844 49.351562 52.125 49.785156 51.957031 C 46.914062 51.339844 46.144531 48.144531 46.769531 45.578125 C 47.121094 44.144531 48.027344 42.871094 48.921875 41.753906 C 50.222656 40.128906 50.601562 38.386719 51.054688 36.417969 C 50.84375 37.855469 51.03125 39.34375 51.820312 40.585938 C 52.359375 41.433594 53.117188 42.121094 53.714844 42.929688 C 54.832031 44.445312 55.230469 46.304688 55.109375 48.179688 C 54.921875 51.082031 52.996094 52.019531 52.484375 51.828125 C 54.824219 52.703125 60.5625 50.867188 60.644531 44.769531 C 60.671875 42.949219 60.324219 40.226562 59.113281 38.863281 C 59.601562 39.804688 59.15625 42.417969 58.074219 42.957031 C 58.136719 40.269531 57.164062 38.601562 56.28125 36.710938 C 55.421875 34.867188 54.847656 32.742188 55.667969 30.785156 C 55.15625 31.207031 54.976562 32.042969 54.664062 32.609375 C 54.242188 33.371094 53.777344 34.113281 53.273438 34.824219 C 53.621094 30.878906 52.5625 26.820312 50.332031 23.542969 C 51.058594 24.613281 51.054688 26.042969 50.679688 27.285156 C 50.308594 28.523438 49.609375 29.632812 49.007812 30.777344 C 48.40625 31.925781 47.835938 32.925781 47.871094 34.21875 C 47.421875 32.320312 47.542969 30.289062 48.214844 28.457031 C 46.351562 29.675781 46.035156 32.238281 45.996094 34.464844 C 45.953125 36.6875 45.890625 39.199219 44.253906 40.707031 C 44.648438 38.40625 44.738281 36.40625 43.761719 35.636719 C 43.976562 37.355469 43.300781 38.921875 42.152344 40.214844 C 39.273438 43.445312 40.207031 48.171875 42.441406 50.355469 C 43.804688 51.6875 46.363281 52.386719 48.429688 52.25 "/>
</g>
<path style=" stroke:none;fill-rule:nonzero;fill:rgb(100%,100%,100%);fill-opacity:1;" d="M 43.683594 59.171875 L 47.269531 59.171875 L 42.90625 67.472656 L 42.90625 71.320312 L 39.300781 71.320312 L 39.300781 67.542969 L 34.851562 59.171875 L 38.453125 59.171875 L 41.105469 64.125 Z M 43.683594 59.171875 "/>
<path style=" stroke:none;fill-rule:nonzero;fill:rgb(100%,100%,100%);fill-opacity:1;" d="M 55.066406 58.949219 C 56.3125 58.949219 57.441406 59.21875 58.453125 59.765625 C 59.464844 60.304688 60.253906 61.054688 60.828125 62.007812 C 61.402344 62.960938 61.6875 64.03125 61.6875 65.21875 C 61.6875 66.421875 61.402344 67.503906 60.828125 68.46875 C 60.253906 69.433594 59.464844 70.1875 58.453125 70.738281 C 57.441406 71.289062 56.3125 71.558594 55.066406 71.558594 C 53.808594 71.558594 52.675781 71.289062 51.671875 70.738281 C 50.667969 70.1875 49.878906 69.433594 49.308594 68.46875 C 48.734375 67.503906 48.449219 66.421875 48.449219 65.21875 C 48.449219 64.03125 48.734375 62.960938 49.308594 62.007812 C 49.878906 61.054688 50.667969 60.304688 51.671875 59.765625 C 52.675781 59.21875 53.808594 58.949219 55.066406 58.949219 Z M 55.121094 61.949219 C 54.589844 61.949219 54.09375 62.09375 53.636719 62.382812 C 53.179688 62.667969 52.816406 63.0625 52.546875 63.5625 C 52.277344 64.066406 52.140625 64.625 52.140625 65.238281 C 52.140625 65.851562 52.277344 66.410156 52.546875 66.917969 C 52.816406 67.425781 53.179688 67.828125 53.636719 68.121094 C 54.09375 68.417969 54.589844 68.5625 55.121094 68.5625 C 55.640625 68.5625 56.121094 68.417969 56.566406 68.121094 C 57.011719 67.828125 57.359375 67.429688 57.613281 66.925781 C 57.867188 66.425781 57.996094 65.863281 57.996094 65.238281 C 57.996094 64.625 57.867188 64.066406 57.613281 63.5625 C 57.359375 63.0625 57.011719 62.667969 56.574219 62.382812 C 56.136719 62.09375 55.652344 61.949219 55.121094 61.949219 Z M 55.121094 61.949219 "/>
<path style=" stroke:none;fill-rule:nonzero;fill:rgb(100%,100%,100%);fill-opacity:1;" d="M 67.417969 66.292969 C 67.417969 66.976562 67.613281 67.527344 68.007812 67.945312 C 68.398438 68.359375 68.890625 68.5625 69.480469 68.5625 C 70.058594 68.5625 70.53125 68.359375 70.902344 67.953125 C 71.269531 67.542969 71.457031 66.988281 71.457031 66.292969 L 71.457031 59.171875 L 75.058594 59.171875 L 75.058594 66.292969 C 75.058594 67.359375 74.832031 68.285156 74.378906 69.078125 C 73.921875 69.867188 73.269531 70.476562 72.425781 70.910156 C 71.585938 71.34375 70.601562 71.558594 69.480469 71.558594 C 68.351562 71.558594 67.355469 71.34375 66.503906 70.910156 C 65.644531 70.476562 64.984375 69.867188 64.519531 69.078125 C 64.050781 68.285156 63.820312 67.359375 63.820312 66.292969 L 63.820312 59.171875 L 67.417969 59.171875 Z M 67.417969 66.292969 "/>
<path style=" stroke:none;fill-rule:nonzero;fill:rgb(100%,34.117647%,34.117647%);fill-opacity:1;" d="M 70.097656 74.835938 C 70.148438 74.789062 70.214844 74.746094 70.265625 74.699219 C 70.738281 74.34375 71.148438 73.894531 71.5625 73.324219 C 71.582031 73.273438 71.667969 73.046875 71.628906 73.046875 C 71.609375 73.046875 71.589844 73.058594 71.550781 73.105469 C 71.246094 73.441406 70.84375 73.960938 70.539062 74.246094 C 70.34375 74.441406 69.941406 74.6875 69.683594 74.789062 C 69.605469 74.816406 69.527344 74.847656 69.449219 74.894531 C 69.359375 74.933594 69.273438 74.933594 69.183594 74.964844 C 69.144531 74.972656 69.105469 74.972656 69.066406 74.972656 C 68.996094 74.972656 68.917969 74.964844 68.847656 74.933594 C 68.820312 74.925781 68.800781 74.894531 68.789062 74.867188 C 68.75 74.726562 68.730469 74.582031 68.710938 74.441406 C 68.703125 74.402344 68.722656 74.363281 68.722656 74.335938 C 68.730469 74.304688 68.742188 74.265625 68.742188 74.238281 C 68.742188 74.136719 68.769531 74.050781 68.800781 73.953125 C 68.957031 73.402344 69.222656 72.742188 69.636719 72.332031 C 69.695312 72.261719 69.773438 72.203125 69.820312 72.125 C 69.960938 71.929688 70.164062 71.75 70.363281 71.621094 C 70.371094 71.632812 70.402344 71.644531 70.421875 71.652344 C 70.441406 71.652344 70.460938 71.664062 70.472656 71.671875 C 70.527344 71.722656 70.539062 71.789062 70.527344 71.859375 C 70.5 71.976562 70.421875 72.066406 70.363281 72.164062 C 70.332031 72.191406 70.3125 72.222656 70.292969 72.253906 C 70.253906 72.308594 70.273438 72.371094 70.34375 72.371094 C 70.363281 72.371094 70.382812 72.371094 70.402344 72.371094 C 70.441406 72.371094 70.480469 72.371094 70.511719 72.371094 C 70.558594 72.378906 70.597656 72.351562 70.628906 72.320312 C 70.707031 72.253906 70.746094 72.152344 70.785156 72.066406 C 70.902344 71.808594 70.746094 71.535156 70.5 71.464844 C 70.441406 71.457031 70.382812 71.4375 70.324219 71.4375 C 70.285156 71.4375 70.253906 71.4375 70.214844 71.457031 C 70.195312 71.464844 70.175781 71.464844 70.15625 71.464844 C 70.136719 71.464844 70.117188 71.464844 70.097656 71.464844 C 70.027344 71.476562 69.960938 71.496094 69.910156 71.535156 C 69.617188 71.730469 69.203125 72.191406 69.046875 72.519531 C 68.820312 72.910156 68.644531 73.3125 68.523438 73.746094 C 68.484375 73.933594 68.4375 74.117188 68.4375 74.316406 C 68.4375 74.582031 68.503906 74.71875 68.613281 74.945312 C 68.703125 75.132812 68.867188 75.199219 69.046875 75.269531 C 69.066406 75.277344 69.085938 75.269531 69.105469 75.277344 C 69.242188 75.277344 69.390625 75.257812 69.507812 75.179688 C 69.527344 75.167969 69.546875 75.167969 69.566406 75.160156 C 69.664062 75.132812 69.753906 75.101562 69.8125 75.011719 C 69.851562 74.972656 69.890625 74.953125 69.929688 74.925781 C 69.988281 74.886719 70.046875 74.875 70.097656 74.835938 Z M 69.035156 72.695312 C 69.046875 72.675781 69.054688 72.664062 69.066406 72.644531 C 69.074219 72.664062 69.074219 72.683594 69.074219 72.703125 C 69.074219 72.722656 69.066406 72.734375 69.046875 72.742188 L 69.035156 72.742188 C 69.015625 72.722656 69.027344 72.703125 69.035156 72.695312 Z M 68.859375 73.085938 C 68.859375 73.058594 68.847656 73.027344 68.886719 73.019531 C 68.886719 73.046875 68.886719 73.078125 68.859375 73.085938 Z M 68.75 73.273438 C 68.75 73.253906 68.761719 73.246094 68.78125 73.246094 C 68.78125 73.261719 68.78125 73.273438 68.769531 73.285156 C 68.769531 73.292969 68.769531 73.292969 68.761719 73.304688 C 68.761719 73.292969 68.75 73.285156 68.75 73.273438 Z M 68.96875 72.898438 C 68.957031 72.917969 68.949219 72.929688 68.9375 72.929688 L 68.9375 72.890625 C 68.9375 72.882812 68.949219 72.882812 68.949219 72.871094 C 68.957031 72.882812 68.96875 72.890625 68.96875 72.898438 Z M 68.691406 73.480469 C 68.691406 73.488281 68.691406 73.5 68.703125 73.507812 L 68.683594 73.527344 C 68.683594 73.519531 68.683594 73.507812 68.671875 73.488281 C 68.671875 73.488281 68.683594 73.488281 68.691406 73.480469 Z M 68.722656 73.371094 C 68.730469 73.382812 68.730469 73.390625 68.742188 73.402344 C 68.730469 73.402344 68.730469 73.410156 68.722656 73.410156 C 68.722656 73.402344 68.710938 73.390625 68.710938 73.382812 Z M 69.105469 72.585938 C 69.09375 72.566406 69.105469 72.566406 69.113281 72.566406 C 69.113281 72.574219 69.113281 72.574219 69.105469 72.585938 Z M 68.988281 72.792969 L 68.996094 72.8125 L 68.988281 72.8125 Z M 68.988281 72.792969 "/>
<path style=" stroke:none;fill-rule:nonzero;fill:rgb(100%,34.117647%,34.117647%);fill-opacity:1;" d="M 72.742188 73.960938 C 72.75 73.953125 72.757812 73.941406 72.769531 73.933594 C 72.789062 73.902344 72.789062 73.84375 72.769531 73.863281 C 72.757812 73.871094 72.742188 73.894531 72.730469 73.914062 C 72.730469 73.921875 72.742188 73.941406 72.742188 73.953125 C 72.632812 73.972656 72.632812 74.078125 72.582031 74.109375 C 72.5625 74.109375 72.554688 74.117188 72.554688 74.128906 C 72.5625 74.128906 72.574219 74.117188 72.582031 74.117188 C 72.574219 74.128906 72.5625 74.148438 72.554688 74.160156 C 72.554688 74.160156 72.554688 74.148438 72.554688 74.136719 L 72.523438 74.167969 C 72.523438 74.167969 72.523438 74.179688 72.535156 74.1875 C 72.414062 74.363281 72.03125 74.804688 71.847656 74.847656 C 71.816406 74.886719 71.726562 74.746094 71.667969 74.746094 C 71.660156 74.726562 71.660156 74.707031 71.640625 74.699219 C 71.589844 74.609375 71.582031 74.523438 71.601562 74.433594 C 71.601562 74.382812 71.601562 74.324219 71.609375 74.285156 C 71.621094 74.160156 71.609375 74.03125 71.660156 73.902344 C 71.667969 73.882812 71.667969 73.863281 71.648438 73.84375 C 71.640625 73.824219 71.640625 73.804688 71.648438 73.785156 C 71.699219 73.726562 71.699219 73.628906 71.707031 73.550781 C 71.726562 73.460938 71.71875 73.371094 71.777344 73.304688 C 71.757812 73.207031 71.824219 73.144531 71.847656 73.046875 C 71.867188 72.949219 71.933594 72.664062 71.972656 72.574219 C 72.132812 72.242188 72.277344 71.886719 72.347656 71.523438 C 72.355469 71.425781 72.289062 71.300781 72.199219 71.25 C 72.179688 71.25 72.160156 71.238281 72.140625 71.238281 L 72.03125 71.238281 C 72.011719 71.238281 71.992188 71.25 71.972656 71.257812 C 71.875 71.417969 71.816406 71.582031 71.757812 71.761719 C 71.71875 71.898438 71.679688 72.046875 71.628906 72.183594 C 71.609375 72.253906 71.582031 72.300781 71.5625 72.371094 C 71.480469 72.636719 71.414062 72.898438 71.335938 73.15625 C 71.316406 73.273438 71.277344 73.371094 71.265625 73.472656 C 71.257812 73.65625 71.226562 73.84375 71.207031 74.03125 C 71.199219 74.167969 71.1875 74.304688 71.226562 74.453125 C 71.238281 74.472656 71.238281 74.503906 71.246094 74.53125 C 71.257812 74.609375 71.296875 74.679688 71.34375 74.738281 C 71.402344 74.804688 71.460938 74.886719 71.523438 74.953125 C 71.570312 75.023438 71.640625 75.070312 71.726562 75.101562 C 71.757812 75.121094 71.796875 75.121094 71.835938 75.121094 C 72.003906 75.121094 72.230469 75.003906 72.335938 74.855469 C 72.40625 74.796875 72.386719 74.777344 72.445312 74.699219 C 72.503906 74.640625 72.582031 74.433594 72.554688 74.335938 C 72.554688 74.316406 72.542969 74.296875 72.5625 74.296875 C 72.582031 74.304688 72.59375 74.324219 72.613281 74.335938 C 72.632812 74.304688 72.601562 74.265625 72.613281 74.238281 C 72.621094 74.199219 72.640625 74.167969 72.660156 74.128906 C 72.679688 74.078125 72.730469 74.019531 72.730469 73.960938 Z M 72.230469 70.472656 C 72.289062 70.523438 72.367188 70.542969 72.445312 70.582031 C 72.484375 70.5625 72.535156 70.542969 72.582031 70.523438 C 72.613281 70.511719 72.621094 70.484375 72.621094 70.464844 C 72.652344 70.367188 72.632812 70.277344 72.671875 70.1875 C 72.679688 70.179688 72.671875 70.167969 72.660156 70.160156 C 72.640625 70.140625 72.601562 70.121094 72.574219 70.121094 C 72.5625 70.121094 72.554688 70.121094 72.542969 70.128906 C 72.457031 70.1875 72.355469 70.257812 72.277344 70.324219 C 72.25 70.347656 72.230469 70.375 72.210938 70.402344 C 72.199219 70.425781 72.210938 70.464844 72.230469 70.472656 Z M 72.554688 74.160156 C 72.554688 74.167969 72.554688 74.179688 72.554688 74.179688 C 72.554688 74.1875 72.542969 74.1875 72.542969 74.199219 C 72.542969 74.179688 72.542969 74.167969 72.554688 74.160156 Z M 72.554688 74.160156 "/>
<path style=" stroke:none;fill-rule:nonzero;fill:rgb(100%,34.117647%,34.117647%);fill-opacity:1;" d="M 74.980469 68.117188 C 74.96875 68.105469 74.960938 68.105469 74.949219 68.105469 C 74.949219 68.117188 74.960938 68.125 74.960938 68.125 C 74.96875 68.125 74.980469 68.117188 74.980469 68.117188 Z M 74.597656 69.304688 C 74.585938 69.34375 74.585938 69.363281 74.566406 69.363281 C 74.558594 69.363281 74.546875 69.363281 74.539062 69.351562 C 74.527344 69.351562 74.519531 69.34375 74.507812 69.34375 C 74.65625 68.941406 74.792969 68.636719 74.949219 68.332031 C 74.980469 68.273438 75.011719 68.242188 75.019531 68.183594 C 75.039062 68.117188 75.066406 68.054688 75.078125 67.988281 C 75.089844 67.949219 75.089844 67.910156 75.078125 67.878906 C 75.058594 67.808594 75.019531 67.753906 74.988281 67.691406 C 74.96875 67.652344 74.832031 67.613281 74.804688 67.625 C 74.792969 67.625 74.792969 67.625 74.785156 67.632812 C 74.636719 67.730469 74.585938 67.890625 74.527344 68.054688 C 74.429688 68.339844 74.351562 68.460938 74.261719 68.753906 C 74.253906 68.792969 74.222656 68.832031 74.214844 68.871094 L 74.105469 69.246094 L 74.105469 69.265625 C 74.125 69.265625 74.144531 69.246094 74.144531 69.226562 C 74.144531 69.1875 74.164062 69.148438 74.195312 69.105469 C 74.203125 69.085938 74.222656 69.078125 74.234375 69.078125 C 74.253906 69.078125 74.273438 69.085938 74.292969 69.105469 L 74.234375 69.265625 C 74.195312 69.273438 74.144531 69.273438 74.105469 69.273438 L 74.105469 69.265625 C 74.09375 69.273438 74.09375 69.273438 74.085938 69.273438 C 74.007812 69.285156 73.929688 69.292969 73.859375 69.292969 C 73.820312 69.292969 73.78125 69.292969 73.75 69.304688 C 73.683594 69.324219 73.644531 69.324219 73.574219 69.324219 C 73.417969 69.324219 73.25 69.363281 73.105469 69.371094 C 73.035156 69.371094 72.976562 69.382812 72.917969 69.382812 C 72.898438 69.382812 72.886719 69.382812 72.867188 69.382812 L 72.777344 69.402344 C 72.730469 69.402344 72.710938 69.449219 72.691406 69.519531 C 72.671875 69.578125 72.679688 69.667969 72.699219 69.746094 C 72.699219 69.804688 72.738281 69.855469 72.777344 69.84375 C 72.789062 69.84375 72.808594 69.835938 72.828125 69.84375 C 72.964844 69.816406 73.082031 69.777344 73.203125 69.777344 C 73.222656 69.777344 73.230469 69.777344 73.242188 69.777344 C 73.308594 69.765625 73.378906 69.757812 73.449219 69.757812 C 73.488281 69.757812 73.546875 69.746094 73.59375 69.738281 C 73.613281 69.738281 73.625 69.738281 73.632812 69.726562 C 73.625 69.707031 73.613281 69.675781 73.59375 69.667969 C 73.613281 69.648438 73.632812 69.648438 73.652344 69.648438 C 73.722656 69.636719 73.792969 69.648438 73.859375 69.617188 C 73.890625 69.617188 73.929688 69.617188 73.96875 69.609375 L 73.96875 69.636719 C 73.96875 69.648438 73.96875 69.660156 73.957031 69.667969 C 73.949219 69.6875 73.9375 69.695312 73.949219 69.707031 C 73.859375 69.941406 73.535156 70.757812 73.554688 70.835938 C 73.605469 70.816406 73.976562 69.796875 73.988281 69.765625 L 73.988281 69.726562 C 74.035156 69.726562 74.046875 69.695312 74.007812 69.660156 C 74.007812 69.636719 74.015625 69.617188 74.027344 69.597656 C 74.035156 69.597656 74.058594 69.597656 74.078125 69.589844 C 74.09375 69.578125 74.113281 69.578125 74.144531 69.578125 C 74.136719 69.597656 74.125 69.609375 74.125 69.617188 C 74.113281 69.628906 74.113281 69.636719 74.113281 69.648438 L 74.113281 69.660156 C 74.105469 69.660156 74.105469 69.660156 74.09375 69.660156 C 74.066406 69.660156 74.035156 69.6875 74.105469 69.707031 C 74.035156 69.953125 73.691406 70.828125 73.671875 70.925781 C 73.625 71.082031 73.59375 71.238281 73.535156 71.386719 C 73.488281 71.542969 73.269531 72.339844 73.183594 72.488281 C 73.171875 72.507812 73.171875 72.546875 73.160156 72.574219 C 73.140625 72.703125 73.082031 72.820312 73.074219 72.949219 C 73.074219 72.96875 73.0625 72.980469 73.054688 72.988281 L 73.015625 73.125 C 72.984375 73.253906 72.925781 73.363281 72.9375 73.488281 C 72.9375 73.5 72.9375 73.5 72.925781 73.507812 C 72.867188 73.617188 72.859375 73.734375 72.839844 73.851562 C 72.816406 73.960938 72.777344 74.070312 72.789062 74.179688 C 72.789062 74.199219 72.777344 74.214844 72.769531 74.238281 C 72.769531 74.226562 72.761719 74.214844 72.761719 74.214844 C 72.730469 74.019531 72.796875 73.835938 72.796875 73.636719 L 72.796875 73.628906 C 72.859375 73.539062 72.867188 73.441406 72.878906 73.332031 C 72.878906 73.246094 73.054688 72.605469 73.082031 72.507812 C 73.09375 72.476562 73.289062 71.820312 73.261719 71.75 C 73.230469 71.886719 73.003906 72.636719 72.964844 72.753906 C 72.878906 73.058594 72.671875 73.714844 72.671875 74.03125 L 72.671875 74.097656 C 72.613281 74.257812 72.640625 74.421875 72.640625 74.589844 C 72.640625 74.6875 72.699219 74.90625 72.796875 74.953125 C 72.886719 75.003906 72.957031 75.082031 73.035156 75.152344 C 73.0625 75.179688 73.09375 75.191406 73.125 75.191406 C 73.152344 75.191406 73.171875 75.179688 73.203125 75.167969 L 73.476562 75.050781 C 73.59375 74.992188 73.703125 74.945312 73.800781 74.855469 C 73.792969 74.847656 73.78125 74.847656 73.78125 74.824219 L 73.8125 74.804688 L 73.8125 74.816406 C 73.8125 74.796875 73.820312 74.789062 73.839844 74.777344 C 73.878906 74.707031 73.9375 74.660156 73.996094 74.609375 C 74.015625 74.589844 74.027344 74.589844 74.046875 74.589844 C 74.066406 74.589844 74.078125 74.589844 74.09375 74.601562 C 74.105469 74.601562 74.113281 74.609375 74.136719 74.609375 C 74.144531 74.609375 74.15625 74.601562 74.164062 74.589844 C 74.175781 74.570312 74.164062 74.5625 74.144531 74.550781 C 74.136719 74.542969 74.125 74.53125 74.125 74.523438 C 74.125 74.492188 74.175781 74.480469 74.195312 74.480469 C 74.195312 74.480469 74.203125 74.480469 74.214844 74.480469 C 74.222656 74.492188 74.234375 74.492188 74.242188 74.492188 C 74.253906 74.492188 74.261719 74.472656 74.253906 74.460938 C 74.234375 74.414062 74.242188 74.394531 74.28125 74.363281 C 74.359375 74.304688 74.441406 74.238281 74.488281 74.148438 C 74.507812 74.128906 74.507812 74.109375 74.507812 74.078125 C 74.5 74.050781 74.519531 74.039062 74.546875 74.03125 C 74.566406 74.019531 74.597656 74.019531 74.617188 74.019531 C 74.683594 74.011719 74.714844 73.972656 74.714844 73.902344 C 74.746094 73.894531 74.753906 73.871094 74.753906 73.84375 L 74.753906 73.714844 L 74.714844 73.714844 C 74.714844 73.695312 74.734375 73.6875 74.753906 73.675781 L 74.753906 73.714844 C 74.804688 73.707031 74.8125 73.707031 74.824219 73.648438 L 74.785156 73.648438 C 74.773438 73.667969 74.773438 73.675781 74.753906 73.675781 C 74.753906 73.65625 74.765625 73.648438 74.785156 73.636719 C 74.792969 73.617188 74.804688 73.617188 74.824219 73.609375 L 74.84375 73.539062 C 74.882812 73.488281 74.921875 73.441406 74.980469 73.410156 C 74.980469 73.390625 75 73.382812 75.019531 73.371094 C 75.011719 73.402344 75 73.410156 74.980469 73.421875 C 74.980469 73.472656 74.949219 73.5 74.941406 73.527344 C 75.011719 73.527344 75.046875 73.480469 75.078125 73.429688 C 75.089844 73.421875 75.078125 73.390625 75.046875 73.382812 L 75.019531 73.382812 C 75.039062 73.332031 75.078125 73.285156 75.128906 73.261719 C 75.136719 73.273438 75.128906 73.304688 75.15625 73.285156 L 75.128906 73.261719 C 75.128906 73.226562 75.148438 73.195312 75.175781 73.164062 L 75.363281 72.96875 C 75.472656 72.820312 75.578125 72.683594 75.707031 72.554688 C 75.738281 72.507812 75.738281 72.488281 75.71875 72.488281 C 75.707031 72.488281 75.6875 72.496094 75.65625 72.527344 L 75.292969 72.929688 C 75.136719 73.125 74.988281 73.3125 74.8125 73.480469 L 74.65625 73.648438 C 74.605469 73.726562 74.546875 73.785156 74.488281 73.84375 L 74.203125 74.128906 C 74.175781 74.160156 74.144531 74.199219 74.113281 74.214844 C 74.027344 74.265625 73.96875 74.335938 73.898438 74.402344 C 73.730469 74.5625 73.546875 74.699219 73.347656 74.824219 C 73.300781 74.867188 73.230469 74.894531 73.171875 74.925781 C 73.160156 74.925781 73.152344 74.933594 73.132812 74.933594 C 73.09375 74.933594 73.074219 74.90625 73.054688 74.867188 C 73.023438 74.796875 73.015625 74.726562 73.015625 74.660156 L 73.015625 74.433594 C 73.015625 74.382812 73.015625 74.316406 73.023438 74.265625 C 73.054688 74.199219 73.054688 74.117188 73.054688 74.050781 C 73.054688 73.980469 73.0625 73.921875 73.082031 73.863281 C 73.105469 73.816406 73.125 73.765625 73.125 73.714844 L 73.160156 73.5 C 73.171875 73.410156 73.210938 73.34375 73.242188 73.273438 C 73.261719 73.214844 73.261719 73.164062 73.28125 73.105469 C 73.289062 73.058594 73.300781 73.007812 73.320312 72.96875 C 73.328125 72.941406 73.398438 72.695312 73.398438 72.664062 C 73.398438 72.625 73.40625 72.597656 73.425781 72.554688 C 73.449219 72.519531 73.664062 71.847656 73.671875 71.800781 C 73.703125 71.671875 73.742188 71.542969 73.78125 71.425781 C 73.851562 71.191406 74.292969 70.003906 74.371094 69.765625 L 74.457031 69.511719 C 74.488281 69.519531 74.507812 69.519531 74.527344 69.519531 C 74.546875 69.519531 74.566406 69.519531 74.578125 69.511719 C 74.597656 69.511719 74.625 69.492188 74.644531 69.5 C 74.65625 69.519531 74.667969 69.519531 74.675781 69.519531 C 74.695312 69.519531 74.703125 69.511719 74.714844 69.511719 C 74.722656 69.492188 74.734375 69.472656 74.746094 69.472656 C 74.753906 69.472656 74.753906 69.480469 74.765625 69.492188 C 74.785156 69.53125 74.785156 69.53125 74.804688 69.511719 L 74.765625 69.492188 C 74.773438 69.460938 74.792969 69.472656 74.804688 69.472656 L 74.804688 69.492188 C 74.8125 69.460938 74.8125 69.460938 74.8125 69.5 L 74.863281 69.460938 C 74.871094 69.449219 74.890625 69.441406 74.921875 69.441406 C 74.929688 69.441406 74.941406 69.441406 74.949219 69.441406 C 75.019531 69.433594 75.078125 69.421875 75.136719 69.394531 C 75.167969 69.394531 75.1875 69.363281 75.207031 69.371094 C 75.292969 69.382812 75.382812 69.3125 75.472656 69.3125 C 75.550781 69.292969 75.609375 69.253906 75.65625 69.246094 C 75.71875 69.246094 75.914062 69.175781 75.953125 69.136719 C 75.984375 69.117188 76 69.117188 76.03125 69.117188 C 76.0625 69.117188 76.101562 69.128906 76.128906 69.136719 C 76.050781 69.195312 75.964844 69.253906 75.875 69.304688 C 75.894531 69.3125 75.902344 69.3125 75.921875 69.3125 C 75.933594 69.3125 75.953125 69.3125 75.972656 69.304688 C 76.011719 69.265625 76.050781 69.273438 76.070312 69.234375 C 76.082031 69.234375 76.089844 69.234375 76.089844 69.234375 C 76.109375 69.234375 76.238281 69.167969 76.238281 69.136719 C 76.257812 69.058594 76.226562 69 76.238281 68.910156 C 76.246094 68.882812 76.226562 68.851562 76.207031 68.84375 C 76.199219 68.832031 76.179688 68.824219 76.167969 68.824219 C 76.160156 68.824219 76.148438 68.832031 76.140625 68.863281 C 76.109375 68.910156 76.070312 68.929688 76.042969 68.929688 C 75.992188 68.929688 75.964844 68.96875 75.921875 68.988281 C 75.902344 69.019531 75.875 69.039062 75.84375 69.039062 C 75.835938 69.027344 75.824219 69.027344 75.816406 69.027344 C 75.785156 69.027344 75.765625 69.050781 75.738281 69.050781 C 75.726562 69.070312 75.699219 69.085938 75.667969 69.078125 C 75.65625 69.078125 75.648438 69.078125 75.636719 69.078125 C 75.609375 69.078125 75.589844 69.078125 75.578125 69.097656 C 75.558594 69.105469 75.53125 69.128906 75.511719 69.128906 C 75.5 69.128906 75.492188 69.117188 75.480469 69.117188 C 75.472656 69.097656 75.453125 69.105469 75.433594 69.128906 C 75.394531 69.15625 75.34375 69.175781 75.3125 69.167969 C 75.304688 69.15625 75.292969 69.15625 75.285156 69.15625 C 75.273438 69.15625 75.253906 69.167969 75.246094 69.175781 C 75.246094 69.207031 75.175781 69.214844 75.148438 69.214844 C 75.128906 69.214844 75.109375 69.207031 75.089844 69.195312 C 75.078125 69.207031 75.046875 69.207031 75.03125 69.234375 C 75 69.265625 74.960938 69.273438 74.910156 69.273438 C 74.902344 69.292969 74.882812 69.304688 74.863281 69.285156 C 74.84375 69.265625 74.824219 69.292969 74.8125 69.292969 C 74.8125 69.304688 74.804688 69.304688 74.792969 69.304688 C 74.785156 69.304688 74.765625 69.304688 74.753906 69.304688 C 74.746094 69.304688 74.746094 69.304688 74.734375 69.304688 C 74.722656 69.324219 74.703125 69.324219 74.683594 69.324219 C 74.667969 69.324219 74.625 69.3125 74.597656 69.304688 C 74.605469 69.285156 74.605469 69.253906 74.625 69.253906 C 74.636719 69.246094 74.65625 69.234375 74.667969 69.214844 C 74.65625 69.207031 74.644531 69.207031 74.636719 69.207031 C 74.617188 69.207031 74.585938 69.214844 74.578125 69.226562 C 74.566406 69.226562 74.566406 69.226562 74.566406 69.246094 C 74.566406 69.253906 74.578125 69.273438 74.578125 69.285156 Z M 73.527344 70.855469 L 73.367188 71.367188 C 73.359375 71.398438 73.367188 71.4375 73.367188 71.476562 C 73.386719 71.476562 73.398438 71.457031 73.398438 71.4375 C 73.449219 71.300781 73.476562 71.152344 73.527344 71.011719 C 73.546875 70.957031 73.554688 70.894531 73.554688 70.835938 Z M 74.488281 73.941406 C 74.527344 73.882812 74.578125 73.835938 74.636719 73.792969 L 74.636719 73.871094 L 74.566406 73.921875 C 74.546875 73.941406 74.519531 73.941406 74.488281 73.941406 Z M 75.65625 69.167969 C 75.667969 69.15625 75.675781 69.148438 75.6875 69.148438 C 75.707031 69.148438 75.726562 69.167969 75.757812 69.175781 C 75.738281 69.195312 75.707031 69.195312 75.6875 69.207031 C 75.648438 69.207031 75.589844 69.226562 75.539062 69.226562 C 75.53125 69.226562 75.53125 69.226562 75.519531 69.226562 C 75.558594 69.175781 75.609375 69.175781 75.65625 69.167969 Z M 74.695312 69.570312 C 74.558594 69.570312 74.804688 69.609375 74.804688 69.609375 L 74.824219 69.609375 L 74.824219 69.578125 L 74.8125 69.558594 C 74.773438 69.558594 74.746094 69.558594 74.695312 69.570312 Z M 73.871094 69.707031 C 73.832031 69.6875 73.792969 69.675781 73.75 69.675781 C 73.722656 69.675781 73.703125 69.675781 73.683594 69.6875 C 73.683594 69.695312 73.671875 69.714844 73.671875 69.714844 L 73.683594 69.726562 C 73.75 69.726562 73.800781 69.714844 73.871094 69.707031 Z M 74.8125 69.207031 C 74.84375 69.214844 74.863281 69.214844 74.871094 69.214844 C 74.890625 69.214844 74.902344 69.207031 74.910156 69.175781 C 74.890625 69.167969 74.871094 69.167969 74.863281 69.167969 C 74.824219 69.167969 74.785156 69.175781 74.746094 69.1875 C 74.746094 69.1875 74.734375 69.195312 74.734375 69.207031 L 74.746094 69.214844 C 74.753906 69.226562 74.765625 69.234375 74.773438 69.234375 C 74.792969 69.234375 74.804688 69.214844 74.8125 69.207031 Z M 73.367188 71.476562 C 73.320312 71.523438 73.308594 71.59375 73.300781 71.664062 C 73.289062 71.664062 73.308594 71.671875 73.308594 71.683594 C 73.367188 71.621094 73.367188 71.554688 73.367188 71.476562 Z M 75.234375 69.292969 C 75.214844 69.324219 75.195312 69.332031 75.175781 69.332031 C 75.167969 69.332031 75.148438 69.324219 75.136719 69.304688 C 75.148438 69.285156 75.167969 69.285156 75.175781 69.285156 C 75.195312 69.285156 75.207031 69.285156 75.226562 69.292969 C 75.234375 69.265625 75.253906 69.253906 75.273438 69.253906 C 75.292969 69.253906 75.304688 69.253906 75.332031 69.273438 C 75.304688 69.285156 75.273438 69.304688 75.253906 69.304688 C 75.246094 69.304688 75.246094 69.304688 75.234375 69.292969 Z M 75.394531 69.050781 C 75.421875 69.070312 75.433594 69.070312 75.453125 69.070312 C 75.480469 69.070312 75.511719 69.058594 75.550781 69.027344 L 75.550781 69.019531 C 75.472656 69.019531 75.472656 69.019531 75.394531 69.050781 Z M 75.410156 69.273438 C 75.394531 69.265625 75.382812 69.273438 75.355469 69.273438 C 75.355469 69.273438 75.34375 69.273438 75.332031 69.273438 C 75.332031 69.253906 75.34375 69.246094 75.355469 69.234375 C 75.375 69.226562 75.394531 69.214844 75.402344 69.214844 C 75.421875 69.207031 75.441406 69.214844 75.441406 69.226562 C 75.441406 69.246094 75.421875 69.265625 75.410156 69.273438 Z M 74.203125 69.402344 C 74.183594 69.402344 74.175781 69.414062 74.15625 69.414062 C 74.136719 69.414062 74.136719 69.402344 74.136719 69.382812 C 74.125 69.371094 74.125 69.351562 74.136719 69.351562 C 74.144531 69.351562 74.164062 69.351562 74.175781 69.34375 L 74.222656 69.34375 Z M 74.457031 68.605469 C 74.457031 68.636719 74.449219 68.644531 74.421875 68.664062 L 74.410156 68.664062 C 74.410156 68.644531 74.402344 68.625 74.402344 68.617188 C 74.402344 68.585938 74.410156 68.578125 74.429688 68.578125 C 74.449219 68.566406 74.46875 68.585938 74.457031 68.605469 Z M 75.019531 69.15625 C 75 69.148438 74.988281 69.148438 74.96875 69.148438 C 74.960938 69.148438 74.941406 69.15625 74.921875 69.175781 C 74.941406 69.195312 74.960938 69.214844 74.96875 69.207031 C 74.988281 69.195312 75.011719 69.175781 75.011719 69.15625 C 75.019531 69.15625 75.03125 69.167969 75.03125 69.136719 C 75.019531 69.148438 75.019531 69.15625 75.019531 69.15625 Z M 75.609375 69.414062 C 75.636719 69.414062 75.65625 69.402344 75.675781 69.402344 C 75.6875 69.402344 75.699219 69.371094 75.699219 69.371094 C 75.675781 69.363281 75.6875 69.363281 75.675781 69.363281 C 75.667969 69.351562 75.648438 69.351562 75.621094 69.363281 C 75.609375 69.363281 75.621094 69.382812 75.609375 69.414062 Z M 75.1875 69.105469 C 75.1875 69.128906 75.1875 69.128906 75.195312 69.136719 C 75.214844 69.128906 75.246094 69.136719 75.253906 69.105469 C 75.246094 69.097656 75.246094 69.078125 75.246094 69.078125 C 75.226562 69.078125 75.207031 69.078125 75.195312 69.097656 Z M 75.726562 69.324219 L 75.726562 69.351562 L 75.738281 69.363281 C 75.746094 69.351562 75.757812 69.363281 75.777344 69.363281 C 75.777344 69.363281 75.785156 69.363281 75.796875 69.351562 L 75.796875 69.324219 Z M 75.304688 69.472656 C 75.3125 69.480469 75.324219 69.480469 75.324219 69.480469 C 75.34375 69.480469 75.382812 69.460938 75.421875 69.449219 C 75.421875 69.449219 75.421875 69.433594 75.410156 69.441406 C 75.394531 69.433594 75.355469 69.449219 75.324219 69.460938 Z M 74.910156 69.382812 C 74.921875 69.351562 74.929688 69.332031 74.941406 69.332031 C 74.941406 69.332031 74.949219 69.34375 74.960938 69.363281 C 74.96875 69.371094 74.96875 69.371094 74.96875 69.382812 C 74.941406 69.402344 74.929688 69.394531 74.910156 69.382812 Z M 74.714844 73.902344 C 74.703125 73.902344 74.695312 73.902344 74.683594 73.902344 C 74.667969 73.902344 74.644531 73.902344 74.636719 73.863281 C 74.667969 73.863281 74.703125 73.863281 74.714844 73.902344 Z M 73.78125 69.421875 C 73.769531 69.421875 73.761719 69.433594 73.742188 69.433594 C 73.722656 69.441406 73.714844 69.433594 73.714844 69.421875 C 73.722656 69.414062 73.730469 69.394531 73.742188 69.394531 C 73.761719 69.394531 73.769531 69.402344 73.78125 69.421875 Z M 75.195312 69.5 C 75.175781 69.511719 75.148438 69.492188 75.136719 69.480469 C 75.128906 69.480469 75.109375 69.480469 75.128906 69.5 C 75.128906 69.511719 75.136719 69.53125 75.148438 69.519531 C 75.15625 69.519531 75.175781 69.539062 75.195312 69.5 Z M 75.757812 69.175781 C 75.765625 69.15625 75.777344 69.136719 75.796875 69.136719 C 75.804688 69.136719 75.804688 69.136719 75.816406 69.148438 C 75.804688 69.175781 75.796875 69.1875 75.785156 69.1875 C 75.777344 69.1875 75.765625 69.175781 75.757812 69.175781 Z M 73.976562 69.402344 C 74.007812 69.382812 74.027344 69.371094 74.046875 69.371094 L 74.027344 69.402344 C 74.015625 69.414062 73.996094 69.414062 73.976562 69.421875 Z M 74.921875 69.539062 C 74.902344 69.539062 74.882812 69.539062 74.871094 69.558594 L 74.871094 69.570312 C 74.882812 69.589844 74.890625 69.597656 74.890625 69.570312 C 74.910156 69.570312 74.910156 69.570312 74.921875 69.550781 Z M 75.03125 69.3125 C 75.039062 69.3125 75.039062 69.351562 75.039062 69.351562 L 75.039062 69.363281 L 75.011719 69.363281 L 75.011719 69.324219 C 75.011719 69.3125 75.011719 69.3125 75.019531 69.3125 Z M 73.503906 69.675781 C 73.503906 69.660156 73.515625 69.660156 73.527344 69.660156 C 73.535156 69.660156 73.546875 69.667969 73.566406 69.675781 C 73.554688 69.6875 73.546875 69.695312 73.535156 69.695312 C 73.527344 69.695312 73.515625 69.6875 73.503906 69.675781 Z M 75.097656 69.3125 C 75.109375 69.292969 75.128906 69.304688 75.136719 69.304688 C 75.128906 69.332031 75.128906 69.34375 75.117188 69.34375 C 75.117188 69.34375 75.109375 69.332031 75.097656 69.3125 Z M 74.765625 69.414062 C 74.765625 69.421875 74.746094 69.421875 74.734375 69.433594 L 74.722656 69.421875 L 74.722656 69.402344 C 74.746094 69.382812 74.753906 69.394531 74.765625 69.414062 Z M 72.75 74.402344 L 72.730469 74.421875 C 72.730469 74.414062 72.71875 74.402344 72.71875 74.394531 L 72.75 74.363281 Z M 74.675781 73.753906 C 74.675781 73.734375 74.695312 73.714844 74.714844 73.714844 C 74.714844 73.734375 74.695312 73.753906 74.675781 73.753906 Z M 73.457031 69.667969 C 73.46875 69.660156 73.476562 69.667969 73.503906 69.675781 L 73.496094 69.675781 C 73.488281 69.6875 73.476562 69.6875 73.457031 69.6875 Z M 74.449219 73.980469 C 74.449219 73.960938 74.46875 73.953125 74.488281 73.941406 C 74.488281 73.960938 74.46875 73.980469 74.449219 73.980469 Z M 73.8125 74.847656 C 73.832031 74.847656 73.839844 74.847656 73.839844 74.816406 L 73.8125 74.816406 Z M 75.234375 69.5 C 75.246094 69.480469 75.246094 69.472656 75.246094 69.472656 C 75.246094 69.460938 75.246094 69.472656 75.234375 69.472656 C 75.226562 69.472656 75.234375 69.5 75.234375 69.5 Z M 74.902344 73.570312 C 74.882812 73.570312 74.871094 73.589844 74.863281 73.609375 C 74.882812 73.597656 74.902344 73.589844 74.902344 73.570312 Z M 74.636719 73.792969 C 74.644531 73.773438 74.65625 73.753906 74.675781 73.753906 C 74.675781 73.773438 74.65625 73.785156 74.636719 73.792969 Z M 74.832031 73.636719 C 74.851562 73.636719 74.863281 73.628906 74.863281 73.609375 Z M 75.816406 69.148438 C 75.835938 69.117188 75.84375 69.117188 75.855469 69.148438 L 75.855469 69.136719 C 75.84375 69.15625 75.835938 69.148438 75.816406 69.148438 Z M 75.589844 69.019531 C 75.578125 69.007812 75.558594 69 75.550781 69.019531 C 75.558594 69.027344 75.578125 69.039062 75.589844 69.019531 Z M 75.234375 69.5 C 75.214844 69.492188 75.195312 69.472656 75.195312 69.5 C 75.207031 69.5 75.214844 69.519531 75.234375 69.5 Z M 74.539062 69.460938 C 74.546875 69.449219 74.558594 69.433594 74.566406 69.441406 C 74.566406 69.433594 74.566406 69.441406 74.578125 69.449219 L 74.566406 69.460938 C 74.558594 69.449219 74.546875 69.472656 74.539062 69.460938 Z M 74.941406 73.527344 C 74.921875 73.527344 74.910156 73.550781 74.902344 73.570312 C 74.921875 73.558594 74.929688 73.550781 74.941406 73.527344 Z M 73.566406 69.675781 C 73.566406 69.648438 73.585938 69.660156 73.59375 69.667969 C 73.585938 69.6875 73.574219 69.675781 73.566406 69.675781 Z M 73.398438 69.675781 C 73.386719 69.675781 73.398438 69.695312 73.398438 69.695312 L 73.378906 69.695312 C 73.378906 69.6875 73.378906 69.667969 73.386719 69.675781 Z M 75.882812 69.117188 C 75.875 69.136719 75.863281 69.148438 75.863281 69.148438 C 75.863281 69.117188 75.863281 69.117188 75.882812 69.117188 Z M 75.589844 69.019531 C 75.597656 69.019531 75.609375 69.027344 75.621094 69.027344 L 75.621094 69.019531 C 75.621094 69.019531 75.621094 69.007812 75.609375 69.007812 C 75.609375 69.007812 75.597656 69.007812 75.589844 69.019531 Z M 75.089844 69.363281 C 75.078125 69.324219 75.089844 69.332031 75.097656 69.324219 C 75.097656 69.351562 75.089844 69.363281 75.089844 69.363281 Z M 75.738281 68.960938 C 75.738281 68.96875 75.757812 68.988281 75.765625 68.96875 C 75.757812 68.960938 75.757812 68.960938 75.738281 68.960938 Z M 74.242188 74.199219 C 74.222656 74.179688 74.242188 74.179688 74.253906 74.179688 C 74.253906 74.1875 74.253906 74.1875 74.242188 74.199219 Z M 74.429688 74.011719 C 74.410156 73.992188 74.429688 73.992188 74.441406 73.992188 C 74.441406 74 74.441406 74 74.429688 74.011719 Z M 73.871094 74.796875 C 73.859375 74.796875 73.851562 74.789062 73.851562 74.789062 L 73.851562 74.804688 C 73.851562 74.796875 73.859375 74.796875 73.871094 74.796875 Z M 76.148438 69.136719 C 76.140625 69.128906 76.140625 69.117188 76.148438 69.128906 Z M 73.417969 69.667969 C 73.417969 69.6875 73.40625 69.6875 73.398438 69.6875 C 73.398438 69.675781 73.398438 69.667969 73.417969 69.667969 Z M 72.769531 74.335938 C 72.789062 74.355469 72.761719 74.355469 72.75 74.355469 C 72.761719 74.355469 72.761719 74.34375 72.769531 74.335938 Z M 74.683594 69.207031 C 74.683594 69.207031 74.675781 69.207031 74.667969 69.214844 L 74.695312 69.214844 C 74.683594 69.214844 74.683594 69.195312 74.683594 69.207031 Z M 74.851562 69.402344 C 74.851562 69.402344 74.84375 69.402344 74.832031 69.394531 C 74.84375 69.394531 74.851562 69.394531 74.851562 69.402344 Z M 75.609375 69.414062 C 75.609375 69.402344 75.597656 69.402344 75.589844 69.414062 L 75.578125 69.414062 C 75.589844 69.414062 75.589844 69.421875 75.589844 69.421875 Z M 75.285156 73.15625 C 75.265625 73.15625 75.273438 73.15625 75.273438 73.144531 L 75.285156 73.144531 Z M 74.8125 69.5 C 74.8125 69.5 74.804688 69.5 74.804688 69.492188 L 74.804688 69.511719 C 74.8125 69.519531 74.8125 69.511719 74.8125 69.5 Z M 75.011719 69.550781 C 75.011719 69.539062 75.011719 69.539062 75 69.539062 L 75.011719 69.558594 C 75.011719 69.558594 75.011719 69.550781 75.011719 69.550781 Z M 74.273438 74.148438 C 74.292969 74.167969 74.273438 74.167969 74.261719 74.167969 C 74.273438 74.160156 74.273438 74.160156 74.273438 74.148438 Z M 73.644531 69.707031 C 73.632812 69.707031 73.632812 69.707031 73.632812 69.726562 C 73.632812 69.726562 73.644531 69.726562 73.644531 69.707031 Z M 75.699219 68.988281 C 75.699219 68.988281 75.667969 68.96875 75.6875 69 Z M 73.851562 74.816406 L 73.839844 74.816406 L 73.839844 74.804688 Z M 75.292969 73.125 C 75.292969 73.136719 75.292969 73.144531 75.285156 73.144531 C 75.292969 73.144531 75.304688 73.144531 75.292969 73.125 Z M 75.265625 73.15625 C 75.253906 73.15625 75.246094 73.15625 75.265625 73.175781 Z M 75.089844 69.148438 L 75.089844 69.167969 Z M 75.5 69.234375 C 75.5 69.226562 75.511719 69.234375 75.511719 69.234375 Z M 74.832031 73.648438 L 74.824219 73.648438 L 74.824219 73.636719 Z M 73.851562 74.789062 C 73.839844 74.789062 73.839844 74.777344 73.839844 74.777344 Z M 75.863281 69.3125 C 75.863281 69.3125 75.875 69.3125 75.875 69.304688 C 75.875 69.304688 75.863281 69.285156 75.863281 69.3125 Z M 75.699219 68.988281 C 75.699219 68.980469 75.707031 69 75.699219 68.96875 Z M 74.378906 68.742188 L 74.371094 68.734375 Z M 74.785156 73.636719 C 74.792969 73.648438 74.785156 73.648438 74.785156 73.648438 Z M 74.910156 69.175781 C 74.910156 69.175781 74.921875 69.175781 74.921875 69.167969 Z M 74.175781 74.265625 L 74.164062 74.277344 Z M 74.824219 73.609375 L 74.832031 73.597656 Z M 73.8125 74.847656 L 73.8125 74.855469 Z M 74.527344 69.460938 C 74.527344 69.472656 74.539062 69.472656 74.539062 69.460938 Z M 74.527344 69.460938 "/>
<path style=" stroke:none;fill-rule:nonzero;fill:rgb(100%,34.117647%,34.117647%);fill-opacity:1;" d="M 76.53125 73.707031 C 76.542969 73.6875 76.523438 73.667969 76.503906 73.65625 L 76.503906 73.636719 C 76.503906 73.617188 76.503906 73.597656 76.523438 73.597656 C 76.523438 73.597656 76.53125 73.609375 76.542969 73.609375 C 76.570312 73.617188 76.609375 73.628906 76.609375 73.6875 L 76.609375 73.871094 C 76.609375 73.933594 76.640625 73.992188 76.652344 74.050781 C 76.660156 74.335938 76.835938 74.53125 77.042969 74.707031 C 77.050781 74.71875 77.082031 74.71875 77.09375 74.726562 C 77.113281 74.738281 77.132812 74.746094 77.152344 74.746094 C 77.277344 74.746094 77.671875 74.421875 77.761719 74.335938 C 77.800781 74.304688 77.78125 74.257812 77.808594 74.226562 C 77.839844 74.207031 77.878906 74.179688 77.90625 74.148438 C 77.917969 74.136719 77.917969 74.117188 77.90625 74.117188 L 77.878906 74.117188 C 77.703125 74.238281 77.535156 74.355469 77.347656 74.441406 C 77.289062 74.472656 77.230469 74.480469 77.171875 74.480469 C 77.140625 74.480469 77.113281 74.480469 77.082031 74.472656 C 76.996094 74.355469 76.953125 74.207031 76.953125 74.058594 C 76.953125 73.550781 77.210938 72.457031 77.417969 72.046875 C 77.484375 71.929688 77.496094 71.800781 77.476562 71.671875 C 77.425781 71.644531 77.378906 71.613281 77.328125 71.613281 C 77.296875 71.613281 77.269531 71.621094 77.238281 71.644531 C 77.230469 71.652344 77.210938 71.652344 77.199219 71.652344 C 77.179688 71.652344 77.171875 71.652344 77.152344 71.644531 C 77.015625 71.574219 76.875 71.574219 76.730469 71.574219 C 76.492188 71.582031 76.285156 71.644531 76.097656 71.800781 C 76.019531 71.867188 75.941406 71.957031 75.84375 71.996094 C 75.835938 72.007812 75.824219 72.015625 75.824219 72.027344 C 75.796875 72.085938 75.746094 72.144531 75.699219 72.164062 C 75.617188 72.203125 75.636719 72.292969 75.570312 72.339844 C 75.363281 72.527344 75.214844 72.832031 75.097656 73.085938 C 75.078125 73.105469 75.066406 73.125 75.058594 73.144531 C 74.882812 73.6875 74.792969 74.019531 74.792969 74.609375 C 74.792969 74.796875 74.863281 74.964844 75.007812 75.089844 L 75.078125 75.160156 C 75.109375 75.191406 75.144531 75.210938 75.195312 75.210938 C 75.246094 75.199219 75.304688 75.199219 75.355469 75.167969 C 75.5 75.101562 75.84375 74.875 75.921875 74.746094 C 75.941406 74.71875 76 74.707031 76.019531 74.667969 C 76.050781 74.609375 76.097656 74.5625 76.140625 74.511719 C 76.109375 74.433594 76.207031 74.394531 76.21875 74.335938 C 76.226562 74.277344 76.265625 74.214844 76.296875 74.167969 C 76.316406 74.109375 76.34375 74.058594 76.386719 74 C 76.40625 73.960938 76.433594 73.933594 76.425781 73.882812 C 76.492188 73.851562 76.511719 73.773438 76.53125 73.707031 Z M 75.214844 74.953125 C 75.207031 74.964844 75.1875 74.964844 75.167969 74.972656 C 75.144531 74.953125 75.128906 74.945312 75.128906 74.933594 C 75.109375 74.914062 75.109375 74.886719 75.109375 74.867188 C 75.109375 74.796875 75.109375 74.726562 75.078125 74.660156 C 75.066406 74.640625 75.066406 74.609375 75.078125 74.582031 C 75.117188 74.441406 75.117188 74.304688 75.136719 74.160156 C 75.15625 74.109375 75.167969 74.050781 75.175781 74 C 75.234375 73.824219 75.265625 73.636719 75.34375 73.472656 C 75.390625 73.363281 75.421875 73.253906 75.472656 73.15625 C 75.492188 73.117188 75.519531 73.085938 75.539062 73.046875 C 75.578125 72.960938 75.648438 72.890625 75.667969 72.800781 C 75.675781 72.792969 75.675781 72.773438 75.6875 72.761719 C 75.785156 72.695312 75.835938 72.585938 75.933594 72.507812 C 76.011719 72.4375 76.082031 72.339844 76.167969 72.273438 C 76.316406 72.164062 76.453125 72.054688 76.628906 71.988281 C 76.730469 71.945312 76.816406 71.886719 76.894531 71.808594 C 76.925781 71.789062 76.933594 71.78125 76.953125 71.78125 C 76.972656 71.78125 76.984375 71.789062 77.003906 71.808594 C 77.0625 71.859375 77.074219 71.886719 77.042969 71.957031 C 76.996094 72.074219 76.933594 72.191406 76.90625 72.320312 C 76.886719 72.457031 76.777344 72.792969 76.707031 72.917969 C 76.621094 73.117188 76.523438 73.3125 76.425781 73.519531 C 76.375 73.648438 76.285156 73.765625 76.207031 73.882812 C 76.148438 74 76.070312 74.109375 76.011719 74.226562 C 75.816406 74.542969 75.519531 74.757812 75.214844 74.953125 Z M 76.425781 73.773438 C 76.433594 73.765625 76.433594 73.753906 76.433594 73.746094 L 76.453125 73.765625 C 76.453125 73.773438 76.445312 73.785156 76.433594 73.792969 C 76.433594 73.785156 76.425781 73.785156 76.425781 73.773438 Z M 75.304688 72.839844 L 75.3125 72.839844 L 75.3125 72.851562 Z M 76.601562 73.449219 L 76.589844 73.449219 L 76.589844 73.441406 Z M 75.273438 72.910156 L 75.273438 72.917969 L 75.265625 72.917969 Z M 76.246094 74.097656 L 76.246094 74.078125 Z M 76.246094 74.097656 "/>
<path style=" stroke:none;fill-rule:nonzero;fill:rgb(100%,34.117647%,34.117647%);fill-opacity:1;" d="M 78.449219 72.871094 C 78.574219 72.960938 78.722656 73.027344 78.871094 73.105469 C 78.832031 73.144531 78.8125 73.164062 78.800781 73.195312 C 78.792969 73.246094 78.773438 73.292969 78.691406 73.304688 C 78.644531 73.304688 78.625 73.332031 78.59375 73.351562 C 78.59375 73.371094 78.574219 73.402344 78.566406 73.402344 C 78.546875 73.402344 78.527344 73.390625 78.515625 73.390625 C 78.457031 73.390625 78.4375 73.429688 78.417969 73.472656 C 78.429688 73.488281 78.417969 73.5 78.398438 73.5 C 78.3125 73.527344 78.261719 73.589844 78.210938 73.636719 C 78.171875 73.65625 78.144531 73.675781 78.125 73.695312 C 77.957031 73.765625 77.828125 73.851562 77.769531 74 C 77.703125 74.089844 77.683594 74.1875 77.601562 74.296875 C 77.574219 74.355469 77.582031 74.414062 77.59375 74.472656 C 77.640625 74.679688 77.730469 74.855469 77.886719 75.003906 C 77.976562 75.140625 78.152344 75.191406 78.300781 75.210938 C 78.398438 75.210938 78.507812 75.191406 78.574219 75.160156 C 78.722656 75.113281 78.871094 75.050781 78.957031 74.933594 C 78.980469 74.914062 79.007812 74.894531 79.046875 74.867188 C 79.253906 74.71875 79.324219 74.6875 79.421875 74.511719 C 79.449219 74.441406 79.5 74.382812 79.539062 74.335938 C 79.558594 74.304688 79.558594 74.277344 79.578125 74.238281 C 79.675781 74.089844 79.695312 73.921875 79.734375 73.746094 L 79.734375 73.695312 C 79.726562 73.570312 79.617188 73.429688 79.566406 73.3125 C 79.546875 73.234375 79.480469 73.175781 79.421875 73.125 C 79.382812 73.085938 79.390625 73.066406 79.421875 73.046875 C 79.441406 73.027344 79.441406 73.019531 79.46875 73.007812 C 79.65625 72.917969 80.5625 72.714844 80.757812 72.664062 C 80.804688 72.65625 80.855469 72.636719 80.894531 72.617188 C 80.925781 72.605469 80.925781 72.597656 80.925781 72.585938 C 80.90625 72.566406 80.875 72.546875 80.84375 72.546875 L 80.804688 72.546875 C 80.707031 72.605469 80.589844 72.605469 80.492188 72.644531 C 80.402344 72.683594 79.609375 72.851562 79.5 72.890625 C 79.449219 72.898438 79.410156 72.917969 79.363281 72.949219 C 79.324219 72.96875 79.28125 72.980469 79.246094 72.980469 C 79.195312 72.980469 79.144531 72.960938 79.097656 72.929688 C 78.988281 72.890625 78.839844 72.800781 78.753906 72.734375 C 78.644531 72.664062 78.625 72.574219 78.664062 72.496094 C 78.714844 72.429688 78.773438 72.359375 78.820312 72.273438 C 78.851562 72.183594 78.917969 72.125 79.039062 72.085938 C 79.097656 72.066406 79.164062 72.027344 79.203125 71.988281 C 79.324219 71.910156 79.421875 71.859375 79.558594 71.839844 C 79.726562 71.828125 79.832031 71.769531 79.953125 71.722656 C 80 71.710938 80.15625 71.683594 80.1875 71.683594 C 80.214844 71.683594 80.265625 71.683594 80.285156 71.671875 C 80.355469 71.652344 80.382812 71.632812 80.382812 71.59375 C 80.382812 71.542969 80.324219 71.515625 80.285156 71.496094 C 80.199219 71.464844 80.128906 71.4375 80.039062 71.4375 C 79.960938 71.4375 79.890625 71.425781 79.8125 71.417969 C 79.636719 71.386719 79.546875 71.367188 79.480469 71.367188 C 79.421875 71.367188 79.371094 71.386719 79.273438 71.40625 C 79.195312 71.425781 79.097656 71.476562 79.019531 71.503906 C 78.714844 71.644531 78.488281 71.847656 78.339844 72.113281 C 78.269531 72.203125 78.242188 72.339844 78.210938 72.449219 C 78.203125 72.476562 78.210938 72.507812 78.242188 72.535156 C 78.292969 72.597656 78.347656 72.65625 78.347656 72.742188 C 78.347656 72.792969 78.410156 72.832031 78.449219 72.871094 Z M 79.195312 73.332031 C 79.222656 73.363281 79.222656 73.390625 79.234375 73.421875 C 79.261719 73.617188 79.234375 73.792969 79.136719 73.960938 C 78.9375 74.304688 78.625 74.660156 78.25 74.804688 C 78.210938 74.816406 78.171875 74.835938 78.125 74.835938 C 78.105469 74.835938 78.085938 74.835938 78.066406 74.835938 C 78.027344 74.835938 77.984375 74.835938 77.925781 74.804688 C 77.878906 74.769531 77.878906 74.699219 77.828125 74.640625 C 77.828125 74.640625 77.828125 74.628906 77.820312 74.621094 C 77.878906 74.503906 77.828125 74.375 77.878906 74.238281 C 77.957031 74 78.171875 73.714844 78.410156 73.617188 C 78.429688 73.597656 78.457031 73.578125 78.507812 73.558594 C 78.613281 73.519531 78.703125 73.449219 78.800781 73.382812 C 78.859375 73.332031 78.96875 73.304688 79.039062 73.253906 C 79.046875 73.253906 79.058594 73.246094 79.066406 73.246094 C 79.117188 73.246094 79.175781 73.285156 79.195312 73.332031 Z M 78.761719 74.707031 C 78.753906 74.707031 78.734375 74.707031 78.753906 74.6875 C 78.753906 74.6875 78.714844 74.679688 78.722656 74.667969 C 78.761719 74.550781 78.859375 74.472656 78.957031 74.402344 C 78.980469 74.394531 78.9375 74.402344 78.980469 74.414062 C 78.980469 74.414062 79.007812 74.441406 78.988281 74.441406 C 78.917969 74.523438 78.851562 74.609375 78.761719 74.707031 Z M 79.105469 74.265625 C 79.085938 74.296875 79.078125 74.324219 79.039062 74.34375 L 79.007812 74.34375 L 79 74.335938 C 79.007812 74.304688 79.019531 74.265625 79.039062 74.214844 C 79.046875 74.199219 79.105469 74.179688 79.105469 74.199219 C 79.125 74.214844 79.125 74.226562 79.105469 74.265625 Z M 78.4375 74.914062 C 78.429688 74.914062 78.417969 74.914062 78.410156 74.90625 C 78.410156 74.855469 78.449219 74.835938 78.527344 74.835938 C 78.535156 74.90625 78.535156 74.90625 78.4375 74.914062 Z M 79.195312 74.117188 C 79.183594 74.128906 79.175781 74.136719 79.164062 74.136719 C 79.15625 74.136719 79.15625 74.128906 79.136719 74.128906 C 79.15625 74.117188 79.164062 74.097656 79.164062 74.089844 L 79.183594 74.089844 C 79.195312 74.097656 79.195312 74.117188 79.195312 74.117188 Z M 78.320312 74.933594 C 78.328125 74.925781 78.328125 74.914062 78.328125 74.914062 L 78.398438 74.914062 C 78.398438 74.925781 78.398438 74.933594 78.378906 74.933594 Z M 78.675781 74.699219 L 78.683594 74.707031 L 78.675781 74.707031 Z M 78.457031 75.042969 L 78.449219 75.042969 L 78.449219 75.03125 Z M 78.457031 75.042969 "/>
<path style=" stroke:none;fill-rule:nonzero;fill:rgb(100%,100%,100%);fill-opacity:1;" d="M 27.078125 68.414062 L 31.890625 68.414062 L 31.890625 71.21875 L 22.507812 71.21875 L 22.492188 68.917969 L 26.816406 64.453125 C 27.128906 64.140625 27.378906 63.828125 27.566406 63.511719 C 27.757812 63.191406 27.855469 62.921875 27.855469 62.6875 C 27.855469 62.410156 27.757812 62.199219 27.566406 62.054688 C 27.378906 61.910156 27.109375 61.839844 26.765625 61.839844 C 26.289062 61.839844 25.765625 61.976562 25.179688 62.246094 C 24.597656 62.515625 24.015625 62.894531 23.425781 63.378906 L 22.078125 60.785156 C 23.875 59.550781 25.617188 58.929688 27.300781 58.929688 C 28.132812 58.929688 28.871094 59.066406 29.523438 59.339844 C 30.175781 59.613281 30.6875 59.988281 31.0625 60.472656 C 31.4375 60.957031 31.625 61.515625 31.625 62.152344 C 31.625 62.785156 31.421875 63.433594 31.015625 64.097656 C 30.605469 64.761719 30.019531 65.472656 29.253906 66.234375 Z M 27.078125 68.414062 "/>
</g>
</svg>
